M48
; DRILL file {KiCad 7.0.6} date Вс 03 сен 2023 13:45:14
; FORMAT={-:-/ absolute / metric / decimal}
; #@! TF.CreationDate,2023-09-03T13:45:14+00:00
; #@! TF.GenerationSoftware,Kicad,Pcbnew,7.0.6
; #@! TF.FileFunction,Plated,1,2,PTH
FMAT,2
METRIC
; #@! TA.AperFunction,Plated,PTH,ViaDrill
T1C0.400
; #@! TA.AperFunction,Plated,PTH,ComponentDrill
T2C0.500
; #@! TA.AperFunction,Plated,PTH,ComponentDrill
T3C0.600
; #@! TA.AperFunction,Plated,PTH,ComponentDrill
T4C0.800
; #@! TA.AperFunction,Plated,PTH,ComponentDrill
T5C1.000
; #@! TA.AperFunction,Plated,PTH,ComponentDrill
T6C1.118
; #@! TA.AperFunction,Plated,PTH,ComponentDrill
T7C1.500
; #@! TA.AperFunction,Plated,PTH,ComponentDrill
T8C1.700
%
G90
G05
T1
X127.01Y-78.335
X127.015Y-102.865
X127.035Y-76.435
X127.04Y-84.82
X127.04Y-98.49
X127.05Y-80.4
X127.06Y-119.41
X127.06Y-121.69
X127.065Y-87.165
X127.07Y-82.8
X127.07Y-116.85
X127.072Y-114.158
X128.83Y-76.43
X128.86Y-121.75
X131.29Y-76.43
X131.32Y-121.75
X133.85Y-76.43
X133.88Y-121.75
X135.1Y-90.225
X135.2Y-111.9
X136.83Y-76.43
X136.86Y-121.75
X137.85Y-90.225
X137.95Y-111.9
X139.75Y-76.43
X139.78Y-121.75
X141.34Y-111.275
X142.2Y-76.43
X142.23Y-121.75
X144.85Y-76.43
X144.88Y-121.75
X147.28Y-76.43
X147.31Y-121.75
X149.77Y-76.43
X149.8Y-121.75
X151.36Y-88.13
X151.36Y-89.2
X152.13Y-76.43
X152.16Y-121.75
X154.54Y-76.43
X154.57Y-121.75
X156.89Y-76.43
X156.92Y-121.75
X157.705Y-107.595
X157.74Y-103.73
X159.28Y-89.19
X159.29Y-88.1
X159.375Y-76.425
X159.405Y-121.745
X161.315Y-101.775
X161.41Y-107.56
X161.83Y-76.38
X161.86Y-121.7
X163.758Y-93.112
X164.29Y-76.38
X164.32Y-121.7
X165.4Y-101.7
X165.55Y-98.77
X165.993Y-93.114
X166.51Y-107.54
X166.85Y-76.38
X166.88Y-121.7
X167.91Y-99.96
X168.033Y-105.173
X169.83Y-76.38
X169.86Y-121.7
X170.35Y-101.72
X170.377Y-104.293
X172.455Y-88.975
X172.75Y-76.38
X172.78Y-121.7
X174.459Y-97.781
X175.2Y-76.38
X175.23Y-121.7
X175.729Y-98.56
X176.999Y-88.122
X177.85Y-76.38
X177.88Y-121.7
X179.35Y-97.07
X180.28Y-76.38
X180.31Y-121.7
X182.77Y-76.38
X182.8Y-121.7
X185.13Y-76.38
X185.16Y-121.7
X187.54Y-76.38
X187.57Y-121.7
X188.19Y-80.74
X189.89Y-76.38
X189.92Y-121.7
X190.4Y-80.74
X192.455Y-76.425
X192.485Y-121.745
X192.79Y-80.74
X194.91Y-76.38
X194.94Y-121.7
X195.45Y-80.74
X197.37Y-76.38
X197.4Y-121.7
X199.93Y-76.38
X199.96Y-121.7
X202.91Y-76.38
X202.94Y-121.7
X205.83Y-76.38
X205.86Y-121.7
X208.28Y-76.38
X208.31Y-121.7
X210.86Y-100.66
X210.87Y-83.15
X210.87Y-85.6
X210.87Y-88.25
X210.88Y-93.38
X210.88Y-95.79
X210.88Y-98.14
X210.88Y-103.16
X210.88Y-105.62
X210.88Y-108.18
X210.91Y-80.73
X210.93Y-76.38
X210.95Y-90.77
X210.96Y-78.21
X210.96Y-121.7
X211.01Y-111.16
X211.01Y-114.08
X211.01Y-116.53
X211.01Y-119.18
T2
X145.59Y-109.015
X147.49Y-109.015
T3
X157.763Y-116.61
X157.93Y-109.64
X159.763Y-116.61
X159.93Y-109.64
X179.279Y-110.34
X179.419Y-115.66
X181.279Y-110.34
X181.419Y-115.66
X185.31Y-101.938
X185.31Y-103.938
T4
X135.19Y-84.945
X135.19Y-92.565
X135.27Y-107.19
X135.27Y-114.81
X135.54Y-95.79
X135.54Y-98.48
X135.75Y-101.125
X137.715Y-84.945
X137.715Y-92.565
X137.82Y-107.19
X137.82Y-114.81
X140.54Y-98.48
X140.62Y-95.79
X140.75Y-101.125
X141.16Y-103.57
X144.89Y-95.68
X146.89Y-95.68
X150.78Y-95.66
X151.46Y-80.15
X151.46Y-82.15
X152.78Y-95.66
X152.83Y-116.74
X152.84Y-107.14
X152.84Y-109.64
X153.86Y-103.57
X155.33Y-116.74
X155.34Y-107.14
X155.34Y-109.64
X157.51Y-94.66
X157.51Y-96.66
X174.05Y-104.407
X174.05Y-106.947
X174.05Y-109.487
X174.13Y-111.927
X174.13Y-114.468
X174.13Y-117.007
X179.98Y-101.858
X179.98Y-104.397
X179.98Y-106.938
X184.485Y-87.58
X184.485Y-90.12
X184.485Y-92.66
X184.485Y-95.2
X192.105Y-87.58
X192.105Y-90.12
X192.105Y-92.66
X192.105Y-95.2
X199.11Y-97.72
X199.11Y-101.52
X199.37Y-84.77
X199.43Y-79.34
X201.37Y-84.77
X201.43Y-79.34
X207.66Y-97.76
X207.66Y-101.56
X208.82Y-107.825
X208.82Y-109.825
T5
X128.36Y-100.77
X132.36Y-100.77
X157.76Y-81.41
X160.3Y-81.41
X162.84Y-81.41
X163.29Y-109.665
X163.29Y-112.205
X163.29Y-114.745
X165.38Y-81.41
X167.36Y-109.55
X167.36Y-112.09
X167.36Y-114.63
X167.92Y-81.41
X170.46Y-81.41
X173.0Y-81.41
X175.54Y-81.41
X178.08Y-81.41
X180.62Y-81.41
X183.16Y-81.41
X185.7Y-81.41
X202.525Y-92.83
X202.56Y-88.755
X205.065Y-92.83
X205.1Y-88.755
X207.605Y-92.83
X207.64Y-88.755
T6
X184.669Y-110.34
X184.669Y-117.96
X187.209Y-110.34
X187.209Y-117.96
X189.749Y-110.34
X189.749Y-117.96
X192.289Y-110.34
X192.289Y-117.96
X194.829Y-110.34
X194.829Y-117.96
X197.369Y-110.34
X197.369Y-117.96
X199.909Y-110.34
X199.909Y-117.96
X202.449Y-110.34
X202.449Y-117.96
X204.989Y-110.34
X204.989Y-117.96
T7
X129.655Y-108.305
X129.68Y-93.08
T8
X127.115Y-105.765
X127.115Y-110.845
X127.14Y-90.54
X127.14Y-95.62
X132.195Y-105.765
X132.195Y-110.845
X132.22Y-90.54
X132.22Y-95.62
X143.977Y-116.673
X148.977Y-116.673
T0
M30
