%TF.GenerationSoftware,KiCad,Pcbnew,7.0.6*%
%TF.CreationDate,2023-09-03T13:44:33+00:00*%
%TF.ProjectId,SI4735,53493437-3335-42e6-9b69-6361645f7063,rev?*%
%TF.SameCoordinates,Original*%
%TF.FileFunction,Legend,Bot*%
%TF.FilePolarity,Positive*%
%FSLAX45Y45*%
G04 Gerber Fmt 4.5, Leading zero omitted, Abs format (unit mm)*
G04 Created by KiCad (PCBNEW 7.0.6) date 2023-09-03 13:44:33*
%MOMM*%
%LPD*%
G01*
G04 APERTURE LIST*
%ADD10C,0.466971*%
%ADD11C,0.120000*%
%ADD12C,0.150000*%
%TA.AperFunction,Profile*%
%ADD13C,0.050000*%
%TD*%
%TA.AperFunction,Profile*%
%ADD14C,1.535132*%
%TD*%
%TA.AperFunction,Profile*%
%ADD15C,1.516643*%
%TD*%
%TA.AperFunction,Profile*%
%ADD16C,0.100000*%
%TD*%
G04 APERTURE END LIST*
D10*
X14407348Y-10739000D02*
G75*
G03*
X14407348Y-10739000I-23349J0D01*
G01*
D11*
X14319000Y-10676500D02*
X14454000Y-10676500D01*
X14454000Y-10804000D01*
X14319000Y-10804000D01*
X14319000Y-10676500D01*
D12*
X15009458Y-11119214D02*
X15014220Y-11114452D01*
X15014220Y-11114452D02*
X15018982Y-11100167D01*
X15018982Y-11100167D02*
X15018982Y-11090643D01*
X15018982Y-11090643D02*
X15014220Y-11076357D01*
X15014220Y-11076357D02*
X15004696Y-11066833D01*
X15004696Y-11066833D02*
X14995172Y-11062071D01*
X14995172Y-11062071D02*
X14976125Y-11057310D01*
X14976125Y-11057310D02*
X14961839Y-11057310D01*
X14961839Y-11057310D02*
X14942791Y-11062071D01*
X14942791Y-11062071D02*
X14933268Y-11066833D01*
X14933268Y-11066833D02*
X14923744Y-11076357D01*
X14923744Y-11076357D02*
X14918982Y-11090643D01*
X14918982Y-11090643D02*
X14918982Y-11100167D01*
X14918982Y-11100167D02*
X14923744Y-11114452D01*
X14923744Y-11114452D02*
X14928506Y-11119214D01*
X14928506Y-11157310D02*
X14923744Y-11162071D01*
X14923744Y-11162071D02*
X14918982Y-11171595D01*
X14918982Y-11171595D02*
X14918982Y-11195405D01*
X14918982Y-11195405D02*
X14923744Y-11204928D01*
X14923744Y-11204928D02*
X14928506Y-11209690D01*
X14928506Y-11209690D02*
X14938029Y-11214452D01*
X14938029Y-11214452D02*
X14947553Y-11214452D01*
X14947553Y-11214452D02*
X14961839Y-11209690D01*
X14961839Y-11209690D02*
X15018982Y-11152548D01*
X15018982Y-11152548D02*
X15018982Y-11214452D01*
X14918982Y-11247786D02*
X14918982Y-11309690D01*
X14918982Y-11309690D02*
X14957077Y-11276357D01*
X14957077Y-11276357D02*
X14957077Y-11290643D01*
X14957077Y-11290643D02*
X14961839Y-11300167D01*
X14961839Y-11300167D02*
X14966601Y-11304928D01*
X14966601Y-11304928D02*
X14976125Y-11309690D01*
X14976125Y-11309690D02*
X14999934Y-11309690D01*
X14999934Y-11309690D02*
X15009458Y-11304928D01*
X15009458Y-11304928D02*
X15014220Y-11300167D01*
X15014220Y-11300167D02*
X15018982Y-11290643D01*
X15018982Y-11290643D02*
X15018982Y-11262071D01*
X15018982Y-11262071D02*
X15014220Y-11252548D01*
X15014220Y-11252548D02*
X15009458Y-11247786D01*
X14391958Y-11124214D02*
X14396720Y-11119452D01*
X14396720Y-11119452D02*
X14401482Y-11105167D01*
X14401482Y-11105167D02*
X14401482Y-11095643D01*
X14401482Y-11095643D02*
X14396720Y-11081357D01*
X14396720Y-11081357D02*
X14387196Y-11071833D01*
X14387196Y-11071833D02*
X14377672Y-11067071D01*
X14377672Y-11067071D02*
X14358625Y-11062310D01*
X14358625Y-11062310D02*
X14344339Y-11062310D01*
X14344339Y-11062310D02*
X14325291Y-11067071D01*
X14325291Y-11067071D02*
X14315768Y-11071833D01*
X14315768Y-11071833D02*
X14306244Y-11081357D01*
X14306244Y-11081357D02*
X14301482Y-11095643D01*
X14301482Y-11095643D02*
X14301482Y-11105167D01*
X14301482Y-11105167D02*
X14306244Y-11119452D01*
X14306244Y-11119452D02*
X14311006Y-11124214D01*
X14311006Y-11162310D02*
X14306244Y-11167071D01*
X14306244Y-11167071D02*
X14301482Y-11176595D01*
X14301482Y-11176595D02*
X14301482Y-11200405D01*
X14301482Y-11200405D02*
X14306244Y-11209928D01*
X14306244Y-11209928D02*
X14311006Y-11214690D01*
X14311006Y-11214690D02*
X14320529Y-11219452D01*
X14320529Y-11219452D02*
X14330053Y-11219452D01*
X14330053Y-11219452D02*
X14344339Y-11214690D01*
X14344339Y-11214690D02*
X14401482Y-11157548D01*
X14401482Y-11157548D02*
X14401482Y-11219452D01*
X14334815Y-11305167D02*
X14401482Y-11305167D01*
X14296720Y-11281357D02*
X14368148Y-11257548D01*
X14368148Y-11257548D02*
X14368148Y-11319452D01*
X15782786Y-11251482D02*
X15816119Y-11203863D01*
X15839928Y-11251482D02*
X15839928Y-11151482D01*
X15839928Y-11151482D02*
X15801833Y-11151482D01*
X15801833Y-11151482D02*
X15792309Y-11156244D01*
X15792309Y-11156244D02*
X15787548Y-11161006D01*
X15787548Y-11161006D02*
X15782786Y-11170530D01*
X15782786Y-11170530D02*
X15782786Y-11184815D01*
X15782786Y-11184815D02*
X15787548Y-11194339D01*
X15787548Y-11194339D02*
X15792309Y-11199101D01*
X15792309Y-11199101D02*
X15801833Y-11203863D01*
X15801833Y-11203863D02*
X15839928Y-11203863D01*
X15687548Y-11251482D02*
X15744690Y-11251482D01*
X15716119Y-11251482D02*
X15716119Y-11151482D01*
X15716119Y-11151482D02*
X15725643Y-11165768D01*
X15725643Y-11165768D02*
X15735167Y-11175291D01*
X15735167Y-11175291D02*
X15744690Y-11180053D01*
X15639928Y-11251482D02*
X15620881Y-11251482D01*
X15620881Y-11251482D02*
X15611357Y-11246720D01*
X15611357Y-11246720D02*
X15606595Y-11241958D01*
X15606595Y-11241958D02*
X15597071Y-11227672D01*
X15597071Y-11227672D02*
X15592309Y-11208625D01*
X15592309Y-11208625D02*
X15592309Y-11170530D01*
X15592309Y-11170530D02*
X15597071Y-11161006D01*
X15597071Y-11161006D02*
X15601833Y-11156244D01*
X15601833Y-11156244D02*
X15611357Y-11151482D01*
X15611357Y-11151482D02*
X15630405Y-11151482D01*
X15630405Y-11151482D02*
X15639928Y-11156244D01*
X15639928Y-11156244D02*
X15644690Y-11161006D01*
X15644690Y-11161006D02*
X15649452Y-11170530D01*
X15649452Y-11170530D02*
X15649452Y-11194339D01*
X15649452Y-11194339D02*
X15644690Y-11203863D01*
X15644690Y-11203863D02*
X15639928Y-11208625D01*
X15639928Y-11208625D02*
X15630405Y-11213387D01*
X15630405Y-11213387D02*
X15611357Y-11213387D01*
X15611357Y-11213387D02*
X15601833Y-11208625D01*
X15601833Y-11208625D02*
X15597071Y-11203863D01*
X15597071Y-11203863D02*
X15592309Y-11194339D01*
X15772786Y-11473982D02*
X15806119Y-11426363D01*
X15829928Y-11473982D02*
X15829928Y-11373982D01*
X15829928Y-11373982D02*
X15791833Y-11373982D01*
X15791833Y-11373982D02*
X15782309Y-11378744D01*
X15782309Y-11378744D02*
X15777548Y-11383506D01*
X15777548Y-11383506D02*
X15772786Y-11393029D01*
X15772786Y-11393029D02*
X15772786Y-11407315D01*
X15772786Y-11407315D02*
X15777548Y-11416839D01*
X15777548Y-11416839D02*
X15782309Y-11421601D01*
X15782309Y-11421601D02*
X15791833Y-11426363D01*
X15791833Y-11426363D02*
X15829928Y-11426363D01*
X15734690Y-11383506D02*
X15729928Y-11378744D01*
X15729928Y-11378744D02*
X15720405Y-11373982D01*
X15720405Y-11373982D02*
X15696595Y-11373982D01*
X15696595Y-11373982D02*
X15687071Y-11378744D01*
X15687071Y-11378744D02*
X15682309Y-11383506D01*
X15682309Y-11383506D02*
X15677548Y-11393029D01*
X15677548Y-11393029D02*
X15677548Y-11402553D01*
X15677548Y-11402553D02*
X15682309Y-11416839D01*
X15682309Y-11416839D02*
X15739452Y-11473982D01*
X15739452Y-11473982D02*
X15677548Y-11473982D01*
X15582309Y-11473982D02*
X15639452Y-11473982D01*
X15610881Y-11473982D02*
X15610881Y-11373982D01*
X15610881Y-11373982D02*
X15620405Y-11388268D01*
X15620405Y-11388268D02*
X15629928Y-11397791D01*
X15629928Y-11397791D02*
X15639452Y-11402553D01*
X15010190Y-10754482D02*
X15010190Y-10835434D01*
X15010190Y-10835434D02*
X15005428Y-10844958D01*
X15005428Y-10844958D02*
X15000667Y-10849720D01*
X15000667Y-10849720D02*
X14991143Y-10854482D01*
X14991143Y-10854482D02*
X14972095Y-10854482D01*
X14972095Y-10854482D02*
X14962571Y-10849720D01*
X14962571Y-10849720D02*
X14957809Y-10844958D01*
X14957809Y-10844958D02*
X14953048Y-10835434D01*
X14953048Y-10835434D02*
X14953048Y-10754482D01*
X14862571Y-10754482D02*
X14881619Y-10754482D01*
X14881619Y-10754482D02*
X14891143Y-10759244D01*
X14891143Y-10759244D02*
X14895905Y-10764006D01*
X14895905Y-10764006D02*
X14905428Y-10778291D01*
X14905428Y-10778291D02*
X14910190Y-10797339D01*
X14910190Y-10797339D02*
X14910190Y-10835434D01*
X14910190Y-10835434D02*
X14905428Y-10844958D01*
X14905428Y-10844958D02*
X14900667Y-10849720D01*
X14900667Y-10849720D02*
X14891143Y-10854482D01*
X14891143Y-10854482D02*
X14872095Y-10854482D01*
X14872095Y-10854482D02*
X14862571Y-10849720D01*
X14862571Y-10849720D02*
X14857809Y-10844958D01*
X14857809Y-10844958D02*
X14853048Y-10835434D01*
X14853048Y-10835434D02*
X14853048Y-10811625D01*
X14853048Y-10811625D02*
X14857809Y-10802101D01*
X14857809Y-10802101D02*
X14862571Y-10797339D01*
X14862571Y-10797339D02*
X14872095Y-10792577D01*
X14872095Y-10792577D02*
X14891143Y-10792577D01*
X14891143Y-10792577D02*
X14900667Y-10797339D01*
X14900667Y-10797339D02*
X14905428Y-10802101D01*
X14905428Y-10802101D02*
X14910190Y-10811625D01*
X16521982Y-8492214D02*
X16474363Y-8458881D01*
X16521982Y-8435071D02*
X16421982Y-8435071D01*
X16421982Y-8435071D02*
X16421982Y-8473167D01*
X16421982Y-8473167D02*
X16426744Y-8482690D01*
X16426744Y-8482690D02*
X16431506Y-8487452D01*
X16431506Y-8487452D02*
X16441029Y-8492214D01*
X16441029Y-8492214D02*
X16455315Y-8492214D01*
X16455315Y-8492214D02*
X16464839Y-8487452D01*
X16464839Y-8487452D02*
X16469601Y-8482690D01*
X16469601Y-8482690D02*
X16474363Y-8473167D01*
X16474363Y-8473167D02*
X16474363Y-8435071D01*
X16521982Y-8587452D02*
X16521982Y-8530310D01*
X16521982Y-8558881D02*
X16421982Y-8558881D01*
X16421982Y-8558881D02*
X16436268Y-8549357D01*
X16436268Y-8549357D02*
X16445791Y-8539833D01*
X16445791Y-8539833D02*
X16450553Y-8530310D01*
X16421982Y-8649357D02*
X16421982Y-8658881D01*
X16421982Y-8658881D02*
X16426744Y-8668405D01*
X16426744Y-8668405D02*
X16431506Y-8673167D01*
X16431506Y-8673167D02*
X16441029Y-8677929D01*
X16441029Y-8677929D02*
X16460077Y-8682690D01*
X16460077Y-8682690D02*
X16483887Y-8682690D01*
X16483887Y-8682690D02*
X16502934Y-8677929D01*
X16502934Y-8677929D02*
X16512458Y-8673167D01*
X16512458Y-8673167D02*
X16517220Y-8668405D01*
X16517220Y-8668405D02*
X16521982Y-8658881D01*
X16521982Y-8658881D02*
X16521982Y-8649357D01*
X16521982Y-8649357D02*
X16517220Y-8639833D01*
X16517220Y-8639833D02*
X16512458Y-8635071D01*
X16512458Y-8635071D02*
X16502934Y-8630310D01*
X16502934Y-8630310D02*
X16483887Y-8625548D01*
X16483887Y-8625548D02*
X16460077Y-8625548D01*
X16460077Y-8625548D02*
X16441029Y-8630310D01*
X16441029Y-8630310D02*
X16431506Y-8635071D01*
X16431506Y-8635071D02*
X16426744Y-8639833D01*
X16426744Y-8639833D02*
X16421982Y-8649357D01*
X14179482Y-11162214D02*
X14131863Y-11128881D01*
X14179482Y-11105071D02*
X14079482Y-11105071D01*
X14079482Y-11105071D02*
X14079482Y-11143167D01*
X14079482Y-11143167D02*
X14084244Y-11152690D01*
X14084244Y-11152690D02*
X14089006Y-11157452D01*
X14089006Y-11157452D02*
X14098529Y-11162214D01*
X14098529Y-11162214D02*
X14112815Y-11162214D01*
X14112815Y-11162214D02*
X14122339Y-11157452D01*
X14122339Y-11157452D02*
X14127101Y-11152690D01*
X14127101Y-11152690D02*
X14131863Y-11143167D01*
X14131863Y-11143167D02*
X14131863Y-11105071D01*
X14179482Y-11257452D02*
X14179482Y-11200309D01*
X14179482Y-11228881D02*
X14079482Y-11228881D01*
X14079482Y-11228881D02*
X14093768Y-11219357D01*
X14093768Y-11219357D02*
X14103291Y-11209833D01*
X14103291Y-11209833D02*
X14108053Y-11200309D01*
X14079482Y-11290786D02*
X14079482Y-11357452D01*
X14079482Y-11357452D02*
X14179482Y-11314595D01*
X18830786Y-10731982D02*
X18864119Y-10684363D01*
X18887929Y-10731982D02*
X18887929Y-10631982D01*
X18887929Y-10631982D02*
X18849833Y-10631982D01*
X18849833Y-10631982D02*
X18840310Y-10636744D01*
X18840310Y-10636744D02*
X18835548Y-10641506D01*
X18835548Y-10641506D02*
X18830786Y-10651030D01*
X18830786Y-10651030D02*
X18830786Y-10665315D01*
X18830786Y-10665315D02*
X18835548Y-10674839D01*
X18835548Y-10674839D02*
X18840310Y-10679601D01*
X18840310Y-10679601D02*
X18849833Y-10684363D01*
X18849833Y-10684363D02*
X18887929Y-10684363D01*
X18735548Y-10731982D02*
X18792690Y-10731982D01*
X18764119Y-10731982D02*
X18764119Y-10631982D01*
X18764119Y-10631982D02*
X18773643Y-10646268D01*
X18773643Y-10646268D02*
X18783167Y-10655791D01*
X18783167Y-10655791D02*
X18792690Y-10660553D01*
X18645071Y-10631982D02*
X18692690Y-10631982D01*
X18692690Y-10631982D02*
X18697452Y-10679601D01*
X18697452Y-10679601D02*
X18692690Y-10674839D01*
X18692690Y-10674839D02*
X18683167Y-10670077D01*
X18683167Y-10670077D02*
X18659357Y-10670077D01*
X18659357Y-10670077D02*
X18649833Y-10674839D01*
X18649833Y-10674839D02*
X18645071Y-10679601D01*
X18645071Y-10679601D02*
X18640310Y-10689125D01*
X18640310Y-10689125D02*
X18640310Y-10712934D01*
X18640310Y-10712934D02*
X18645071Y-10722458D01*
X18645071Y-10722458D02*
X18649833Y-10727220D01*
X18649833Y-10727220D02*
X18659357Y-10731982D01*
X18659357Y-10731982D02*
X18683167Y-10731982D01*
X18683167Y-10731982D02*
X18692690Y-10727220D01*
X18692690Y-10727220D02*
X18697452Y-10722458D01*
X17748286Y-11916982D02*
X17781619Y-11869363D01*
X17805429Y-11916982D02*
X17805429Y-11816982D01*
X17805429Y-11816982D02*
X17767333Y-11816982D01*
X17767333Y-11816982D02*
X17757810Y-11821744D01*
X17757810Y-11821744D02*
X17753048Y-11826506D01*
X17753048Y-11826506D02*
X17748286Y-11836029D01*
X17748286Y-11836029D02*
X17748286Y-11850315D01*
X17748286Y-11850315D02*
X17753048Y-11859839D01*
X17753048Y-11859839D02*
X17757810Y-11864601D01*
X17757810Y-11864601D02*
X17767333Y-11869363D01*
X17767333Y-11869363D02*
X17805429Y-11869363D01*
X17710190Y-11826506D02*
X17705429Y-11821744D01*
X17705429Y-11821744D02*
X17695905Y-11816982D01*
X17695905Y-11816982D02*
X17672095Y-11816982D01*
X17672095Y-11816982D02*
X17662571Y-11821744D01*
X17662571Y-11821744D02*
X17657810Y-11826506D01*
X17657810Y-11826506D02*
X17653048Y-11836029D01*
X17653048Y-11836029D02*
X17653048Y-11845553D01*
X17653048Y-11845553D02*
X17657810Y-11859839D01*
X17657810Y-11859839D02*
X17714952Y-11916982D01*
X17714952Y-11916982D02*
X17653048Y-11916982D01*
X17614952Y-11826506D02*
X17610190Y-11821744D01*
X17610190Y-11821744D02*
X17600667Y-11816982D01*
X17600667Y-11816982D02*
X17576857Y-11816982D01*
X17576857Y-11816982D02*
X17567333Y-11821744D01*
X17567333Y-11821744D02*
X17562571Y-11826506D01*
X17562571Y-11826506D02*
X17557810Y-11836029D01*
X17557810Y-11836029D02*
X17557810Y-11845553D01*
X17557810Y-11845553D02*
X17562571Y-11859839D01*
X17562571Y-11859839D02*
X17619714Y-11916982D01*
X17619714Y-11916982D02*
X17557810Y-11916982D01*
X17976982Y-8409714D02*
X17929363Y-8376381D01*
X17976982Y-8352571D02*
X17876982Y-8352571D01*
X17876982Y-8352571D02*
X17876982Y-8390667D01*
X17876982Y-8390667D02*
X17881744Y-8400190D01*
X17881744Y-8400190D02*
X17886506Y-8404952D01*
X17886506Y-8404952D02*
X17896030Y-8409714D01*
X17896030Y-8409714D02*
X17910315Y-8409714D01*
X17910315Y-8409714D02*
X17919839Y-8404952D01*
X17919839Y-8404952D02*
X17924601Y-8400190D01*
X17924601Y-8400190D02*
X17929363Y-8390667D01*
X17929363Y-8390667D02*
X17929363Y-8352571D01*
X17976982Y-8504952D02*
X17976982Y-8447810D01*
X17976982Y-8476381D02*
X17876982Y-8476381D01*
X17876982Y-8476381D02*
X17891268Y-8466857D01*
X17891268Y-8466857D02*
X17900791Y-8457333D01*
X17900791Y-8457333D02*
X17905553Y-8447810D01*
X17876982Y-8538286D02*
X17876982Y-8600190D01*
X17876982Y-8600190D02*
X17915077Y-8566857D01*
X17915077Y-8566857D02*
X17915077Y-8581143D01*
X17915077Y-8581143D02*
X17919839Y-8590667D01*
X17919839Y-8590667D02*
X17924601Y-8595429D01*
X17924601Y-8595429D02*
X17934125Y-8600190D01*
X17934125Y-8600190D02*
X17957934Y-8600190D01*
X17957934Y-8600190D02*
X17967458Y-8595429D01*
X17967458Y-8595429D02*
X17972220Y-8590667D01*
X17972220Y-8590667D02*
X17976982Y-8581143D01*
X17976982Y-8581143D02*
X17976982Y-8552571D01*
X17976982Y-8552571D02*
X17972220Y-8543048D01*
X17972220Y-8543048D02*
X17967458Y-8538286D01*
X17755786Y-10841982D02*
X17789119Y-10794363D01*
X17812929Y-10841982D02*
X17812929Y-10741982D01*
X17812929Y-10741982D02*
X17774833Y-10741982D01*
X17774833Y-10741982D02*
X17765310Y-10746744D01*
X17765310Y-10746744D02*
X17760548Y-10751506D01*
X17760548Y-10751506D02*
X17755786Y-10761030D01*
X17755786Y-10761030D02*
X17755786Y-10775315D01*
X17755786Y-10775315D02*
X17760548Y-10784839D01*
X17760548Y-10784839D02*
X17765310Y-10789601D01*
X17765310Y-10789601D02*
X17774833Y-10794363D01*
X17774833Y-10794363D02*
X17812929Y-10794363D01*
X17660548Y-10841982D02*
X17717690Y-10841982D01*
X17689119Y-10841982D02*
X17689119Y-10741982D01*
X17689119Y-10741982D02*
X17698643Y-10756268D01*
X17698643Y-10756268D02*
X17708167Y-10765791D01*
X17708167Y-10765791D02*
X17717690Y-10770553D01*
X17603405Y-10784839D02*
X17612929Y-10780077D01*
X17612929Y-10780077D02*
X17617690Y-10775315D01*
X17617690Y-10775315D02*
X17622452Y-10765791D01*
X17622452Y-10765791D02*
X17622452Y-10761030D01*
X17622452Y-10761030D02*
X17617690Y-10751506D01*
X17617690Y-10751506D02*
X17612929Y-10746744D01*
X17612929Y-10746744D02*
X17603405Y-10741982D01*
X17603405Y-10741982D02*
X17584357Y-10741982D01*
X17584357Y-10741982D02*
X17574833Y-10746744D01*
X17574833Y-10746744D02*
X17570071Y-10751506D01*
X17570071Y-10751506D02*
X17565310Y-10761030D01*
X17565310Y-10761030D02*
X17565310Y-10765791D01*
X17565310Y-10765791D02*
X17570071Y-10775315D01*
X17570071Y-10775315D02*
X17574833Y-10780077D01*
X17574833Y-10780077D02*
X17584357Y-10784839D01*
X17584357Y-10784839D02*
X17603405Y-10784839D01*
X17603405Y-10784839D02*
X17612929Y-10789601D01*
X17612929Y-10789601D02*
X17617690Y-10794363D01*
X17617690Y-10794363D02*
X17622452Y-10803887D01*
X17622452Y-10803887D02*
X17622452Y-10822934D01*
X17622452Y-10822934D02*
X17617690Y-10832458D01*
X17617690Y-10832458D02*
X17612929Y-10837220D01*
X17612929Y-10837220D02*
X17603405Y-10841982D01*
X17603405Y-10841982D02*
X17584357Y-10841982D01*
X17584357Y-10841982D02*
X17574833Y-10837220D01*
X17574833Y-10837220D02*
X17570071Y-10832458D01*
X17570071Y-10832458D02*
X17565310Y-10822934D01*
X17565310Y-10822934D02*
X17565310Y-10803887D01*
X17565310Y-10803887D02*
X17570071Y-10794363D01*
X17570071Y-10794363D02*
X17574833Y-10789601D01*
X17574833Y-10789601D02*
X17584357Y-10784839D01*
X16254482Y-8492214D02*
X16206863Y-8458881D01*
X16254482Y-8435071D02*
X16154482Y-8435071D01*
X16154482Y-8435071D02*
X16154482Y-8473167D01*
X16154482Y-8473167D02*
X16159244Y-8482690D01*
X16159244Y-8482690D02*
X16164006Y-8487452D01*
X16164006Y-8487452D02*
X16173529Y-8492214D01*
X16173529Y-8492214D02*
X16187815Y-8492214D01*
X16187815Y-8492214D02*
X16197339Y-8487452D01*
X16197339Y-8487452D02*
X16202101Y-8482690D01*
X16202101Y-8482690D02*
X16206863Y-8473167D01*
X16206863Y-8473167D02*
X16206863Y-8435071D01*
X16254482Y-8587452D02*
X16254482Y-8530310D01*
X16254482Y-8558881D02*
X16154482Y-8558881D01*
X16154482Y-8558881D02*
X16168768Y-8549357D01*
X16168768Y-8549357D02*
X16178291Y-8539833D01*
X16178291Y-8539833D02*
X16183053Y-8530310D01*
X16164006Y-8625548D02*
X16159244Y-8630310D01*
X16159244Y-8630310D02*
X16154482Y-8639833D01*
X16154482Y-8639833D02*
X16154482Y-8663643D01*
X16154482Y-8663643D02*
X16159244Y-8673167D01*
X16159244Y-8673167D02*
X16164006Y-8677929D01*
X16164006Y-8677929D02*
X16173529Y-8682690D01*
X16173529Y-8682690D02*
X16183053Y-8682690D01*
X16183053Y-8682690D02*
X16197339Y-8677929D01*
X16197339Y-8677929D02*
X16254482Y-8620786D01*
X16254482Y-8620786D02*
X16254482Y-8682690D01*
X17115786Y-11659482D02*
X17149119Y-11611863D01*
X17172929Y-11659482D02*
X17172929Y-11559482D01*
X17172929Y-11559482D02*
X17134833Y-11559482D01*
X17134833Y-11559482D02*
X17125310Y-11564244D01*
X17125310Y-11564244D02*
X17120548Y-11569006D01*
X17120548Y-11569006D02*
X17115786Y-11578529D01*
X17115786Y-11578529D02*
X17115786Y-11592815D01*
X17115786Y-11592815D02*
X17120548Y-11602339D01*
X17120548Y-11602339D02*
X17125310Y-11607101D01*
X17125310Y-11607101D02*
X17134833Y-11611863D01*
X17134833Y-11611863D02*
X17172929Y-11611863D01*
X17077690Y-11569006D02*
X17072929Y-11564244D01*
X17072929Y-11564244D02*
X17063405Y-11559482D01*
X17063405Y-11559482D02*
X17039595Y-11559482D01*
X17039595Y-11559482D02*
X17030071Y-11564244D01*
X17030071Y-11564244D02*
X17025310Y-11569006D01*
X17025310Y-11569006D02*
X17020548Y-11578529D01*
X17020548Y-11578529D02*
X17020548Y-11588053D01*
X17020548Y-11588053D02*
X17025310Y-11602339D01*
X17025310Y-11602339D02*
X17082452Y-11659482D01*
X17082452Y-11659482D02*
X17020548Y-11659482D01*
X16958643Y-11559482D02*
X16949119Y-11559482D01*
X16949119Y-11559482D02*
X16939595Y-11564244D01*
X16939595Y-11564244D02*
X16934833Y-11569006D01*
X16934833Y-11569006D02*
X16930071Y-11578529D01*
X16930071Y-11578529D02*
X16925310Y-11597577D01*
X16925310Y-11597577D02*
X16925310Y-11621387D01*
X16925310Y-11621387D02*
X16930071Y-11640434D01*
X16930071Y-11640434D02*
X16934833Y-11649958D01*
X16934833Y-11649958D02*
X16939595Y-11654720D01*
X16939595Y-11654720D02*
X16949119Y-11659482D01*
X16949119Y-11659482D02*
X16958643Y-11659482D01*
X16958643Y-11659482D02*
X16968167Y-11654720D01*
X16968167Y-11654720D02*
X16972929Y-11649958D01*
X16972929Y-11649958D02*
X16977690Y-11640434D01*
X16977690Y-11640434D02*
X16982452Y-11621387D01*
X16982452Y-11621387D02*
X16982452Y-11597577D01*
X16982452Y-11597577D02*
X16977690Y-11578529D01*
X16977690Y-11578529D02*
X16972929Y-11569006D01*
X16972929Y-11569006D02*
X16968167Y-11564244D01*
X16968167Y-11564244D02*
X16958643Y-11559482D01*
X16386982Y-8492214D02*
X16339363Y-8458881D01*
X16386982Y-8435071D02*
X16286982Y-8435071D01*
X16286982Y-8435071D02*
X16286982Y-8473167D01*
X16286982Y-8473167D02*
X16291744Y-8482690D01*
X16291744Y-8482690D02*
X16296506Y-8487452D01*
X16296506Y-8487452D02*
X16306029Y-8492214D01*
X16306029Y-8492214D02*
X16320315Y-8492214D01*
X16320315Y-8492214D02*
X16329839Y-8487452D01*
X16329839Y-8487452D02*
X16334601Y-8482690D01*
X16334601Y-8482690D02*
X16339363Y-8473167D01*
X16339363Y-8473167D02*
X16339363Y-8435071D01*
X16386982Y-8587452D02*
X16386982Y-8530310D01*
X16386982Y-8558881D02*
X16286982Y-8558881D01*
X16286982Y-8558881D02*
X16301268Y-8549357D01*
X16301268Y-8549357D02*
X16310791Y-8539833D01*
X16310791Y-8539833D02*
X16315553Y-8530310D01*
X16386982Y-8682690D02*
X16386982Y-8625548D01*
X16386982Y-8654119D02*
X16286982Y-8654119D01*
X16286982Y-8654119D02*
X16301268Y-8644595D01*
X16301268Y-8644595D02*
X16310791Y-8635071D01*
X16310791Y-8635071D02*
X16315553Y-8625548D01*
X18305786Y-10061982D02*
X18339119Y-10014363D01*
X18362929Y-10061982D02*
X18362929Y-9961982D01*
X18362929Y-9961982D02*
X18324833Y-9961982D01*
X18324833Y-9961982D02*
X18315310Y-9966744D01*
X18315310Y-9966744D02*
X18310548Y-9971506D01*
X18310548Y-9971506D02*
X18305786Y-9981030D01*
X18305786Y-9981030D02*
X18305786Y-9995315D01*
X18305786Y-9995315D02*
X18310548Y-10004839D01*
X18310548Y-10004839D02*
X18315310Y-10009601D01*
X18315310Y-10009601D02*
X18324833Y-10014363D01*
X18324833Y-10014363D02*
X18362929Y-10014363D01*
X18210548Y-10061982D02*
X18267690Y-10061982D01*
X18239119Y-10061982D02*
X18239119Y-9961982D01*
X18239119Y-9961982D02*
X18248643Y-9976268D01*
X18248643Y-9976268D02*
X18258167Y-9985791D01*
X18258167Y-9985791D02*
X18267690Y-9990553D01*
X18124833Y-9995315D02*
X18124833Y-10061982D01*
X18148643Y-9957220D02*
X18172452Y-10028649D01*
X18172452Y-10028649D02*
X18110548Y-10028649D01*
X16651982Y-8492333D02*
X16604363Y-8459000D01*
X16651982Y-8435191D02*
X16551982Y-8435191D01*
X16551982Y-8435191D02*
X16551982Y-8473286D01*
X16551982Y-8473286D02*
X16556744Y-8482810D01*
X16556744Y-8482810D02*
X16561506Y-8487571D01*
X16561506Y-8487571D02*
X16571029Y-8492333D01*
X16571029Y-8492333D02*
X16585315Y-8492333D01*
X16585315Y-8492333D02*
X16594839Y-8487571D01*
X16594839Y-8487571D02*
X16599601Y-8482810D01*
X16599601Y-8482810D02*
X16604363Y-8473286D01*
X16604363Y-8473286D02*
X16604363Y-8435191D01*
X16651982Y-8539952D02*
X16651982Y-8559000D01*
X16651982Y-8559000D02*
X16647220Y-8568524D01*
X16647220Y-8568524D02*
X16642458Y-8573286D01*
X16642458Y-8573286D02*
X16628172Y-8582810D01*
X16628172Y-8582810D02*
X16609125Y-8587571D01*
X16609125Y-8587571D02*
X16571029Y-8587571D01*
X16571029Y-8587571D02*
X16561506Y-8582810D01*
X16561506Y-8582810D02*
X16556744Y-8578048D01*
X16556744Y-8578048D02*
X16551982Y-8568524D01*
X16551982Y-8568524D02*
X16551982Y-8549476D01*
X16551982Y-8549476D02*
X16556744Y-8539952D01*
X16556744Y-8539952D02*
X16561506Y-8535191D01*
X16561506Y-8535191D02*
X16571029Y-8530429D01*
X16571029Y-8530429D02*
X16594839Y-8530429D01*
X16594839Y-8530429D02*
X16604363Y-8535191D01*
X16604363Y-8535191D02*
X16609125Y-8539952D01*
X16609125Y-8539952D02*
X16613887Y-8549476D01*
X16613887Y-8549476D02*
X16613887Y-8568524D01*
X16613887Y-8568524D02*
X16609125Y-8578048D01*
X16609125Y-8578048D02*
X16604363Y-8582810D01*
X16604363Y-8582810D02*
X16594839Y-8587571D01*
X17103286Y-10601982D02*
X17136619Y-10554363D01*
X17160429Y-10601982D02*
X17160429Y-10501982D01*
X17160429Y-10501982D02*
X17122333Y-10501982D01*
X17122333Y-10501982D02*
X17112810Y-10506744D01*
X17112810Y-10506744D02*
X17108048Y-10511506D01*
X17108048Y-10511506D02*
X17103286Y-10521030D01*
X17103286Y-10521030D02*
X17103286Y-10535315D01*
X17103286Y-10535315D02*
X17108048Y-10544839D01*
X17108048Y-10544839D02*
X17112810Y-10549601D01*
X17112810Y-10549601D02*
X17122333Y-10554363D01*
X17122333Y-10554363D02*
X17160429Y-10554363D01*
X17008048Y-10601982D02*
X17065190Y-10601982D01*
X17036619Y-10601982D02*
X17036619Y-10501982D01*
X17036619Y-10501982D02*
X17046143Y-10516268D01*
X17046143Y-10516268D02*
X17055667Y-10525791D01*
X17055667Y-10525791D02*
X17065190Y-10530553D01*
X16922333Y-10501982D02*
X16941381Y-10501982D01*
X16941381Y-10501982D02*
X16950905Y-10506744D01*
X16950905Y-10506744D02*
X16955667Y-10511506D01*
X16955667Y-10511506D02*
X16965190Y-10525791D01*
X16965190Y-10525791D02*
X16969952Y-10544839D01*
X16969952Y-10544839D02*
X16969952Y-10582934D01*
X16969952Y-10582934D02*
X16965190Y-10592458D01*
X16965190Y-10592458D02*
X16960429Y-10597220D01*
X16960429Y-10597220D02*
X16950905Y-10601982D01*
X16950905Y-10601982D02*
X16931857Y-10601982D01*
X16931857Y-10601982D02*
X16922333Y-10597220D01*
X16922333Y-10597220D02*
X16917571Y-10592458D01*
X16917571Y-10592458D02*
X16912810Y-10582934D01*
X16912810Y-10582934D02*
X16912810Y-10559125D01*
X16912810Y-10559125D02*
X16917571Y-10549601D01*
X16917571Y-10549601D02*
X16922333Y-10544839D01*
X16922333Y-10544839D02*
X16931857Y-10540077D01*
X16931857Y-10540077D02*
X16950905Y-10540077D01*
X16950905Y-10540077D02*
X16960429Y-10544839D01*
X16960429Y-10544839D02*
X16965190Y-10549601D01*
X16965190Y-10549601D02*
X16969952Y-10559125D01*
D11*
%TO.C,C23*%
X14876000Y-11161375D02*
X14876000Y-11303625D01*
X14694000Y-11161375D02*
X14694000Y-11303625D01*
%TO.C,C24*%
X14622000Y-11161375D02*
X14622000Y-11303625D01*
X14440000Y-11161375D02*
X14440000Y-11303625D01*
%TO.C,R19*%
X15410456Y-11295500D02*
X15265044Y-11295500D01*
X15410456Y-11113500D02*
X15265044Y-11113500D01*
%TO.C,R21*%
X15410456Y-11520500D02*
X15265044Y-11520500D01*
X15410456Y-11338500D02*
X15265044Y-11338500D01*
D12*
%TO.C,U6*%
X14456500Y-9826500D02*
X14456500Y-9882250D01*
X14456500Y-9826500D02*
X14871500Y-9826500D01*
X14456500Y-10674000D02*
X14344000Y-10674000D01*
X14456500Y-10721500D02*
X14456500Y-10674000D01*
X14456500Y-10721500D02*
X14871500Y-10721500D01*
X14871500Y-9826500D02*
X14871500Y-9882250D01*
X14871500Y-10721500D02*
X14871500Y-10665750D01*
D11*
%TO.C,R10*%
X17218000Y-8631706D02*
X17218000Y-8486294D01*
X17400000Y-8631706D02*
X17400000Y-8486294D01*
%TO.C,R17*%
X14225000Y-10768044D02*
X14225000Y-10913456D01*
X14043000Y-10768044D02*
X14043000Y-10913456D01*
%TO.C,R15*%
X18306794Y-10597750D02*
X18452206Y-10597750D01*
X18306794Y-10779750D02*
X18452206Y-10779750D01*
%TO.C,R22*%
X17604000Y-11632456D02*
X17604000Y-11487044D01*
X17786000Y-11632456D02*
X17786000Y-11487044D01*
%TO.C,R13*%
X18024000Y-8770544D02*
X18024000Y-8915956D01*
X17842000Y-8770544D02*
X17842000Y-8915956D01*
%TO.C,R18*%
X17784000Y-11016294D02*
X17784000Y-11161706D01*
X17602000Y-11016294D02*
X17602000Y-11161706D01*
%TO.C,R12*%
X16698000Y-8631706D02*
X16698000Y-8486294D01*
X16880000Y-8631706D02*
X16880000Y-8486294D01*
%TO.C,R20*%
X17144000Y-11237794D02*
X17144000Y-11383206D01*
X16962000Y-11237794D02*
X16962000Y-11383206D01*
%TO.C,R11*%
X16968000Y-8630456D02*
X16968000Y-8485044D01*
X17150000Y-8630456D02*
X17150000Y-8485044D01*
%TO.C,R14*%
X18315000Y-10220294D02*
X18315000Y-10365706D01*
X18133000Y-10220294D02*
X18133000Y-10365706D01*
%TO.C,R9*%
X17460500Y-8632956D02*
X17460500Y-8487544D01*
X17642500Y-8632956D02*
X17642500Y-8487544D01*
%TO.C,G\u002A\u002A\u002A*%
G36*
X17195453Y-9932603D02*
G01*
X17192813Y-9935243D01*
X17190173Y-9932603D01*
X17192813Y-9929963D01*
X17195453Y-9932603D01*
G37*
G36*
X16936701Y-9066574D02*
G01*
X16934060Y-9069214D01*
X16931420Y-9066574D01*
X16934060Y-9063934D01*
X16936701Y-9066574D01*
G37*
G36*
X16931420Y-9050732D02*
G01*
X16928780Y-9053372D01*
X16926139Y-9050732D01*
X16928780Y-9048092D01*
X16931420Y-9050732D01*
G37*
G36*
X16905017Y-9235555D02*
G01*
X16902376Y-9238195D01*
X16899736Y-9235555D01*
X16902376Y-9232915D01*
X16905017Y-9235555D01*
G37*
G36*
X16699071Y-9399256D02*
G01*
X16696430Y-9401896D01*
X16693790Y-9399256D01*
X16696430Y-9396615D01*
X16699071Y-9399256D01*
G37*
G36*
X16683229Y-9383414D02*
G01*
X16680588Y-9386054D01*
X16677948Y-9383414D01*
X16680588Y-9380773D01*
X16683229Y-9383414D01*
G37*
G36*
X16683229Y-9309484D02*
G01*
X16680588Y-9312125D01*
X16677948Y-9309484D01*
X16680588Y-9306844D01*
X16683229Y-9309484D01*
G37*
G36*
X16662106Y-9357010D02*
G01*
X16659466Y-9359651D01*
X16656825Y-9357010D01*
X16659466Y-9354370D01*
X16662106Y-9357010D01*
G37*
G36*
X16630422Y-9261958D02*
G01*
X16627782Y-9264599D01*
X16625141Y-9261958D01*
X16627782Y-9259318D01*
X16630422Y-9261958D01*
G37*
G36*
X16625141Y-9320046D02*
G01*
X16622501Y-9322686D01*
X16619861Y-9320046D01*
X16622501Y-9317405D01*
X16625141Y-9320046D01*
G37*
G36*
X16614580Y-9425659D02*
G01*
X16611940Y-9428299D01*
X16609299Y-9425659D01*
X16611940Y-9423019D01*
X16614580Y-9425659D01*
G37*
G36*
X16604019Y-9230274D02*
G01*
X16601378Y-9232915D01*
X16598738Y-9230274D01*
X16601378Y-9227634D01*
X16604019Y-9230274D01*
G37*
G36*
X16593457Y-9415098D02*
G01*
X16590817Y-9417738D01*
X16588177Y-9415098D01*
X16590817Y-9412457D01*
X16593457Y-9415098D01*
G37*
G36*
X16556493Y-9399256D02*
G01*
X16553852Y-9401896D01*
X16551212Y-9399256D01*
X16553852Y-9396615D01*
X16556493Y-9399256D01*
G37*
G36*
X16545931Y-9404536D02*
G01*
X16543291Y-9407177D01*
X16540651Y-9404536D01*
X16543291Y-9401896D01*
X16545931Y-9404536D01*
G37*
G36*
X16524809Y-9383414D02*
G01*
X16522168Y-9386054D01*
X16519528Y-9383414D01*
X16522168Y-9380773D01*
X16524809Y-9383414D01*
G37*
G36*
X16339985Y-10233601D02*
G01*
X16337345Y-10236241D01*
X16334705Y-10233601D01*
X16337345Y-10230961D01*
X16339985Y-10233601D01*
G37*
G36*
X17275653Y-9699287D02*
G01*
X17278098Y-9701187D01*
X17272463Y-9702477D01*
X17267107Y-9702104D01*
X17265532Y-9699704D01*
X17267400Y-9698657D01*
X17275653Y-9699287D01*
G37*
G36*
X17147927Y-9887717D02*
G01*
X17147546Y-9890513D01*
X17144407Y-9891238D01*
X17143775Y-9890464D01*
X17144407Y-9884197D01*
X17145995Y-9883371D01*
X17147927Y-9887717D01*
G37*
G36*
X17142647Y-9871875D02*
G01*
X17142266Y-9874671D01*
X17139126Y-9875396D01*
X17138494Y-9874622D01*
X17139126Y-9868355D01*
X17140715Y-9867529D01*
X17142647Y-9871875D01*
G37*
G36*
X16913818Y-9255798D02*
G01*
X16914644Y-9257386D01*
X16910297Y-9259318D01*
X16907502Y-9258937D01*
X16906777Y-9255798D01*
X16907551Y-9255166D01*
X16913818Y-9255798D01*
G37*
G36*
X16906007Y-9213466D02*
G01*
X16908451Y-9215366D01*
X16902816Y-9216656D01*
X16897460Y-9216283D01*
X16895886Y-9213882D01*
X16897754Y-9212836D01*
X16906007Y-9213466D01*
G37*
G36*
X16697310Y-9414218D02*
G01*
X16698137Y-9415806D01*
X16693790Y-9417738D01*
X16690994Y-9417357D01*
X16690270Y-9414218D01*
X16691044Y-9413586D01*
X16697310Y-9414218D01*
G37*
G36*
X16604019Y-9428299D02*
G01*
X16603638Y-9431095D01*
X16600498Y-9431820D01*
X16599866Y-9431046D01*
X16600498Y-9424779D01*
X16602087Y-9423953D01*
X16604019Y-9428299D01*
G37*
G36*
X16418362Y-10199277D02*
G01*
X16417626Y-10206541D01*
X16415698Y-10205877D01*
X16415001Y-10203487D01*
X16415698Y-10192676D01*
X16417532Y-10191780D01*
X16418362Y-10199277D01*
G37*
G36*
X16128759Y-9079776D02*
G01*
X16128378Y-9082571D01*
X16125238Y-9083296D01*
X16124606Y-9082522D01*
X16125238Y-9076255D01*
X16126827Y-9075429D01*
X16128759Y-9079776D01*
G37*
G36*
X17287828Y-9930023D02*
G01*
X17286793Y-9931408D01*
X17279632Y-9935243D01*
X17276671Y-9934964D01*
X17275426Y-9932209D01*
X17282859Y-9927948D01*
X17286978Y-9927022D01*
X17287828Y-9930023D01*
G37*
G36*
X17188037Y-9802411D02*
G01*
X17186406Y-9804757D01*
X17181940Y-9808507D01*
X17181202Y-9808456D01*
X17180039Y-9805399D01*
X17185708Y-9800082D01*
X17188659Y-9798797D01*
X17188037Y-9802411D01*
G37*
G36*
X17440371Y-9128235D02*
G01*
X17445554Y-9135223D01*
X17446166Y-9139645D01*
X17440839Y-9143144D01*
X17437225Y-9142225D01*
X17433083Y-9135223D01*
X17433613Y-9131587D01*
X17437799Y-9127302D01*
X17440371Y-9128235D01*
G37*
G36*
X17361161Y-9434513D02*
G01*
X17366344Y-9441501D01*
X17366956Y-9445923D01*
X17361629Y-9449422D01*
X17358015Y-9448504D01*
X17353873Y-9441501D01*
X17354403Y-9437866D01*
X17358589Y-9433580D01*
X17361161Y-9434513D01*
G37*
G36*
X17307021Y-9915441D02*
G01*
X17305375Y-9917485D01*
X17298355Y-9924269D01*
X17295786Y-9922688D01*
X17297714Y-9919961D01*
X17305027Y-9913447D01*
X17308853Y-9910497D01*
X17311588Y-9909186D01*
X17307021Y-9915441D01*
G37*
G36*
X17246867Y-9693824D02*
G01*
X17250544Y-9694762D01*
X17247040Y-9695708D01*
X17235058Y-9696103D01*
X17225258Y-9695930D01*
X17218339Y-9695133D01*
X17220464Y-9693896D01*
X17231250Y-9692955D01*
X17246867Y-9693824D01*
G37*
G36*
X16974887Y-9222556D02*
G01*
X16978946Y-9227634D01*
X16978885Y-9228829D01*
X16976617Y-9232915D01*
X16975770Y-9232672D01*
X16971025Y-9227634D01*
X16970200Y-9225589D01*
X16973354Y-9222353D01*
X16974887Y-9222556D01*
G37*
G36*
X16914395Y-9063362D02*
G01*
X16919847Y-9068818D01*
X16919510Y-9071815D01*
X16912938Y-9074495D01*
X16908578Y-9073633D01*
X16906029Y-9068818D01*
X16906746Y-9067253D01*
X16912938Y-9063141D01*
X16914395Y-9063362D01*
G37*
G36*
X16848151Y-9222556D02*
G01*
X16852210Y-9227634D01*
X16852150Y-9228829D01*
X16849881Y-9232915D01*
X16849034Y-9232672D01*
X16844289Y-9227634D01*
X16843464Y-9225589D01*
X16846618Y-9222353D01*
X16848151Y-9222556D01*
G37*
G36*
X16820871Y-9226802D02*
G01*
X16823357Y-9235868D01*
X16822865Y-9243964D01*
X16818990Y-9248376D01*
X16816223Y-9245028D01*
X16815580Y-9231595D01*
X16816056Y-9220684D01*
X16817501Y-9219325D01*
X16820871Y-9226802D01*
G37*
G36*
X16699071Y-9631293D02*
G01*
X16698424Y-9635228D01*
X16693790Y-9639526D01*
X16692537Y-9639384D01*
X16688509Y-9634557D01*
X16688711Y-9633075D01*
X16693790Y-9626324D01*
X16696511Y-9625828D01*
X16699071Y-9631293D01*
G37*
G36*
X16704351Y-9753060D02*
G01*
X16704024Y-9758166D01*
X16700740Y-9760599D01*
X16691139Y-9757606D01*
X16685543Y-9754086D01*
X16689387Y-9749766D01*
X16693505Y-9747398D01*
X16701742Y-9745956D01*
X16704351Y-9753060D01*
G37*
G36*
X16614580Y-9768591D02*
G01*
X16613934Y-9772525D01*
X16609299Y-9776823D01*
X16608046Y-9776681D01*
X16604019Y-9771854D01*
X16604220Y-9770373D01*
X16609299Y-9763622D01*
X16612020Y-9763125D01*
X16614580Y-9768591D01*
G37*
G36*
X16514247Y-9631293D02*
G01*
X16513601Y-9635228D01*
X16508967Y-9639526D01*
X16507714Y-9639384D01*
X16503686Y-9634557D01*
X16503887Y-9633075D01*
X16508967Y-9626324D01*
X16511687Y-9625828D01*
X16514247Y-9631293D01*
G37*
G36*
X16493125Y-9890358D02*
G01*
X16492797Y-9895464D01*
X16489514Y-9897897D01*
X16479912Y-9894903D01*
X16474317Y-9891384D01*
X16478160Y-9887063D01*
X16482279Y-9884696D01*
X16490515Y-9883253D01*
X16493125Y-9890358D01*
G37*
G36*
X16200009Y-9609191D02*
G01*
X16202688Y-9615763D01*
X16201827Y-9620123D01*
X16197011Y-9622672D01*
X16195446Y-9621955D01*
X16191335Y-9615763D01*
X16191556Y-9614306D01*
X16197011Y-9608854D01*
X16200009Y-9609191D01*
G37*
G36*
X16907637Y-9116745D02*
G01*
X16916879Y-9118634D01*
X16917488Y-9124661D01*
X16915570Y-9128396D01*
X16910379Y-9132582D01*
X16907076Y-9131284D01*
X16899736Y-9124661D01*
X16897383Y-9121517D01*
X16897649Y-9117645D01*
X16906845Y-9116740D01*
X16907637Y-9116745D01*
G37*
G36*
X16508049Y-10188022D02*
G01*
X16513295Y-10197956D01*
X16513648Y-10201570D01*
X16511135Y-10208209D01*
X16501046Y-10209838D01*
X16496827Y-10209702D01*
X16489457Y-10206756D01*
X16488797Y-10197956D01*
X16491602Y-10190389D01*
X16501046Y-10186075D01*
X16508049Y-10188022D01*
G37*
G36*
X16430113Y-10191721D02*
G01*
X16433612Y-10200143D01*
X16435037Y-10213670D01*
X16434684Y-10225047D01*
X16433283Y-10229784D01*
X16430864Y-10224088D01*
X16427480Y-10207998D01*
X16426733Y-10203507D01*
X16426221Y-10192609D01*
X16429420Y-10191147D01*
X16430113Y-10191721D01*
G37*
G36*
X16281286Y-10221719D02*
G01*
X16281300Y-10222081D01*
X16279613Y-10233005D01*
X16272657Y-10236160D01*
X16267811Y-10235413D01*
X16269406Y-10232200D01*
X16273129Y-10228326D01*
X16278034Y-10217759D01*
X16278959Y-10214425D01*
X16280481Y-10213048D01*
X16281286Y-10221719D01*
G37*
G36*
X16308937Y-10184690D02*
G01*
X16319153Y-10189020D01*
X16322771Y-10199277D01*
X16324038Y-10212478D01*
X16318776Y-10200045D01*
X16313796Y-10192464D01*
X16305796Y-10190573D01*
X16301800Y-10191321D01*
X16294707Y-10188080D01*
X16296158Y-10184571D01*
X16306419Y-10184350D01*
X16308937Y-10184690D01*
G37*
G36*
X16296144Y-10218754D02*
G01*
X16299416Y-10225835D01*
X16309946Y-10232557D01*
X16314679Y-10233580D01*
X16315859Y-10234772D01*
X16306981Y-10235522D01*
X16300498Y-10235532D01*
X16294102Y-10232185D01*
X16293179Y-10221719D01*
X16293565Y-10215576D01*
X16294495Y-10212276D01*
X16296144Y-10218754D01*
G37*
G36*
X17202685Y-9698714D02*
G01*
X17197122Y-9702370D01*
X17184892Y-9707914D01*
X17176814Y-9711221D01*
X17165020Y-9716051D01*
X17159809Y-9718188D01*
X17158489Y-9715826D01*
X17159894Y-9714009D01*
X17168180Y-9709200D01*
X17180541Y-9703838D01*
X17193077Y-9699534D01*
X17201885Y-9697901D01*
X17202685Y-9698714D01*
G37*
G36*
X16575614Y-9887839D02*
G01*
X16584354Y-9895984D01*
X16588177Y-9906200D01*
X16586720Y-9911750D01*
X16580103Y-9921440D01*
X16573903Y-9925627D01*
X16564462Y-9926610D01*
X16555817Y-9918750D01*
X16552831Y-9906339D01*
X16555789Y-9893867D01*
X16564669Y-9885710D01*
X16566049Y-9885332D01*
X16575614Y-9887839D01*
G37*
G36*
X16534940Y-9753373D02*
G01*
X16535370Y-9768902D01*
X16535233Y-9775992D01*
X16534165Y-9787942D01*
X16532383Y-9792665D01*
X16525269Y-9791401D01*
X16515151Y-9783691D01*
X16510030Y-9771982D01*
X16511006Y-9759784D01*
X16519181Y-9750606D01*
X16526785Y-9746879D01*
X16532602Y-9746624D01*
X16534940Y-9753373D01*
G37*
G36*
X16388395Y-10191983D02*
G01*
X16391378Y-10199260D01*
X16393745Y-10212059D01*
X16394015Y-10214674D01*
X16394106Y-10224976D01*
X16392272Y-10227999D01*
X16391909Y-10227693D01*
X16388925Y-10220416D01*
X16386558Y-10207617D01*
X16386288Y-10205001D01*
X16386198Y-10194700D01*
X16388032Y-10191677D01*
X16388395Y-10191983D01*
G37*
G36*
X16380229Y-9750542D02*
G01*
X16388969Y-9758687D01*
X16392792Y-9768902D01*
X16391335Y-9774453D01*
X16384718Y-9784143D01*
X16378518Y-9788330D01*
X16369077Y-9789313D01*
X16360432Y-9781453D01*
X16357446Y-9769042D01*
X16360404Y-9756570D01*
X16369285Y-9748412D01*
X16370664Y-9748034D01*
X16380229Y-9750542D01*
G37*
G36*
X16272722Y-10184096D02*
G01*
X16276617Y-10188715D01*
X16274712Y-10191753D01*
X16266222Y-10193996D01*
X16259131Y-10195807D01*
X16259078Y-10203237D01*
X16259284Y-10203829D01*
X16260245Y-10209358D01*
X16255571Y-10206232D01*
X16252635Y-10202027D01*
X16251988Y-10191711D01*
X16255517Y-10187372D01*
X16264138Y-10183837D01*
X16272722Y-10184096D01*
G37*
G36*
X17272665Y-10070516D02*
G01*
X17271715Y-10077568D01*
X17277184Y-10088284D01*
X17281599Y-10092754D01*
X17285225Y-10099837D01*
X17283971Y-10101295D01*
X17277898Y-10099013D01*
X17269594Y-10093051D01*
X17262233Y-10085834D01*
X17258987Y-10079788D01*
X17260495Y-10075019D01*
X17267504Y-10066628D01*
X17270722Y-10064056D01*
X17274379Y-10062934D01*
X17272665Y-10070516D01*
G37*
G36*
X16369226Y-10186933D02*
G01*
X16374229Y-10193758D01*
X16377315Y-10208593D01*
X16378000Y-10214459D01*
X16378693Y-10227336D01*
X16377755Y-10233676D01*
X16373515Y-10235262D01*
X16362868Y-10236241D01*
X16358940Y-10236053D01*
X16352393Y-10232405D01*
X16351266Y-10221719D01*
X16351694Y-10214893D01*
X16352601Y-10212114D01*
X16354274Y-10219079D01*
X16357348Y-10226471D01*
X16364116Y-10230961D01*
X16369465Y-10227045D01*
X16372068Y-10216809D01*
X16371663Y-10204153D01*
X16368399Y-10192992D01*
X16362428Y-10187243D01*
X16361470Y-10187011D01*
X16357478Y-10185586D01*
X16363748Y-10185556D01*
X16369226Y-10186933D01*
G37*
G36*
X16233304Y-10185736D02*
G01*
X16235913Y-10186813D01*
X16242621Y-10194602D01*
X16245882Y-10210298D01*
X16246261Y-10214896D01*
X16246575Y-10227614D01*
X16245539Y-10233875D01*
X16241407Y-10235341D01*
X16230852Y-10236241D01*
X16230438Y-10236239D01*
X16221202Y-10233632D01*
X16219143Y-10224360D01*
X16219257Y-10222406D01*
X16220262Y-10217019D01*
X16222170Y-10221719D01*
X16224577Y-10226583D01*
X16232119Y-10230961D01*
X16233178Y-10230853D01*
X16238187Y-10225445D01*
X16239588Y-10214794D01*
X16237422Y-10202958D01*
X16231732Y-10193996D01*
X16229147Y-10192000D01*
X16224782Y-10191458D01*
X16223650Y-10199950D01*
X16223474Y-10205684D01*
X16222046Y-10208895D01*
X16217822Y-10202728D01*
X16217778Y-10202651D01*
X16215408Y-10191718D01*
X16221274Y-10185322D01*
X16233304Y-10185736D01*
G37*
G36*
X16167545Y-10252988D02*
G01*
X16155587Y-10259941D01*
X16138243Y-10262626D01*
X16120421Y-10260638D01*
X16106732Y-10253905D01*
X16100232Y-10243927D01*
X16097859Y-10229882D01*
X16103776Y-10229882D01*
X16113123Y-10245807D01*
X16113921Y-10246625D01*
X16124295Y-10253478D01*
X16136128Y-10257078D01*
X16145848Y-10256817D01*
X16149881Y-10252083D01*
X16148188Y-10249141D01*
X16139961Y-10246803D01*
X16139609Y-10246796D01*
X16130027Y-10241944D01*
X16123009Y-10230904D01*
X16120286Y-10217878D01*
X16123588Y-10207065D01*
X16126291Y-10203298D01*
X16127609Y-10196745D01*
X16122396Y-10195902D01*
X16112949Y-10201888D01*
X16104402Y-10214065D01*
X16103776Y-10229882D01*
X16097859Y-10229882D01*
X16097075Y-10225245D01*
X16100153Y-10208409D01*
X16110546Y-10193567D01*
X16125979Y-10185525D01*
X16144054Y-10185418D01*
X16162371Y-10194379D01*
X16169066Y-10201582D01*
X16175836Y-10218601D01*
X16175455Y-10237160D01*
X16167997Y-10252083D01*
X16167545Y-10252988D01*
G37*
G36*
X16960293Y-9118323D02*
G01*
X16962865Y-9127324D01*
X16963401Y-9130013D01*
X16967530Y-9141533D01*
X16974834Y-9158672D01*
X16984227Y-9178815D01*
X16988428Y-9187734D01*
X16996191Y-9205904D01*
X16997092Y-9208012D01*
X17003101Y-9224817D01*
X17005349Y-9235200D01*
X17004994Y-9238255D01*
X17001088Y-9251449D01*
X16993784Y-9269817D01*
X16984227Y-9290368D01*
X16980073Y-9298851D01*
X16971386Y-9317785D01*
X16967261Y-9327967D01*
X16965360Y-9332661D01*
X16963104Y-9340824D01*
X16962781Y-9342133D01*
X16961874Y-9345815D01*
X16956721Y-9359087D01*
X16948477Y-9377663D01*
X16944450Y-9386054D01*
X16938149Y-9399186D01*
X16929912Y-9415450D01*
X16920579Y-9433018D01*
X16913674Y-9444995D01*
X16910282Y-9449422D01*
X16909267Y-9448629D01*
X16904281Y-9440966D01*
X16896701Y-9427171D01*
X16887751Y-9409721D01*
X16884280Y-9402617D01*
X16891508Y-9402617D01*
X16895330Y-9405926D01*
X16907345Y-9407177D01*
X16913033Y-9407129D01*
X16922121Y-9405587D01*
X16925587Y-9399577D01*
X16926139Y-9386054D01*
X16926005Y-9381319D01*
X16924165Y-9369616D01*
X16920859Y-9364931D01*
X16920793Y-9364933D01*
X16917108Y-9369650D01*
X16915578Y-9380773D01*
X16915494Y-9384358D01*
X16912868Y-9393980D01*
X16905328Y-9396615D01*
X16899263Y-9397460D01*
X16891815Y-9401896D01*
X16891508Y-9402617D01*
X16884280Y-9402617D01*
X16878653Y-9391098D01*
X16870631Y-9373779D01*
X16864907Y-9360244D01*
X16862704Y-9352972D01*
X16862323Y-9351036D01*
X16858535Y-9341057D01*
X16896739Y-9341057D01*
X16899736Y-9346449D01*
X16903989Y-9350785D01*
X16910297Y-9354370D01*
X16913560Y-9353069D01*
X16920859Y-9346449D01*
X16923716Y-9342133D01*
X16921394Y-9339211D01*
X16910297Y-9338528D01*
X16901239Y-9338863D01*
X16896739Y-9341057D01*
X16858535Y-9341057D01*
X16858386Y-9340664D01*
X16852646Y-9327967D01*
X16883894Y-9327967D01*
X16885676Y-9329869D01*
X16895236Y-9332298D01*
X16910297Y-9333247D01*
X16919808Y-9332891D01*
X16931951Y-9330979D01*
X16936701Y-9327967D01*
X16934919Y-9326065D01*
X16925359Y-9323636D01*
X16910297Y-9322686D01*
X16900787Y-9323042D01*
X16888643Y-9324954D01*
X16883894Y-9327967D01*
X16852646Y-9327967D01*
X16851093Y-9324532D01*
X16841582Y-9305211D01*
X16837396Y-9296966D01*
X16828758Y-9279612D01*
X16822768Y-9267078D01*
X16820526Y-9261646D01*
X16822492Y-9260297D01*
X16831087Y-9259318D01*
X16837246Y-9257848D01*
X16841649Y-9251397D01*
X16842245Y-9247753D01*
X16846929Y-9243476D01*
X16849359Y-9244370D01*
X16852210Y-9251397D01*
X16853130Y-9255091D01*
X16860131Y-9259318D01*
X16864398Y-9257470D01*
X16867235Y-9249173D01*
X16868052Y-9232383D01*
X16868052Y-9205448D01*
X16844289Y-9207338D01*
X16837146Y-9207851D01*
X16825233Y-9208372D01*
X16820526Y-9208038D01*
X16821083Y-9206626D01*
X16825176Y-9197779D01*
X16832377Y-9182718D01*
X16841649Y-9163623D01*
X16846118Y-9154318D01*
X16854653Y-9135513D01*
X16860563Y-9121014D01*
X16862771Y-9113379D01*
X16863132Y-9111297D01*
X16863546Y-9110139D01*
X16873479Y-9110139D01*
X16873937Y-9111468D01*
X16879499Y-9119024D01*
X16889321Y-9129502D01*
X16893230Y-9133545D01*
X16902473Y-9147926D01*
X16905017Y-9165259D01*
X16905488Y-9175087D01*
X16909176Y-9185336D01*
X16918218Y-9191630D01*
X16927082Y-9197787D01*
X16931420Y-9205775D01*
X16930241Y-9210839D01*
X16925083Y-9207568D01*
X16922299Y-9205415D01*
X16909465Y-9201640D01*
X16895042Y-9202642D01*
X16884586Y-9208318D01*
X16882381Y-9211382D01*
X16881925Y-9217756D01*
X16890405Y-9221274D01*
X16908537Y-9222353D01*
X16914838Y-9222520D01*
X16926709Y-9224045D01*
X16931420Y-9226646D01*
X16930624Y-9227766D01*
X16922683Y-9229910D01*
X16908977Y-9230606D01*
X16903313Y-9230654D01*
X16889656Y-9232583D01*
X16885701Y-9236153D01*
X16891617Y-9239922D01*
X16907577Y-9242445D01*
X16914739Y-9243130D01*
X16926696Y-9245491D01*
X16931420Y-9248397D01*
X16930443Y-9249535D01*
X16922215Y-9250825D01*
X16908345Y-9250139D01*
X16904481Y-9249769D01*
X16889283Y-9250031D01*
X16881624Y-9253438D01*
X16882433Y-9259099D01*
X16890636Y-9263962D01*
X16903258Y-9266665D01*
X16917165Y-9266093D01*
X16923988Y-9265400D01*
X16930770Y-9267704D01*
X16928930Y-9272567D01*
X16918218Y-9277329D01*
X16908313Y-9282484D01*
X16905017Y-9293743D01*
X16904964Y-9296077D01*
X16901871Y-9304656D01*
X16891815Y-9306844D01*
X16883132Y-9308155D01*
X16878613Y-9312125D01*
X16881979Y-9314510D01*
X16893421Y-9316604D01*
X16910297Y-9317405D01*
X16924606Y-9316845D01*
X16937171Y-9314938D01*
X16941981Y-9312125D01*
X16938704Y-9308652D01*
X16928780Y-9306844D01*
X16921361Y-9305391D01*
X16915685Y-9298805D01*
X16917481Y-9289952D01*
X16926995Y-9282241D01*
X16928131Y-9281712D01*
X16933608Y-9277632D01*
X16936908Y-9270392D01*
X16938720Y-9257526D01*
X16938768Y-9256531D01*
X16943106Y-9256531D01*
X16951899Y-9259318D01*
X16960517Y-9256345D01*
X16970104Y-9247437D01*
X16978392Y-9235555D01*
X16978669Y-9247437D01*
X16980391Y-9254792D01*
X16986867Y-9259318D01*
X16991079Y-9257539D01*
X16993958Y-9249322D01*
X16994788Y-9232611D01*
X16994788Y-9205904D01*
X16972345Y-9207528D01*
X16965756Y-9208059D01*
X16954987Y-9210182D01*
X16950683Y-9215313D01*
X16949902Y-9225856D01*
X16949902Y-9226029D01*
X16948725Y-9238892D01*
X16945942Y-9246539D01*
X16943461Y-9249578D01*
X16943106Y-9256531D01*
X16938768Y-9256531D01*
X16939731Y-9236566D01*
X16939985Y-9227931D01*
X16939987Y-9210138D01*
X16938463Y-9199078D01*
X16934783Y-9191953D01*
X16928315Y-9185966D01*
X16923330Y-9181313D01*
X16916244Y-9166116D01*
X16919095Y-9147823D01*
X16931864Y-9126741D01*
X16948150Y-9106179D01*
X16910741Y-9106179D01*
X16908872Y-9106184D01*
X16890918Y-9106786D01*
X16878240Y-9108198D01*
X16873479Y-9110139D01*
X16863546Y-9110139D01*
X16866814Y-9101023D01*
X16873504Y-9085516D01*
X16881995Y-9067261D01*
X16891081Y-9048741D01*
X16899555Y-9032442D01*
X16906211Y-9020850D01*
X16909840Y-9016449D01*
X16913578Y-9020000D01*
X16919042Y-9029650D01*
X16921946Y-9036605D01*
X16921325Y-9041772D01*
X16913277Y-9042811D01*
X16908881Y-9043286D01*
X16901104Y-9048862D01*
X16894948Y-9062613D01*
X16893886Y-9065847D01*
X16889098Y-9079923D01*
X16885751Y-9089017D01*
X16885941Y-9093064D01*
X16893450Y-9095618D01*
X16899779Y-9094166D01*
X16907202Y-9086978D01*
X16908935Y-9083021D01*
X16912654Y-9081239D01*
X16920064Y-9086978D01*
X16922882Y-9089387D01*
X16933457Y-9095268D01*
X16939522Y-9093299D01*
X16939535Y-9083736D01*
X16939443Y-9080954D01*
X16942898Y-9084652D01*
X16949502Y-9095618D01*
X16954003Y-9104223D01*
X16954876Y-9106179D01*
X16960293Y-9118323D01*
G37*
G36*
X16487644Y-10015163D02*
G01*
X16499906Y-10024403D01*
X16504237Y-10027367D01*
X16515798Y-10030295D01*
X16521982Y-10032147D01*
X16528494Y-10040605D01*
X16530931Y-10044935D01*
X16540756Y-10052143D01*
X16543494Y-10054151D01*
X16566457Y-10064392D01*
X16602822Y-10081801D01*
X16646292Y-10112584D01*
X16686870Y-10152907D01*
X16700193Y-10169009D01*
X16709649Y-10183316D01*
X16714947Y-10196942D01*
X16717900Y-10213426D01*
X16718954Y-10224006D01*
X16718603Y-10233768D01*
X16717945Y-10252067D01*
X16709990Y-10272450D01*
X16694610Y-10285636D01*
X16671327Y-10292109D01*
X16639663Y-10292349D01*
X16621853Y-10291617D01*
X16608869Y-10292385D01*
X16604019Y-10294577D01*
X16603991Y-10294667D01*
X16598112Y-10295882D01*
X16582512Y-10297033D01*
X16557978Y-10298098D01*
X16525294Y-10299052D01*
X16485245Y-10299872D01*
X16438615Y-10300536D01*
X16386191Y-10301020D01*
X16365925Y-10301156D01*
X16319759Y-10301417D01*
X16277116Y-10301592D01*
X16239170Y-10301680D01*
X16207092Y-10301680D01*
X16182056Y-10301593D01*
X16165235Y-10301417D01*
X16157802Y-10301151D01*
X16149805Y-10300531D01*
X16133550Y-10299938D01*
X16114237Y-10299681D01*
X16081233Y-10299609D01*
X16081233Y-10275846D01*
X16202688Y-10275846D01*
X16202714Y-10277497D01*
X16205565Y-10286637D01*
X16215010Y-10289048D01*
X16222779Y-10288531D01*
X16231844Y-10283736D01*
X16233592Y-10275846D01*
X16247574Y-10275846D01*
X16250770Y-10284233D01*
X16262096Y-10288078D01*
X16268522Y-10288519D01*
X16275145Y-10285752D01*
X16276617Y-10275846D01*
X16292459Y-10275846D01*
X16292838Y-10281587D01*
X16296980Y-10287627D01*
X16308301Y-10289048D01*
X16315191Y-10288733D01*
X16322438Y-10285281D01*
X16324143Y-10275846D01*
X16339985Y-10275846D01*
X16340364Y-10281587D01*
X16344506Y-10287627D01*
X16355827Y-10289048D01*
X16362716Y-10288733D01*
X16369964Y-10285281D01*
X16371669Y-10275846D01*
X16382231Y-10275846D01*
X16383097Y-10283623D01*
X16388214Y-10288062D01*
X16400713Y-10289048D01*
X16411601Y-10288429D01*
X16417815Y-10284774D01*
X16419195Y-10275846D01*
X16429757Y-10275846D01*
X16430162Y-10281745D01*
X16434366Y-10287662D01*
X16445764Y-10289048D01*
X16458999Y-10286082D01*
X16465917Y-10278388D01*
X16464237Y-10268178D01*
X16457541Y-10264353D01*
X16445287Y-10262645D01*
X16438900Y-10262925D01*
X16431509Y-10266345D01*
X16429757Y-10275846D01*
X16419195Y-10275846D01*
X16418329Y-10268069D01*
X16413212Y-10263631D01*
X16400713Y-10262645D01*
X16389826Y-10263264D01*
X16383612Y-10266918D01*
X16382231Y-10275846D01*
X16371669Y-10275846D01*
X16371291Y-10270105D01*
X16367149Y-10264065D01*
X16355827Y-10262645D01*
X16348938Y-10262960D01*
X16341690Y-10266411D01*
X16339985Y-10275846D01*
X16324143Y-10275846D01*
X16323765Y-10270105D01*
X16319623Y-10264065D01*
X16308301Y-10262645D01*
X16301412Y-10262960D01*
X16294164Y-10266411D01*
X16292459Y-10275846D01*
X16276617Y-10275846D01*
X16276305Y-10269729D01*
X16272619Y-10263813D01*
X16262096Y-10263614D01*
X16251070Y-10267207D01*
X16248998Y-10272326D01*
X16247574Y-10275846D01*
X16233592Y-10275846D01*
X16234372Y-10272326D01*
X16234305Y-10270795D01*
X16230316Y-10264449D01*
X16218530Y-10262645D01*
X16211641Y-10262960D01*
X16204393Y-10266411D01*
X16202688Y-10275846D01*
X16081233Y-10275846D01*
X16081233Y-10227013D01*
X16086462Y-10227013D01*
X16092219Y-10247597D01*
X16092761Y-10248517D01*
X16102169Y-10257826D01*
X16115813Y-10265732D01*
X16117870Y-10266570D01*
X16131351Y-10271097D01*
X16140471Y-10272644D01*
X16149374Y-10271136D01*
X16168079Y-10261587D01*
X16168307Y-10261295D01*
X16480080Y-10261295D01*
X16485895Y-10273970D01*
X16490917Y-10278388D01*
X16492888Y-10280122D01*
X16500544Y-10283350D01*
X16501890Y-10283233D01*
X16514800Y-10278877D01*
X16519528Y-10270081D01*
X16519469Y-10268429D01*
X16517034Y-10265255D01*
X16509099Y-10269068D01*
X16499483Y-10272940D01*
X16492163Y-10269075D01*
X16491716Y-10268619D01*
X16488786Y-10261907D01*
X16491943Y-10257364D01*
X16543291Y-10257364D01*
X16543597Y-10262422D01*
X16547713Y-10269280D01*
X16551475Y-10270081D01*
X16559133Y-10271711D01*
X16574975Y-10272857D01*
X16559834Y-10265913D01*
X16551768Y-10260762D01*
X16551495Y-10256411D01*
X16559331Y-10254481D01*
X16573990Y-10255883D01*
X16576342Y-10256295D01*
X16585622Y-10255888D01*
X16588177Y-10249755D01*
X16586834Y-10244899D01*
X16580208Y-10242298D01*
X16565734Y-10242538D01*
X16562902Y-10242755D01*
X16550089Y-10244687D01*
X16544511Y-10248924D01*
X16543291Y-10257364D01*
X16491943Y-10257364D01*
X16494406Y-10253819D01*
X16495825Y-10252439D01*
X16503556Y-10247991D01*
X16511342Y-10251863D01*
X16512470Y-10252785D01*
X16518179Y-10255809D01*
X16519528Y-10250654D01*
X16515671Y-10242347D01*
X16505662Y-10238609D01*
X16493363Y-10241394D01*
X16484046Y-10249006D01*
X16480080Y-10261295D01*
X16168307Y-10261295D01*
X16180522Y-10245615D01*
X16185359Y-10225498D01*
X16181246Y-10203512D01*
X16180814Y-10202466D01*
X16177979Y-10197526D01*
X16198247Y-10197526D01*
X16198455Y-10215655D01*
X16198919Y-10225498D01*
X16200048Y-10249443D01*
X16329774Y-10250853D01*
X16356748Y-10251067D01*
X16390263Y-10251093D01*
X16419137Y-10250840D01*
X16441889Y-10250333D01*
X16457040Y-10249596D01*
X16463111Y-10248653D01*
X16463118Y-10248646D01*
X16464933Y-10241862D01*
X16466228Y-10227608D01*
X16466721Y-10208958D01*
X16466555Y-10197117D01*
X16479715Y-10197117D01*
X16483431Y-10208243D01*
X16483921Y-10208789D01*
X16484253Y-10208958D01*
X16493856Y-10213834D01*
X16506550Y-10214976D01*
X16516008Y-10211598D01*
X16516478Y-10210630D01*
X16548534Y-10210630D01*
X16551904Y-10218593D01*
X16561527Y-10224359D01*
X16573586Y-10224763D01*
X16583842Y-10220408D01*
X16588177Y-10212038D01*
X16584160Y-10206621D01*
X16570574Y-10204557D01*
X16554738Y-10206023D01*
X16548534Y-10210630D01*
X16516478Y-10210630D01*
X16518351Y-10206778D01*
X16519467Y-10195008D01*
X16517896Y-10182711D01*
X16515459Y-10178154D01*
X16551212Y-10178154D01*
X16551891Y-10183141D01*
X16557170Y-10187583D01*
X16570062Y-10188715D01*
X16581412Y-10188104D01*
X16587003Y-10184781D01*
X16587224Y-10176834D01*
X16585266Y-10169637D01*
X16581576Y-10166272D01*
X16576051Y-10167110D01*
X16564414Y-10167593D01*
X16554306Y-10169872D01*
X16551212Y-10178154D01*
X16515459Y-10178154D01*
X16513947Y-10175328D01*
X16504195Y-10172764D01*
X16492608Y-10176669D01*
X16483611Y-10185689D01*
X16479715Y-10197117D01*
X16466555Y-10197117D01*
X16466495Y-10192857D01*
X16465260Y-10180235D01*
X16462442Y-10174186D01*
X16457480Y-10172491D01*
X16446879Y-10172181D01*
X16424612Y-10171935D01*
X16397168Y-10171961D01*
X16366296Y-10172223D01*
X16333745Y-10172686D01*
X16301263Y-10173314D01*
X16270599Y-10174072D01*
X16243501Y-10174924D01*
X16221719Y-10175835D01*
X16207001Y-10176769D01*
X16201096Y-10177691D01*
X16199282Y-10183724D01*
X16198247Y-10197526D01*
X16177979Y-10197526D01*
X16170732Y-10184898D01*
X16157294Y-10175766D01*
X16137594Y-10173041D01*
X16116699Y-10177445D01*
X16100174Y-10189519D01*
X16089604Y-10206848D01*
X16086462Y-10227013D01*
X16081233Y-10227013D01*
X16081233Y-10149510D01*
X16103455Y-10126867D01*
X16107621Y-10122692D01*
X16113903Y-10117260D01*
X16209727Y-10117260D01*
X16212346Y-10121288D01*
X16214380Y-10122241D01*
X16225614Y-10124201D01*
X16244539Y-10125940D01*
X16269182Y-10127413D01*
X16297572Y-10128575D01*
X16327736Y-10129379D01*
X16357703Y-10129781D01*
X16385502Y-10129735D01*
X16409159Y-10129195D01*
X16426705Y-10128116D01*
X16436165Y-10126453D01*
X16436474Y-10126281D01*
X16432938Y-10125149D01*
X16420471Y-10124167D01*
X16400501Y-10123394D01*
X16374453Y-10122888D01*
X16343754Y-10122707D01*
X16311096Y-10122502D01*
X16280560Y-10121926D01*
X16254512Y-10121045D01*
X16234976Y-10119929D01*
X16223976Y-10118647D01*
X16214708Y-10116851D01*
X16209727Y-10117260D01*
X16113903Y-10117260D01*
X16120966Y-10111152D01*
X16132465Y-10105636D01*
X16145700Y-10104225D01*
X16165723Y-10104225D01*
X16165723Y-10102171D01*
X16508115Y-10102171D01*
X16515272Y-10103170D01*
X16531787Y-10103663D01*
X16545191Y-10104167D01*
X16558521Y-10106416D01*
X16569261Y-10112031D01*
X16580363Y-10122727D01*
X16583293Y-10126281D01*
X16594778Y-10140215D01*
X16594879Y-10140343D01*
X16601570Y-10149503D01*
X16605795Y-10158366D01*
X16608117Y-10169647D01*
X16608546Y-10176834D01*
X16609097Y-10186059D01*
X16609172Y-10195008D01*
X16609299Y-10210316D01*
X16609299Y-10212038D01*
X16609299Y-10249755D01*
X16609299Y-10262148D01*
X16629102Y-10267648D01*
X16640349Y-10270570D01*
X16655344Y-10272700D01*
X16668021Y-10270605D01*
X16683229Y-10263957D01*
X16692065Y-10258922D01*
X16700265Y-10249870D01*
X16703283Y-10236037D01*
X16703414Y-10233768D01*
X16699541Y-10211182D01*
X16687494Y-10186041D01*
X16668590Y-10159939D01*
X16644147Y-10134466D01*
X16615482Y-10111215D01*
X16583912Y-10091778D01*
X16560605Y-10080728D01*
X16543339Y-10075443D01*
X16533324Y-10076741D01*
X16530089Y-10084557D01*
X16525962Y-10091111D01*
X16515568Y-10097363D01*
X16509111Y-10100196D01*
X16508115Y-10102171D01*
X16165723Y-10102171D01*
X16165723Y-10059633D01*
X16165759Y-10050145D01*
X16166245Y-10035576D01*
X16192127Y-10035576D01*
X16193759Y-10046695D01*
X16200048Y-10051418D01*
X16205607Y-10048153D01*
X16207969Y-10035576D01*
X16207053Y-10029340D01*
X16226740Y-10029340D01*
X16227723Y-10035576D01*
X16228161Y-10038350D01*
X16233040Y-10040857D01*
X16238221Y-10038219D01*
X16238369Y-10030295D01*
X16255495Y-10030295D01*
X16255552Y-10032002D01*
X16258612Y-10041187D01*
X16264190Y-10043966D01*
X16264632Y-10043497D01*
X16334705Y-10043497D01*
X16336984Y-10053605D01*
X16345266Y-10056699D01*
X16353352Y-10053849D01*
X16355827Y-10043497D01*
X16355757Y-10043185D01*
X16371669Y-10043185D01*
X16371680Y-10043497D01*
X16371764Y-10046081D01*
X16374698Y-10056671D01*
X16380282Y-10059370D01*
X16386533Y-10052886D01*
X16388737Y-10046137D01*
X16413915Y-10046137D01*
X16413915Y-10046329D01*
X16415356Y-10057389D01*
X16418755Y-10061979D01*
X16422477Y-10060545D01*
X16426394Y-10052143D01*
X16425641Y-10039536D01*
X16424294Y-10035438D01*
X16419779Y-10030438D01*
X16415694Y-10034357D01*
X16414183Y-10044362D01*
X16413915Y-10046137D01*
X16388737Y-10046137D01*
X16389317Y-10044362D01*
X16387399Y-10034337D01*
X16379150Y-10030295D01*
X16374323Y-10033017D01*
X16371669Y-10043185D01*
X16355757Y-10043185D01*
X16353548Y-10033389D01*
X16345266Y-10030295D01*
X16337180Y-10033145D01*
X16336591Y-10035609D01*
X16334705Y-10043497D01*
X16264632Y-10043497D01*
X16269299Y-10038551D01*
X16270171Y-10035609D01*
X16270120Y-10025346D01*
X16266489Y-10017873D01*
X16260813Y-10017071D01*
X16258011Y-10020304D01*
X16255495Y-10030295D01*
X16238369Y-10030295D01*
X16238413Y-10027930D01*
X16237783Y-10023753D01*
X16239804Y-10016280D01*
X16249679Y-10013408D01*
X16251472Y-10013169D01*
X16260915Y-10008996D01*
X16262656Y-10001768D01*
X16293525Y-10001768D01*
X16293586Y-10006613D01*
X16297392Y-10016130D01*
X16303836Y-10022187D01*
X16310107Y-10021448D01*
X16312494Y-10014844D01*
X16313469Y-10003892D01*
X16334705Y-10003892D01*
X16336440Y-10010719D01*
X16345266Y-10014453D01*
X16352093Y-10012718D01*
X16355827Y-10003892D01*
X16355748Y-10003580D01*
X16371669Y-10003580D01*
X16371719Y-10003892D01*
X16372855Y-10010991D01*
X16377782Y-10017449D01*
X16384135Y-10016070D01*
X16384702Y-10015449D01*
X16387624Y-10006659D01*
X16386785Y-10002929D01*
X16411709Y-10002929D01*
X16413627Y-10006659D01*
X16416556Y-10012355D01*
X16421124Y-10017941D01*
X16423733Y-10017642D01*
X16424308Y-10007852D01*
X16422626Y-9997421D01*
X16417796Y-9993145D01*
X16411755Y-9997833D01*
X16411709Y-10002929D01*
X16386785Y-10002929D01*
X16385571Y-9997537D01*
X16379590Y-9993331D01*
X16375052Y-9995192D01*
X16371669Y-10003580D01*
X16355748Y-10003580D01*
X16354092Y-9997065D01*
X16345266Y-9993331D01*
X16338439Y-9995066D01*
X16335241Y-10002625D01*
X16334705Y-10003892D01*
X16313469Y-10003892D01*
X16313582Y-10002625D01*
X16313502Y-9999083D01*
X16311122Y-9990285D01*
X16304341Y-9989037D01*
X16298688Y-9992105D01*
X16295211Y-9998611D01*
X16293525Y-10001768D01*
X16262656Y-10001768D01*
X16263416Y-9998611D01*
X16263316Y-9995627D01*
X16259756Y-9987089D01*
X16248864Y-9983736D01*
X16247109Y-9983549D01*
X16238370Y-9983881D01*
X16233057Y-9988385D01*
X16229857Y-9999188D01*
X16227459Y-10018414D01*
X16226740Y-10029340D01*
X16207053Y-10029340D01*
X16206336Y-10024457D01*
X16200048Y-10019734D01*
X16194488Y-10022999D01*
X16192127Y-10035576D01*
X16166245Y-10035576D01*
X16166405Y-10030753D01*
X16168361Y-10017912D01*
X16172265Y-10008709D01*
X16178758Y-10000226D01*
X16191793Y-9985410D01*
X16191960Y-9999931D01*
X16193738Y-10009772D01*
X16199483Y-10014453D01*
X16202170Y-10014117D01*
X16209149Y-10008240D01*
X16210552Y-9998629D01*
X16205267Y-9989993D01*
X16202625Y-9986946D01*
X16205646Y-9984355D01*
X16216374Y-9982203D01*
X16236230Y-9980032D01*
X16239030Y-9979781D01*
X16258597Y-9978627D01*
X16273888Y-9978723D01*
X16281797Y-9980067D01*
X16283627Y-9980686D01*
X16294613Y-9982420D01*
X16313263Y-9984346D01*
X16337538Y-9986271D01*
X16365401Y-9988001D01*
X16376161Y-9988634D01*
X16403994Y-9990743D01*
X16428129Y-9993224D01*
X16446279Y-9995820D01*
X16456160Y-9998272D01*
X16468595Y-10004325D01*
X16474795Y-10007852D01*
X16487644Y-10015163D01*
G37*
G36*
X16585536Y-8923944D02*
G01*
X16583269Y-8931283D01*
X16572335Y-8937146D01*
X16565913Y-8939899D01*
X16563658Y-8940866D01*
X16559133Y-8947707D01*
X16558962Y-8949226D01*
X16553818Y-8954953D01*
X16540848Y-8959125D01*
X16519156Y-8961941D01*
X16487844Y-8963600D01*
X16448239Y-8964849D01*
X16472509Y-8969399D01*
X16474642Y-8969799D01*
X16483443Y-8971458D01*
X16500503Y-8974720D01*
X16512279Y-8977034D01*
X16522111Y-8982020D01*
X16526601Y-8986697D01*
X16530545Y-8990803D01*
X16532096Y-8992419D01*
X16537398Y-9000510D01*
X16540679Y-9005518D01*
X16515595Y-9012833D01*
X16513869Y-9013340D01*
X16500725Y-9017790D01*
X16496800Y-9020923D01*
X16501062Y-9023496D01*
X16501691Y-9023720D01*
X16511044Y-9031184D01*
X16511906Y-9032524D01*
X16519043Y-9043627D01*
X16519655Y-9045017D01*
X16523439Y-9056013D01*
X16523502Y-9056195D01*
X16521397Y-9063751D01*
X16512144Y-9072732D01*
X16511837Y-9072925D01*
X16499140Y-9080895D01*
X16475668Y-9085583D01*
X16472891Y-9085654D01*
X16461700Y-9086310D01*
X16459961Y-9087702D01*
X16466721Y-9090337D01*
X16467122Y-9090463D01*
X16481010Y-9093322D01*
X16481990Y-9093524D01*
X16499079Y-9095091D01*
X16511097Y-9096455D01*
X16523656Y-9102105D01*
X16525576Y-9106410D01*
X16527640Y-9111039D01*
X16522079Y-9122120D01*
X16512434Y-9128890D01*
X16497899Y-9132582D01*
X16487102Y-9133977D01*
X16484801Y-9135223D01*
X16479923Y-9137863D01*
X16479781Y-9140882D01*
X16481778Y-9141594D01*
X16486212Y-9143173D01*
X16500529Y-9144801D01*
X16516902Y-9149324D01*
X16530418Y-9155374D01*
X16537261Y-9161576D01*
X16537559Y-9167307D01*
X16537373Y-9167662D01*
X16532505Y-9176938D01*
X16531300Y-9178210D01*
X16529820Y-9180907D01*
X16525476Y-9188824D01*
X16526580Y-9197585D01*
X16534361Y-9201231D01*
X16541712Y-9202566D01*
X16553752Y-9208425D01*
X16559530Y-9213145D01*
X16559872Y-9216640D01*
X16559992Y-9217864D01*
X16552550Y-9225074D01*
X16550010Y-9227367D01*
X16549169Y-9228127D01*
X16544802Y-9235046D01*
X16548363Y-9241381D01*
X16556154Y-9246652D01*
X16569350Y-9251783D01*
X16579908Y-9256931D01*
X16581700Y-9263333D01*
X16582605Y-9266565D01*
X16582274Y-9271444D01*
X16582901Y-9284079D01*
X16585254Y-9286782D01*
X16587805Y-9289713D01*
X16598738Y-9291002D01*
X16602143Y-9291188D01*
X16606827Y-9293019D01*
X16612253Y-9295140D01*
X16614017Y-9299585D01*
X16615052Y-9302194D01*
X16610902Y-9307339D01*
X16609043Y-9309643D01*
X16605931Y-9314770D01*
X16607785Y-9317405D01*
X16610255Y-9320916D01*
X16620312Y-9325908D01*
X16623494Y-9326397D01*
X16633709Y-9327967D01*
X16635509Y-9327991D01*
X16647675Y-9330164D01*
X16651656Y-9334972D01*
X16650929Y-9335807D01*
X16646264Y-9341168D01*
X16643540Y-9343346D01*
X16640560Y-9351730D01*
X16640372Y-9352259D01*
X16642268Y-9356130D01*
X16644688Y-9361073D01*
X16655098Y-9365901D01*
X16665132Y-9369024D01*
X16671799Y-9375493D01*
X16672287Y-9377063D01*
X16672114Y-9380666D01*
X16666075Y-9376557D01*
X16660502Y-9373128D01*
X16654343Y-9375236D01*
X16653422Y-9377495D01*
X16656348Y-9380773D01*
X16658698Y-9381902D01*
X16658735Y-9388694D01*
X16658634Y-9394194D01*
X16666510Y-9396615D01*
X16667390Y-9396628D01*
X16678227Y-9399919D01*
X16680713Y-9405131D01*
X16681628Y-9407049D01*
X16676114Y-9415161D01*
X16670243Y-9419994D01*
X16668541Y-9424512D01*
X16675675Y-9426581D01*
X16692470Y-9426789D01*
X16717553Y-9426183D01*
X16719022Y-9498530D01*
X16720491Y-9570877D01*
X16066140Y-9570877D01*
X16064445Y-9522882D01*
X16064325Y-9519119D01*
X16064284Y-9494775D01*
X16065679Y-9477986D01*
X16068399Y-9470220D01*
X16072729Y-9468463D01*
X16085649Y-9466495D01*
X16102723Y-9465856D01*
X16104468Y-9465861D01*
X16124830Y-9464757D01*
X16149926Y-9461983D01*
X16174732Y-9458079D01*
X16181151Y-9456949D01*
X16219281Y-9452745D01*
X16253942Y-9452965D01*
X16277911Y-9453524D01*
X16309551Y-9451772D01*
X16342626Y-9447828D01*
X16373448Y-9443270D01*
X16409474Y-9438690D01*
X16439442Y-9436097D01*
X16465844Y-9435366D01*
X16491172Y-9436372D01*
X16517918Y-9438988D01*
X16533045Y-9440656D01*
X16560354Y-9442469D01*
X16583821Y-9441807D01*
X16607844Y-9438654D01*
X16611068Y-9438084D01*
X16628324Y-9434320D01*
X16639807Y-9430572D01*
X16643176Y-9427576D01*
X16641564Y-9425855D01*
X16632991Y-9423019D01*
X16632293Y-9422968D01*
X16623321Y-9418764D01*
X16612473Y-9409870D01*
X16608935Y-9407177D01*
X16667387Y-9407177D01*
X16667447Y-9408372D01*
X16669715Y-9412457D01*
X16670562Y-9412214D01*
X16675308Y-9407177D01*
X16676133Y-9405131D01*
X16672979Y-9401896D01*
X16671446Y-9402099D01*
X16667387Y-9407177D01*
X16608935Y-9407177D01*
X16601414Y-9401450D01*
X16590244Y-9400206D01*
X16584900Y-9401447D01*
X16584817Y-9397780D01*
X16585088Y-9397263D01*
X16582313Y-9392290D01*
X16570013Y-9388406D01*
X16553086Y-9382304D01*
X16537910Y-9372297D01*
X16531420Y-9367062D01*
X16517756Y-9361258D01*
X16498484Y-9359651D01*
X16488427Y-9359531D01*
X16477684Y-9358115D01*
X16477238Y-9357719D01*
X16557427Y-9357719D01*
X16561773Y-9359651D01*
X16564569Y-9359270D01*
X16565294Y-9356130D01*
X16564520Y-9355498D01*
X16558253Y-9356130D01*
X16557427Y-9357719D01*
X16477238Y-9357719D01*
X16472864Y-9353831D01*
X16472422Y-9351730D01*
X16477283Y-9351730D01*
X16479923Y-9354370D01*
X16482563Y-9351730D01*
X16479923Y-9349089D01*
X16477283Y-9351730D01*
X16472422Y-9351730D01*
X16471033Y-9345129D01*
X16470517Y-9341229D01*
X16469570Y-9338528D01*
X16625141Y-9338528D01*
X16625284Y-9339781D01*
X16630110Y-9343809D01*
X16631592Y-9343607D01*
X16638343Y-9338528D01*
X16638840Y-9335807D01*
X16633374Y-9333247D01*
X16629440Y-9333894D01*
X16625141Y-9338528D01*
X16469570Y-9338528D01*
X16468390Y-9335161D01*
X16462934Y-9331772D01*
X16451739Y-9330059D01*
X16432397Y-9329016D01*
X16424124Y-9328641D01*
X16408638Y-9327285D01*
X16405210Y-9326303D01*
X16527873Y-9326303D01*
X16535370Y-9327133D01*
X16542634Y-9326397D01*
X16541971Y-9324470D01*
X16539581Y-9323772D01*
X16528769Y-9324470D01*
X16527873Y-9326303D01*
X16405210Y-9326303D01*
X16397247Y-9324022D01*
X16387455Y-9317405D01*
X16392792Y-9317405D01*
X16392793Y-9317471D01*
X16397511Y-9321157D01*
X16408634Y-9322686D01*
X16408831Y-9322686D01*
X16419887Y-9321113D01*
X16424476Y-9317405D01*
X16424475Y-9317340D01*
X16419757Y-9313654D01*
X16408634Y-9312125D01*
X16408437Y-9312125D01*
X16397381Y-9313698D01*
X16392792Y-9317405D01*
X16387455Y-9317405D01*
X16387263Y-9317276D01*
X16380416Y-9310100D01*
X16450879Y-9310100D01*
X16452845Y-9311273D01*
X16461441Y-9312125D01*
X16467575Y-9311229D01*
X16472002Y-9307339D01*
X16470739Y-9305969D01*
X16506509Y-9305969D01*
X16514538Y-9304351D01*
X16530089Y-9298923D01*
X16531595Y-9298310D01*
X16586285Y-9298310D01*
X16587079Y-9299963D01*
X16596098Y-9300534D01*
X16597738Y-9300499D01*
X16604751Y-9299585D01*
X16602598Y-9297904D01*
X16597239Y-9297055D01*
X16586756Y-9298100D01*
X16586285Y-9298310D01*
X16531595Y-9298310D01*
X16535135Y-9296869D01*
X16541635Y-9293019D01*
X16538010Y-9291591D01*
X16527790Y-9293323D01*
X16514247Y-9298923D01*
X16506821Y-9303778D01*
X16506509Y-9305969D01*
X16470739Y-9305969D01*
X16469861Y-9305018D01*
X16461441Y-9305314D01*
X16455233Y-9307326D01*
X16450879Y-9310100D01*
X16380416Y-9310100D01*
X16376002Y-9305474D01*
X16362344Y-9288940D01*
X16387511Y-9288940D01*
X16387668Y-9289208D01*
X16393769Y-9290483D01*
X16405994Y-9291002D01*
X16408409Y-9290966D01*
X16419831Y-9289572D01*
X16424476Y-9286782D01*
X16424295Y-9286213D01*
X16418152Y-9284348D01*
X16405994Y-9284719D01*
X16403538Y-9285024D01*
X16392144Y-9287037D01*
X16387511Y-9288940D01*
X16362344Y-9288940D01*
X16360776Y-9287042D01*
X16360529Y-9286757D01*
X16351479Y-9282287D01*
X16337783Y-9280441D01*
X16325345Y-9279048D01*
X16314042Y-9273403D01*
X16310608Y-9264888D01*
X16316387Y-9255093D01*
X16321606Y-9250386D01*
X16323716Y-9249148D01*
X16319439Y-9255126D01*
X16316025Y-9262213D01*
X16317077Y-9271263D01*
X16324455Y-9275160D01*
X16328476Y-9271543D01*
X16328981Y-9265197D01*
X16348276Y-9265197D01*
X16355387Y-9268770D01*
X16368748Y-9269487D01*
X16384132Y-9267335D01*
X16395966Y-9263068D01*
X16448285Y-9263068D01*
X16456160Y-9263349D01*
X16468946Y-9262326D01*
X16485204Y-9259318D01*
X16494157Y-9256886D01*
X16494555Y-9256550D01*
X16553788Y-9256550D01*
X16557718Y-9264599D01*
X16561864Y-9270440D01*
X16568984Y-9274770D01*
X16575340Y-9269289D01*
X16575367Y-9263333D01*
X16568619Y-9256982D01*
X16557768Y-9254118D01*
X16556616Y-9254145D01*
X16554943Y-9255568D01*
X16553788Y-9256550D01*
X16494555Y-9256550D01*
X16495719Y-9255568D01*
X16487844Y-9255287D01*
X16475058Y-9256310D01*
X16474316Y-9256447D01*
X16458800Y-9259318D01*
X16449847Y-9261751D01*
X16448285Y-9263068D01*
X16395966Y-9263068D01*
X16397443Y-9262536D01*
X16402894Y-9259329D01*
X16404932Y-9256447D01*
X16399166Y-9254557D01*
X16384242Y-9252643D01*
X16372269Y-9251919D01*
X16356882Y-9253580D01*
X16348278Y-9258218D01*
X16348276Y-9265197D01*
X16328981Y-9265197D01*
X16329237Y-9261983D01*
X16326654Y-9250517D01*
X16321126Y-9241213D01*
X16314602Y-9236502D01*
X16302644Y-9232915D01*
X16296865Y-9231976D01*
X16292459Y-9227634D01*
X16288486Y-9225023D01*
X16276558Y-9222695D01*
X16259455Y-9221466D01*
X16226451Y-9220578D01*
X16258135Y-9217293D01*
X16268398Y-9216042D01*
X16274743Y-9214613D01*
X16309175Y-9214613D01*
X16313410Y-9216488D01*
X16324583Y-9217444D01*
X16332315Y-9217780D01*
X16337023Y-9219115D01*
X16332451Y-9221801D01*
X16328705Y-9223328D01*
X16325343Y-9226197D01*
X16331562Y-9229351D01*
X16331880Y-9229472D01*
X16351207Y-9232354D01*
X16355878Y-9230759D01*
X16419613Y-9230759D01*
X16423466Y-9231846D01*
X16435313Y-9232620D01*
X16452640Y-9232915D01*
X16469297Y-9232363D01*
X16482893Y-9230422D01*
X16487844Y-9227367D01*
X16483223Y-9225437D01*
X16471450Y-9224712D01*
X16455865Y-9225044D01*
X16439808Y-9226268D01*
X16426618Y-9228220D01*
X16419635Y-9230734D01*
X16419613Y-9230759D01*
X16355878Y-9230759D01*
X16370985Y-9225601D01*
X16372773Y-9224592D01*
X16377310Y-9221215D01*
X16375630Y-9218931D01*
X16366298Y-9217083D01*
X16347877Y-9215012D01*
X16347838Y-9215008D01*
X16329519Y-9213563D01*
X16315710Y-9213279D01*
X16309397Y-9214217D01*
X16309175Y-9214613D01*
X16274743Y-9214613D01*
X16279755Y-9213485D01*
X16280591Y-9210657D01*
X16270893Y-9207538D01*
X16256562Y-9205109D01*
X16516946Y-9205109D01*
X16521353Y-9209209D01*
X16526256Y-9213838D01*
X16529892Y-9221215D01*
X16530089Y-9221615D01*
X16533782Y-9226669D01*
X16541727Y-9227045D01*
X16548572Y-9222353D01*
X16550322Y-9216640D01*
X16544793Y-9209644D01*
X16529339Y-9205275D01*
X16520731Y-9204235D01*
X16516946Y-9205109D01*
X16256562Y-9205109D01*
X16250652Y-9204108D01*
X16247041Y-9203641D01*
X16230707Y-9203391D01*
X16222430Y-9207628D01*
X16219278Y-9211040D01*
X16220260Y-9205835D01*
X16220839Y-9200994D01*
X16217081Y-9191333D01*
X16214605Y-9185432D01*
X16216439Y-9183363D01*
X16250521Y-9183363D01*
X16255495Y-9185679D01*
X16271818Y-9188592D01*
X16292498Y-9189634D01*
X16312423Y-9188706D01*
X16326784Y-9185799D01*
X16332340Y-9183444D01*
X16333398Y-9180907D01*
X16331269Y-9180108D01*
X16498783Y-9180108D01*
X16511149Y-9180108D01*
X16517475Y-9179438D01*
X16527698Y-9174744D01*
X16532244Y-9167662D01*
X16528834Y-9160693D01*
X16521282Y-9159751D01*
X16510476Y-9167913D01*
X16498783Y-9180108D01*
X16331269Y-9180108D01*
X16324853Y-9177699D01*
X16314881Y-9176308D01*
X16297413Y-9176233D01*
X16277327Y-9177734D01*
X16265466Y-9179197D01*
X16253515Y-9181322D01*
X16250521Y-9183363D01*
X16216439Y-9183363D01*
X16220934Y-9178294D01*
X16223630Y-9176195D01*
X16227005Y-9171565D01*
X16223718Y-9167776D01*
X16212511Y-9164007D01*
X16192127Y-9159432D01*
X16180237Y-9156731D01*
X16164831Y-9152439D01*
X16155806Y-9148875D01*
X16154007Y-9147560D01*
X16152251Y-9143144D01*
X16160443Y-9143144D01*
X16161336Y-9145573D01*
X16168364Y-9148424D01*
X16172008Y-9147828D01*
X16176285Y-9143144D01*
X16175391Y-9140714D01*
X16168364Y-9137863D01*
X16164720Y-9138459D01*
X16160443Y-9143144D01*
X16152251Y-9143144D01*
X16151345Y-9140865D01*
X16154800Y-9137159D01*
X16200483Y-9137159D01*
X16202315Y-9139797D01*
X16210373Y-9143144D01*
X16211987Y-9143814D01*
X16227455Y-9147720D01*
X16246743Y-9150799D01*
X16290612Y-9152748D01*
X16332064Y-9148121D01*
X16333451Y-9147841D01*
X16354079Y-9144587D01*
X16374310Y-9142617D01*
X16375696Y-9142536D01*
X16382597Y-9141594D01*
X16380566Y-9140344D01*
X16371060Y-9138910D01*
X16355536Y-9137412D01*
X16335451Y-9135974D01*
X16321578Y-9135223D01*
X16435037Y-9135223D01*
X16437678Y-9137863D01*
X16440318Y-9135223D01*
X16437678Y-9132582D01*
X16435037Y-9135223D01*
X16321578Y-9135223D01*
X16312264Y-9134718D01*
X16287430Y-9133765D01*
X16262407Y-9133238D01*
X16241490Y-9133300D01*
X16221012Y-9134047D01*
X16206594Y-9135381D01*
X16200483Y-9137159D01*
X16154800Y-9137159D01*
X16156757Y-9135059D01*
X16168364Y-9132582D01*
X16177663Y-9131758D01*
X16183164Y-9128025D01*
X16179080Y-9122192D01*
X16172524Y-9118830D01*
X16330920Y-9118830D01*
X16338696Y-9120062D01*
X16356610Y-9120819D01*
X16384871Y-9121119D01*
X16389066Y-9121123D01*
X16419607Y-9120700D01*
X16443723Y-9119564D01*
X16460587Y-9117833D01*
X16469371Y-9115629D01*
X16469298Y-9114104D01*
X16505565Y-9114104D01*
X16505655Y-9115629D01*
X16506079Y-9122799D01*
X16508879Y-9127302D01*
X16509205Y-9127291D01*
X16516554Y-9122928D01*
X16522046Y-9114221D01*
X16522311Y-9106410D01*
X16515761Y-9101008D01*
X16509009Y-9103738D01*
X16505565Y-9114104D01*
X16469298Y-9114104D01*
X16469249Y-9113071D01*
X16459394Y-9110281D01*
X16445628Y-9109132D01*
X16424568Y-9109085D01*
X16399628Y-9109989D01*
X16374125Y-9111672D01*
X16351378Y-9113964D01*
X16334705Y-9116694D01*
X16333078Y-9117105D01*
X16330920Y-9118830D01*
X16172524Y-9118830D01*
X16165576Y-9115268D01*
X16160365Y-9112972D01*
X16149094Y-9105763D01*
X16144601Y-9099123D01*
X16144467Y-9098352D01*
X16177591Y-9098352D01*
X16179389Y-9100746D01*
X16198525Y-9105569D01*
X16225849Y-9107858D01*
X16257316Y-9107148D01*
X16289819Y-9103364D01*
X16293211Y-9102805D01*
X16315829Y-9099454D01*
X16336142Y-9097007D01*
X16350107Y-9095961D01*
X16352478Y-9095895D01*
X16362846Y-9094924D01*
X16365854Y-9093322D01*
X16363801Y-9092829D01*
X16352920Y-9091840D01*
X16334384Y-9090796D01*
X16310057Y-9089796D01*
X16281803Y-9088937D01*
X16262165Y-9088524D01*
X16241678Y-9088372D01*
X16228648Y-9088648D01*
X16224108Y-9089324D01*
X16229091Y-9090371D01*
X16241500Y-9091942D01*
X16247811Y-9093109D01*
X16245675Y-9093883D01*
X16234390Y-9094474D01*
X16213249Y-9095092D01*
X16204215Y-9095383D01*
X16185788Y-9096578D01*
X16177591Y-9098352D01*
X16144467Y-9098352D01*
X16143971Y-9095509D01*
X16138000Y-9088553D01*
X16137466Y-9086555D01*
X16145489Y-9085473D01*
X16156323Y-9084455D01*
X16168375Y-9081681D01*
X16172932Y-9078530D01*
X16171021Y-9074228D01*
X16167389Y-9072831D01*
X16406418Y-9072831D01*
X16413915Y-9073661D01*
X16421179Y-9072925D01*
X16420516Y-9070998D01*
X16418125Y-9070300D01*
X16407314Y-9070998D01*
X16406418Y-9072831D01*
X16167389Y-9072831D01*
X16162012Y-9070764D01*
X16147823Y-9069295D01*
X16135708Y-9066762D01*
X16123338Y-9056752D01*
X16118365Y-9041649D01*
X16118338Y-9041427D01*
X16136934Y-9041427D01*
X16145476Y-9046146D01*
X16162113Y-9052105D01*
X16168646Y-9053828D01*
X16187789Y-9057104D01*
X16211253Y-9059494D01*
X16236920Y-9060973D01*
X16262671Y-9061520D01*
X16286387Y-9061109D01*
X16305950Y-9059719D01*
X16319242Y-9057325D01*
X16324143Y-9053903D01*
X16323370Y-9053270D01*
X16314818Y-9051464D01*
X16298308Y-9049563D01*
X16289958Y-9048895D01*
X16469362Y-9048895D01*
X16482366Y-9053903D01*
X16487844Y-9056013D01*
X16495302Y-9058782D01*
X16509862Y-9062875D01*
X16517387Y-9061952D01*
X16519528Y-9056013D01*
X16518122Y-9052101D01*
X16510491Y-9049128D01*
X16494445Y-9048493D01*
X16469362Y-9048895D01*
X16289958Y-9048895D01*
X16275709Y-9047756D01*
X16248894Y-9046234D01*
X16241613Y-9045885D01*
X16212746Y-9044299D01*
X16186516Y-9042562D01*
X16165562Y-9040862D01*
X16152522Y-9039386D01*
X16146276Y-9038548D01*
X16137022Y-9038658D01*
X16136934Y-9041427D01*
X16118338Y-9041427D01*
X16118205Y-9040347D01*
X16112864Y-9030870D01*
X16107283Y-9025551D01*
X16206441Y-9025551D01*
X16206801Y-9028769D01*
X16211062Y-9029717D01*
X16224897Y-9031051D01*
X16246640Y-9032384D01*
X16274769Y-9033640D01*
X16307762Y-9034742D01*
X16344098Y-9035616D01*
X16385044Y-9036244D01*
X16420642Y-9036329D01*
X16445900Y-9035749D01*
X16460925Y-9034487D01*
X16465823Y-9032524D01*
X16460701Y-9029841D01*
X16445666Y-9026419D01*
X16420824Y-9022241D01*
X16416054Y-9021557D01*
X16392906Y-9019200D01*
X16366016Y-9017656D01*
X16336972Y-9016877D01*
X16307363Y-9016814D01*
X16278778Y-9017420D01*
X16252804Y-9018644D01*
X16231031Y-9020440D01*
X16215047Y-9022758D01*
X16206441Y-9025551D01*
X16107283Y-9025551D01*
X16102355Y-9020853D01*
X16098267Y-9017385D01*
X16130803Y-9017385D01*
X16130948Y-9020437D01*
X16137305Y-9020497D01*
X16151121Y-9017386D01*
X16173644Y-9010925D01*
X16173977Y-9010825D01*
X16178529Y-9009273D01*
X16461070Y-9009273D01*
X16466948Y-9009888D01*
X16482563Y-9009984D01*
X16491202Y-9009889D01*
X16513331Y-9008533D01*
X16526031Y-9005459D01*
X16530089Y-9000510D01*
X16527797Y-8998668D01*
X16516759Y-8998377D01*
X16497734Y-9000844D01*
X16489448Y-9002488D01*
X16472002Y-9005949D01*
X16464109Y-9007826D01*
X16461070Y-9009273D01*
X16178529Y-9009273D01*
X16188073Y-9006020D01*
X16194958Y-9002488D01*
X16193145Y-9000988D01*
X16184267Y-9001444D01*
X16168223Y-9004086D01*
X16151525Y-9008208D01*
X16137881Y-9012851D01*
X16130998Y-9017057D01*
X16130803Y-9017385D01*
X16098267Y-9017385D01*
X16096769Y-9016115D01*
X16088338Y-9004339D01*
X16087455Y-8996907D01*
X16093648Y-8996907D01*
X16094121Y-9005339D01*
X16098127Y-9009436D01*
X16108429Y-9009678D01*
X16123349Y-9000848D01*
X16136421Y-8990803D01*
X16121581Y-8987079D01*
X16121300Y-8987057D01*
X16303735Y-8987057D01*
X16311153Y-8987504D01*
X16327021Y-8987799D01*
X16350547Y-8987906D01*
X16366976Y-8987858D01*
X16385508Y-8987622D01*
X16395856Y-8987222D01*
X16397228Y-8986697D01*
X16388832Y-8986083D01*
X16368888Y-8985482D01*
X16339121Y-8985389D01*
X16312262Y-8986083D01*
X16305560Y-8986498D01*
X16303735Y-8987057D01*
X16121300Y-8987057D01*
X16112242Y-8986376D01*
X16100696Y-8989915D01*
X16093648Y-8996907D01*
X16087455Y-8996907D01*
X16087081Y-8993763D01*
X16093652Y-8986934D01*
X16098452Y-8981476D01*
X16098521Y-8971673D01*
X16098465Y-8971558D01*
X16124230Y-8971558D01*
X16128457Y-8976616D01*
X16132021Y-8978085D01*
X16146340Y-8980504D01*
X16167080Y-8981678D01*
X16191424Y-8981584D01*
X16216554Y-8980200D01*
X16239653Y-8977502D01*
X16248190Y-8976067D01*
X16264588Y-8972459D01*
X16270650Y-8969399D01*
X16266530Y-8966935D01*
X16252385Y-8965115D01*
X16228372Y-8963987D01*
X16194647Y-8963601D01*
X16172382Y-8963841D01*
X16146072Y-8965194D01*
X16130062Y-8967758D01*
X16124230Y-8971558D01*
X16098465Y-8971558D01*
X16094059Y-8962424D01*
X16086254Y-8958320D01*
X16085057Y-8958237D01*
X16077504Y-8952701D01*
X16073156Y-8941045D01*
X16073074Y-8939691D01*
X16135421Y-8939691D01*
X16139999Y-8940632D01*
X16152522Y-8940968D01*
X16162288Y-8940730D01*
X16167995Y-8939899D01*
X16164331Y-8938689D01*
X16152414Y-8937810D01*
X16137927Y-8938761D01*
X16135421Y-8939691D01*
X16073074Y-8939691D01*
X16072291Y-8926847D01*
X16072914Y-8924013D01*
X16323138Y-8924013D01*
X16330996Y-8924618D01*
X16347704Y-8925088D01*
X16373834Y-8925462D01*
X16409954Y-8925782D01*
X16445388Y-8925876D01*
X16479433Y-8925498D01*
X16504330Y-8924607D01*
X16519611Y-8923220D01*
X16524809Y-8921356D01*
X16522900Y-8920010D01*
X16512307Y-8918305D01*
X16493931Y-8917215D01*
X16469485Y-8916744D01*
X16440683Y-8916894D01*
X16409237Y-8917667D01*
X16376860Y-8919065D01*
X16345266Y-8921092D01*
X16331694Y-8922226D01*
X16323561Y-8923229D01*
X16323138Y-8924013D01*
X16072914Y-8924013D01*
X16075186Y-8913680D01*
X16082120Y-8905122D01*
X16084237Y-8904640D01*
X16095855Y-8903674D01*
X16116325Y-8902748D01*
X16144503Y-8901889D01*
X16179244Y-8901123D01*
X16219404Y-8900479D01*
X16263837Y-8899984D01*
X16311399Y-8899665D01*
X16362345Y-8899493D01*
X16415747Y-8899533D01*
X16460069Y-8899915D01*
X16496127Y-8900711D01*
X16524735Y-8901994D01*
X16546707Y-8903835D01*
X16562857Y-8906307D01*
X16574001Y-8909482D01*
X16580953Y-8913431D01*
X16584526Y-8918228D01*
X16585079Y-8921356D01*
X16585536Y-8923944D01*
G37*
G36*
X17623187Y-9178493D02*
G01*
X17623187Y-9232915D01*
X17623187Y-9333247D01*
X17623187Y-9441501D01*
X17623187Y-9591496D01*
X17623187Y-9631605D01*
X17623187Y-10357697D01*
X15922813Y-10357697D01*
X15922813Y-10321377D01*
X16794123Y-10321377D01*
X16903697Y-10319735D01*
X16931700Y-10319320D01*
X16979490Y-10318632D01*
X17030294Y-10317918D01*
X17079587Y-10317242D01*
X17122844Y-10316666D01*
X17232418Y-10315241D01*
X17232418Y-10241095D01*
X17189076Y-10242628D01*
X17173652Y-10243249D01*
X17158074Y-10244480D01*
X17149246Y-10246708D01*
X17144889Y-10250637D01*
X17142725Y-10256972D01*
X17139145Y-10265660D01*
X17132418Y-10272215D01*
X17128608Y-10272555D01*
X17127800Y-10267326D01*
X17129601Y-10260946D01*
X17133616Y-10245588D01*
X17137070Y-10232077D01*
X17157770Y-10232077D01*
X17159154Y-10234371D01*
X17168976Y-10235636D01*
X17188288Y-10236081D01*
X17204636Y-10235911D01*
X17219928Y-10234027D01*
X17228261Y-10228729D01*
X17231727Y-10218369D01*
X17232418Y-10201299D01*
X17232027Y-10193323D01*
X17243375Y-10193323D01*
X17243683Y-10201299D01*
X17243977Y-10208923D01*
X17245620Y-10236239D01*
X17282320Y-10236240D01*
X17298069Y-10236092D01*
X17309875Y-10234857D01*
X17311934Y-10231388D01*
X17304520Y-10224545D01*
X17287912Y-10213186D01*
X17266836Y-10199212D01*
X17257666Y-10211126D01*
X17255651Y-10213638D01*
X17249688Y-10218911D01*
X17248745Y-10215649D01*
X17253430Y-10204765D01*
X17255731Y-10196968D01*
X17251362Y-10189819D01*
X17272475Y-10189819D01*
X17277837Y-10196876D01*
X17289062Y-10205297D01*
X17290384Y-10206109D01*
X17307371Y-10215310D01*
X17318309Y-10218719D01*
X17322069Y-10215971D01*
X17322051Y-10215754D01*
X17320539Y-10208457D01*
X17317085Y-10194087D01*
X17312378Y-10175514D01*
X17302808Y-10138549D01*
X17297083Y-10147843D01*
X17291499Y-10156906D01*
X17280189Y-10175264D01*
X17295909Y-10191482D01*
X17301881Y-10197919D01*
X17309787Y-10208168D01*
X17310908Y-10212515D01*
X17305480Y-10210047D01*
X17293741Y-10199854D01*
X17287732Y-10194474D01*
X17277888Y-10187945D01*
X17272585Y-10187805D01*
X17272475Y-10189819D01*
X17251362Y-10189819D01*
X17250467Y-10188356D01*
X17247704Y-10186315D01*
X17244425Y-10186397D01*
X17243375Y-10193323D01*
X17232027Y-10193323D01*
X17231848Y-10189678D01*
X17228919Y-10186003D01*
X17221857Y-10188715D01*
X17215588Y-10192698D01*
X17214449Y-10197927D01*
X17219932Y-10207548D01*
X17225098Y-10217767D01*
X17225410Y-10223887D01*
X17221324Y-10222041D01*
X17215926Y-10213161D01*
X17213306Y-10207626D01*
X17208185Y-10200819D01*
X17201565Y-10201697D01*
X17190173Y-10209838D01*
X17186764Y-10212416D01*
X17176180Y-10218911D01*
X17170806Y-10219669D01*
X17172195Y-10214303D01*
X17173483Y-10211316D01*
X17169780Y-10212027D01*
X17167454Y-10214051D01*
X17166435Y-10220440D01*
X17166290Y-10224216D01*
X17159920Y-10230475D01*
X17157770Y-10232077D01*
X17137070Y-10232077D01*
X17139450Y-10222766D01*
X17141815Y-10213406D01*
X17155016Y-10213406D01*
X17155855Y-10213364D01*
X17161604Y-10208657D01*
X17163850Y-10206293D01*
X17174331Y-10206293D01*
X17174830Y-10208351D01*
X17180604Y-10208904D01*
X17191493Y-10202487D01*
X17191562Y-10202434D01*
X17198749Y-10194267D01*
X17200619Y-10186740D01*
X17196272Y-10183435D01*
X17193671Y-10184298D01*
X17185680Y-10190572D01*
X17177856Y-10199338D01*
X17174331Y-10206293D01*
X17163850Y-10206293D01*
X17170390Y-10199409D01*
X17179729Y-10188478D01*
X17187139Y-10178719D01*
X17189678Y-10173870D01*
X17202166Y-10173870D01*
X17203669Y-10183911D01*
X17206897Y-10186740D01*
X17207586Y-10187344D01*
X17215429Y-10186004D01*
X17223525Y-10178298D01*
X17229859Y-10166421D01*
X17232418Y-10152569D01*
X17232313Y-10148287D01*
X17230359Y-10143169D01*
X17224432Y-10146524D01*
X17219323Y-10153277D01*
X17222899Y-10160775D01*
X17223070Y-10161134D01*
X17225110Y-10163700D01*
X17226071Y-10167232D01*
X17218480Y-10165557D01*
X17218378Y-10165525D01*
X17208092Y-10166473D01*
X17202871Y-10172990D01*
X17202166Y-10173870D01*
X17189678Y-10173870D01*
X17190138Y-10172990D01*
X17190104Y-10172724D01*
X17186970Y-10166205D01*
X17180304Y-10155371D01*
X17172341Y-10143293D01*
X17181117Y-10143293D01*
X17184394Y-10150819D01*
X17189256Y-10158596D01*
X17197058Y-10165393D01*
X17202951Y-10162996D01*
X17203683Y-10160775D01*
X17199477Y-10153498D01*
X17185685Y-10144015D01*
X17183972Y-10143089D01*
X17181117Y-10143293D01*
X17172341Y-10143293D01*
X17170505Y-10140509D01*
X17161633Y-10175830D01*
X17161459Y-10176523D01*
X17157393Y-10194317D01*
X17155080Y-10207551D01*
X17155016Y-10213406D01*
X17141815Y-10213406D01*
X17146740Y-10193909D01*
X17155123Y-10160445D01*
X17162522Y-10130698D01*
X17176971Y-10130698D01*
X17192813Y-10141189D01*
X17201463Y-10146809D01*
X17209932Y-10150805D01*
X17215189Y-10148932D01*
X17220631Y-10141189D01*
X17223088Y-10136920D01*
X17223309Y-10132667D01*
X17244488Y-10132667D01*
X17244488Y-10152569D01*
X17244488Y-10153592D01*
X17244625Y-10159619D01*
X17247388Y-10174470D01*
X17254415Y-10182755D01*
X17255187Y-10183231D01*
X17263145Y-10186132D01*
X17267330Y-10181167D01*
X17268562Y-10174060D01*
X17265157Y-10166252D01*
X17257332Y-10165237D01*
X17252796Y-10163877D01*
X17251309Y-10158516D01*
X17272383Y-10158516D01*
X17273350Y-10164141D01*
X17277588Y-10163598D01*
X17284212Y-10156690D01*
X17285141Y-10155116D01*
X17287036Y-10147843D01*
X17282868Y-10147201D01*
X17275053Y-10153921D01*
X17272383Y-10158516D01*
X17251309Y-10158516D01*
X17250127Y-10154252D01*
X17249992Y-10150641D01*
X17251337Y-10144381D01*
X17256374Y-10146630D01*
X17256946Y-10147084D01*
X17265192Y-10149153D01*
X17276950Y-10143576D01*
X17277172Y-10143430D01*
X17286597Y-10136647D01*
X17290505Y-10132661D01*
X17289593Y-10132095D01*
X17281411Y-10131045D01*
X17267497Y-10130628D01*
X17244488Y-10130628D01*
X17244488Y-10132667D01*
X17223309Y-10132667D01*
X17216981Y-10130960D01*
X17202099Y-10130663D01*
X17176971Y-10130698D01*
X17162522Y-10130698D01*
X17163852Y-10125347D01*
X17177559Y-10125347D01*
X17202348Y-10125347D01*
X17214070Y-10125033D01*
X17224368Y-10122784D01*
X17224820Y-10121387D01*
X17243147Y-10121387D01*
X17244192Y-10122573D01*
X17252610Y-10124561D01*
X17266742Y-10125347D01*
X17273830Y-10125243D01*
X17285781Y-10124427D01*
X17290505Y-10123067D01*
X17290271Y-10122512D01*
X17284800Y-10117268D01*
X17274351Y-10109283D01*
X17270988Y-10106903D01*
X17261691Y-10101257D01*
X17256194Y-10101579D01*
X17250756Y-10107603D01*
X17246155Y-10114469D01*
X17244886Y-10117388D01*
X17243147Y-10121387D01*
X17224820Y-10121387D01*
X17226113Y-10117388D01*
X17220479Y-10107699D01*
X17218783Y-10105482D01*
X17213970Y-10101961D01*
X17207344Y-10103939D01*
X17195690Y-10111971D01*
X17177559Y-10125347D01*
X17163852Y-10125347D01*
X17164236Y-10123804D01*
X17169894Y-10100883D01*
X17181674Y-10100883D01*
X17184854Y-10101343D01*
X17186077Y-10100168D01*
X17195728Y-10100168D01*
X17199033Y-10101832D01*
X17203791Y-10098095D01*
X17222463Y-10098095D01*
X17226081Y-10105281D01*
X17227371Y-10106494D01*
X17231353Y-10107337D01*
X17232244Y-10100317D01*
X17244370Y-10100317D01*
X17248104Y-10101681D01*
X17249960Y-10100050D01*
X17250675Y-10093298D01*
X17249397Y-10089044D01*
X17254936Y-10089992D01*
X17267721Y-10097431D01*
X17272532Y-10100427D01*
X17285419Y-10106506D01*
X17293092Y-10106969D01*
X17293864Y-10101552D01*
X17293665Y-10101010D01*
X17290771Y-10090505D01*
X17287670Y-10075997D01*
X17284844Y-10064793D01*
X17279860Y-10059575D01*
X17270198Y-10059814D01*
X17262044Y-10060933D01*
X17259861Y-10059694D01*
X17266431Y-10054092D01*
X17266903Y-10053725D01*
X17272622Y-10048562D01*
X17270434Y-10046507D01*
X17259012Y-10046137D01*
X17256663Y-10046139D01*
X17246446Y-10046690D01*
X17245110Y-10049638D01*
X17251192Y-10057021D01*
X17254600Y-10060989D01*
X17256325Y-10064620D01*
X17257825Y-10067778D01*
X17253650Y-10072473D01*
X17248368Y-10078880D01*
X17244376Y-10091094D01*
X17244371Y-10098944D01*
X17244370Y-10100317D01*
X17232244Y-10100317D01*
X17232418Y-10098944D01*
X17232379Y-10096402D01*
X17230810Y-10090008D01*
X17228278Y-10091400D01*
X17226081Y-10092607D01*
X17222463Y-10098095D01*
X17203791Y-10098095D01*
X17205909Y-10096431D01*
X17209102Y-10091400D01*
X17206973Y-10088383D01*
X17205060Y-10088661D01*
X17197877Y-10094015D01*
X17195728Y-10100168D01*
X17186077Y-10100168D01*
X17192591Y-10093908D01*
X17198785Y-10083409D01*
X17197963Y-10068793D01*
X17196091Y-10062318D01*
X17195476Y-10061356D01*
X17200734Y-10061356D01*
X17200931Y-10062905D01*
X17206015Y-10069900D01*
X17208042Y-10070746D01*
X17211295Y-10067883D01*
X17211098Y-10066334D01*
X17206015Y-10059339D01*
X17203988Y-10058493D01*
X17200734Y-10061356D01*
X17195476Y-10061356D01*
X17193897Y-10058885D01*
X17191237Y-10063597D01*
X17186838Y-10077444D01*
X17182813Y-10091846D01*
X17181674Y-10100883D01*
X17169894Y-10100883D01*
X17170762Y-10097366D01*
X17179457Y-10061509D01*
X17182931Y-10046517D01*
X17198094Y-10046517D01*
X17212495Y-10058311D01*
X17221154Y-10066084D01*
X17221820Y-10067883D01*
X17223045Y-10071194D01*
X17218083Y-10075666D01*
X17213118Y-10080104D01*
X17214604Y-10083409D01*
X17215297Y-10084952D01*
X17220216Y-10085088D01*
X17226872Y-10078316D01*
X17226943Y-10078185D01*
X17231704Y-10066305D01*
X17231640Y-10064620D01*
X17242979Y-10064620D01*
X17244664Y-10066305D01*
X17245620Y-10067260D01*
X17248260Y-10064620D01*
X17245620Y-10061979D01*
X17242979Y-10064620D01*
X17231640Y-10064620D01*
X17231445Y-10059490D01*
X17226240Y-10059894D01*
X17222690Y-10060885D01*
X17223434Y-10054925D01*
X17224166Y-10052643D01*
X17222473Y-10047551D01*
X17212450Y-10046327D01*
X17198094Y-10046517D01*
X17182931Y-10046517D01*
X17184724Y-10038781D01*
X17206015Y-10038781D01*
X17208124Y-10040006D01*
X17216888Y-10040857D01*
X17222901Y-10039786D01*
X17224412Y-10036327D01*
X17245550Y-10036327D01*
X17246294Y-10039776D01*
X17256445Y-10040696D01*
X17264595Y-10040399D01*
X17267764Y-10038814D01*
X17262273Y-10034868D01*
X17255015Y-10031973D01*
X17246695Y-10035029D01*
X17246009Y-10035807D01*
X17245550Y-10036327D01*
X17224412Y-10036327D01*
X17224640Y-10035807D01*
X17224596Y-10035739D01*
X17218476Y-10033435D01*
X17210181Y-10034785D01*
X17206015Y-10038781D01*
X17184724Y-10038781D01*
X17185826Y-10034027D01*
X17187164Y-10027655D01*
X17227137Y-10027655D01*
X17229778Y-10030295D01*
X17232418Y-10027655D01*
X17229778Y-10025015D01*
X17227137Y-10027655D01*
X17187164Y-10027655D01*
X17189446Y-10016782D01*
X17200734Y-10016782D01*
X17200837Y-10019448D01*
X17203332Y-10024781D01*
X17208429Y-10020099D01*
X17209147Y-10018195D01*
X17208617Y-10017094D01*
X17221857Y-10017094D01*
X17222958Y-10018195D01*
X17224497Y-10019734D01*
X17226429Y-10017802D01*
X17243913Y-10017802D01*
X17248260Y-10019734D01*
X17251056Y-10019353D01*
X17251649Y-10016782D01*
X17264102Y-10016782D01*
X17264524Y-10020014D01*
X17269383Y-10027655D01*
X17272630Y-10027347D01*
X17274663Y-10020046D01*
X17273632Y-10013609D01*
X17269383Y-10009173D01*
X17267054Y-10009957D01*
X17264348Y-10016214D01*
X17264102Y-10016782D01*
X17251649Y-10016782D01*
X17251780Y-10016214D01*
X17251006Y-10015582D01*
X17244740Y-10016214D01*
X17244282Y-10017094D01*
X17243913Y-10017802D01*
X17226429Y-10017802D01*
X17227137Y-10017094D01*
X17224497Y-10014453D01*
X17221857Y-10017094D01*
X17208617Y-10017094D01*
X17206101Y-10011866D01*
X17203332Y-10011343D01*
X17200734Y-10016782D01*
X17189446Y-10016782D01*
X17190079Y-10013769D01*
X17192419Y-9999631D01*
X17219077Y-9999631D01*
X17219123Y-10002009D01*
X17225589Y-10006193D01*
X17226591Y-10006569D01*
X17231883Y-10007677D01*
X17228545Y-10003237D01*
X17225279Y-10000702D01*
X17244409Y-10000702D01*
X17244491Y-10002504D01*
X17251340Y-10003475D01*
X17256531Y-10002629D01*
X17254531Y-10000285D01*
X17251477Y-9999441D01*
X17244409Y-10000702D01*
X17225279Y-10000702D01*
X17224663Y-10000223D01*
X17219077Y-9999631D01*
X17192419Y-9999631D01*
X17192426Y-9999591D01*
X17193076Y-9990343D01*
X17193045Y-9990140D01*
X17212725Y-9990140D01*
X17212807Y-9991943D01*
X17219656Y-9992914D01*
X17224847Y-9992068D01*
X17223202Y-9990140D01*
X17244409Y-9990140D01*
X17244491Y-9991943D01*
X17245375Y-9992068D01*
X17251340Y-9992914D01*
X17256531Y-9992068D01*
X17254531Y-9989723D01*
X17251477Y-9988880D01*
X17244409Y-9990140D01*
X17223202Y-9990140D01*
X17222847Y-9989723D01*
X17219793Y-9988880D01*
X17212725Y-9990140D01*
X17193045Y-9990140D01*
X17192238Y-9984878D01*
X17190123Y-9982048D01*
X17188852Y-9981143D01*
X17185278Y-9977918D01*
X17190946Y-9979255D01*
X17194729Y-9979667D01*
X17200237Y-9974853D01*
X17201146Y-9972208D01*
X17256181Y-9972208D01*
X17257265Y-9973788D01*
X17261773Y-9977489D01*
X17262300Y-9977351D01*
X17264102Y-9972208D01*
X17263887Y-9970761D01*
X17258510Y-9966927D01*
X17256600Y-9967342D01*
X17256181Y-9972208D01*
X17201146Y-9972208D01*
X17203906Y-9964181D01*
X17212424Y-9964181D01*
X17213056Y-9970448D01*
X17214644Y-9971274D01*
X17216576Y-9966927D01*
X17216195Y-9964132D01*
X17213056Y-9963407D01*
X17212424Y-9964181D01*
X17203906Y-9964181D01*
X17204906Y-9961271D01*
X17206531Y-9954267D01*
X17206578Y-9953726D01*
X17221857Y-9953726D01*
X17224497Y-9956366D01*
X17227137Y-9953726D01*
X17242979Y-9953726D01*
X17245620Y-9956366D01*
X17248260Y-9953726D01*
X17245620Y-9951085D01*
X17242979Y-9953726D01*
X17227137Y-9953726D01*
X17224497Y-9951085D01*
X17221857Y-9953726D01*
X17206578Y-9953726D01*
X17207452Y-9943662D01*
X17204133Y-9940443D01*
X17202075Y-9939360D01*
X17206015Y-9934889D01*
X17208289Y-9933217D01*
X17208757Y-9932291D01*
X17221857Y-9932291D01*
X17222503Y-9936226D01*
X17227137Y-9940524D01*
X17228390Y-9940382D01*
X17232418Y-9935555D01*
X17232217Y-9934073D01*
X17230641Y-9931980D01*
X17242979Y-9931980D01*
X17243454Y-9935547D01*
X17243459Y-9935555D01*
X17248260Y-9943164D01*
X17250900Y-9943728D01*
X17253541Y-9938507D01*
X17253458Y-9937884D01*
X17263118Y-9937884D01*
X17263282Y-9938507D01*
X17264811Y-9944312D01*
X17268700Y-9952267D01*
X17269200Y-9952680D01*
X17276948Y-9952462D01*
X17289228Y-9947160D01*
X17302969Y-9938394D01*
X17315101Y-9927786D01*
X17315301Y-9927572D01*
X17322652Y-9918904D01*
X17322935Y-9913474D01*
X17316421Y-9907008D01*
X17309617Y-9902563D01*
X17307126Y-9903361D01*
X17306347Y-9903611D01*
X17305499Y-9905976D01*
X17298554Y-9908840D01*
X17288406Y-9910924D01*
X17275525Y-9918227D01*
X17265959Y-9928145D01*
X17263118Y-9937884D01*
X17253458Y-9937884D01*
X17253066Y-9934940D01*
X17248260Y-9927322D01*
X17245620Y-9926759D01*
X17242979Y-9931980D01*
X17230641Y-9931980D01*
X17227137Y-9927322D01*
X17224417Y-9926826D01*
X17221857Y-9932291D01*
X17208757Y-9932291D01*
X17210612Y-9928623D01*
X17203987Y-9923088D01*
X17203587Y-9922832D01*
X17192312Y-9914852D01*
X17179300Y-9904743D01*
X17177344Y-9903198D01*
X17166841Y-9897281D01*
X17188379Y-9897281D01*
X17189907Y-9905879D01*
X17194412Y-9910001D01*
X17204077Y-9914912D01*
X17212789Y-9916223D01*
X17216576Y-9912888D01*
X17215987Y-9911374D01*
X17228266Y-9911374D01*
X17228898Y-9917641D01*
X17230486Y-9918467D01*
X17232418Y-9914121D01*
X17232044Y-9911374D01*
X17244108Y-9911374D01*
X17244385Y-9914121D01*
X17244740Y-9917641D01*
X17246328Y-9918467D01*
X17248260Y-9914121D01*
X17248018Y-9912349D01*
X17257726Y-9912349D01*
X17258300Y-9913164D01*
X17261260Y-9914121D01*
X17264632Y-9915211D01*
X17276577Y-9910520D01*
X17286507Y-9903361D01*
X17286389Y-9897331D01*
X17280755Y-9895086D01*
X17267539Y-9899160D01*
X17265242Y-9900919D01*
X17259014Y-9905688D01*
X17257726Y-9912349D01*
X17248018Y-9912349D01*
X17247879Y-9911325D01*
X17244740Y-9910600D01*
X17244108Y-9911374D01*
X17232044Y-9911374D01*
X17232037Y-9911325D01*
X17228898Y-9910600D01*
X17228266Y-9911374D01*
X17215987Y-9911374D01*
X17214790Y-9908296D01*
X17207786Y-9900919D01*
X17227137Y-9900919D01*
X17229778Y-9903559D01*
X17232418Y-9900919D01*
X17229778Y-9898279D01*
X17227137Y-9900919D01*
X17207786Y-9900919D01*
X17207335Y-9900444D01*
X17203341Y-9897354D01*
X17201957Y-9894910D01*
X17209975Y-9896517D01*
X17215249Y-9897030D01*
X17221528Y-9893324D01*
X17221322Y-9890192D01*
X17253541Y-9890192D01*
X17254077Y-9893324D01*
X17254464Y-9895580D01*
X17260251Y-9897621D01*
X17271814Y-9891164D01*
X17277780Y-9885027D01*
X17275210Y-9880134D01*
X17267415Y-9878024D01*
X17257810Y-9881517D01*
X17253541Y-9890192D01*
X17221322Y-9890192D01*
X17221075Y-9886431D01*
X17213139Y-9880221D01*
X17212568Y-9880021D01*
X17202684Y-9881067D01*
X17197690Y-9884845D01*
X17193630Y-9887916D01*
X17188379Y-9897281D01*
X17166841Y-9897281D01*
X17166480Y-9897078D01*
X17161590Y-9898442D01*
X17163465Y-9905729D01*
X17172896Y-9917378D01*
X17176666Y-9921236D01*
X17180361Y-9926011D01*
X17176971Y-9924558D01*
X17169585Y-9918842D01*
X17159789Y-9909383D01*
X17153755Y-9904584D01*
X17146976Y-9907679D01*
X17144804Y-9912753D01*
X17148941Y-9922742D01*
X17160934Y-9934326D01*
X17179606Y-9946120D01*
X17184223Y-9948734D01*
X17190916Y-9953950D01*
X17189589Y-9956133D01*
X17186779Y-9955753D01*
X17175339Y-9951191D01*
X17161503Y-9943077D01*
X17160884Y-9942660D01*
X17145491Y-9934403D01*
X17135588Y-9933600D01*
X17132085Y-9940338D01*
X17134281Y-9943631D01*
X17143241Y-9951463D01*
X17156754Y-9961149D01*
X17166988Y-9968319D01*
X17174880Y-9974936D01*
X17175640Y-9977489D01*
X17171185Y-9975892D01*
X17160082Y-9969296D01*
X17146070Y-9959330D01*
X17141709Y-9956045D01*
X17129082Y-9947628D01*
X17121395Y-9945310D01*
X17116401Y-9948255D01*
X17113266Y-9953472D01*
X17116594Y-9957363D01*
X17117108Y-9957812D01*
X17114530Y-9963211D01*
X17105602Y-9973052D01*
X17091842Y-9985600D01*
X17087120Y-9989604D01*
X17074226Y-10000228D01*
X17068146Y-10004361D01*
X17068032Y-10002416D01*
X17073035Y-9994810D01*
X17075183Y-9991830D01*
X17083974Y-9980753D01*
X17090086Y-9974696D01*
X17093359Y-9971942D01*
X17094134Y-9965161D01*
X17085880Y-9960448D01*
X17082347Y-9959162D01*
X17083385Y-9955701D01*
X17093466Y-9949537D01*
X17095386Y-9948498D01*
X17106873Y-9941432D01*
X17113014Y-9936197D01*
X17113034Y-9932391D01*
X17109521Y-9921183D01*
X17102787Y-9906221D01*
X17098264Y-9896329D01*
X17092461Y-9879500D01*
X17090453Y-9867020D01*
X17090687Y-9862854D01*
X17091628Y-9858426D01*
X17093328Y-9863954D01*
X17094850Y-9870303D01*
X17100112Y-9887243D01*
X17106388Y-9903091D01*
X17112394Y-9914819D01*
X17116846Y-9919401D01*
X17123176Y-9915364D01*
X17125077Y-9905324D01*
X17121613Y-9893165D01*
X17120475Y-9890792D01*
X17115676Y-9876689D01*
X17111827Y-9859794D01*
X17111780Y-9859517D01*
X17109529Y-9852073D01*
X17116382Y-9852073D01*
X17116539Y-9854393D01*
X17119705Y-9868179D01*
X17125623Y-9883927D01*
X17128783Y-9890742D01*
X17133895Y-9899160D01*
X17139010Y-9900141D01*
X17147030Y-9895213D01*
X17148616Y-9894057D01*
X17156301Y-9884845D01*
X17155898Y-9872600D01*
X17155530Y-9871159D01*
X17151293Y-9860329D01*
X17158745Y-9860329D01*
X17162530Y-9869235D01*
X17169333Y-9877066D01*
X17180362Y-9883706D01*
X17189242Y-9881255D01*
X17193051Y-9876747D01*
X17194757Y-9869397D01*
X17187698Y-9866595D01*
X17183446Y-9868013D01*
X17182754Y-9875836D01*
X17183073Y-9877026D01*
X17181971Y-9877799D01*
X17177138Y-9870555D01*
X17176877Y-9870108D01*
X17169549Y-9860152D01*
X17163601Y-9856033D01*
X17162507Y-9856104D01*
X17158745Y-9860329D01*
X17151293Y-9860329D01*
X17150076Y-9857219D01*
X17143811Y-9851534D01*
X17137879Y-9855204D01*
X17137717Y-9855462D01*
X17133811Y-9858242D01*
X17130672Y-9851199D01*
X17129914Y-9848726D01*
X17124448Y-9841079D01*
X17118857Y-9842260D01*
X17116382Y-9852073D01*
X17109529Y-9852073D01*
X17106680Y-9842648D01*
X17098943Y-9835889D01*
X17093361Y-9836305D01*
X17089314Y-9843765D01*
X17089203Y-9845326D01*
X17087921Y-9848083D01*
X17085236Y-9840704D01*
X17084889Y-9839593D01*
X17080668Y-9832879D01*
X17072096Y-9826592D01*
X17158489Y-9826592D01*
X17158489Y-9826659D01*
X17162847Y-9834551D01*
X17173187Y-9842240D01*
X17178953Y-9845125D01*
X17185765Y-9846655D01*
X17190017Y-9841727D01*
X17190615Y-9839981D01*
X17195546Y-9839981D01*
X17200015Y-9853951D01*
X17214728Y-9865707D01*
X17217091Y-9866900D01*
X17225103Y-9868690D01*
X17229429Y-9862960D01*
X17230291Y-9857858D01*
X17226797Y-9850542D01*
X17224913Y-9848990D01*
X17222345Y-9840287D01*
X17226018Y-9830773D01*
X17234486Y-9825211D01*
X17244632Y-9826671D01*
X17249951Y-9834806D01*
X17247599Y-9846707D01*
X17245323Y-9853558D01*
X17245683Y-9866794D01*
X17247078Y-9869397D01*
X17250225Y-9875270D01*
X17257175Y-9875426D01*
X17266443Y-9865420D01*
X17272861Y-9852312D01*
X17273785Y-9835265D01*
X17267515Y-9820483D01*
X17255946Y-9809575D01*
X17240975Y-9804151D01*
X17224499Y-9805819D01*
X17211783Y-9814017D01*
X17208415Y-9816188D01*
X17201407Y-9824478D01*
X17195546Y-9839981D01*
X17190615Y-9839981D01*
X17194539Y-9828523D01*
X17194581Y-9828387D01*
X17198273Y-9814017D01*
X17197593Y-9805082D01*
X17192224Y-9797295D01*
X17185411Y-9790902D01*
X17178928Y-9787385D01*
X17178353Y-9787476D01*
X17172754Y-9792894D01*
X17166203Y-9803856D01*
X17160761Y-9816406D01*
X17158489Y-9826592D01*
X17072096Y-9826592D01*
X17071759Y-9826345D01*
X17056354Y-9818918D01*
X17033991Y-9810060D01*
X17122378Y-9810060D01*
X17129134Y-9816529D01*
X17136764Y-9821349D01*
X17144976Y-9824070D01*
X17145775Y-9823835D01*
X17151201Y-9818177D01*
X17158352Y-9807125D01*
X17165752Y-9793543D01*
X17170575Y-9783201D01*
X17189158Y-9783201D01*
X17193496Y-9785425D01*
X17205101Y-9782593D01*
X17221245Y-9777821D01*
X17243872Y-9777678D01*
X17267117Y-9782959D01*
X17272345Y-9785446D01*
X17286563Y-9798179D01*
X17297009Y-9815716D01*
X17300835Y-9833770D01*
X17299253Y-9833691D01*
X17295467Y-9826969D01*
X17290920Y-9816728D01*
X17287052Y-9806221D01*
X17285304Y-9798701D01*
X17284112Y-9798182D01*
X17277029Y-9799961D01*
X17273024Y-9800868D01*
X17271897Y-9798150D01*
X17272026Y-9793889D01*
X17265056Y-9788136D01*
X17252101Y-9783810D01*
X17235837Y-9782104D01*
X17220415Y-9782956D01*
X17205653Y-9787393D01*
X17200734Y-9795622D01*
X17202473Y-9799230D01*
X17210442Y-9800846D01*
X17226694Y-9799654D01*
X17233068Y-9798959D01*
X17247201Y-9798718D01*
X17256987Y-9802268D01*
X17266941Y-9810866D01*
X17268763Y-9812716D01*
X17276632Y-9822750D01*
X17279376Y-9833529D01*
X17279272Y-9835265D01*
X17278401Y-9849834D01*
X17277795Y-9856201D01*
X17278432Y-9872901D01*
X17283649Y-9883525D01*
X17285046Y-9885027D01*
X17285590Y-9885613D01*
X17292246Y-9889605D01*
X17299015Y-9885243D01*
X17305489Y-9876405D01*
X17312237Y-9863032D01*
X17312690Y-9861926D01*
X17317323Y-9854142D01*
X17320521Y-9854420D01*
X17320812Y-9860231D01*
X17317251Y-9871235D01*
X17313942Y-9878502D01*
X17311628Y-9887370D01*
X17311679Y-9888665D01*
X17314561Y-9893029D01*
X17320279Y-9889605D01*
X17326622Y-9879548D01*
X17329787Y-9869756D01*
X17332424Y-9848123D01*
X17331546Y-9824766D01*
X17327118Y-9804891D01*
X17320238Y-9791364D01*
X17310856Y-9778970D01*
X17301549Y-9770857D01*
X17294674Y-9769589D01*
X17293788Y-9774231D01*
X17298930Y-9782661D01*
X17300460Y-9784391D01*
X17306074Y-9792622D01*
X17304514Y-9794958D01*
X17297131Y-9791450D01*
X17285273Y-9782148D01*
X17282745Y-9779957D01*
X17259867Y-9766202D01*
X17235374Y-9762583D01*
X17207979Y-9768880D01*
X17204646Y-9770248D01*
X17201054Y-9771722D01*
X17190085Y-9778173D01*
X17189158Y-9783201D01*
X17170575Y-9783201D01*
X17171930Y-9780296D01*
X17175410Y-9770248D01*
X17174720Y-9766262D01*
X17174480Y-9766271D01*
X17167126Y-9770868D01*
X17157992Y-9781598D01*
X17149526Y-9795107D01*
X17144179Y-9808045D01*
X17141937Y-9816125D01*
X17140033Y-9817745D01*
X17137693Y-9809986D01*
X17137477Y-9809157D01*
X17133516Y-9801763D01*
X17126805Y-9803485D01*
X17124117Y-9805436D01*
X17122378Y-9810060D01*
X17033991Y-9810060D01*
X17032642Y-9809525D01*
X17021666Y-9805278D01*
X17001741Y-9796503D01*
X16991966Y-9790003D01*
X16992268Y-9785582D01*
X17002577Y-9783041D01*
X17006880Y-9782859D01*
X17132275Y-9782859D01*
X17133309Y-9787074D01*
X17139572Y-9788325D01*
X17149383Y-9783472D01*
X17160307Y-9773340D01*
X17162443Y-9770821D01*
X17170030Y-9760794D01*
X17171110Y-9755447D01*
X17166394Y-9752323D01*
X17156772Y-9753379D01*
X17144963Y-9764180D01*
X17143023Y-9766590D01*
X17135443Y-9776921D01*
X17132275Y-9782859D01*
X17006880Y-9782859D01*
X17022823Y-9782185D01*
X17031571Y-9781872D01*
X17042415Y-9780231D01*
X17045478Y-9777670D01*
X17041023Y-9774872D01*
X17028176Y-9768591D01*
X17008598Y-9759703D01*
X16983905Y-9748943D01*
X16955715Y-9737042D01*
X16930236Y-9726246D01*
X16905973Y-9715529D01*
X16886994Y-9706661D01*
X16874801Y-9700344D01*
X16870896Y-9697284D01*
X16870992Y-9697161D01*
X16877534Y-9694883D01*
X16891553Y-9692343D01*
X16910180Y-9690066D01*
X16911826Y-9689901D01*
X16929742Y-9687564D01*
X16942439Y-9684960D01*
X16947262Y-9682620D01*
X16944125Y-9680450D01*
X16932827Y-9675593D01*
X16915365Y-9669012D01*
X16893918Y-9661436D01*
X16870663Y-9653597D01*
X16847781Y-9646228D01*
X16827449Y-9640059D01*
X16815768Y-9636886D01*
X16939341Y-9636886D01*
X16993221Y-9664714D01*
X17012891Y-9675091D01*
X17031356Y-9685309D01*
X17044398Y-9693079D01*
X17050011Y-9697251D01*
X17050068Y-9698534D01*
X17044182Y-9702321D01*
X17031753Y-9705534D01*
X17026604Y-9706549D01*
X17016126Y-9709957D01*
X17013192Y-9713329D01*
X17013659Y-9713872D01*
X17020815Y-9719070D01*
X17034215Y-9727446D01*
X17051317Y-9737553D01*
X17069581Y-9747937D01*
X17086466Y-9757151D01*
X17099430Y-9763743D01*
X17105933Y-9766262D01*
X17106147Y-9766257D01*
X17112297Y-9762302D01*
X17113104Y-9761224D01*
X17112968Y-9764773D01*
X17112545Y-9769328D01*
X17116521Y-9774288D01*
X17125236Y-9772639D01*
X17136331Y-9764417D01*
X17150039Y-9750708D01*
X17142327Y-9742499D01*
X17153208Y-9742499D01*
X17155848Y-9745139D01*
X17158489Y-9742499D01*
X17155848Y-9739859D01*
X17153208Y-9742499D01*
X17142327Y-9742499D01*
X17137501Y-9737363D01*
X17136390Y-9736202D01*
X17126455Y-9727528D01*
X17119283Y-9723922D01*
X17115613Y-9722095D01*
X17106555Y-9713940D01*
X17095510Y-9701479D01*
X17077418Y-9679131D01*
X17094190Y-9694641D01*
X17099103Y-9698978D01*
X17107601Y-9705170D01*
X17110963Y-9705486D01*
X17112216Y-9705017D01*
X17118909Y-9709362D01*
X17129445Y-9718736D01*
X17136261Y-9724849D01*
X17144651Y-9730457D01*
X17147927Y-9729687D01*
X17147930Y-9729293D01*
X17149594Y-9725401D01*
X17155970Y-9729398D01*
X17162043Y-9732649D01*
X17171215Y-9731942D01*
X17186019Y-9726149D01*
X17202990Y-9720694D01*
X17230370Y-9717139D01*
X17258385Y-9718040D01*
X17281996Y-9723534D01*
X17292259Y-9728877D01*
X17293832Y-9732526D01*
X17287372Y-9733212D01*
X17274145Y-9729908D01*
X17249732Y-9724869D01*
X17218908Y-9725423D01*
X17190151Y-9732562D01*
X17178270Y-9737957D01*
X17173420Y-9742499D01*
X17172895Y-9742991D01*
X17174801Y-9748346D01*
X17178706Y-9751718D01*
X17185621Y-9752610D01*
X17187684Y-9752032D01*
X17188649Y-9755447D01*
X17188983Y-9756628D01*
X17189904Y-9760708D01*
X17198094Y-9761526D01*
X17199337Y-9761292D01*
X17217642Y-9759452D01*
X17239676Y-9759185D01*
X17260702Y-9760402D01*
X17275983Y-9763013D01*
X17286162Y-9764893D01*
X17290505Y-9761766D01*
X17290505Y-9761751D01*
X17285679Y-9756859D01*
X17283548Y-9755966D01*
X17306243Y-9755966D01*
X17309235Y-9765502D01*
X17318626Y-9780304D01*
X17318883Y-9780670D01*
X17330899Y-9804628D01*
X17337205Y-9831778D01*
X17337296Y-9848123D01*
X17337354Y-9858436D01*
X17330894Y-9880920D01*
X17326765Y-9890438D01*
X17326395Y-9900325D01*
X17333900Y-9903559D01*
X17336985Y-9902126D01*
X17342947Y-9892952D01*
X17348368Y-9877834D01*
X17352290Y-9859750D01*
X17353757Y-9841681D01*
X17353513Y-9836054D01*
X17349812Y-9813694D01*
X17343102Y-9793199D01*
X17339711Y-9785296D01*
X17335509Y-9773363D01*
X17334875Y-9767658D01*
X17337082Y-9767306D01*
X17342602Y-9773252D01*
X17349072Y-9785647D01*
X17355322Y-9802072D01*
X17360188Y-9820110D01*
X17360783Y-9823003D01*
X17363491Y-9841713D01*
X17362387Y-9857073D01*
X17357144Y-9874975D01*
X17353904Y-9884476D01*
X17349263Y-9899280D01*
X17346993Y-9908272D01*
X17347162Y-9911516D01*
X17348818Y-9913474D01*
X17352628Y-9917978D01*
X17356377Y-9917387D01*
X17363092Y-9909336D01*
X17369673Y-9894436D01*
X17375207Y-9874947D01*
X17378784Y-9853128D01*
X17378851Y-9829579D01*
X17374548Y-9805513D01*
X17366727Y-9783323D01*
X17356346Y-9764417D01*
X17344365Y-9750202D01*
X17331742Y-9742087D01*
X17319436Y-9741479D01*
X17308406Y-9749785D01*
X17306243Y-9755966D01*
X17283548Y-9755966D01*
X17273050Y-9751565D01*
X17255286Y-9746758D01*
X17235058Y-9743327D01*
X17234254Y-9743230D01*
X17226156Y-9742027D01*
X17227637Y-9741273D01*
X17239188Y-9740650D01*
X17239683Y-9740633D01*
X17258944Y-9742378D01*
X17277344Y-9747456D01*
X17281060Y-9748992D01*
X17291732Y-9752224D01*
X17298565Y-9749639D01*
X17306218Y-9740040D01*
X17312271Y-9731367D01*
X17315860Y-9723428D01*
X17312293Y-9718553D01*
X17300897Y-9713385D01*
X17299401Y-9712751D01*
X17289847Y-9707749D01*
X17287184Y-9704455D01*
X17288724Y-9704247D01*
X17297370Y-9706884D01*
X17310441Y-9712850D01*
X17331401Y-9723543D01*
X17344597Y-9704996D01*
X17344964Y-9704481D01*
X17353317Y-9693825D01*
X17358152Y-9691188D01*
X17361283Y-9695544D01*
X17362104Y-9697441D01*
X17365602Y-9700311D01*
X17371875Y-9697080D01*
X17383086Y-9686888D01*
X17386535Y-9683602D01*
X17396686Y-9675025D01*
X17400598Y-9673726D01*
X17398522Y-9678894D01*
X17390706Y-9689719D01*
X17377400Y-9705390D01*
X17372076Y-9711241D01*
X17361310Y-9721933D01*
X17355569Y-9725104D01*
X17353873Y-9721420D01*
X17353786Y-9717649D01*
X17351935Y-9714191D01*
X17345711Y-9719355D01*
X17342076Y-9724071D01*
X17341747Y-9730215D01*
X17346170Y-9739690D01*
X17356099Y-9755085D01*
X17372378Y-9783311D01*
X17382418Y-9813200D01*
X17383914Y-9829579D01*
X17385366Y-9845472D01*
X17384291Y-9857533D01*
X17380321Y-9875861D01*
X17374381Y-9894550D01*
X17367484Y-9910923D01*
X17360645Y-9922300D01*
X17354877Y-9926002D01*
X17353502Y-9925738D01*
X17348861Y-9926385D01*
X17353614Y-9931474D01*
X17367652Y-9940881D01*
X17368541Y-9941432D01*
X17379430Y-9948949D01*
X17382174Y-9953684D01*
X17377963Y-9957556D01*
X17375348Y-9959287D01*
X17373510Y-9963650D01*
X17377413Y-9970855D01*
X17387947Y-9983187D01*
X17393916Y-9989953D01*
X17403210Y-10001653D01*
X17406140Y-10007392D01*
X17402518Y-10006500D01*
X17392158Y-9998304D01*
X17386989Y-9993775D01*
X17369583Y-9978324D01*
X17358777Y-9968125D01*
X17353411Y-9961882D01*
X17352321Y-9958297D01*
X17354348Y-9956072D01*
X17355104Y-9955413D01*
X17353645Y-9949625D01*
X17343861Y-9940915D01*
X17327593Y-9929331D01*
X17310369Y-9942236D01*
X17307690Y-9944185D01*
X17293279Y-9953213D01*
X17292167Y-9953726D01*
X17281264Y-9958749D01*
X17273791Y-9962160D01*
X17269383Y-9967449D01*
X17269467Y-9968673D01*
X17272610Y-9972208D01*
X17274697Y-9974555D01*
X17286317Y-9974951D01*
X17301910Y-9969694D01*
X17303288Y-9969026D01*
X17313209Y-9964441D01*
X17314783Y-9964620D01*
X17308988Y-9969541D01*
X17300311Y-9975147D01*
X17286383Y-9980971D01*
X17278886Y-9984476D01*
X17276950Y-9992068D01*
X17276808Y-9992623D01*
X17278013Y-9997139D01*
X17279438Y-10002629D01*
X17280747Y-10007677D01*
X17281628Y-10011076D01*
X17283935Y-10020046D01*
X17287172Y-10032634D01*
X17288755Y-10038814D01*
X17294258Y-10060308D01*
X17302501Y-10092594D01*
X17304783Y-10101552D01*
X17310262Y-10123067D01*
X17311516Y-10127988D01*
X17312706Y-10132661D01*
X17318185Y-10154167D01*
X17326728Y-10187583D01*
X17334020Y-10215971D01*
X17334247Y-10216857D01*
X17338002Y-10231388D01*
X17340348Y-10240466D01*
X17344640Y-10256884D01*
X17346728Y-10264589D01*
X17347482Y-10270874D01*
X17342692Y-10272119D01*
X17337547Y-10267696D01*
X17332672Y-10256972D01*
X17331347Y-10252410D01*
X17327957Y-10247771D01*
X17320842Y-10245065D01*
X17307722Y-10243585D01*
X17286321Y-10242628D01*
X17242979Y-10241095D01*
X17242979Y-10261771D01*
X17242972Y-10263208D01*
X17241934Y-10282055D01*
X17239679Y-10298949D01*
X17236420Y-10315241D01*
X17236378Y-10315451D01*
X17464767Y-10315451D01*
X17464770Y-9973528D01*
X17464773Y-9631605D01*
X17260144Y-9632965D01*
X17260096Y-9632965D01*
X17211790Y-9633310D01*
X17164398Y-9633692D01*
X17119528Y-9634096D01*
X17078789Y-9634506D01*
X17043787Y-9634905D01*
X17016131Y-9635276D01*
X16997428Y-9635605D01*
X16939341Y-9636886D01*
X16815768Y-9636886D01*
X16811846Y-9635821D01*
X16803151Y-9634245D01*
X16803144Y-9634245D01*
X16801337Y-9634782D01*
X16799788Y-9636886D01*
X16798476Y-9641306D01*
X16797383Y-9648792D01*
X16796489Y-9660094D01*
X16796093Y-9668872D01*
X16795773Y-9675960D01*
X16795217Y-9697142D01*
X16794801Y-9724388D01*
X16794762Y-9728793D01*
X16794504Y-9758447D01*
X16794308Y-9800069D01*
X16794192Y-9850005D01*
X16794177Y-9866091D01*
X16794171Y-9872726D01*
X16794137Y-9909002D01*
X16794123Y-9977811D01*
X16794123Y-10270566D01*
X16794123Y-10321377D01*
X15922813Y-10321377D01*
X15922813Y-10315451D01*
X16060110Y-10315451D01*
X16395432Y-10315451D01*
X16463822Y-10315428D01*
X16522456Y-10315347D01*
X16572005Y-10315192D01*
X16613210Y-10314943D01*
X16646808Y-10314585D01*
X16673538Y-10314099D01*
X16694140Y-10313468D01*
X16709353Y-10312675D01*
X16719914Y-10311702D01*
X16726564Y-10310532D01*
X16730042Y-10309147D01*
X16731085Y-10307530D01*
X16731209Y-10302373D01*
X16731357Y-10288292D01*
X16731415Y-10270566D01*
X16731407Y-10260975D01*
X16731376Y-10240695D01*
X16731324Y-10213075D01*
X16731256Y-10179919D01*
X16731175Y-10143034D01*
X16731085Y-10104225D01*
X16730755Y-9966927D01*
X16060110Y-9966927D01*
X16060110Y-10315451D01*
X15922813Y-10315451D01*
X15922813Y-9937884D01*
X16255495Y-9937884D01*
X16257455Y-9942503D01*
X16266056Y-9945805D01*
X16272215Y-9944334D01*
X16276617Y-9937884D01*
X16274657Y-9933264D01*
X16266056Y-9929963D01*
X16259897Y-9931433D01*
X16255495Y-9937884D01*
X15922813Y-9937884D01*
X15922813Y-9919671D01*
X16287179Y-9919671D01*
X16287259Y-9922147D01*
X16290902Y-9933279D01*
X16297333Y-9937884D01*
X16300924Y-9940455D01*
X16318639Y-9944254D01*
X16345364Y-9945254D01*
X16357069Y-9945128D01*
X16374104Y-9944341D01*
X16384721Y-9942208D01*
X16391685Y-9937971D01*
X16397765Y-9930870D01*
X16408300Y-9916761D01*
X16408467Y-9931283D01*
X16408683Y-9935858D01*
X16412070Y-9943847D01*
X16421836Y-9945805D01*
X16439457Y-9945805D01*
X16454591Y-9945805D01*
X16458186Y-9945646D01*
X16469990Y-9941140D01*
X16480105Y-9928642D01*
X16490484Y-9911480D01*
X16492139Y-9928642D01*
X16493226Y-9936225D01*
X16497431Y-9943920D01*
X16506661Y-9945805D01*
X16511069Y-9945655D01*
X16515843Y-9943812D01*
X16518367Y-9938058D01*
X16519357Y-9926175D01*
X16519518Y-9907111D01*
X16530098Y-9907111D01*
X16532619Y-9924551D01*
X16539746Y-9937065D01*
X16552851Y-9943640D01*
X16570606Y-9945796D01*
X16588046Y-9943275D01*
X16600560Y-9936148D01*
X16607135Y-9923043D01*
X16609291Y-9905288D01*
X16606770Y-9887848D01*
X16599642Y-9875334D01*
X16587063Y-9869023D01*
X16620648Y-9869023D01*
X16621648Y-9878012D01*
X16623140Y-9883908D01*
X16626934Y-9899755D01*
X16628206Y-9905288D01*
X16631146Y-9918081D01*
X16633774Y-9929026D01*
X16637815Y-9940055D01*
X16643206Y-9944794D01*
X16651860Y-9945805D01*
X16660466Y-9944793D01*
X16666834Y-9939184D01*
X16671334Y-9926002D01*
X16676330Y-9906200D01*
X16681404Y-9924682D01*
X16683360Y-9930897D01*
X16689784Y-9941029D01*
X16700406Y-9944807D01*
X16702851Y-9945054D01*
X16710843Y-9944075D01*
X16715839Y-9937804D01*
X16720241Y-9923685D01*
X16721319Y-9919536D01*
X16726338Y-9900279D01*
X16730667Y-9883757D01*
X16732974Y-9872726D01*
X16730979Y-9867615D01*
X16722973Y-9866595D01*
X16715962Y-9867753D01*
X16707228Y-9876417D01*
X16704351Y-9893742D01*
X16703435Y-9900182D01*
X16700090Y-9901267D01*
X16695747Y-9894919D01*
X16691964Y-9882547D01*
X16691019Y-9878455D01*
X16685876Y-9869085D01*
X16675964Y-9866595D01*
X16669479Y-9867394D01*
X16662869Y-9873011D01*
X16658159Y-9886397D01*
X16653163Y-9906200D01*
X16648081Y-9887717D01*
X16647417Y-9885426D01*
X16640859Y-9872481D01*
X16630693Y-9867451D01*
X16626261Y-9866967D01*
X16620648Y-9869023D01*
X16587063Y-9869023D01*
X16586537Y-9868759D01*
X16568783Y-9866603D01*
X16551343Y-9869124D01*
X16538829Y-9876252D01*
X16532254Y-9889357D01*
X16530098Y-9907111D01*
X16519518Y-9907111D01*
X16519528Y-9905948D01*
X16519528Y-9866091D01*
X16486524Y-9867663D01*
X16482308Y-9867868D01*
X16466005Y-9869068D01*
X16457196Y-9871398D01*
X16453312Y-9876097D01*
X16451787Y-9884400D01*
X16452098Y-9896196D01*
X16455610Y-9905122D01*
X16456291Y-9905909D01*
X16456319Y-9906200D01*
X16457083Y-9914268D01*
X16450311Y-9928241D01*
X16439457Y-9945805D01*
X16421836Y-9945805D01*
X16426473Y-9945659D01*
X16431332Y-9943849D01*
X16433885Y-9938153D01*
X16434873Y-9926344D01*
X16435037Y-9906200D01*
X16434989Y-9892289D01*
X16434386Y-9877711D01*
X16432487Y-9870052D01*
X16428551Y-9867088D01*
X16421836Y-9866595D01*
X16417674Y-9866775D01*
X16410370Y-9870399D01*
X16408467Y-9881116D01*
X16408300Y-9895638D01*
X16397465Y-9881116D01*
X16387290Y-9871299D01*
X16373869Y-9866595D01*
X16367700Y-9866889D01*
X16362055Y-9869603D01*
X16364433Y-9876294D01*
X16374897Y-9888331D01*
X16388686Y-9902723D01*
X16373577Y-9922595D01*
X16368331Y-9929392D01*
X16361614Y-9936862D01*
X16358346Y-9937014D01*
X16356750Y-9930704D01*
X16355403Y-9925129D01*
X16351256Y-9921657D01*
X16342256Y-9922809D01*
X16325998Y-9928407D01*
X16323760Y-9928876D01*
X16316793Y-9925605D01*
X16318766Y-9920998D01*
X16328111Y-9916900D01*
X16340063Y-9912959D01*
X16352094Y-9903956D01*
X16355827Y-9890767D01*
X16355636Y-9886835D01*
X16350835Y-9875061D01*
X16338641Y-9868579D01*
X16317807Y-9866595D01*
X16311947Y-9866637D01*
X16299334Y-9867677D01*
X16293731Y-9871007D01*
X16292459Y-9877816D01*
X16292913Y-9883130D01*
X16297053Y-9887033D01*
X16308097Y-9885910D01*
X16318979Y-9884941D01*
X16325962Y-9887091D01*
X16325020Y-9891202D01*
X16320789Y-9892998D01*
X16314895Y-9895500D01*
X16305527Y-9898403D01*
X16291675Y-9907229D01*
X16287179Y-9919671D01*
X15922813Y-9919671D01*
X15922813Y-9892998D01*
X16255495Y-9892998D01*
X16255540Y-9899105D01*
X16256562Y-9912111D01*
X16259721Y-9918011D01*
X16266056Y-9919401D01*
X16268499Y-9919288D01*
X16273701Y-9916733D01*
X16276061Y-9908835D01*
X16276617Y-9892998D01*
X16276572Y-9886891D01*
X16275550Y-9873885D01*
X16272391Y-9867985D01*
X16266056Y-9866595D01*
X16263613Y-9866708D01*
X16258411Y-9869263D01*
X16256051Y-9877161D01*
X16255495Y-9892998D01*
X15922813Y-9892998D01*
X15922813Y-9769814D01*
X16334713Y-9769814D01*
X16337234Y-9787254D01*
X16344362Y-9799768D01*
X16357467Y-9806343D01*
X16375221Y-9808499D01*
X16392661Y-9805978D01*
X16405175Y-9798850D01*
X16411750Y-9785745D01*
X16413906Y-9767991D01*
X16411386Y-9750551D01*
X16404258Y-9738037D01*
X16402627Y-9737218D01*
X16424476Y-9737218D01*
X16425072Y-9740862D01*
X16429757Y-9745139D01*
X16431335Y-9746230D01*
X16433989Y-9754731D01*
X16434970Y-9767991D01*
X16435037Y-9768902D01*
X16434795Y-9776004D01*
X16432906Y-9787946D01*
X16429757Y-9792665D01*
X16427327Y-9793559D01*
X16424476Y-9800586D01*
X16425442Y-9803946D01*
X16432577Y-9807471D01*
X16448239Y-9808507D01*
X16458318Y-9808185D01*
X16468892Y-9805807D01*
X16472002Y-9800586D01*
X16471406Y-9796942D01*
X16466721Y-9792665D01*
X16465143Y-9791575D01*
X16462490Y-9783074D01*
X16461441Y-9768902D01*
X16482563Y-9768902D01*
X16482564Y-9768953D01*
X16485794Y-9781344D01*
X16493508Y-9794594D01*
X16496055Y-9797683D01*
X16499509Y-9800586D01*
X16504275Y-9804592D01*
X16515353Y-9807753D01*
X16533113Y-9808507D01*
X16561773Y-9808507D01*
X16567988Y-9808507D01*
X16580888Y-9808507D01*
X16589774Y-9806695D01*
X16596828Y-9800586D01*
X16601553Y-9795615D01*
X16612505Y-9792665D01*
X16620582Y-9794197D01*
X16625141Y-9800586D01*
X16627288Y-9805072D01*
X16635921Y-9807742D01*
X16653046Y-9808507D01*
X16664404Y-9808330D01*
X16676566Y-9806552D01*
X16684284Y-9801454D01*
X16691331Y-9791345D01*
X16701711Y-9774183D01*
X16703366Y-9791345D01*
X16704452Y-9798928D01*
X16708657Y-9806622D01*
X16717888Y-9808507D01*
X16722295Y-9808357D01*
X16727070Y-9806515D01*
X16729594Y-9800760D01*
X16730584Y-9788878D01*
X16730755Y-9768650D01*
X16730755Y-9728793D01*
X16697751Y-9730366D01*
X16694057Y-9730545D01*
X16677527Y-9731744D01*
X16668558Y-9734040D01*
X16664586Y-9738648D01*
X16663045Y-9746779D01*
X16663302Y-9758373D01*
X16666760Y-9768147D01*
X16666900Y-9768320D01*
X16668509Y-9776875D01*
X16662127Y-9789994D01*
X16652077Y-9805314D01*
X16646311Y-9789748D01*
X16644612Y-9785161D01*
X16635695Y-9761288D01*
X16629342Y-9745418D01*
X16624570Y-9735919D01*
X16620395Y-9731158D01*
X16615833Y-9729503D01*
X16609902Y-9729323D01*
X16607218Y-9729411D01*
X16600618Y-9731277D01*
X16595176Y-9737130D01*
X16589461Y-9749003D01*
X16582043Y-9768928D01*
X16567988Y-9808507D01*
X16561773Y-9808507D01*
X16561773Y-9729297D01*
X16533113Y-9729297D01*
X16526704Y-9729354D01*
X16511409Y-9730706D01*
X16501618Y-9734877D01*
X16493508Y-9743211D01*
X16493461Y-9743272D01*
X16485763Y-9756534D01*
X16482563Y-9768902D01*
X16461441Y-9768902D01*
X16461683Y-9761801D01*
X16463572Y-9749859D01*
X16466721Y-9745139D01*
X16469151Y-9744246D01*
X16472002Y-9737218D01*
X16471036Y-9733859D01*
X16463902Y-9730334D01*
X16448239Y-9729297D01*
X16438160Y-9729619D01*
X16427586Y-9731998D01*
X16424476Y-9737218D01*
X16402627Y-9737218D01*
X16391153Y-9731462D01*
X16373398Y-9729306D01*
X16355958Y-9731827D01*
X16343444Y-9738954D01*
X16336869Y-9752059D01*
X16334713Y-9769814D01*
X15922813Y-9769814D01*
X15922813Y-9671210D01*
X16149020Y-9671210D01*
X16164154Y-9671210D01*
X16167749Y-9671051D01*
X16179554Y-9666545D01*
X16189668Y-9654048D01*
X16200048Y-9636886D01*
X16201703Y-9654048D01*
X16202789Y-9661631D01*
X16206994Y-9669325D01*
X16216224Y-9671210D01*
X16220632Y-9671060D01*
X16225406Y-9669218D01*
X16227931Y-9663463D01*
X16228921Y-9651580D01*
X16229091Y-9631353D01*
X16229091Y-9623307D01*
X16239653Y-9623307D01*
X16239785Y-9631179D01*
X16242238Y-9651443D01*
X16247951Y-9662912D01*
X16248808Y-9663687D01*
X16260623Y-9669062D01*
X16276695Y-9671210D01*
X16291482Y-9669259D01*
X16304250Y-9660791D01*
X16311372Y-9644669D01*
X16313582Y-9619869D01*
X16313408Y-9607074D01*
X16312404Y-9599921D01*
X16324143Y-9599921D01*
X16324177Y-9600642D01*
X16328956Y-9606124D01*
X16342626Y-9607842D01*
X16344309Y-9607856D01*
X16357100Y-9609905D01*
X16361108Y-9615763D01*
X16358697Y-9619869D01*
X16357843Y-9621322D01*
X16345266Y-9623684D01*
X16334147Y-9625317D01*
X16329424Y-9631605D01*
X16332689Y-9637164D01*
X16345266Y-9639526D01*
X16356385Y-9641159D01*
X16361108Y-9647447D01*
X16361075Y-9648168D01*
X16356296Y-9653650D01*
X16342626Y-9655368D01*
X16340942Y-9655382D01*
X16328151Y-9657431D01*
X16324143Y-9663289D01*
X16324206Y-9664243D01*
X16327552Y-9668445D01*
X16337430Y-9670602D01*
X16355827Y-9671210D01*
X16387511Y-9671210D01*
X16387511Y-9599921D01*
X16392792Y-9599921D01*
X16395376Y-9605088D01*
X16405994Y-9607842D01*
X16406456Y-9607843D01*
X16413580Y-9608605D01*
X16417388Y-9612486D01*
X16418916Y-9621966D01*
X16419195Y-9639526D01*
X16419196Y-9640637D01*
X16419513Y-9657732D01*
X16421130Y-9666873D01*
X16425081Y-9670539D01*
X16432397Y-9671210D01*
X16467655Y-9671210D01*
X16480556Y-9671210D01*
X16489441Y-9669397D01*
X16496496Y-9663289D01*
X16501221Y-9658318D01*
X16512172Y-9655368D01*
X16520250Y-9656900D01*
X16524809Y-9663289D01*
X16527393Y-9668456D01*
X16538010Y-9671210D01*
X16546680Y-9670632D01*
X16551212Y-9668872D01*
X16551160Y-9668530D01*
X16548919Y-9661401D01*
X16544028Y-9647441D01*
X16538251Y-9631605D01*
X16556493Y-9631605D01*
X16556541Y-9645516D01*
X16557144Y-9660094D01*
X16559043Y-9667753D01*
X16560530Y-9668872D01*
X16562979Y-9670716D01*
X16569694Y-9671210D01*
X16578151Y-9670065D01*
X16582100Y-9664477D01*
X16583057Y-9651408D01*
X16583466Y-9640859D01*
X16585108Y-9636678D01*
X16588600Y-9640846D01*
X16593185Y-9645913D01*
X16603894Y-9650087D01*
X16609641Y-9648609D01*
X16616221Y-9640846D01*
X16616832Y-9639185D01*
X16618350Y-9641161D01*
X16619248Y-9651408D01*
X16620381Y-9663866D01*
X16624294Y-9669879D01*
X16633062Y-9671210D01*
X16652478Y-9671210D01*
X16665379Y-9671210D01*
X16674264Y-9669397D01*
X16681319Y-9663289D01*
X16686044Y-9658318D01*
X16696995Y-9655368D01*
X16705073Y-9656900D01*
X16709632Y-9663289D01*
X16712216Y-9668456D01*
X16722834Y-9671210D01*
X16731503Y-9670632D01*
X16736035Y-9668872D01*
X16735984Y-9668530D01*
X16733743Y-9661401D01*
X16728851Y-9647441D01*
X16722222Y-9629267D01*
X16720704Y-9625197D01*
X16713607Y-9607557D01*
X16707905Y-9597533D01*
X16702050Y-9593048D01*
X16694498Y-9592026D01*
X16691681Y-9592119D01*
X16685080Y-9593996D01*
X16679646Y-9599850D01*
X16673943Y-9611716D01*
X16666543Y-9631605D01*
X16666533Y-9631631D01*
X16652478Y-9671210D01*
X16633062Y-9671210D01*
X16637699Y-9671064D01*
X16642559Y-9669255D01*
X16645112Y-9663558D01*
X16646099Y-9651750D01*
X16646264Y-9631605D01*
X16646264Y-9592000D01*
X16631063Y-9592000D01*
X16625946Y-9592272D01*
X16616040Y-9596661D01*
X16608956Y-9608671D01*
X16602051Y-9625342D01*
X16594156Y-9608671D01*
X16591916Y-9604289D01*
X16583463Y-9594623D01*
X16571377Y-9592000D01*
X16556493Y-9592000D01*
X16556493Y-9631605D01*
X16538251Y-9631605D01*
X16537399Y-9629267D01*
X16535881Y-9625197D01*
X16528784Y-9607557D01*
X16523081Y-9597533D01*
X16517227Y-9593048D01*
X16509675Y-9592026D01*
X16506858Y-9592119D01*
X16500257Y-9593996D01*
X16494823Y-9599850D01*
X16494788Y-9599921D01*
X16489120Y-9611716D01*
X16481710Y-9631631D01*
X16467655Y-9671210D01*
X16432397Y-9671210D01*
X16432860Y-9671209D01*
X16439983Y-9670447D01*
X16443792Y-9666566D01*
X16445319Y-9657086D01*
X16445599Y-9639526D01*
X16445793Y-9625493D01*
X16447074Y-9614077D01*
X16450261Y-9608998D01*
X16456160Y-9607842D01*
X16462319Y-9606372D01*
X16466721Y-9599921D01*
X16466182Y-9597441D01*
X16461335Y-9594141D01*
X16449840Y-9592466D01*
X16429757Y-9592000D01*
X16418184Y-9592116D01*
X16402783Y-9593154D01*
X16394966Y-9595617D01*
X16392792Y-9599921D01*
X16387511Y-9599921D01*
X16387511Y-9592000D01*
X16355827Y-9592000D01*
X16352010Y-9592016D01*
X16335203Y-9592852D01*
X16326577Y-9595322D01*
X16324143Y-9599921D01*
X16312404Y-9599921D01*
X16311986Y-9596943D01*
X16308059Y-9592797D01*
X16300380Y-9592000D01*
X16294035Y-9592422D01*
X16289420Y-9595565D01*
X16287538Y-9604048D01*
X16287179Y-9620479D01*
X16286994Y-9629222D01*
X16284743Y-9645067D01*
X16279774Y-9651799D01*
X16273810Y-9653109D01*
X16269013Y-9649820D01*
X16266673Y-9639402D01*
X16266056Y-9620164D01*
X16265872Y-9606936D01*
X16264432Y-9596890D01*
X16260503Y-9592786D01*
X16252854Y-9592000D01*
X16252667Y-9592000D01*
X16245396Y-9592718D01*
X16241504Y-9596512D01*
X16239940Y-9605877D01*
X16239653Y-9623307D01*
X16229091Y-9623307D01*
X16229091Y-9591496D01*
X16196087Y-9593068D01*
X16191872Y-9593273D01*
X16175568Y-9594473D01*
X16166759Y-9596804D01*
X16162875Y-9601502D01*
X16161350Y-9609806D01*
X16161662Y-9621602D01*
X16165173Y-9630527D01*
X16165855Y-9631315D01*
X16166647Y-9639673D01*
X16159875Y-9653647D01*
X16149020Y-9671210D01*
X15922813Y-9671210D01*
X15922813Y-9037755D01*
X16053214Y-9037755D01*
X16053253Y-9084743D01*
X16053365Y-9136436D01*
X16053549Y-9191868D01*
X16053806Y-9250077D01*
X16055422Y-9576158D01*
X16730251Y-9576158D01*
X16731823Y-9543154D01*
X16732039Y-9534915D01*
X16732254Y-9515936D01*
X16732407Y-9488299D01*
X16732497Y-9453063D01*
X16732524Y-9411285D01*
X16732488Y-9364023D01*
X16732387Y-9312335D01*
X16732222Y-9257278D01*
X16732135Y-9235555D01*
X16803366Y-9235555D01*
X16803389Y-9236604D01*
X16806215Y-9252264D01*
X16813123Y-9274271D01*
X16823180Y-9299976D01*
X16835453Y-9326727D01*
X16841668Y-9339692D01*
X16853055Y-9364915D01*
X16862820Y-9388151D01*
X16868314Y-9401289D01*
X16872885Y-9411285D01*
X16879523Y-9425799D01*
X16890446Y-9447458D01*
X16897711Y-9460255D01*
X16905588Y-9472652D01*
X16910518Y-9478602D01*
X16913035Y-9476814D01*
X16913710Y-9475825D01*
X16957823Y-9475825D01*
X16960673Y-9483911D01*
X16971025Y-9486387D01*
X16981133Y-9484107D01*
X16984227Y-9475825D01*
X17000069Y-9475825D01*
X17002918Y-9483911D01*
X17013270Y-9486387D01*
X17023378Y-9484107D01*
X17026472Y-9475825D01*
X17042314Y-9475825D01*
X17045163Y-9483911D01*
X17055516Y-9486387D01*
X17065623Y-9484107D01*
X17068717Y-9475825D01*
X17065868Y-9467739D01*
X17055516Y-9465264D01*
X17045408Y-9467544D01*
X17042314Y-9475825D01*
X17026472Y-9475825D01*
X17023623Y-9467739D01*
X17013270Y-9465264D01*
X17003163Y-9467544D01*
X17000069Y-9475825D01*
X16984227Y-9475825D01*
X16981377Y-9467739D01*
X16971025Y-9465264D01*
X16960917Y-9467544D01*
X16957823Y-9475825D01*
X16913710Y-9475825D01*
X16919280Y-9467678D01*
X16927783Y-9452949D01*
X16928867Y-9450911D01*
X17080027Y-9450911D01*
X17080997Y-9465092D01*
X17087784Y-9475825D01*
X17088936Y-9477647D01*
X17102662Y-9484092D01*
X17125020Y-9486387D01*
X17139746Y-9486031D01*
X17151696Y-9483864D01*
X17157175Y-9478682D01*
X17157205Y-9478466D01*
X17163769Y-9478466D01*
X17164021Y-9480263D01*
X17168140Y-9483968D01*
X17178841Y-9485858D01*
X17198094Y-9486387D01*
X17232418Y-9486387D01*
X17232418Y-9478466D01*
X17248260Y-9478466D01*
X17250771Y-9483180D01*
X17259789Y-9485676D01*
X17277304Y-9486387D01*
X17294590Y-9485702D01*
X17302387Y-9483606D01*
X17312516Y-9483606D01*
X17315943Y-9486145D01*
X17325324Y-9486387D01*
X17334916Y-9484567D01*
X17341782Y-9475825D01*
X17346757Y-9468189D01*
X17359414Y-9465264D01*
X17370382Y-9467237D01*
X17377636Y-9475825D01*
X17381751Y-9482327D01*
X17393834Y-9486387D01*
X17402156Y-9486000D01*
X17406680Y-9484772D01*
X17406444Y-9483840D01*
X17403646Y-9475467D01*
X17398358Y-9460455D01*
X17391422Y-9441206D01*
X17386439Y-9427746D01*
X17379951Y-9412207D01*
X17375136Y-9404536D01*
X17406680Y-9404536D01*
X17407063Y-9406814D01*
X17413115Y-9411149D01*
X17427803Y-9412457D01*
X17433875Y-9412601D01*
X17445437Y-9414871D01*
X17448925Y-9420378D01*
X17448892Y-9421100D01*
X17444113Y-9426582D01*
X17430443Y-9428299D01*
X17428760Y-9428314D01*
X17415968Y-9430362D01*
X17411961Y-9436220D01*
X17411994Y-9436942D01*
X17416773Y-9442424D01*
X17430443Y-9444141D01*
X17435897Y-9444189D01*
X17444911Y-9445730D01*
X17448366Y-9451740D01*
X17448925Y-9465264D01*
X17448930Y-9467104D01*
X17449841Y-9479796D01*
X17453300Y-9484772D01*
X17453621Y-9485234D01*
X17462127Y-9486387D01*
X17468469Y-9485986D01*
X17472393Y-9483388D01*
X17474434Y-9476502D01*
X17475207Y-9463237D01*
X17475329Y-9441501D01*
X17475329Y-9396615D01*
X17441004Y-9396615D01*
X17433214Y-9396673D01*
X17417159Y-9397624D01*
X17408971Y-9400093D01*
X17406680Y-9404536D01*
X17375136Y-9404536D01*
X17374413Y-9403386D01*
X17368351Y-9399219D01*
X17360287Y-9397642D01*
X17354143Y-9397261D01*
X17346676Y-9399184D01*
X17341166Y-9406438D01*
X17335084Y-9421405D01*
X17332280Y-9428981D01*
X17324913Y-9448524D01*
X17318693Y-9464589D01*
X17314214Y-9476047D01*
X17313671Y-9478466D01*
X17312516Y-9483606D01*
X17302387Y-9483606D01*
X17303740Y-9483243D01*
X17306347Y-9478466D01*
X17305427Y-9474772D01*
X17298426Y-9470545D01*
X17293712Y-9468034D01*
X17291216Y-9459016D01*
X17290505Y-9441501D01*
X17291190Y-9424214D01*
X17293649Y-9415065D01*
X17298426Y-9412457D01*
X17302120Y-9411537D01*
X17306347Y-9404536D01*
X17303836Y-9399822D01*
X17294819Y-9397327D01*
X17277304Y-9396615D01*
X17260017Y-9397300D01*
X17250867Y-9399760D01*
X17248260Y-9404536D01*
X17249180Y-9408230D01*
X17256181Y-9412457D01*
X17260896Y-9414969D01*
X17263391Y-9423986D01*
X17264102Y-9441501D01*
X17263417Y-9458788D01*
X17260958Y-9467937D01*
X17256181Y-9470545D01*
X17252487Y-9471465D01*
X17248260Y-9478466D01*
X17232418Y-9478466D01*
X17232418Y-9441501D01*
X17232300Y-9419937D01*
X17231536Y-9406597D01*
X17229511Y-9399658D01*
X17225609Y-9397028D01*
X17219216Y-9396615D01*
X17215696Y-9396683D01*
X17210228Y-9398121D01*
X17207339Y-9403215D01*
X17206209Y-9414268D01*
X17206015Y-9433580D01*
X17206015Y-9469309D01*
X17206015Y-9470545D01*
X17184892Y-9470545D01*
X17178819Y-9470689D01*
X17167257Y-9472958D01*
X17163769Y-9478466D01*
X17157205Y-9478466D01*
X17158489Y-9469309D01*
X17156832Y-9462793D01*
X17149247Y-9461849D01*
X17143122Y-9463556D01*
X17129445Y-9467365D01*
X17122109Y-9468066D01*
X17113026Y-9466212D01*
X17107532Y-9462614D01*
X17109079Y-9458733D01*
X17116741Y-9455859D01*
X17129415Y-9452368D01*
X17143748Y-9447676D01*
X17155047Y-9438819D01*
X17158489Y-9425831D01*
X17158080Y-9420690D01*
X17150999Y-9407057D01*
X17135677Y-9399218D01*
X17112842Y-9397623D01*
X17108845Y-9397900D01*
X17094888Y-9399837D01*
X17088059Y-9403781D01*
X17085512Y-9411137D01*
X17085055Y-9414565D01*
X17085368Y-9421318D01*
X17090387Y-9422092D01*
X17102652Y-9417886D01*
X17109155Y-9416040D01*
X17120695Y-9415410D01*
X17128614Y-9417903D01*
X17129525Y-9422890D01*
X17129417Y-9423047D01*
X17122589Y-9426825D01*
X17110256Y-9430289D01*
X17096461Y-9434337D01*
X17086383Y-9439539D01*
X17086327Y-9439585D01*
X17080027Y-9450911D01*
X16928867Y-9450911D01*
X16937371Y-9434921D01*
X16946869Y-9415889D01*
X16955107Y-9398148D01*
X16960909Y-9383993D01*
X16963104Y-9375719D01*
X16964482Y-9371044D01*
X16969706Y-9358347D01*
X16977918Y-9340146D01*
X16984970Y-9325326D01*
X17158489Y-9325326D01*
X17158740Y-9327124D01*
X17162859Y-9330829D01*
X17173560Y-9332719D01*
X17192813Y-9333247D01*
X17227137Y-9333247D01*
X17227137Y-9297772D01*
X17238447Y-9297772D01*
X17239417Y-9311953D01*
X17247356Y-9324508D01*
X17261082Y-9330953D01*
X17283440Y-9333247D01*
X17298166Y-9332892D01*
X17310116Y-9330724D01*
X17315595Y-9325542D01*
X17315625Y-9325326D01*
X17322189Y-9325326D01*
X17322441Y-9327124D01*
X17326560Y-9330829D01*
X17337261Y-9332719D01*
X17356514Y-9333247D01*
X17390838Y-9333247D01*
X17390838Y-9325326D01*
X17406680Y-9325326D01*
X17406931Y-9327124D01*
X17411050Y-9330829D01*
X17421751Y-9332719D01*
X17441004Y-9333247D01*
X17475329Y-9333247D01*
X17475329Y-9243476D01*
X17441004Y-9243476D01*
X17433214Y-9243534D01*
X17417159Y-9244485D01*
X17408971Y-9246954D01*
X17406680Y-9251397D01*
X17407063Y-9253674D01*
X17413115Y-9258010D01*
X17427803Y-9259318D01*
X17433875Y-9259462D01*
X17445437Y-9261731D01*
X17448925Y-9267239D01*
X17448892Y-9267961D01*
X17444113Y-9273442D01*
X17430443Y-9275160D01*
X17428760Y-9275174D01*
X17415968Y-9277223D01*
X17411961Y-9283081D01*
X17411994Y-9283803D01*
X17416773Y-9289284D01*
X17430443Y-9291002D01*
X17441330Y-9291621D01*
X17447544Y-9295276D01*
X17448925Y-9304204D01*
X17448918Y-9305353D01*
X17447460Y-9313286D01*
X17441412Y-9316685D01*
X17427803Y-9317405D01*
X17421730Y-9317549D01*
X17410168Y-9319819D01*
X17406680Y-9325326D01*
X17390838Y-9325326D01*
X17390838Y-9288362D01*
X17390720Y-9266798D01*
X17389956Y-9253458D01*
X17387931Y-9246519D01*
X17384029Y-9243888D01*
X17377636Y-9243476D01*
X17374116Y-9243543D01*
X17368648Y-9244981D01*
X17365759Y-9250076D01*
X17364629Y-9261129D01*
X17364435Y-9280441D01*
X17364435Y-9316170D01*
X17364435Y-9317405D01*
X17343312Y-9317405D01*
X17337239Y-9317549D01*
X17325677Y-9319819D01*
X17322189Y-9325326D01*
X17315625Y-9325326D01*
X17316909Y-9316170D01*
X17315252Y-9309654D01*
X17307667Y-9308710D01*
X17301542Y-9310417D01*
X17287865Y-9314226D01*
X17280529Y-9314927D01*
X17271446Y-9313073D01*
X17265952Y-9309474D01*
X17267499Y-9305594D01*
X17275161Y-9302720D01*
X17287835Y-9299229D01*
X17302168Y-9294536D01*
X17313467Y-9285680D01*
X17316909Y-9272692D01*
X17316500Y-9267550D01*
X17309419Y-9253918D01*
X17294097Y-9246079D01*
X17271262Y-9244484D01*
X17267265Y-9244761D01*
X17253308Y-9246698D01*
X17246479Y-9250641D01*
X17243932Y-9257998D01*
X17243475Y-9261426D01*
X17243788Y-9268178D01*
X17248807Y-9268952D01*
X17261072Y-9264747D01*
X17267575Y-9262901D01*
X17279115Y-9262270D01*
X17287034Y-9264764D01*
X17287945Y-9269751D01*
X17287837Y-9269907D01*
X17281008Y-9273686D01*
X17268676Y-9277150D01*
X17254881Y-9281198D01*
X17244803Y-9286399D01*
X17244747Y-9286446D01*
X17238447Y-9297772D01*
X17227137Y-9297772D01*
X17227137Y-9243476D01*
X17192813Y-9243476D01*
X17185023Y-9243534D01*
X17168968Y-9244485D01*
X17160780Y-9246954D01*
X17158489Y-9251397D01*
X17158872Y-9253674D01*
X17164924Y-9258010D01*
X17179611Y-9259318D01*
X17185684Y-9259462D01*
X17197246Y-9261731D01*
X17200734Y-9267239D01*
X17200701Y-9267961D01*
X17195921Y-9273442D01*
X17182252Y-9275160D01*
X17180568Y-9275174D01*
X17167777Y-9277223D01*
X17163769Y-9283081D01*
X17163803Y-9283803D01*
X17168582Y-9289284D01*
X17182252Y-9291002D01*
X17193139Y-9291621D01*
X17199353Y-9295276D01*
X17200734Y-9304204D01*
X17200726Y-9305353D01*
X17199269Y-9313286D01*
X17193220Y-9316685D01*
X17179611Y-9317405D01*
X17173539Y-9317549D01*
X17161977Y-9319819D01*
X17158489Y-9325326D01*
X16984970Y-9325326D01*
X16988147Y-9318650D01*
X16998544Y-9296789D01*
X17006233Y-9278454D01*
X17010571Y-9263712D01*
X17012422Y-9249539D01*
X17012649Y-9232915D01*
X17011972Y-9217800D01*
X17009091Y-9199981D01*
X17002880Y-9181798D01*
X16998361Y-9172187D01*
X17232418Y-9172187D01*
X17232669Y-9173985D01*
X17236788Y-9177690D01*
X17247489Y-9179579D01*
X17266742Y-9180108D01*
X17301067Y-9180108D01*
X17301067Y-9172187D01*
X17311628Y-9172187D01*
X17311879Y-9173985D01*
X17315998Y-9177690D01*
X17326699Y-9179579D01*
X17345952Y-9180108D01*
X17380277Y-9180108D01*
X17380277Y-9177328D01*
X17391726Y-9177328D01*
X17395153Y-9179867D01*
X17404534Y-9180108D01*
X17414126Y-9178288D01*
X17420992Y-9169547D01*
X17425789Y-9162038D01*
X17438364Y-9158986D01*
X17449287Y-9161033D01*
X17455736Y-9169547D01*
X17459934Y-9176577D01*
X17472194Y-9180108D01*
X17481342Y-9179692D01*
X17485890Y-9178493D01*
X17485654Y-9177562D01*
X17482856Y-9169188D01*
X17477568Y-9154177D01*
X17470632Y-9134928D01*
X17465649Y-9121468D01*
X17459161Y-9105928D01*
X17453623Y-9097107D01*
X17447561Y-9092941D01*
X17439497Y-9091363D01*
X17433353Y-9090983D01*
X17425886Y-9092905D01*
X17420376Y-9100159D01*
X17414294Y-9115126D01*
X17411490Y-9122703D01*
X17404123Y-9142245D01*
X17397903Y-9158310D01*
X17393424Y-9169768D01*
X17391726Y-9177328D01*
X17380277Y-9177328D01*
X17380277Y-9135223D01*
X17380159Y-9113659D01*
X17379395Y-9100319D01*
X17377369Y-9093379D01*
X17373468Y-9090749D01*
X17367075Y-9090337D01*
X17363555Y-9090404D01*
X17358086Y-9091842D01*
X17355198Y-9096937D01*
X17354067Y-9107990D01*
X17353873Y-9127302D01*
X17353873Y-9164266D01*
X17332751Y-9164266D01*
X17326678Y-9164410D01*
X17315116Y-9166679D01*
X17311628Y-9172187D01*
X17301067Y-9172187D01*
X17301067Y-9135223D01*
X17300949Y-9113659D01*
X17300185Y-9100319D01*
X17298159Y-9093379D01*
X17294258Y-9090749D01*
X17287865Y-9090337D01*
X17284345Y-9090404D01*
X17278876Y-9091842D01*
X17275988Y-9096937D01*
X17274857Y-9107990D01*
X17274663Y-9127302D01*
X17274663Y-9164266D01*
X17253541Y-9164266D01*
X17247468Y-9164410D01*
X17235906Y-9166679D01*
X17232418Y-9172187D01*
X16998361Y-9172187D01*
X16992155Y-9158986D01*
X16990832Y-9156343D01*
X16979937Y-9133464D01*
X16969966Y-9110828D01*
X16962933Y-9092977D01*
X16959219Y-9082930D01*
X16950587Y-9061892D01*
X16940692Y-9039851D01*
X16934464Y-9026969D01*
X17068717Y-9026969D01*
X17083239Y-9026947D01*
X17084202Y-9026935D01*
X17093867Y-9024701D01*
X17102326Y-9017083D01*
X17112131Y-9001864D01*
X17126502Y-8976803D01*
X17126653Y-9001886D01*
X17126788Y-9010325D01*
X17128097Y-9021414D01*
X17132013Y-9026041D01*
X17140006Y-9026969D01*
X17146349Y-9026568D01*
X17150272Y-9023971D01*
X17152313Y-9017084D01*
X17153087Y-9003819D01*
X17153208Y-8982083D01*
X17153208Y-8945119D01*
X17169050Y-8945119D01*
X17169433Y-8947396D01*
X17175485Y-8951732D01*
X17190173Y-8953040D01*
X17196245Y-8953183D01*
X17207807Y-8955453D01*
X17211295Y-8960961D01*
X17211262Y-8961682D01*
X17206483Y-8967164D01*
X17192813Y-8968882D01*
X17191130Y-8968896D01*
X17178339Y-8970944D01*
X17174331Y-8976803D01*
X17174364Y-8977524D01*
X17178339Y-8982083D01*
X17179143Y-8983006D01*
X17192813Y-8984724D01*
X17203700Y-8985343D01*
X17209914Y-8988997D01*
X17211295Y-8997925D01*
X17211288Y-8999075D01*
X17209830Y-9007008D01*
X17203782Y-9010406D01*
X17190173Y-9011127D01*
X17184100Y-9011271D01*
X17172538Y-9013540D01*
X17169050Y-9019048D01*
X17169301Y-9020846D01*
X17173420Y-9024551D01*
X17184121Y-9026440D01*
X17203374Y-9026969D01*
X17237699Y-9026969D01*
X17253541Y-9026969D01*
X17269383Y-9026969D01*
X17272784Y-9026936D01*
X17281209Y-9025411D01*
X17284599Y-9019390D01*
X17285225Y-9005846D01*
X17285229Y-9004007D01*
X17286140Y-8991315D01*
X17289921Y-8985876D01*
X17298426Y-8984724D01*
X17299576Y-8984731D01*
X17307509Y-8986189D01*
X17310907Y-8992237D01*
X17311628Y-9005846D01*
X17311633Y-9007686D01*
X17312544Y-9020378D01*
X17316324Y-9025816D01*
X17324830Y-9026969D01*
X17331172Y-9026568D01*
X17335095Y-9023971D01*
X17337136Y-9017084D01*
X17337910Y-9003819D01*
X17338031Y-8982083D01*
X17337913Y-8960519D01*
X17337149Y-8947180D01*
X17335124Y-8940240D01*
X17331222Y-8937610D01*
X17324830Y-8937198D01*
X17350312Y-8937198D01*
X17361808Y-8980763D01*
X17362165Y-8982083D01*
X17366707Y-8998850D01*
X17371374Y-9013139D01*
X17375848Y-9021013D01*
X17381412Y-9024577D01*
X17389350Y-9025935D01*
X17400011Y-9025989D01*
X17405608Y-9021302D01*
X17408883Y-9008959D01*
X17412465Y-8995039D01*
X17416997Y-8988314D01*
X17421408Y-8991875D01*
X17425158Y-9005824D01*
X17425505Y-9007835D01*
X17428714Y-9020445D01*
X17434076Y-9025833D01*
X17444274Y-9026969D01*
X17455723Y-9025089D01*
X17461971Y-9020368D01*
X17462131Y-9019863D01*
X17464788Y-9010755D01*
X17469234Y-8994930D01*
X17474600Y-8975482D01*
X17485076Y-8937198D01*
X17470105Y-8937198D01*
X17469177Y-8937202D01*
X17459737Y-8938641D01*
X17454729Y-8944702D01*
X17451562Y-8958343D01*
X17448448Y-8970803D01*
X17444091Y-8975979D01*
X17439536Y-8970843D01*
X17435340Y-8955495D01*
X17432805Y-8945356D01*
X17427422Y-8938718D01*
X17416893Y-8937198D01*
X17408233Y-8938022D01*
X17401969Y-8943154D01*
X17398400Y-8955738D01*
X17395018Y-8969281D01*
X17390735Y-8976048D01*
X17386572Y-8972424D01*
X17382921Y-8958343D01*
X17382802Y-8957647D01*
X17379583Y-8944325D01*
X17374431Y-8938489D01*
X17364830Y-8937198D01*
X17350312Y-8937198D01*
X17324830Y-8937198D01*
X17319089Y-8937576D01*
X17313049Y-8941718D01*
X17311628Y-8953040D01*
X17311313Y-8959929D01*
X17307861Y-8967177D01*
X17298426Y-8968882D01*
X17292685Y-8968503D01*
X17286645Y-8964361D01*
X17285225Y-8953040D01*
X17284739Y-8944678D01*
X17280604Y-8938506D01*
X17269383Y-8937198D01*
X17253541Y-8937198D01*
X17253541Y-9026969D01*
X17237699Y-9026969D01*
X17237699Y-8937198D01*
X17203374Y-8937198D01*
X17195584Y-8937256D01*
X17179530Y-8938206D01*
X17171341Y-8940676D01*
X17169050Y-8945119D01*
X17153208Y-8945119D01*
X17153208Y-8937198D01*
X17137797Y-8937198D01*
X17130294Y-8937961D01*
X17120147Y-8943666D01*
X17110073Y-8957000D01*
X17097761Y-8976803D01*
X17096122Y-8957000D01*
X17094478Y-8945293D01*
X17090292Y-8938724D01*
X17081600Y-8937198D01*
X17075579Y-8937594D01*
X17071677Y-8940191D01*
X17069633Y-8947077D01*
X17068846Y-8960345D01*
X17068717Y-8982083D01*
X17068717Y-9026969D01*
X16934464Y-9026969D01*
X16930593Y-9018962D01*
X16921349Y-9001376D01*
X16914020Y-8989245D01*
X16909664Y-8984724D01*
X16908964Y-8985092D01*
X16904152Y-8991761D01*
X16896677Y-9004888D01*
X16887780Y-9021963D01*
X16878699Y-9040477D01*
X16870678Y-9057922D01*
X16864955Y-9071787D01*
X16862771Y-9079565D01*
X16862194Y-9081924D01*
X16858115Y-9092506D01*
X16850984Y-9108980D01*
X16841817Y-9128951D01*
X16840774Y-9131172D01*
X16825132Y-9166270D01*
X16813362Y-9196259D01*
X16805946Y-9219800D01*
X16803366Y-9235555D01*
X16732135Y-9235555D01*
X16731992Y-9199911D01*
X16730589Y-8889672D01*
X16055985Y-8889672D01*
X16054087Y-8906834D01*
X16054061Y-8907105D01*
X16053754Y-8916116D01*
X16053516Y-8934651D01*
X16053346Y-8961744D01*
X16053245Y-8996434D01*
X16053214Y-9037755D01*
X15922813Y-9037755D01*
X15922813Y-8826304D01*
X17623187Y-8826304D01*
X17623187Y-8937198D01*
X17623187Y-9178493D01*
G37*
%TO.C,R16*%
X16963000Y-10919206D02*
X16963000Y-10773794D01*
X17145000Y-10919206D02*
X17145000Y-10773794D01*
%TD*%
D13*
X13100268Y-7953000D02*
G75*
G03*
X13100268Y-7953000I-153912J0D01*
G01*
D14*
X13023113Y-7953000D02*
G75*
G03*
X13023113Y-7953000I-76757J0D01*
G01*
D13*
X20965013Y-7959000D02*
G75*
G03*
X20965013Y-7959000I-151013J0D01*
G01*
D15*
X20889832Y-7959000D02*
G75*
G03*
X20889832Y-7959000I-75832J0D01*
G01*
D14*
X13025757Y-11889000D02*
G75*
G03*
X13025757Y-11889000I-76757J0D01*
G01*
D13*
X20962513Y-11889000D02*
G75*
G03*
X20962513Y-11889000I-151013J0D01*
G01*
X13101069Y-11889000D02*
G75*
G03*
X13101069Y-11889000I-152069J0D01*
G01*
D14*
X20891757Y-11887000D02*
G75*
G03*
X20891757Y-11887000I-76757J0D01*
G01*
D13*
X12496500Y-7499000D02*
X21209000Y-7499000D01*
X21209000Y-12346500D01*
X12496500Y-12346500D01*
X12496500Y-7499000D01*
D16*
%TO.C,J3*%
X12517998Y-8878002D02*
X12517998Y-9738002D01*
%TO.C,J5*%
X12515500Y-10400500D02*
X12515500Y-11260500D01*
%TD*%
M02*
