%TF.GenerationSoftware,KiCad,Pcbnew,7.0.6*%
%TF.CreationDate,2023-09-03T13:44:33+00:00*%
%TF.ProjectId,SI4735,53493437-3335-42e6-9b69-6361645f7063,rev?*%
%TF.SameCoordinates,Original*%
%TF.FileFunction,Paste,Top*%
%TF.FilePolarity,Positive*%
%FSLAX45Y45*%
G04 Gerber Fmt 4.5, Leading zero omitted, Abs format (unit mm)*
G04 Created by KiCad (PCBNEW 7.0.6) date 2023-09-03 13:44:33*
%MOMM*%
%LPD*%
G01*
G04 APERTURE LIST*
G04 Aperture macros list*
%AMRoundRect*
0 Rectangle with rounded corners*
0 $1 Rounding radius*
0 $2 $3 $4 $5 $6 $7 $8 $9 X,Y pos of 4 corners*
0 Add a 4 corners polygon primitive as box body*
4,1,4,$2,$3,$4,$5,$6,$7,$8,$9,$2,$3,0*
0 Add four circle primitives for the rounded corners*
1,1,$1+$1,$2,$3*
1,1,$1+$1,$4,$5*
1,1,$1+$1,$6,$7*
1,1,$1+$1,$8,$9*
0 Add four rect primitives between the rounded corners*
20,1,$1+$1,$2,$3,$4,$5,0*
20,1,$1+$1,$4,$5,$6,$7,0*
20,1,$1+$1,$6,$7,$8,$9,0*
20,1,$1+$1,$8,$9,$2,$3,0*%
G04 Aperture macros list end*
%ADD10RoundRect,0.250000X-0.650000X0.325000X-0.650000X-0.325000X0.650000X-0.325000X0.650000X0.325000X0*%
%ADD11RoundRect,0.250000X0.625000X-0.312500X0.625000X0.312500X-0.625000X0.312500X-0.625000X-0.312500X0*%
%ADD12RoundRect,0.250000X-0.625000X0.312500X-0.625000X-0.312500X0.625000X-0.312500X0.625000X0.312500X0*%
%ADD13RoundRect,0.042000X0.258000X-0.943000X0.258000X0.943000X-0.258000X0.943000X-0.258000X-0.943000X0*%
%ADD14RoundRect,0.250000X0.650000X-0.325000X0.650000X0.325000X-0.650000X0.325000X-0.650000X-0.325000X0*%
%ADD15R,1.500000X2.000000*%
%ADD16R,3.800000X2.000000*%
%ADD17RoundRect,0.250000X0.312500X0.625000X-0.312500X0.625000X-0.312500X-0.625000X0.312500X-0.625000X0*%
%TA.AperFunction,Profile*%
%ADD18C,0.050000*%
%TD*%
%TA.AperFunction,Profile*%
%ADD19C,1.535132*%
%TD*%
%TA.AperFunction,Profile*%
%ADD20C,1.516643*%
%TD*%
%TA.AperFunction,Profile*%
%ADD21C,0.100000*%
%TD*%
G04 APERTURE END LIST*
D10*
%TO.C,C6*%
X16155000Y-9365000D03*
X16155000Y-9660000D03*
%TD*%
%TO.C,C9*%
X17074730Y-9408370D03*
X17074730Y-9703370D03*
%TD*%
D11*
%TO.C,R4*%
X16833030Y-9188860D03*
X16833030Y-8896360D03*
%TD*%
D12*
%TO.C,R3*%
X16599350Y-8896360D03*
X16599350Y-9188860D03*
%TD*%
D13*
%TO.C,U3*%
X17318930Y-9545530D03*
X17445930Y-9545530D03*
X17572930Y-9545530D03*
X17699930Y-9545530D03*
X17699930Y-9051530D03*
X17572930Y-9051530D03*
X17445930Y-9051530D03*
X17318930Y-9051530D03*
%TD*%
D14*
%TO.C,C4*%
X17074730Y-9192470D03*
X17074730Y-8897470D03*
%TD*%
D15*
%TO.C,U2*%
X15299000Y-9149000D03*
X15529000Y-9149000D03*
D16*
X15529000Y-8519000D03*
D15*
X15759000Y-9149000D03*
%TD*%
D17*
%TO.C,R8*%
X18532250Y-10689750D03*
X18239750Y-10689750D03*
%TD*%
D12*
%TO.C,R2*%
X16375830Y-8896360D03*
X16375830Y-9188860D03*
%TD*%
%TO.C,R6*%
X16793000Y-9446500D03*
X16793000Y-9739000D03*
%TD*%
D15*
%TO.C,U1*%
X14519000Y-9149000D03*
X14749000Y-9149000D03*
D16*
X14749000Y-8519000D03*
D15*
X14979000Y-9149000D03*
%TD*%
D11*
%TO.C,R1*%
X16152310Y-9191000D03*
X16152310Y-8898500D03*
%TD*%
D12*
%TO.C,R5*%
X16560000Y-9448750D03*
X16560000Y-9741250D03*
%TD*%
D18*
X13100268Y-7953000D02*
G75*
G03*
X13100268Y-7953000I-153912J0D01*
G01*
D19*
X13023113Y-7953000D02*
G75*
G03*
X13023113Y-7953000I-76757J0D01*
G01*
D18*
X20965013Y-7959000D02*
G75*
G03*
X20965013Y-7959000I-151013J0D01*
G01*
D20*
X20889832Y-7959000D02*
G75*
G03*
X20889832Y-7959000I-75832J0D01*
G01*
D19*
X13025757Y-11889000D02*
G75*
G03*
X13025757Y-11889000I-76757J0D01*
G01*
D18*
X20962513Y-11889000D02*
G75*
G03*
X20962513Y-11889000I-151013J0D01*
G01*
X13101069Y-11889000D02*
G75*
G03*
X13101069Y-11889000I-152069J0D01*
G01*
D19*
X20891757Y-11887000D02*
G75*
G03*
X20891757Y-11887000I-76757J0D01*
G01*
D18*
X12496500Y-7499000D02*
X21209000Y-7499000D01*
X21209000Y-12346500D01*
X12496500Y-12346500D01*
X12496500Y-7499000D01*
D21*
%TO.C,J3*%
X12517998Y-8878002D02*
X12517998Y-9738002D01*
%TO.C,J5*%
X12515500Y-10400500D02*
X12515500Y-11260500D01*
%TD*%
M02*
