%TF.GenerationSoftware,KiCad,Pcbnew,7.0.6*%
%TF.CreationDate,2023-09-03T13:44:34+00:00*%
%TF.ProjectId,SI4735,53493437-3335-42e6-9b69-6361645f7063,rev?*%
%TF.SameCoordinates,Original*%
%TF.FileFunction,Other,User*%
%FSLAX45Y45*%
G04 Gerber Fmt 4.5, Leading zero omitted, Abs format (unit mm)*
G04 Created by KiCad (PCBNEW 7.0.6) date 2023-09-03 13:44:34*
%MOMM*%
%LPD*%
G01*
G04 APERTURE LIST*
%ADD10C,0.050000*%
%TA.AperFunction,Profile*%
%ADD11C,0.050000*%
%TD*%
%TA.AperFunction,Profile*%
%ADD12C,1.535132*%
%TD*%
%TA.AperFunction,Profile*%
%ADD13C,1.516643*%
%TD*%
%TA.AperFunction,Profile*%
%ADD14C,0.100000*%
%TD*%
G04 APERTURE END LIST*
D10*
%TO.C,C23*%
X14900000Y-11002500D02*
X14670000Y-11002500D01*
X14670000Y-11002500D02*
X14670000Y-11462500D01*
X14900000Y-11462500D02*
X14900000Y-11002500D01*
X14670000Y-11462500D02*
X14900000Y-11462500D01*
%TO.C,C24*%
X14646000Y-11002500D02*
X14416000Y-11002500D01*
X14416000Y-11002500D02*
X14416000Y-11462500D01*
X14646000Y-11462500D02*
X14646000Y-11002500D01*
X14416000Y-11462500D02*
X14646000Y-11462500D01*
%TO.C,R19*%
X15565750Y-11316500D02*
X15565750Y-11092500D01*
X15565750Y-11092500D02*
X15109750Y-11092500D01*
X15109750Y-11316500D02*
X15565750Y-11316500D01*
X15109750Y-11092500D02*
X15109750Y-11316500D01*
%TO.C,R21*%
X15565750Y-11541500D02*
X15565750Y-11317500D01*
X15565750Y-11317500D02*
X15109750Y-11317500D01*
X15109750Y-11541500D02*
X15565750Y-11541500D01*
X15109750Y-11317500D02*
X15109750Y-11541500D01*
%TO.C,U6*%
X14319000Y-9809000D02*
X15009000Y-9809000D01*
X14319000Y-10739000D02*
X14319000Y-9809000D01*
X14319000Y-10739000D02*
X15009000Y-10739000D01*
X15009000Y-10739000D02*
X15009000Y-9809000D01*
%TO.C,R10*%
X17197000Y-8787000D02*
X17421000Y-8787000D01*
X17421000Y-8787000D02*
X17421000Y-8331000D01*
X17197000Y-8331000D02*
X17197000Y-8787000D01*
X17421000Y-8331000D02*
X17197000Y-8331000D01*
%TO.C,R17*%
X14246000Y-10612750D02*
X14022000Y-10612750D01*
X14022000Y-10612750D02*
X14022000Y-11068750D01*
X14246000Y-11068750D02*
X14246000Y-10612750D01*
X14022000Y-11068750D02*
X14246000Y-11068750D01*
%TO.C,R15*%
X18151500Y-10576750D02*
X18151500Y-10800750D01*
X18151500Y-10800750D02*
X18607500Y-10800750D01*
X18607500Y-10576750D02*
X18151500Y-10576750D01*
X18607500Y-10800750D02*
X18607500Y-10576750D01*
%TO.C,R22*%
X17583000Y-11787750D02*
X17807000Y-11787750D01*
X17807000Y-11787750D02*
X17807000Y-11331750D01*
X17583000Y-11331750D02*
X17583000Y-11787750D01*
X17807000Y-11331750D02*
X17583000Y-11331750D01*
%TO.C,R13*%
X18045000Y-8615250D02*
X17821000Y-8615250D01*
X17821000Y-8615250D02*
X17821000Y-9071250D01*
X18045000Y-9071250D02*
X18045000Y-8615250D01*
X17821000Y-9071250D02*
X18045000Y-9071250D01*
%TO.C,R18*%
X17805000Y-10861000D02*
X17581000Y-10861000D01*
X17581000Y-10861000D02*
X17581000Y-11317000D01*
X17805000Y-11317000D02*
X17805000Y-10861000D01*
X17581000Y-11317000D02*
X17805000Y-11317000D01*
%TO.C,R12*%
X16677000Y-8787000D02*
X16901000Y-8787000D01*
X16901000Y-8787000D02*
X16901000Y-8331000D01*
X16677000Y-8331000D02*
X16677000Y-8787000D01*
X16901000Y-8331000D02*
X16677000Y-8331000D01*
%TO.C,R20*%
X17165000Y-11082500D02*
X16941000Y-11082500D01*
X16941000Y-11082500D02*
X16941000Y-11538500D01*
X17165000Y-11538500D02*
X17165000Y-11082500D01*
X16941000Y-11538500D02*
X17165000Y-11538500D01*
%TO.C,R11*%
X16947000Y-8785750D02*
X17171000Y-8785750D01*
X17171000Y-8785750D02*
X17171000Y-8329750D01*
X16947000Y-8329750D02*
X16947000Y-8785750D01*
X17171000Y-8329750D02*
X16947000Y-8329750D01*
%TO.C,R14*%
X18336000Y-10065000D02*
X18112000Y-10065000D01*
X18112000Y-10065000D02*
X18112000Y-10521000D01*
X18336000Y-10521000D02*
X18336000Y-10065000D01*
X18112000Y-10521000D02*
X18336000Y-10521000D01*
%TO.C,R9*%
X17439500Y-8788250D02*
X17663500Y-8788250D01*
X17663500Y-8788250D02*
X17663500Y-8332250D01*
X17439500Y-8332250D02*
X17439500Y-8788250D01*
X17663500Y-8332250D02*
X17439500Y-8332250D01*
%TO.C,R16*%
X16942000Y-11074500D02*
X17166000Y-11074500D01*
X17166000Y-11074500D02*
X17166000Y-10618500D01*
X16942000Y-10618500D02*
X16942000Y-11074500D01*
X17166000Y-10618500D02*
X16942000Y-10618500D01*
%TD*%
D11*
X13100268Y-7953000D02*
G75*
G03*
X13100268Y-7953000I-153912J0D01*
G01*
D12*
X13023113Y-7953000D02*
G75*
G03*
X13023113Y-7953000I-76757J0D01*
G01*
D11*
X20965013Y-7959000D02*
G75*
G03*
X20965013Y-7959000I-151013J0D01*
G01*
D13*
X20889832Y-7959000D02*
G75*
G03*
X20889832Y-7959000I-75832J0D01*
G01*
D12*
X13025757Y-11889000D02*
G75*
G03*
X13025757Y-11889000I-76757J0D01*
G01*
D11*
X20962513Y-11889000D02*
G75*
G03*
X20962513Y-11889000I-151013J0D01*
G01*
X13101069Y-11889000D02*
G75*
G03*
X13101069Y-11889000I-152069J0D01*
G01*
D12*
X20891757Y-11887000D02*
G75*
G03*
X20891757Y-11887000I-76757J0D01*
G01*
D11*
X12496500Y-7499000D02*
X21209000Y-7499000D01*
X21209000Y-12346500D01*
X12496500Y-12346500D01*
X12496500Y-7499000D01*
D14*
%TO.C,J3*%
X12517998Y-8878002D02*
X12517998Y-9738002D01*
%TO.C,J5*%
X12515500Y-10400500D02*
X12515500Y-11260500D01*
%TD*%
M02*
