%TF.GenerationSoftware,KiCad,Pcbnew,7.0.6*%
%TF.CreationDate,2023-09-03T13:44:34+00:00*%
%TF.ProjectId,SI4735,53493437-3335-42e6-9b69-6361645f7063,rev?*%
%TF.SameCoordinates,Original*%
%TF.FileFunction,AssemblyDrawing,Bot*%
%FSLAX45Y45*%
G04 Gerber Fmt 4.5, Leading zero omitted, Abs format (unit mm)*
G04 Created by KiCad (PCBNEW 7.0.6) date 2023-09-03 13:44:34*
%MOMM*%
%LPD*%
G01*
G04 APERTURE LIST*
%ADD10C,0.100000*%
%ADD11C,0.150000*%
%ADD12C,0.100000*%
%TD*%
%TA.AperFunction,Profile*%
%ADD13C,0.050000*%
%TD*%
%TA.AperFunction,Profile*%
%ADD14C,1.535132*%
%TD*%
%TA.AperFunction,Profile*%
%ADD15C,1.516643*%
%TD*%
%TA.AperFunction,Profile*%
%ADD16C,0.100000*%
%TD*%
G04 APERTURE END LIST*
D10*
%TO.C,C23*%
X14865000Y-11072500D02*
X14705000Y-11072500D01*
X14705000Y-11072500D02*
X14705000Y-11392500D01*
X14865000Y-11392500D02*
X14865000Y-11072500D01*
X14705000Y-11392500D02*
X14865000Y-11392500D01*
%TO.C,C24*%
X14611000Y-11072500D02*
X14451000Y-11072500D01*
X14451000Y-11072500D02*
X14451000Y-11392500D01*
X14611000Y-11392500D02*
X14611000Y-11072500D01*
X14451000Y-11392500D02*
X14611000Y-11392500D01*
%TO.C,R19*%
X15497750Y-11284500D02*
X15497750Y-11124500D01*
X15497750Y-11124500D02*
X15177750Y-11124500D01*
X15177750Y-11284500D02*
X15497750Y-11284500D01*
X15177750Y-11124500D02*
X15177750Y-11284500D01*
%TO.C,R21*%
X15497750Y-11509500D02*
X15497750Y-11349500D01*
X15497750Y-11349500D02*
X15177750Y-11349500D01*
X15177750Y-11509500D02*
X15497750Y-11509500D01*
X15177750Y-11349500D02*
X15177750Y-11509500D01*
D11*
%TO.C,U6*%
X14469000Y-9839000D02*
X14469000Y-10609000D01*
X14469000Y-10609000D02*
X14569000Y-10709000D01*
X14569000Y-10709000D02*
X14859000Y-10709000D01*
X14859000Y-9839000D02*
X14469000Y-9839000D01*
X14859000Y-10709000D02*
X14859000Y-9839000D01*
D10*
%TO.C,R10*%
X17229000Y-8719000D02*
X17389000Y-8719000D01*
X17389000Y-8719000D02*
X17389000Y-8399000D01*
X17229000Y-8399000D02*
X17229000Y-8719000D01*
X17389000Y-8399000D02*
X17229000Y-8399000D01*
%TO.C,R17*%
X14214000Y-10680750D02*
X14054000Y-10680750D01*
X14054000Y-10680750D02*
X14054000Y-11000750D01*
X14214000Y-11000750D02*
X14214000Y-10680750D01*
X14054000Y-11000750D02*
X14214000Y-11000750D01*
%TO.C,R15*%
X18219500Y-10608750D02*
X18219500Y-10768750D01*
X18219500Y-10768750D02*
X18539500Y-10768750D01*
X18539500Y-10608750D02*
X18219500Y-10608750D01*
X18539500Y-10768750D02*
X18539500Y-10608750D01*
%TO.C,R22*%
X17615000Y-11719750D02*
X17775000Y-11719750D01*
X17775000Y-11719750D02*
X17775000Y-11399750D01*
X17615000Y-11399750D02*
X17615000Y-11719750D01*
X17775000Y-11399750D02*
X17615000Y-11399750D01*
%TO.C,R13*%
X18013000Y-8683250D02*
X17853000Y-8683250D01*
X17853000Y-8683250D02*
X17853000Y-9003250D01*
X18013000Y-9003250D02*
X18013000Y-8683250D01*
X17853000Y-9003250D02*
X18013000Y-9003250D01*
%TO.C,R18*%
X17773000Y-10929000D02*
X17613000Y-10929000D01*
X17613000Y-10929000D02*
X17613000Y-11249000D01*
X17773000Y-11249000D02*
X17773000Y-10929000D01*
X17613000Y-11249000D02*
X17773000Y-11249000D01*
%TO.C,R12*%
X16709000Y-8719000D02*
X16869000Y-8719000D01*
X16869000Y-8719000D02*
X16869000Y-8399000D01*
X16709000Y-8399000D02*
X16709000Y-8719000D01*
X16869000Y-8399000D02*
X16709000Y-8399000D01*
%TO.C,R20*%
X17133000Y-11150500D02*
X16973000Y-11150500D01*
X16973000Y-11150500D02*
X16973000Y-11470500D01*
X17133000Y-11470500D02*
X17133000Y-11150500D01*
X16973000Y-11470500D02*
X17133000Y-11470500D01*
%TO.C,R11*%
X16979000Y-8717750D02*
X17139000Y-8717750D01*
X17139000Y-8717750D02*
X17139000Y-8397750D01*
X16979000Y-8397750D02*
X16979000Y-8717750D01*
X17139000Y-8397750D02*
X16979000Y-8397750D01*
%TO.C,R14*%
X18304000Y-10133000D02*
X18144000Y-10133000D01*
X18144000Y-10133000D02*
X18144000Y-10453000D01*
X18304000Y-10453000D02*
X18304000Y-10133000D01*
X18144000Y-10453000D02*
X18304000Y-10453000D01*
%TO.C,R9*%
X17471500Y-8720250D02*
X17631500Y-8720250D01*
X17631500Y-8720250D02*
X17631500Y-8400250D01*
X17471500Y-8400250D02*
X17471500Y-8720250D01*
X17631500Y-8400250D02*
X17471500Y-8400250D01*
%TO.C,R16*%
X16974000Y-11006500D02*
X17134000Y-11006500D01*
X17134000Y-11006500D02*
X17134000Y-10686500D01*
X16974000Y-10686500D02*
X16974000Y-11006500D01*
X17134000Y-10686500D02*
X16974000Y-10686500D01*
%TD*%
%TO.C,C8*%
X15198000Y-9486000D02*
X15198000Y-9646000D01*
X15358000Y-9646000D01*
X15358000Y-9486000D01*
X15198000Y-9486000D01*
X15158000Y-9566000D02*
G75*
G03*
X15158000Y-9566000I-80000J0D01*
G01*
%TD*%
%TO.C,C15*%
X15614000Y-10714000D02*
G75*
G03*
X15614000Y-10714000I-80000J0D01*
G01*
X15364000Y-10714000D02*
G75*
G03*
X15364000Y-10714000I-80000J0D01*
G01*
%TD*%
%TO.C,C10*%
X13634000Y-9848000D02*
G75*
G03*
X13634000Y-9848000I-80000J0D01*
G01*
X14134000Y-9848000D02*
G75*
G03*
X14134000Y-9848000I-80000J0D01*
G01*
%TD*%
%TO.C,C13*%
X13655000Y-10112500D02*
G75*
G03*
X13655000Y-10112500I-80000J0D01*
G01*
X14155000Y-10112500D02*
G75*
G03*
X14155000Y-10112500I-80000J0D01*
G01*
%TD*%
%TO.C,C7*%
X14609000Y-9488000D02*
X14609000Y-9648000D01*
X14769000Y-9648000D01*
X14769000Y-9488000D01*
X14609000Y-9488000D01*
X14569000Y-9568000D02*
G75*
G03*
X14569000Y-9568000I-80000J0D01*
G01*
%TD*%
%TO.C,C18*%
X15933000Y-10904000D02*
X15933000Y-11024000D01*
X16053000Y-11024000D01*
X16053000Y-10904000D01*
X15933000Y-10904000D01*
X15853000Y-10964000D02*
G75*
G03*
X15853000Y-10964000I-60000J0D01*
G01*
%TD*%
%TO.C,C22*%
X15916260Y-11601000D02*
X15916260Y-11721000D01*
X16036260Y-11721000D01*
X16036260Y-11601000D01*
X15916260Y-11601000D01*
X15836260Y-11661000D02*
G75*
G03*
X15836260Y-11661000I-60000J0D01*
G01*
%TD*%
%TO.C,C17*%
X15364000Y-10964000D02*
G75*
G03*
X15364000Y-10964000I-80000J0D01*
G01*
X15614000Y-10964000D02*
G75*
G03*
X15614000Y-10964000I-80000J0D01*
G01*
%TD*%
D12*
%TO.C,J3*%
D10*
X12873008Y-9423002D02*
X12865350Y-9421479D01*
X12858859Y-9417141D01*
X12854521Y-9410650D01*
X12852998Y-9402992D01*
X12852998Y-9213012D01*
X12854521Y-9205355D01*
X12858859Y-9198863D01*
X12865350Y-9194525D01*
X12873008Y-9193002D01*
X13062988Y-9193002D01*
X13070645Y-9194525D01*
X13077137Y-9198863D01*
X13081475Y-9205355D01*
X13082998Y-9213012D01*
X13082998Y-9402992D01*
X13081475Y-9410650D01*
X13077137Y-9417141D01*
X13070645Y-9421479D01*
X13062988Y-9423002D01*
X12873008Y-9423002D01*
X12838998Y-9562002D02*
G75*
G03*
X12838998Y-9562002I-125000J0D01*
G01*
X13346998Y-9562002D02*
G75*
G03*
X13346998Y-9562002I-125000J0D01*
G01*
X12838998Y-9054002D02*
G75*
G03*
X12838998Y-9054002I-125000J0D01*
G01*
X13346998Y-9054002D02*
G75*
G03*
X13346998Y-9054002I-125000J0D01*
G01*
%TD*%
%TO.C,Y1*%
X14609000Y-10901500D02*
G75*
G03*
X14609000Y-10901500I-50000J0D01*
G01*
X14799000Y-10901500D02*
G75*
G03*
X14799000Y-10901500I-50000J0D01*
G01*
%TD*%
%TO.C,C11*%
X19831000Y-10072000D02*
X19831000Y-10232000D01*
X19991000Y-10232000D01*
X19991000Y-10072000D01*
X19831000Y-10072000D01*
X19991000Y-9772000D02*
G75*
G03*
X19991000Y-9772000I-80000J0D01*
G01*
%TD*%
%TO.C,R7*%
X14196000Y-10357000D02*
G75*
G03*
X14196000Y-10357000I-80000J0D01*
G01*
X15306000Y-10357000D02*
X15306000Y-10357000D01*
X15306000Y-10357000D02*
G75*
G03*
X15466000Y-10357000I80000J0D01*
G01*
X15466000Y-10357000D02*
X15466000Y-10357000D01*
X15466000Y-10357000D02*
G75*
G03*
X15306000Y-10357000I-80000J0D01*
G01*
%TD*%
%TO.C,C19*%
X18067875Y-10974000D02*
X18067875Y-11094000D01*
X18187875Y-11094000D01*
X18187875Y-10974000D01*
X18067875Y-10974000D01*
X17987875Y-11034000D02*
G75*
G03*
X17987875Y-11034000I-60000J0D01*
G01*
%TD*%
%TO.C,D2*%
X13691500Y-9176500D02*
X13691500Y-9336500D01*
X13851500Y-9336500D01*
X13851500Y-9176500D01*
X13691500Y-9176500D01*
X13771500Y-8574500D02*
X13771500Y-8574500D01*
X13771500Y-8574500D02*
G75*
G03*
X13771500Y-8414500I0J80000D01*
G01*
X13771500Y-8414500D02*
X13771500Y-8414500D01*
X13771500Y-8414500D02*
G75*
G03*
X13771500Y-8574500I0J-80000D01*
G01*
%TD*%
%TO.C,J1*%
X15691000Y-8056000D02*
X15691000Y-8226000D01*
X15861000Y-8226000D01*
X15861000Y-8056000D01*
X15691000Y-8056000D01*
X16030000Y-8226000D02*
X16030000Y-8226000D01*
X16030000Y-8226000D02*
G75*
G03*
X16030000Y-8056000I0J85000D01*
G01*
X16030000Y-8056000D02*
X16030000Y-8056000D01*
X16030000Y-8056000D02*
G75*
G03*
X16030000Y-8226000I0J-85000D01*
G01*
X16284000Y-8226000D02*
X16284000Y-8226000D01*
X16284000Y-8226000D02*
G75*
G03*
X16284000Y-8056000I0J85000D01*
G01*
X16284000Y-8056000D02*
X16284000Y-8056000D01*
X16284000Y-8056000D02*
G75*
G03*
X16284000Y-8226000I0J-85000D01*
G01*
X16538000Y-8226000D02*
X16538000Y-8226000D01*
X16538000Y-8226000D02*
G75*
G03*
X16538000Y-8056000I0J85000D01*
G01*
X16538000Y-8056000D02*
X16538000Y-8056000D01*
X16538000Y-8056000D02*
G75*
G03*
X16538000Y-8226000I0J-85000D01*
G01*
X16792000Y-8226000D02*
X16792000Y-8226000D01*
X16792000Y-8226000D02*
G75*
G03*
X16792000Y-8056000I0J85000D01*
G01*
X16792000Y-8056000D02*
X16792000Y-8056000D01*
X16792000Y-8056000D02*
G75*
G03*
X16792000Y-8226000I0J-85000D01*
G01*
X17046000Y-8226000D02*
X17046000Y-8226000D01*
X17046000Y-8226000D02*
G75*
G03*
X17046000Y-8056000I0J85000D01*
G01*
X17046000Y-8056000D02*
X17046000Y-8056000D01*
X17046000Y-8056000D02*
G75*
G03*
X17046000Y-8226000I0J-85000D01*
G01*
X17300000Y-8226000D02*
X17300000Y-8226000D01*
X17300000Y-8226000D02*
G75*
G03*
X17300000Y-8056000I0J85000D01*
G01*
X17300000Y-8056000D02*
X17300000Y-8056000D01*
X17300000Y-8056000D02*
G75*
G03*
X17300000Y-8226000I0J-85000D01*
G01*
X17554000Y-8226000D02*
X17554000Y-8226000D01*
X17554000Y-8226000D02*
G75*
G03*
X17554000Y-8056000I0J85000D01*
G01*
X17554000Y-8056000D02*
X17554000Y-8056000D01*
X17554000Y-8056000D02*
G75*
G03*
X17554000Y-8226000I0J-85000D01*
G01*
X17808000Y-8226000D02*
X17808000Y-8226000D01*
X17808000Y-8226000D02*
G75*
G03*
X17808000Y-8056000I0J85000D01*
G01*
X17808000Y-8056000D02*
X17808000Y-8056000D01*
X17808000Y-8056000D02*
G75*
G03*
X17808000Y-8226000I0J-85000D01*
G01*
X18062000Y-8226000D02*
X18062000Y-8226000D01*
X18062000Y-8226000D02*
G75*
G03*
X18062000Y-8056000I0J85000D01*
G01*
X18062000Y-8056000D02*
X18062000Y-8056000D01*
X18062000Y-8056000D02*
G75*
G03*
X18062000Y-8226000I0J-85000D01*
G01*
X18316000Y-8226000D02*
X18316000Y-8226000D01*
X18316000Y-8226000D02*
G75*
G03*
X18316000Y-8056000I0J85000D01*
G01*
X18316000Y-8056000D02*
X18316000Y-8056000D01*
X18316000Y-8056000D02*
G75*
G03*
X18316000Y-8226000I0J-85000D01*
G01*
X18570000Y-8226000D02*
X18570000Y-8226000D01*
X18570000Y-8226000D02*
G75*
G03*
X18570000Y-8056000I0J85000D01*
G01*
X18570000Y-8056000D02*
X18570000Y-8056000D01*
X18570000Y-8056000D02*
G75*
G03*
X18570000Y-8226000I0J-85000D01*
G01*
%TD*%
%TO.C,Q2*%
X17330000Y-10365750D02*
X17330000Y-10515750D01*
X17480000Y-10515750D01*
X17480000Y-10365750D01*
X17330000Y-10365750D01*
X17480000Y-10694750D02*
G75*
G03*
X17480000Y-10694750I-75000J0D01*
G01*
X17480000Y-10948750D02*
G75*
G03*
X17480000Y-10948750I-75000J0D01*
G01*
%TD*%
%TO.C,C21*%
X15363000Y-11674000D02*
G75*
G03*
X15363000Y-11674000I-80000J0D01*
G01*
X15613000Y-11674000D02*
G75*
G03*
X15613000Y-11674000I-80000J0D01*
G01*
%TD*%
%TO.C,C2*%
X15066000Y-8135000D02*
X15066000Y-8295000D01*
X15226000Y-8295000D01*
X15226000Y-8135000D01*
X15066000Y-8135000D01*
X15226000Y-8015000D02*
G75*
G03*
X15226000Y-8015000I-80000J0D01*
G01*
%TD*%
%TO.C,C3*%
X19857000Y-8397000D02*
X19857000Y-8557000D01*
X20017000Y-8557000D01*
X20017000Y-8397000D01*
X19857000Y-8397000D01*
X20217000Y-8477000D02*
G75*
G03*
X20217000Y-8477000I-80000J0D01*
G01*
%TD*%
%TO.C,L1*%
X13634000Y-9579000D02*
G75*
G03*
X13634000Y-9579000I-80000J0D01*
G01*
X13982000Y-9579000D02*
X13982000Y-9579000D01*
X13982000Y-9579000D02*
G75*
G03*
X14142000Y-9579000I80000J0D01*
G01*
X14142000Y-9579000D02*
X14142000Y-9579000D01*
X14142000Y-9579000D02*
G75*
G03*
X13982000Y-9579000I-80000J0D01*
G01*
%TD*%
%TO.C,Q3*%
X17338000Y-11117750D02*
X17338000Y-11267750D01*
X17488000Y-11267750D01*
X17488000Y-11117750D01*
X17338000Y-11117750D01*
X17488000Y-11446750D02*
G75*
G03*
X17488000Y-11446750I-75000J0D01*
G01*
X17488000Y-11700750D02*
G75*
G03*
X17488000Y-11700750I-75000J0D01*
G01*
%TD*%
%TO.C,D4*%
X13446998Y-11401002D02*
X13446998Y-11561002D01*
X13606998Y-11561002D01*
X13606998Y-11401002D01*
X13446998Y-11401002D01*
X13526998Y-10799002D02*
X13526998Y-10799002D01*
X13526998Y-10799002D02*
G75*
G03*
X13526998Y-10639002I0J80000D01*
G01*
X13526998Y-10639002D02*
X13526998Y-10639002D01*
X13526998Y-10639002D02*
G75*
G03*
X13526998Y-10799002I0J-80000D01*
G01*
%TD*%
D12*
%TO.C,J8*%
D10*
X14262660Y-11557340D02*
X14264563Y-11547773D01*
X14269982Y-11539662D01*
X14278093Y-11534243D01*
X14287660Y-11532340D01*
X14507660Y-11532340D01*
X14517227Y-11534243D01*
X14525338Y-11539662D01*
X14530757Y-11547773D01*
X14532660Y-11557340D01*
X14532660Y-11777340D01*
X14530757Y-11786907D01*
X14525338Y-11795018D01*
X14517227Y-11800437D01*
X14507660Y-11802340D01*
X14287660Y-11802340D01*
X14278093Y-11800437D01*
X14269982Y-11795018D01*
X14264563Y-11786907D01*
X14262660Y-11777340D01*
X14262660Y-11557340D01*
X15032660Y-11667340D02*
G75*
G03*
X15032660Y-11667340I-135000J0D01*
G01*
%TD*%
%TO.C,C1*%
X19863000Y-7854000D02*
X19863000Y-8014000D01*
X20023000Y-8014000D01*
X20023000Y-7854000D01*
X19863000Y-7854000D01*
X20223000Y-7934000D02*
G75*
G03*
X20223000Y-7934000I-80000J0D01*
G01*
%TD*%
%TO.C,J6*%
X16244000Y-10881500D02*
X16244000Y-11051500D01*
X16414000Y-11051500D01*
X16414000Y-10881500D01*
X16244000Y-10881500D01*
X16244000Y-11220500D02*
X16244000Y-11220500D01*
X16244000Y-11220500D02*
G75*
G03*
X16414000Y-11220500I85000J0D01*
G01*
X16414000Y-11220500D02*
X16414000Y-11220500D01*
X16414000Y-11220500D02*
G75*
G03*
X16244000Y-11220500I-85000J0D01*
G01*
X16244000Y-11474500D02*
X16244000Y-11474500D01*
X16244000Y-11474500D02*
G75*
G03*
X16414000Y-11474500I85000J0D01*
G01*
X16414000Y-11474500D02*
X16414000Y-11474500D01*
X16414000Y-11474500D02*
G75*
G03*
X16244000Y-11474500I-85000J0D01*
G01*
%TD*%
%TO.C,C5*%
X15671000Y-9386000D02*
X15671000Y-9546000D01*
X15831000Y-9546000D01*
X15831000Y-9386000D01*
X15671000Y-9386000D01*
X15831000Y-9666000D02*
G75*
G03*
X15831000Y-9666000I-80000J0D01*
G01*
%TD*%
%TO.C,J2*%
X20171000Y-8790470D02*
X20171000Y-8960470D01*
X20341000Y-8960470D01*
X20341000Y-8790470D01*
X20171000Y-8790470D01*
X20510000Y-8960470D02*
X20510000Y-8960470D01*
X20510000Y-8960470D02*
G75*
G03*
X20510000Y-8790470I0J85000D01*
G01*
X20510000Y-8790470D02*
X20510000Y-8790470D01*
X20510000Y-8790470D02*
G75*
G03*
X20510000Y-8960470I0J-85000D01*
G01*
X20764000Y-8960470D02*
X20764000Y-8960470D01*
X20764000Y-8960470D02*
G75*
G03*
X20764000Y-8790470I0J85000D01*
G01*
X20764000Y-8790470D02*
X20764000Y-8790470D01*
X20764000Y-8790470D02*
G75*
G03*
X20764000Y-8960470I0J-85000D01*
G01*
%TD*%
%TO.C,C16*%
X20802000Y-10702489D02*
X20802000Y-10862489D01*
X20962000Y-10862489D01*
X20962000Y-10702489D01*
X20802000Y-10702489D01*
X20962000Y-10982489D02*
G75*
G03*
X20962000Y-10982489I-80000J0D01*
G01*
%TD*%
%TO.C,D1*%
X13439000Y-8414500D02*
X13439000Y-8574500D01*
X13599000Y-8574500D01*
X13599000Y-8414500D01*
X13439000Y-8414500D01*
X13519000Y-9176500D02*
X13519000Y-9176500D01*
X13519000Y-9176500D02*
G75*
G03*
X13519000Y-9336500I0J-80000D01*
G01*
X13519000Y-9336500D02*
X13519000Y-9336500D01*
X13519000Y-9336500D02*
G75*
G03*
X13519000Y-9176500I0J80000D01*
G01*
%TD*%
%TO.C,L2*%
X13336000Y-10077000D02*
G75*
G03*
X13336000Y-10077000I-100000J0D01*
G01*
X12936000Y-10077000D02*
G75*
G03*
X12936000Y-10077000I-100000J0D01*
G01*
%TD*%
%TO.C,U5*%
X20415055Y-10950180D02*
X20415055Y-11117820D01*
X20582695Y-11117820D01*
X20582695Y-10950180D01*
X20415055Y-10950180D01*
X20328695Y-11034000D02*
G75*
G03*
X20328695Y-11034000I-83820J0D01*
G01*
X20074695Y-11034000D02*
G75*
G03*
X20074695Y-11034000I-83820J0D01*
G01*
X19820695Y-11034000D02*
G75*
G03*
X19820695Y-11034000I-83820J0D01*
G01*
X19566695Y-11034000D02*
G75*
G03*
X19566695Y-11034000I-83820J0D01*
G01*
X19312695Y-11034000D02*
G75*
G03*
X19312695Y-11034000I-83820J0D01*
G01*
X19058695Y-11034000D02*
G75*
G03*
X19058695Y-11034000I-83820J0D01*
G01*
X18804695Y-11034000D02*
G75*
G03*
X18804695Y-11034000I-83820J0D01*
G01*
X18550695Y-11034000D02*
G75*
G03*
X18550695Y-11034000I-83820J0D01*
G01*
X18550695Y-11796000D02*
G75*
G03*
X18550695Y-11796000I-83820J0D01*
G01*
X18804695Y-11796000D02*
G75*
G03*
X18804695Y-11796000I-83820J0D01*
G01*
X19058695Y-11796000D02*
G75*
G03*
X19058695Y-11796000I-83820J0D01*
G01*
X19312695Y-11796000D02*
G75*
G03*
X19312695Y-11796000I-83820J0D01*
G01*
X19566695Y-11796000D02*
G75*
G03*
X19566695Y-11796000I-83820J0D01*
G01*
X19820695Y-11796000D02*
G75*
G03*
X19820695Y-11796000I-83820J0D01*
G01*
X20074695Y-11796000D02*
G75*
G03*
X20074695Y-11796000I-83820J0D01*
G01*
X20328695Y-11796000D02*
G75*
G03*
X20328695Y-11796000I-83820J0D01*
G01*
X20582695Y-11796000D02*
G75*
G03*
X20582695Y-11796000I-83820J0D01*
G01*
%TD*%
%TO.C,C12*%
X20686000Y-10076000D02*
X20686000Y-10236000D01*
X20846000Y-10236000D01*
X20846000Y-10076000D01*
X20686000Y-10076000D01*
X20846000Y-9776000D02*
G75*
G03*
X20846000Y-9776000I-80000J0D01*
G01*
%TD*%
%TO.C,J7*%
X16651000Y-11378000D02*
X16651000Y-11548000D01*
X16821000Y-11548000D01*
X16821000Y-11378000D01*
X16651000Y-11378000D01*
X16821000Y-11209000D02*
X16821000Y-11209000D01*
X16821000Y-11209000D02*
G75*
G03*
X16651000Y-11209000I-85000J0D01*
G01*
X16651000Y-11209000D02*
X16651000Y-11209000D01*
X16651000Y-11209000D02*
G75*
G03*
X16821000Y-11209000I85000J0D01*
G01*
X16821000Y-10955000D02*
X16821000Y-10955000D01*
X16821000Y-10955000D02*
G75*
G03*
X16651000Y-10955000I-85000J0D01*
G01*
X16651000Y-10955000D02*
X16651000Y-10955000D01*
X16651000Y-10955000D02*
G75*
G03*
X16821000Y-10955000I85000J0D01*
G01*
%TD*%
%TO.C,J4*%
X20675500Y-9197970D02*
X20675500Y-9367970D01*
X20845500Y-9367970D01*
X20845500Y-9197970D01*
X20675500Y-9197970D01*
X20506500Y-9197970D02*
X20506500Y-9197970D01*
X20506500Y-9197970D02*
G75*
G03*
X20506500Y-9367970I0J-85000D01*
G01*
X20506500Y-9367970D02*
X20506500Y-9367970D01*
X20506500Y-9367970D02*
G75*
G03*
X20506500Y-9197970I0J85000D01*
G01*
X20252500Y-9197970D02*
X20252500Y-9197970D01*
X20252500Y-9197970D02*
G75*
G03*
X20252500Y-9367970I0J-85000D01*
G01*
X20252500Y-9367970D02*
X20252500Y-9367970D01*
X20252500Y-9367970D02*
G75*
G03*
X20252500Y-9197970I0J85000D01*
G01*
%TD*%
%TO.C,C14*%
X18471000Y-10333750D02*
X18471000Y-10453750D01*
X18591000Y-10453750D01*
X18591000Y-10333750D01*
X18471000Y-10333750D01*
X18591000Y-10193750D02*
G75*
G03*
X18591000Y-10193750I-60000J0D01*
G01*
%TD*%
%TO.C,U4*%
X19130500Y-9440000D02*
X19130500Y-9600000D01*
X19290500Y-9600000D01*
X19290500Y-9440000D01*
X19130500Y-9440000D01*
X19290500Y-9266000D02*
X19290500Y-9266000D01*
X19290500Y-9266000D02*
G75*
G03*
X19130500Y-9266000I-80000J0D01*
G01*
X19130500Y-9266000D02*
X19130500Y-9266000D01*
X19130500Y-9266000D02*
G75*
G03*
X19290500Y-9266000I80000J0D01*
G01*
X19290500Y-9012000D02*
X19290500Y-9012000D01*
X19290500Y-9012000D02*
G75*
G03*
X19130500Y-9012000I-80000J0D01*
G01*
X19130500Y-9012000D02*
X19130500Y-9012000D01*
X19130500Y-9012000D02*
G75*
G03*
X19290500Y-9012000I80000J0D01*
G01*
X19290500Y-8758000D02*
X19290500Y-8758000D01*
X19290500Y-8758000D02*
G75*
G03*
X19130500Y-8758000I-80000J0D01*
G01*
X19130500Y-8758000D02*
X19130500Y-8758000D01*
X19130500Y-8758000D02*
G75*
G03*
X19290500Y-8758000I80000J0D01*
G01*
X18528500Y-8758000D02*
X18528500Y-8758000D01*
X18528500Y-8758000D02*
G75*
G03*
X18368500Y-8758000I-80000J0D01*
G01*
X18368500Y-8758000D02*
X18368500Y-8758000D01*
X18368500Y-8758000D02*
G75*
G03*
X18528500Y-8758000I80000J0D01*
G01*
X18528500Y-9012000D02*
X18528500Y-9012000D01*
X18528500Y-9012000D02*
G75*
G03*
X18368500Y-9012000I-80000J0D01*
G01*
X18368500Y-9012000D02*
X18368500Y-9012000D01*
X18368500Y-9012000D02*
G75*
G03*
X18528500Y-9012000I80000J0D01*
G01*
X18528500Y-9266000D02*
X18528500Y-9266000D01*
X18528500Y-9266000D02*
G75*
G03*
X18368500Y-9266000I-80000J0D01*
G01*
X18368500Y-9266000D02*
X18368500Y-9266000D01*
X18368500Y-9266000D02*
G75*
G03*
X18528500Y-9266000I80000J0D01*
G01*
X18528500Y-9520000D02*
X18528500Y-9520000D01*
X18528500Y-9520000D02*
G75*
G03*
X18368500Y-9520000I-80000J0D01*
G01*
X18368500Y-9520000D02*
X18368500Y-9520000D01*
X18368500Y-9520000D02*
G75*
G03*
X18528500Y-9520000I80000J0D01*
G01*
%TD*%
D12*
%TO.C,J5*%
D10*
X12870510Y-10945500D02*
X12862852Y-10943977D01*
X12856361Y-10939639D01*
X12852023Y-10933148D01*
X12850500Y-10925490D01*
X12850500Y-10735510D01*
X12852023Y-10727853D01*
X12856361Y-10721361D01*
X12862852Y-10717023D01*
X12870510Y-10715500D01*
X13060490Y-10715500D01*
X13068147Y-10717023D01*
X13074639Y-10721361D01*
X13078977Y-10727853D01*
X13080500Y-10735510D01*
X13080500Y-10925490D01*
X13078977Y-10933148D01*
X13074639Y-10939639D01*
X13068147Y-10943977D01*
X13060490Y-10945500D01*
X12870510Y-10945500D01*
X12836500Y-11084500D02*
G75*
G03*
X12836500Y-11084500I-125000J0D01*
G01*
X13344500Y-11084500D02*
G75*
G03*
X13344500Y-11084500I-125000J0D01*
G01*
X12836500Y-10576500D02*
G75*
G03*
X12836500Y-10576500I-125000J0D01*
G01*
X13344500Y-10576500D02*
G75*
G03*
X13344500Y-10576500I-125000J0D01*
G01*
%TD*%
%TO.C,Q1*%
X17923000Y-10110750D02*
X17923000Y-10260750D01*
X18073000Y-10260750D01*
X18073000Y-10110750D01*
X17923000Y-10110750D01*
X18073000Y-10439750D02*
G75*
G03*
X18073000Y-10439750I-75000J0D01*
G01*
X18073000Y-10693750D02*
G75*
G03*
X18073000Y-10693750I-75000J0D01*
G01*
%TD*%
%TO.C,C20*%
X18081875Y-11506000D02*
X18081875Y-11626000D01*
X18201875Y-11626000D01*
X18201875Y-11506000D01*
X18081875Y-11506000D01*
X18001875Y-11566000D02*
G75*
G03*
X18001875Y-11566000I-60000J0D01*
G01*
%TD*%
%TO.C,D3*%
X13701998Y-10639002D02*
X13701998Y-10799002D01*
X13861998Y-10799002D01*
X13861998Y-10639002D01*
X13701998Y-10639002D01*
X13781998Y-11401002D02*
X13781998Y-11401002D01*
X13781998Y-11401002D02*
G75*
G03*
X13781998Y-11561002I0J-80000D01*
G01*
X13781998Y-11561002D02*
X13781998Y-11561002D01*
X13781998Y-11561002D02*
G75*
G03*
X13781998Y-11401002I0J80000D01*
G01*
%TD*%
D12*
%TO.C,C23*%
D10*
X14850000Y-11027500D02*
X14859567Y-11029403D01*
X14867678Y-11034822D01*
X14873097Y-11042933D01*
X14875000Y-11052500D01*
X14875000Y-11117500D01*
X14873097Y-11127067D01*
X14867678Y-11135178D01*
X14859567Y-11140597D01*
X14850000Y-11142500D01*
X14720000Y-11142500D01*
X14710433Y-11140597D01*
X14702322Y-11135178D01*
X14696903Y-11127067D01*
X14695000Y-11117500D01*
X14695000Y-11052500D01*
X14696903Y-11042933D01*
X14702322Y-11034822D01*
X14710433Y-11029403D01*
X14720000Y-11027500D01*
X14850000Y-11027500D01*
D12*
D10*
X14850000Y-11322500D02*
X14859567Y-11324403D01*
X14867678Y-11329822D01*
X14873097Y-11337933D01*
X14875000Y-11347500D01*
X14875000Y-11412500D01*
X14873097Y-11422067D01*
X14867678Y-11430178D01*
X14859567Y-11435597D01*
X14850000Y-11437500D01*
X14720000Y-11437500D01*
X14710433Y-11435597D01*
X14702322Y-11430178D01*
X14696903Y-11422067D01*
X14695000Y-11412500D01*
X14695000Y-11347500D01*
X14696903Y-11337933D01*
X14702322Y-11329822D01*
X14710433Y-11324403D01*
X14720000Y-11322500D01*
X14850000Y-11322500D01*
%TD*%
D12*
%TO.C,C24*%
D10*
X14596000Y-11027500D02*
X14605567Y-11029403D01*
X14613678Y-11034822D01*
X14619097Y-11042933D01*
X14621000Y-11052500D01*
X14621000Y-11117500D01*
X14619097Y-11127067D01*
X14613678Y-11135178D01*
X14605567Y-11140597D01*
X14596000Y-11142500D01*
X14466000Y-11142500D01*
X14456433Y-11140597D01*
X14448322Y-11135178D01*
X14442903Y-11127067D01*
X14441000Y-11117500D01*
X14441000Y-11052500D01*
X14442903Y-11042933D01*
X14448322Y-11034822D01*
X14456433Y-11029403D01*
X14466000Y-11027500D01*
X14596000Y-11027500D01*
D12*
D10*
X14596000Y-11322500D02*
X14605567Y-11324403D01*
X14613678Y-11329822D01*
X14619097Y-11337933D01*
X14621000Y-11347500D01*
X14621000Y-11412500D01*
X14619097Y-11422067D01*
X14613678Y-11430178D01*
X14605567Y-11435597D01*
X14596000Y-11437500D01*
X14466000Y-11437500D01*
X14456433Y-11435597D01*
X14448322Y-11430178D01*
X14442903Y-11422067D01*
X14441000Y-11412500D01*
X14441000Y-11347500D01*
X14442903Y-11337933D01*
X14448322Y-11329822D01*
X14456433Y-11324403D01*
X14466000Y-11322500D01*
X14596000Y-11322500D01*
%TD*%
D12*
%TO.C,R19*%
D10*
X15540250Y-11267000D02*
X15538347Y-11276567D01*
X15532928Y-11284678D01*
X15524817Y-11290097D01*
X15515250Y-11292000D01*
X15452750Y-11292000D01*
X15443183Y-11290097D01*
X15435072Y-11284678D01*
X15429653Y-11276567D01*
X15427750Y-11267000D01*
X15427750Y-11142000D01*
X15429653Y-11132433D01*
X15435072Y-11124322D01*
X15443183Y-11118903D01*
X15452750Y-11117000D01*
X15515250Y-11117000D01*
X15524817Y-11118903D01*
X15532928Y-11124322D01*
X15538347Y-11132433D01*
X15540250Y-11142000D01*
X15540250Y-11267000D01*
D12*
D10*
X15247750Y-11267000D02*
X15245847Y-11276567D01*
X15240428Y-11284678D01*
X15232317Y-11290097D01*
X15222750Y-11292000D01*
X15160250Y-11292000D01*
X15150683Y-11290097D01*
X15142572Y-11284678D01*
X15137153Y-11276567D01*
X15135250Y-11267000D01*
X15135250Y-11142000D01*
X15137153Y-11132433D01*
X15142572Y-11124322D01*
X15150683Y-11118903D01*
X15160250Y-11117000D01*
X15222750Y-11117000D01*
X15232317Y-11118903D01*
X15240428Y-11124322D01*
X15245847Y-11132433D01*
X15247750Y-11142000D01*
X15247750Y-11267000D01*
%TD*%
D12*
%TO.C,R21*%
D10*
X15540250Y-11492000D02*
X15538347Y-11501567D01*
X15532928Y-11509678D01*
X15524817Y-11515097D01*
X15515250Y-11517000D01*
X15452750Y-11517000D01*
X15443183Y-11515097D01*
X15435072Y-11509678D01*
X15429653Y-11501567D01*
X15427750Y-11492000D01*
X15427750Y-11367000D01*
X15429653Y-11357433D01*
X15435072Y-11349322D01*
X15443183Y-11343903D01*
X15452750Y-11342000D01*
X15515250Y-11342000D01*
X15524817Y-11343903D01*
X15532928Y-11349322D01*
X15538347Y-11357433D01*
X15540250Y-11367000D01*
X15540250Y-11492000D01*
D12*
D10*
X15247750Y-11492000D02*
X15245847Y-11501567D01*
X15240428Y-11509678D01*
X15232317Y-11515097D01*
X15222750Y-11517000D01*
X15160250Y-11517000D01*
X15150683Y-11515097D01*
X15142572Y-11509678D01*
X15137153Y-11501567D01*
X15135250Y-11492000D01*
X15135250Y-11367000D01*
X15137153Y-11357433D01*
X15142572Y-11349322D01*
X15150683Y-11343903D01*
X15160250Y-11342000D01*
X15222750Y-11342000D01*
X15232317Y-11343903D01*
X15240428Y-11349322D01*
X15245847Y-11357433D01*
X15247750Y-11367000D01*
X15247750Y-11492000D01*
%TD*%
%TO.C,U6*%
X14344000Y-10603250D02*
X14344000Y-10643250D01*
X14464000Y-10643250D01*
X14464000Y-10603250D01*
X14344000Y-10603250D01*
X14344000Y-10539750D02*
X14344000Y-10579750D01*
X14464000Y-10579750D01*
X14464000Y-10539750D01*
X14344000Y-10539750D01*
X14344000Y-10476250D02*
X14344000Y-10516250D01*
X14464000Y-10516250D01*
X14464000Y-10476250D01*
X14344000Y-10476250D01*
X14344000Y-10412750D02*
X14344000Y-10452750D01*
X14464000Y-10452750D01*
X14464000Y-10412750D01*
X14344000Y-10412750D01*
X14344000Y-10349250D02*
X14344000Y-10389250D01*
X14464000Y-10389250D01*
X14464000Y-10349250D01*
X14344000Y-10349250D01*
X14344000Y-10285750D02*
X14344000Y-10325750D01*
X14464000Y-10325750D01*
X14464000Y-10285750D01*
X14344000Y-10285750D01*
X14344000Y-10222250D02*
X14344000Y-10262250D01*
X14464000Y-10262250D01*
X14464000Y-10222250D01*
X14344000Y-10222250D01*
X14344000Y-10158750D02*
X14344000Y-10198750D01*
X14464000Y-10198750D01*
X14464000Y-10158750D01*
X14344000Y-10158750D01*
X14344000Y-10095250D02*
X14344000Y-10135250D01*
X14464000Y-10135250D01*
X14464000Y-10095250D01*
X14344000Y-10095250D01*
X14344000Y-10031750D02*
X14344000Y-10071750D01*
X14464000Y-10071750D01*
X14464000Y-10031750D01*
X14344000Y-10031750D01*
X14344000Y-9968250D02*
X14344000Y-10008250D01*
X14464000Y-10008250D01*
X14464000Y-9968250D01*
X14344000Y-9968250D01*
X14344000Y-9904750D02*
X14344000Y-9944750D01*
X14464000Y-9944750D01*
X14464000Y-9904750D01*
X14344000Y-9904750D01*
X14864000Y-9904750D02*
X14864000Y-9944750D01*
X14984000Y-9944750D01*
X14984000Y-9904750D01*
X14864000Y-9904750D01*
X14864000Y-9968250D02*
X14864000Y-10008250D01*
X14984000Y-10008250D01*
X14984000Y-9968250D01*
X14864000Y-9968250D01*
X14864000Y-10031750D02*
X14864000Y-10071750D01*
X14984000Y-10071750D01*
X14984000Y-10031750D01*
X14864000Y-10031750D01*
X14864000Y-10095250D02*
X14864000Y-10135250D01*
X14984000Y-10135250D01*
X14984000Y-10095250D01*
X14864000Y-10095250D01*
X14864000Y-10158750D02*
X14864000Y-10198750D01*
X14984000Y-10198750D01*
X14984000Y-10158750D01*
X14864000Y-10158750D01*
X14864000Y-10222250D02*
X14864000Y-10262250D01*
X14984000Y-10262250D01*
X14984000Y-10222250D01*
X14864000Y-10222250D01*
X14864000Y-10285750D02*
X14864000Y-10325750D01*
X14984000Y-10325750D01*
X14984000Y-10285750D01*
X14864000Y-10285750D01*
X14864000Y-10349250D02*
X14864000Y-10389250D01*
X14984000Y-10389250D01*
X14984000Y-10349250D01*
X14864000Y-10349250D01*
X14864000Y-10412750D02*
X14864000Y-10452750D01*
X14984000Y-10452750D01*
X14984000Y-10412750D01*
X14864000Y-10412750D01*
X14864000Y-10476250D02*
X14864000Y-10516250D01*
X14984000Y-10516250D01*
X14984000Y-10476250D01*
X14864000Y-10476250D01*
X14864000Y-10539750D02*
X14864000Y-10579750D01*
X14984000Y-10579750D01*
X14984000Y-10539750D01*
X14864000Y-10539750D01*
X14864000Y-10603250D02*
X14864000Y-10643250D01*
X14984000Y-10643250D01*
X14984000Y-10603250D01*
X14864000Y-10603250D01*
%TD*%
D12*
%TO.C,R10*%
D10*
X17246500Y-8761500D02*
X17236933Y-8759597D01*
X17228822Y-8754178D01*
X17223403Y-8746067D01*
X17221500Y-8736500D01*
X17221500Y-8674000D01*
X17223403Y-8664433D01*
X17228822Y-8656322D01*
X17236933Y-8650903D01*
X17246500Y-8649000D01*
X17371500Y-8649000D01*
X17381067Y-8650903D01*
X17389178Y-8656322D01*
X17394597Y-8664433D01*
X17396500Y-8674000D01*
X17396500Y-8736500D01*
X17394597Y-8746067D01*
X17389178Y-8754178D01*
X17381067Y-8759597D01*
X17371500Y-8761500D01*
X17246500Y-8761500D01*
D12*
D10*
X17246500Y-8469000D02*
X17236933Y-8467097D01*
X17228822Y-8461678D01*
X17223403Y-8453567D01*
X17221500Y-8444000D01*
X17221500Y-8381500D01*
X17223403Y-8371933D01*
X17228822Y-8363822D01*
X17236933Y-8358403D01*
X17246500Y-8356500D01*
X17371500Y-8356500D01*
X17381067Y-8358403D01*
X17389178Y-8363822D01*
X17394597Y-8371933D01*
X17396500Y-8381500D01*
X17396500Y-8444000D01*
X17394597Y-8453567D01*
X17389178Y-8461678D01*
X17381067Y-8467097D01*
X17371500Y-8469000D01*
X17246500Y-8469000D01*
%TD*%
D12*
%TO.C,R17*%
D10*
X14196500Y-10638250D02*
X14206067Y-10640153D01*
X14214178Y-10645572D01*
X14219597Y-10653683D01*
X14221500Y-10663250D01*
X14221500Y-10725750D01*
X14219597Y-10735317D01*
X14214178Y-10743428D01*
X14206067Y-10748847D01*
X14196500Y-10750750D01*
X14071500Y-10750750D01*
X14061933Y-10748847D01*
X14053822Y-10743428D01*
X14048403Y-10735317D01*
X14046500Y-10725750D01*
X14046500Y-10663250D01*
X14048403Y-10653683D01*
X14053822Y-10645572D01*
X14061933Y-10640153D01*
X14071500Y-10638250D01*
X14196500Y-10638250D01*
D12*
D10*
X14196500Y-10930750D02*
X14206067Y-10932653D01*
X14214178Y-10938072D01*
X14219597Y-10946183D01*
X14221500Y-10955750D01*
X14221500Y-11018250D01*
X14219597Y-11027817D01*
X14214178Y-11035928D01*
X14206067Y-11041347D01*
X14196500Y-11043250D01*
X14071500Y-11043250D01*
X14061933Y-11041347D01*
X14053822Y-11035928D01*
X14048403Y-11027817D01*
X14046500Y-11018250D01*
X14046500Y-10955750D01*
X14048403Y-10946183D01*
X14053822Y-10938072D01*
X14061933Y-10932653D01*
X14071500Y-10930750D01*
X14196500Y-10930750D01*
%TD*%
D12*
%TO.C,R15*%
D10*
X18177000Y-10626250D02*
X18178903Y-10616683D01*
X18184322Y-10608572D01*
X18192433Y-10603153D01*
X18202000Y-10601250D01*
X18264500Y-10601250D01*
X18274067Y-10603153D01*
X18282178Y-10608572D01*
X18287597Y-10616683D01*
X18289500Y-10626250D01*
X18289500Y-10751250D01*
X18287597Y-10760817D01*
X18282178Y-10768928D01*
X18274067Y-10774347D01*
X18264500Y-10776250D01*
X18202000Y-10776250D01*
X18192433Y-10774347D01*
X18184322Y-10768928D01*
X18178903Y-10760817D01*
X18177000Y-10751250D01*
X18177000Y-10626250D01*
D12*
D10*
X18469500Y-10626250D02*
X18471403Y-10616683D01*
X18476822Y-10608572D01*
X18484933Y-10603153D01*
X18494500Y-10601250D01*
X18557000Y-10601250D01*
X18566567Y-10603153D01*
X18574678Y-10608572D01*
X18580097Y-10616683D01*
X18582000Y-10626250D01*
X18582000Y-10751250D01*
X18580097Y-10760817D01*
X18574678Y-10768928D01*
X18566567Y-10774347D01*
X18557000Y-10776250D01*
X18494500Y-10776250D01*
X18484933Y-10774347D01*
X18476822Y-10768928D01*
X18471403Y-10760817D01*
X18469500Y-10751250D01*
X18469500Y-10626250D01*
%TD*%
D12*
%TO.C,R22*%
D10*
X17632500Y-11762250D02*
X17622933Y-11760347D01*
X17614822Y-11754928D01*
X17609403Y-11746817D01*
X17607500Y-11737250D01*
X17607500Y-11674750D01*
X17609403Y-11665183D01*
X17614822Y-11657072D01*
X17622933Y-11651653D01*
X17632500Y-11649750D01*
X17757500Y-11649750D01*
X17767067Y-11651653D01*
X17775178Y-11657072D01*
X17780597Y-11665183D01*
X17782500Y-11674750D01*
X17782500Y-11737250D01*
X17780597Y-11746817D01*
X17775178Y-11754928D01*
X17767067Y-11760347D01*
X17757500Y-11762250D01*
X17632500Y-11762250D01*
D12*
D10*
X17632500Y-11469750D02*
X17622933Y-11467847D01*
X17614822Y-11462428D01*
X17609403Y-11454317D01*
X17607500Y-11444750D01*
X17607500Y-11382250D01*
X17609403Y-11372683D01*
X17614822Y-11364572D01*
X17622933Y-11359153D01*
X17632500Y-11357250D01*
X17757500Y-11357250D01*
X17767067Y-11359153D01*
X17775178Y-11364572D01*
X17780597Y-11372683D01*
X17782500Y-11382250D01*
X17782500Y-11444750D01*
X17780597Y-11454317D01*
X17775178Y-11462428D01*
X17767067Y-11467847D01*
X17757500Y-11469750D01*
X17632500Y-11469750D01*
%TD*%
D12*
%TO.C,R13*%
D10*
X17995500Y-8640750D02*
X18005067Y-8642653D01*
X18013178Y-8648072D01*
X18018597Y-8656183D01*
X18020500Y-8665750D01*
X18020500Y-8728250D01*
X18018597Y-8737817D01*
X18013178Y-8745928D01*
X18005067Y-8751347D01*
X17995500Y-8753250D01*
X17870500Y-8753250D01*
X17860933Y-8751347D01*
X17852822Y-8745928D01*
X17847403Y-8737817D01*
X17845500Y-8728250D01*
X17845500Y-8665750D01*
X17847403Y-8656183D01*
X17852822Y-8648072D01*
X17860933Y-8642653D01*
X17870500Y-8640750D01*
X17995500Y-8640750D01*
D12*
D10*
X17995500Y-8933250D02*
X18005067Y-8935153D01*
X18013178Y-8940572D01*
X18018597Y-8948683D01*
X18020500Y-8958250D01*
X18020500Y-9020750D01*
X18018597Y-9030317D01*
X18013178Y-9038428D01*
X18005067Y-9043847D01*
X17995500Y-9045750D01*
X17870500Y-9045750D01*
X17860933Y-9043847D01*
X17852822Y-9038428D01*
X17847403Y-9030317D01*
X17845500Y-9020750D01*
X17845500Y-8958250D01*
X17847403Y-8948683D01*
X17852822Y-8940572D01*
X17860933Y-8935153D01*
X17870500Y-8933250D01*
X17995500Y-8933250D01*
%TD*%
D12*
%TO.C,R18*%
D10*
X17755500Y-10886500D02*
X17765067Y-10888403D01*
X17773178Y-10893822D01*
X17778597Y-10901933D01*
X17780500Y-10911500D01*
X17780500Y-10974000D01*
X17778597Y-10983567D01*
X17773178Y-10991678D01*
X17765067Y-10997097D01*
X17755500Y-10999000D01*
X17630500Y-10999000D01*
X17620933Y-10997097D01*
X17612822Y-10991678D01*
X17607403Y-10983567D01*
X17605500Y-10974000D01*
X17605500Y-10911500D01*
X17607403Y-10901933D01*
X17612822Y-10893822D01*
X17620933Y-10888403D01*
X17630500Y-10886500D01*
X17755500Y-10886500D01*
D12*
D10*
X17755500Y-11179000D02*
X17765067Y-11180903D01*
X17773178Y-11186322D01*
X17778597Y-11194433D01*
X17780500Y-11204000D01*
X17780500Y-11266500D01*
X17778597Y-11276067D01*
X17773178Y-11284178D01*
X17765067Y-11289597D01*
X17755500Y-11291500D01*
X17630500Y-11291500D01*
X17620933Y-11289597D01*
X17612822Y-11284178D01*
X17607403Y-11276067D01*
X17605500Y-11266500D01*
X17605500Y-11204000D01*
X17607403Y-11194433D01*
X17612822Y-11186322D01*
X17620933Y-11180903D01*
X17630500Y-11179000D01*
X17755500Y-11179000D01*
%TD*%
D12*
%TO.C,R12*%
D10*
X16726500Y-8761500D02*
X16716933Y-8759597D01*
X16708822Y-8754178D01*
X16703403Y-8746067D01*
X16701500Y-8736500D01*
X16701500Y-8674000D01*
X16703403Y-8664433D01*
X16708822Y-8656322D01*
X16716933Y-8650903D01*
X16726500Y-8649000D01*
X16851500Y-8649000D01*
X16861067Y-8650903D01*
X16869178Y-8656322D01*
X16874597Y-8664433D01*
X16876500Y-8674000D01*
X16876500Y-8736500D01*
X16874597Y-8746067D01*
X16869178Y-8754178D01*
X16861067Y-8759597D01*
X16851500Y-8761500D01*
X16726500Y-8761500D01*
D12*
D10*
X16726500Y-8469000D02*
X16716933Y-8467097D01*
X16708822Y-8461678D01*
X16703403Y-8453567D01*
X16701500Y-8444000D01*
X16701500Y-8381500D01*
X16703403Y-8371933D01*
X16708822Y-8363822D01*
X16716933Y-8358403D01*
X16726500Y-8356500D01*
X16851500Y-8356500D01*
X16861067Y-8358403D01*
X16869178Y-8363822D01*
X16874597Y-8371933D01*
X16876500Y-8381500D01*
X16876500Y-8444000D01*
X16874597Y-8453567D01*
X16869178Y-8461678D01*
X16861067Y-8467097D01*
X16851500Y-8469000D01*
X16726500Y-8469000D01*
%TD*%
D12*
%TO.C,R20*%
D10*
X17115500Y-11108000D02*
X17125067Y-11109903D01*
X17133178Y-11115322D01*
X17138597Y-11123433D01*
X17140500Y-11133000D01*
X17140500Y-11195500D01*
X17138597Y-11205067D01*
X17133178Y-11213178D01*
X17125067Y-11218597D01*
X17115500Y-11220500D01*
X16990500Y-11220500D01*
X16980933Y-11218597D01*
X16972822Y-11213178D01*
X16967403Y-11205067D01*
X16965500Y-11195500D01*
X16965500Y-11133000D01*
X16967403Y-11123433D01*
X16972822Y-11115322D01*
X16980933Y-11109903D01*
X16990500Y-11108000D01*
X17115500Y-11108000D01*
D12*
D10*
X17115500Y-11400500D02*
X17125067Y-11402403D01*
X17133178Y-11407822D01*
X17138597Y-11415933D01*
X17140500Y-11425500D01*
X17140500Y-11488000D01*
X17138597Y-11497567D01*
X17133178Y-11505678D01*
X17125067Y-11511097D01*
X17115500Y-11513000D01*
X16990500Y-11513000D01*
X16980933Y-11511097D01*
X16972822Y-11505678D01*
X16967403Y-11497567D01*
X16965500Y-11488000D01*
X16965500Y-11425500D01*
X16967403Y-11415933D01*
X16972822Y-11407822D01*
X16980933Y-11402403D01*
X16990500Y-11400500D01*
X17115500Y-11400500D01*
%TD*%
D12*
%TO.C,R11*%
D10*
X16996500Y-8760250D02*
X16986933Y-8758347D01*
X16978822Y-8752928D01*
X16973403Y-8744817D01*
X16971500Y-8735250D01*
X16971500Y-8672750D01*
X16973403Y-8663183D01*
X16978822Y-8655072D01*
X16986933Y-8649653D01*
X16996500Y-8647750D01*
X17121500Y-8647750D01*
X17131067Y-8649653D01*
X17139178Y-8655072D01*
X17144597Y-8663183D01*
X17146500Y-8672750D01*
X17146500Y-8735250D01*
X17144597Y-8744817D01*
X17139178Y-8752928D01*
X17131067Y-8758347D01*
X17121500Y-8760250D01*
X16996500Y-8760250D01*
D12*
D10*
X16996500Y-8467750D02*
X16986933Y-8465847D01*
X16978822Y-8460428D01*
X16973403Y-8452317D01*
X16971500Y-8442750D01*
X16971500Y-8380250D01*
X16973403Y-8370683D01*
X16978822Y-8362572D01*
X16986933Y-8357153D01*
X16996500Y-8355250D01*
X17121500Y-8355250D01*
X17131067Y-8357153D01*
X17139178Y-8362572D01*
X17144597Y-8370683D01*
X17146500Y-8380250D01*
X17146500Y-8442750D01*
X17144597Y-8452317D01*
X17139178Y-8460428D01*
X17131067Y-8465847D01*
X17121500Y-8467750D01*
X16996500Y-8467750D01*
%TD*%
D12*
%TO.C,R14*%
D10*
X18286500Y-10090500D02*
X18296067Y-10092403D01*
X18304178Y-10097822D01*
X18309597Y-10105933D01*
X18311500Y-10115500D01*
X18311500Y-10178000D01*
X18309597Y-10187567D01*
X18304178Y-10195678D01*
X18296067Y-10201097D01*
X18286500Y-10203000D01*
X18161500Y-10203000D01*
X18151933Y-10201097D01*
X18143822Y-10195678D01*
X18138403Y-10187567D01*
X18136500Y-10178000D01*
X18136500Y-10115500D01*
X18138403Y-10105933D01*
X18143822Y-10097822D01*
X18151933Y-10092403D01*
X18161500Y-10090500D01*
X18286500Y-10090500D01*
D12*
D10*
X18286500Y-10383000D02*
X18296067Y-10384903D01*
X18304178Y-10390322D01*
X18309597Y-10398433D01*
X18311500Y-10408000D01*
X18311500Y-10470500D01*
X18309597Y-10480067D01*
X18304178Y-10488178D01*
X18296067Y-10493597D01*
X18286500Y-10495500D01*
X18161500Y-10495500D01*
X18151933Y-10493597D01*
X18143822Y-10488178D01*
X18138403Y-10480067D01*
X18136500Y-10470500D01*
X18136500Y-10408000D01*
X18138403Y-10398433D01*
X18143822Y-10390322D01*
X18151933Y-10384903D01*
X18161500Y-10383000D01*
X18286500Y-10383000D01*
%TD*%
D12*
%TO.C,R9*%
D10*
X17489000Y-8762750D02*
X17479433Y-8760847D01*
X17471322Y-8755428D01*
X17465903Y-8747317D01*
X17464000Y-8737750D01*
X17464000Y-8675250D01*
X17465903Y-8665683D01*
X17471322Y-8657572D01*
X17479433Y-8652153D01*
X17489000Y-8650250D01*
X17614000Y-8650250D01*
X17623567Y-8652153D01*
X17631678Y-8657572D01*
X17637097Y-8665683D01*
X17639000Y-8675250D01*
X17639000Y-8737750D01*
X17637097Y-8747317D01*
X17631678Y-8755428D01*
X17623567Y-8760847D01*
X17614000Y-8762750D01*
X17489000Y-8762750D01*
D12*
D10*
X17489000Y-8470250D02*
X17479433Y-8468347D01*
X17471322Y-8462928D01*
X17465903Y-8454817D01*
X17464000Y-8445250D01*
X17464000Y-8382750D01*
X17465903Y-8373183D01*
X17471322Y-8365072D01*
X17479433Y-8359653D01*
X17489000Y-8357750D01*
X17614000Y-8357750D01*
X17623567Y-8359653D01*
X17631678Y-8365072D01*
X17637097Y-8373183D01*
X17639000Y-8382750D01*
X17639000Y-8445250D01*
X17637097Y-8454817D01*
X17631678Y-8462928D01*
X17623567Y-8468347D01*
X17614000Y-8470250D01*
X17489000Y-8470250D01*
%TD*%
D12*
%TO.C,R16*%
D10*
X16991500Y-11049000D02*
X16981933Y-11047097D01*
X16973822Y-11041678D01*
X16968403Y-11033567D01*
X16966500Y-11024000D01*
X16966500Y-10961500D01*
X16968403Y-10951933D01*
X16973822Y-10943822D01*
X16981933Y-10938403D01*
X16991500Y-10936500D01*
X17116500Y-10936500D01*
X17126067Y-10938403D01*
X17134178Y-10943822D01*
X17139597Y-10951933D01*
X17141500Y-10961500D01*
X17141500Y-11024000D01*
X17139597Y-11033567D01*
X17134178Y-11041678D01*
X17126067Y-11047097D01*
X17116500Y-11049000D01*
X16991500Y-11049000D01*
D12*
D10*
X16991500Y-10756500D02*
X16981933Y-10754597D01*
X16973822Y-10749178D01*
X16968403Y-10741067D01*
X16966500Y-10731500D01*
X16966500Y-10669000D01*
X16968403Y-10659433D01*
X16973822Y-10651322D01*
X16981933Y-10645903D01*
X16991500Y-10644000D01*
X17116500Y-10644000D01*
X17126067Y-10645903D01*
X17134178Y-10651322D01*
X17139597Y-10659433D01*
X17141500Y-10669000D01*
X17141500Y-10731500D01*
X17139597Y-10741067D01*
X17134178Y-10749178D01*
X17126067Y-10754597D01*
X17116500Y-10756500D01*
X16991500Y-10756500D01*
%TD*%
D13*
X13100268Y-7953000D02*
G75*
G03*
X13100268Y-7953000I-153912J0D01*
G01*
D14*
X13023113Y-7953000D02*
G75*
G03*
X13023113Y-7953000I-76757J0D01*
G01*
D13*
X20965013Y-7959000D02*
G75*
G03*
X20965013Y-7959000I-151013J0D01*
G01*
D15*
X20889832Y-7959000D02*
G75*
G03*
X20889832Y-7959000I-75832J0D01*
G01*
D14*
X13025757Y-11889000D02*
G75*
G03*
X13025757Y-11889000I-76757J0D01*
G01*
D13*
X20962513Y-11889000D02*
G75*
G03*
X20962513Y-11889000I-151013J0D01*
G01*
X13101069Y-11889000D02*
G75*
G03*
X13101069Y-11889000I-152069J0D01*
G01*
D14*
X20891757Y-11887000D02*
G75*
G03*
X20891757Y-11887000I-76757J0D01*
G01*
D13*
X12496500Y-7499000D02*
X21209000Y-7499000D01*
X21209000Y-12346500D01*
X12496500Y-12346500D01*
X12496500Y-7499000D01*
D16*
%TO.C,J3*%
X12517998Y-8878002D02*
X12517998Y-9738002D01*
%TO.C,J5*%
X12515500Y-10400500D02*
X12515500Y-11260500D01*
%TD*%
M02*
