%TF.GenerationSoftware,KiCad,Pcbnew,7.0.6*%
%TF.CreationDate,2023-09-03T13:44:33+00:00*%
%TF.ProjectId,SI4735,53493437-3335-42e6-9b69-6361645f7063,rev?*%
%TF.SameCoordinates,Original*%
%TF.FileFunction,Soldermask,Top*%
%TF.FilePolarity,Negative*%
%FSLAX45Y45*%
G04 Gerber Fmt 4.5, Leading zero omitted, Abs format (unit mm)*
G04 Created by KiCad (PCBNEW 7.0.6) date 2023-09-03 13:44:33*
%MOMM*%
%LPD*%
G01*
G04 APERTURE LIST*
G04 Aperture macros list*
%AMRoundRect*
0 Rectangle with rounded corners*
0 $1 Rounding radius*
0 $2 $3 $4 $5 $6 $7 $8 $9 X,Y pos of 4 corners*
0 Add a 4 corners polygon primitive as box body*
4,1,4,$2,$3,$4,$5,$6,$7,$8,$9,$2,$3,0*
0 Add four circle primitives for the rounded corners*
1,1,$1+$1,$2,$3*
1,1,$1+$1,$4,$5*
1,1,$1+$1,$6,$7*
1,1,$1+$1,$8,$9*
0 Add four rect primitives between the rounded corners*
20,1,$1+$1,$2,$3,$4,$5,0*
20,1,$1+$1,$4,$5,$6,$7,0*
20,1,$1+$1,$6,$7,$8,$9,0*
20,1,$1+$1,$8,$9,$2,$3,0*%
G04 Aperture macros list end*
%ADD10RoundRect,0.250000X-0.650000X0.325000X-0.650000X-0.325000X0.650000X-0.325000X0.650000X0.325000X0*%
%ADD11R,1.600000X1.600000*%
%ADD12C,1.600000*%
%ADD13R,1.200000X1.200000*%
%ADD14C,1.200000*%
%ADD15RoundRect,0.200100X0.949900X-0.949900X0.949900X0.949900X-0.949900X0.949900X-0.949900X-0.949900X0*%
%ADD16C,2.500000*%
%ADD17C,1.000000*%
%ADD18RoundRect,0.250000X0.625000X-0.312500X0.625000X0.312500X-0.625000X0.312500X-0.625000X-0.312500X0*%
%ADD19O,1.600000X1.600000*%
%ADD20R,1.700000X1.700000*%
%ADD21O,1.700000X1.700000*%
%ADD22R,1.500000X1.500000*%
%ADD23C,1.500000*%
%ADD24RoundRect,0.250000X-0.625000X0.312500X-0.625000X-0.312500X0.625000X-0.312500X0.625000X0.312500X0*%
%ADD25RoundRect,0.042000X0.258000X-0.943000X0.258000X0.943000X-0.258000X0.943000X-0.258000X-0.943000X0*%
%ADD26RoundRect,0.250000X0.650000X-0.325000X0.650000X0.325000X-0.650000X0.325000X-0.650000X-0.325000X0*%
%ADD27RoundRect,0.250001X-1.099999X-1.099999X1.099999X-1.099999X1.099999X1.099999X-1.099999X1.099999X0*%
%ADD28C,2.700000*%
%ADD29R,1.500000X2.000000*%
%ADD30R,3.800000X2.000000*%
%ADD31C,2.000000*%
%ADD32R,1.676400X1.676400*%
%ADD33C,1.676400*%
%ADD34RoundRect,0.250000X0.312500X0.625000X-0.312500X0.625000X-0.312500X-0.625000X0.312500X-0.625000X0*%
%TA.AperFunction,Profile*%
%ADD35C,0.050000*%
%TD*%
%TA.AperFunction,Profile*%
%ADD36C,1.535132*%
%TD*%
%TA.AperFunction,Profile*%
%ADD37C,1.516643*%
%TD*%
%TA.AperFunction,Profile*%
%ADD38C,0.100000*%
%TD*%
G04 APERTURE END LIST*
D10*
%TO.C,C6*%
X16155000Y-9365000D03*
X16155000Y-9660000D03*
%TD*%
D11*
%TO.C,C8*%
X15278000Y-9566000D03*
D12*
X15078000Y-9566000D03*
%TD*%
%TO.C,C15*%
X15534000Y-10714000D03*
X15284000Y-10714000D03*
%TD*%
%TO.C,C10*%
X13554000Y-9848000D03*
X14054000Y-9848000D03*
%TD*%
%TO.C,C13*%
X13575000Y-10112500D03*
X14075000Y-10112500D03*
%TD*%
D11*
%TO.C,C7*%
X14689000Y-9568000D03*
D12*
X14489000Y-9568000D03*
%TD*%
D13*
%TO.C,C18*%
X15993000Y-10964000D03*
D14*
X15793000Y-10964000D03*
%TD*%
D13*
%TO.C,C22*%
X15976260Y-11661000D03*
D14*
X15776260Y-11661000D03*
%TD*%
D12*
%TO.C,C17*%
X15284000Y-10964000D03*
X15534000Y-10964000D03*
%TD*%
D15*
%TO.C,J3*%
X12967998Y-9308002D03*
D16*
X12713998Y-9562002D03*
X13221998Y-9562002D03*
X12713998Y-9054002D03*
X13221998Y-9054002D03*
%TD*%
D17*
%TO.C,Y1*%
X14559000Y-10901500D03*
X14749000Y-10901500D03*
%TD*%
D10*
%TO.C,C9*%
X17074730Y-9408370D03*
X17074730Y-9703370D03*
%TD*%
D18*
%TO.C,R4*%
X16833030Y-9188860D03*
X16833030Y-8896360D03*
%TD*%
D11*
%TO.C,C11*%
X19911000Y-10152000D03*
D12*
X19911000Y-9772000D03*
%TD*%
%TO.C,R7*%
X14116000Y-10357000D03*
D19*
X15386000Y-10357000D03*
%TD*%
D13*
%TO.C,C19*%
X18127875Y-11034000D03*
D14*
X17927875Y-11034000D03*
%TD*%
D11*
%TO.C,D2*%
X13771500Y-9256500D03*
D19*
X13771500Y-8494500D03*
%TD*%
D20*
%TO.C,J1*%
X15776000Y-8141000D03*
D21*
X16030000Y-8141000D03*
X16284000Y-8141000D03*
X16538000Y-8141000D03*
X16792000Y-8141000D03*
X17046000Y-8141000D03*
X17300000Y-8141000D03*
X17554000Y-8141000D03*
X17808000Y-8141000D03*
X18062000Y-8141000D03*
X18316000Y-8141000D03*
X18570000Y-8141000D03*
%TD*%
D22*
%TO.C,Q2*%
X17405000Y-10440750D03*
D23*
X17405000Y-10694750D03*
X17405000Y-10948750D03*
%TD*%
D12*
%TO.C,C21*%
X15283000Y-11674000D03*
X15533000Y-11674000D03*
%TD*%
D11*
%TO.C,C2*%
X15146000Y-8215000D03*
D12*
X15146000Y-8015000D03*
%TD*%
D11*
%TO.C,C3*%
X19937000Y-8477000D03*
D12*
X20137000Y-8477000D03*
%TD*%
%TO.C,L1*%
X13554000Y-9579000D03*
D19*
X14062000Y-9579000D03*
%TD*%
D24*
%TO.C,R3*%
X16599350Y-8896360D03*
X16599350Y-9188860D03*
%TD*%
D25*
%TO.C,U3*%
X17318930Y-9545530D03*
X17445930Y-9545530D03*
X17572930Y-9545530D03*
X17699930Y-9545530D03*
X17699930Y-9051530D03*
X17572930Y-9051530D03*
X17445930Y-9051530D03*
X17318930Y-9051530D03*
%TD*%
D22*
%TO.C,Q3*%
X17413000Y-11192750D03*
D23*
X17413000Y-11446750D03*
X17413000Y-11700750D03*
%TD*%
D11*
%TO.C,D4*%
X13526998Y-11481002D03*
D19*
X13526998Y-10719002D03*
%TD*%
D26*
%TO.C,C4*%
X17074730Y-9192470D03*
X17074730Y-8897470D03*
%TD*%
D27*
%TO.C,J8*%
X14397660Y-11667340D03*
D28*
X14897660Y-11667340D03*
%TD*%
D11*
%TO.C,C1*%
X19943000Y-7934000D03*
D12*
X20143000Y-7934000D03*
%TD*%
D20*
%TO.C,J6*%
X16329000Y-10966500D03*
D21*
X16329000Y-11220500D03*
X16329000Y-11474500D03*
%TD*%
D11*
%TO.C,C5*%
X15751000Y-9466000D03*
D12*
X15751000Y-9666000D03*
%TD*%
D29*
%TO.C,U2*%
X15299000Y-9149000D03*
X15529000Y-9149000D03*
D30*
X15529000Y-8519000D03*
D29*
X15759000Y-9149000D03*
%TD*%
D20*
%TO.C,J2*%
X20256000Y-8875470D03*
D21*
X20510000Y-8875470D03*
X20764000Y-8875470D03*
%TD*%
D11*
%TO.C,C16*%
X20882000Y-10782489D03*
D12*
X20882000Y-10982489D03*
%TD*%
D11*
%TO.C,D1*%
X13519000Y-8494500D03*
D19*
X13519000Y-9256500D03*
%TD*%
D31*
%TO.C,L2*%
X13236000Y-10077000D03*
X12836000Y-10077000D03*
%TD*%
D32*
%TO.C,U5*%
X20498875Y-11034000D03*
D33*
X20244875Y-11034000D03*
X19990875Y-11034000D03*
X19736875Y-11034000D03*
X19482875Y-11034000D03*
X19228875Y-11034000D03*
X18974875Y-11034000D03*
X18720875Y-11034000D03*
X18466875Y-11034000D03*
X18466875Y-11796000D03*
X18720875Y-11796000D03*
X18974875Y-11796000D03*
X19228875Y-11796000D03*
X19482875Y-11796000D03*
X19736875Y-11796000D03*
X19990875Y-11796000D03*
X20244875Y-11796000D03*
X20498875Y-11796000D03*
%TD*%
D11*
%TO.C,C12*%
X20766000Y-10156000D03*
D12*
X20766000Y-9776000D03*
%TD*%
D34*
%TO.C,R8*%
X18532250Y-10689750D03*
X18239750Y-10689750D03*
%TD*%
D20*
%TO.C,J7*%
X16736000Y-11463000D03*
D21*
X16736000Y-11209000D03*
X16736000Y-10955000D03*
%TD*%
D24*
%TO.C,R2*%
X16375830Y-8896360D03*
X16375830Y-9188860D03*
%TD*%
%TO.C,R6*%
X16793000Y-9446500D03*
X16793000Y-9739000D03*
%TD*%
D20*
%TO.C,J4*%
X20760500Y-9282970D03*
D21*
X20506500Y-9282970D03*
X20252500Y-9282970D03*
%TD*%
D13*
%TO.C,C14*%
X18531000Y-10393750D03*
D14*
X18531000Y-10193750D03*
%TD*%
D11*
%TO.C,U4*%
X19210500Y-9520000D03*
D19*
X19210500Y-9266000D03*
X19210500Y-9012000D03*
X19210500Y-8758000D03*
X18448500Y-8758000D03*
X18448500Y-9012000D03*
X18448500Y-9266000D03*
X18448500Y-9520000D03*
%TD*%
D15*
%TO.C,J5*%
X12965500Y-10830500D03*
D16*
X12711500Y-11084500D03*
X13219500Y-11084500D03*
X12711500Y-10576500D03*
X13219500Y-10576500D03*
%TD*%
D29*
%TO.C,U1*%
X14519000Y-9149000D03*
X14749000Y-9149000D03*
D30*
X14749000Y-8519000D03*
D29*
X14979000Y-9149000D03*
%TD*%
D22*
%TO.C,Q1*%
X17998000Y-10185750D03*
D23*
X17998000Y-10439750D03*
X17998000Y-10693750D03*
%TD*%
D13*
%TO.C,C20*%
X18141875Y-11566000D03*
D14*
X17941875Y-11566000D03*
%TD*%
D18*
%TO.C,R1*%
X16152310Y-9191000D03*
X16152310Y-8898500D03*
%TD*%
D11*
%TO.C,D3*%
X13781998Y-10719002D03*
D19*
X13781998Y-11481002D03*
%TD*%
D24*
%TO.C,R5*%
X16560000Y-9448750D03*
X16560000Y-9741250D03*
%TD*%
G36*
X14830990Y-11060911D02*
G01*
X14837788Y-11062959D01*
X14842398Y-11068358D01*
X14843500Y-11073510D01*
X14843500Y-12018397D01*
X14841500Y-12025209D01*
X14836134Y-12029858D01*
X14830897Y-12030997D01*
X14488662Y-12030913D01*
X14481851Y-12028911D01*
X14477203Y-12023544D01*
X14476065Y-12018248D01*
X14480935Y-11071035D01*
X14482971Y-11064233D01*
X14488360Y-11059612D01*
X14493625Y-11058500D01*
X14830990Y-11060911D01*
G37*
D35*
X13100268Y-7953000D02*
G75*
G03*
X13100268Y-7953000I-153912J0D01*
G01*
D36*
X13023113Y-7953000D02*
G75*
G03*
X13023113Y-7953000I-76757J0D01*
G01*
D35*
X20965013Y-7959000D02*
G75*
G03*
X20965013Y-7959000I-151013J0D01*
G01*
D37*
X20889832Y-7959000D02*
G75*
G03*
X20889832Y-7959000I-75832J0D01*
G01*
D36*
X13025757Y-11889000D02*
G75*
G03*
X13025757Y-11889000I-76757J0D01*
G01*
D35*
X20962513Y-11889000D02*
G75*
G03*
X20962513Y-11889000I-151013J0D01*
G01*
X13101069Y-11889000D02*
G75*
G03*
X13101069Y-11889000I-152069J0D01*
G01*
D36*
X20891757Y-11887000D02*
G75*
G03*
X20891757Y-11887000I-76757J0D01*
G01*
D35*
X12496500Y-7499000D02*
X21209000Y-7499000D01*
X21209000Y-12346500D01*
X12496500Y-12346500D01*
X12496500Y-7499000D01*
D38*
%TO.C,J3*%
X12517998Y-8878002D02*
X12517998Y-9738002D01*
%TO.C,J5*%
X12515500Y-10400500D02*
X12515500Y-11260500D01*
%TD*%
M02*
