%TF.GenerationSoftware,KiCad,Pcbnew,7.0.6*%
%TF.CreationDate,2023-09-03T13:44:33+00:00*%
%TF.ProjectId,SI4735,53493437-3335-42e6-9b69-6361645f7063,rev?*%
%TF.SameCoordinates,Original*%
%TF.FileFunction,Paste,Bot*%
%TF.FilePolarity,Positive*%
%FSLAX45Y45*%
G04 Gerber Fmt 4.5, Leading zero omitted, Abs format (unit mm)*
G04 Created by KiCad (PCBNEW 7.0.6) date 2023-09-03 13:44:33*
%MOMM*%
%LPD*%
G01*
G04 APERTURE LIST*
G04 Aperture macros list*
%AMRoundRect*
0 Rectangle with rounded corners*
0 $1 Rounding radius*
0 $2 $3 $4 $5 $6 $7 $8 $9 X,Y pos of 4 corners*
0 Add a 4 corners polygon primitive as box body*
4,1,4,$2,$3,$4,$5,$6,$7,$8,$9,$2,$3,0*
0 Add four circle primitives for the rounded corners*
1,1,$1+$1,$2,$3*
1,1,$1+$1,$4,$5*
1,1,$1+$1,$6,$7*
1,1,$1+$1,$8,$9*
0 Add four rect primitives between the rounded corners*
20,1,$1+$1,$2,$3,$4,$5,0*
20,1,$1+$1,$4,$5,$6,$7,0*
20,1,$1+$1,$6,$7,$8,$9,0*
20,1,$1+$1,$8,$9,$2,$3,0*%
G04 Aperture macros list end*
%ADD10RoundRect,0.250000X-0.650000X0.325000X-0.650000X-0.325000X0.650000X-0.325000X0.650000X0.325000X0*%
%ADD11RoundRect,0.250000X0.312500X0.625000X-0.312500X0.625000X-0.312500X-0.625000X0.312500X-0.625000X0*%
%ADD12R,1.200000X0.400000*%
%ADD13RoundRect,0.250000X0.625000X-0.312500X0.625000X0.312500X-0.625000X0.312500X-0.625000X-0.312500X0*%
%ADD14RoundRect,0.250000X-0.625000X0.312500X-0.625000X-0.312500X0.625000X-0.312500X0.625000X0.312500X0*%
%ADD15RoundRect,0.250000X-0.312500X-0.625000X0.312500X-0.625000X0.312500X0.625000X-0.312500X0.625000X0*%
%TA.AperFunction,Profile*%
%ADD16C,0.050000*%
%TD*%
%TA.AperFunction,Profile*%
%ADD17C,1.535132*%
%TD*%
%TA.AperFunction,Profile*%
%ADD18C,1.516643*%
%TD*%
%TA.AperFunction,Profile*%
%ADD19C,0.100000*%
%TD*%
G04 APERTURE END LIST*
D10*
%TO.C,C23*%
X14785000Y-11085000D03*
X14785000Y-11380000D03*
%TD*%
%TO.C,C24*%
X14531000Y-11085000D03*
X14531000Y-11380000D03*
%TD*%
D11*
%TO.C,R19*%
X15484000Y-11204500D03*
X15191500Y-11204500D03*
%TD*%
%TO.C,R21*%
X15484000Y-11429500D03*
X15191500Y-11429500D03*
%TD*%
D12*
%TO.C,U6*%
X14404000Y-10623250D03*
X14404000Y-10559750D03*
X14404000Y-10496250D03*
X14404000Y-10432750D03*
X14404000Y-10369250D03*
X14404000Y-10305750D03*
X14404000Y-10242250D03*
X14404000Y-10178750D03*
X14404000Y-10115250D03*
X14404000Y-10051750D03*
X14404000Y-9988250D03*
X14404000Y-9924750D03*
X14924000Y-9924750D03*
X14924000Y-9988250D03*
X14924000Y-10051750D03*
X14924000Y-10115250D03*
X14924000Y-10178750D03*
X14924000Y-10242250D03*
X14924000Y-10305750D03*
X14924000Y-10369250D03*
X14924000Y-10432750D03*
X14924000Y-10496250D03*
X14924000Y-10559750D03*
X14924000Y-10623250D03*
%TD*%
D13*
%TO.C,R10*%
X17309000Y-8705250D03*
X17309000Y-8412750D03*
%TD*%
D14*
%TO.C,R17*%
X14134000Y-10694500D03*
X14134000Y-10987000D03*
%TD*%
D15*
%TO.C,R15*%
X18233250Y-10688750D03*
X18525750Y-10688750D03*
%TD*%
D13*
%TO.C,R22*%
X17695000Y-11706000D03*
X17695000Y-11413500D03*
%TD*%
D14*
%TO.C,R13*%
X17933000Y-8697000D03*
X17933000Y-8989500D03*
%TD*%
%TO.C,R18*%
X17693000Y-10942750D03*
X17693000Y-11235250D03*
%TD*%
D13*
%TO.C,R12*%
X16789000Y-8705250D03*
X16789000Y-8412750D03*
%TD*%
D14*
%TO.C,R20*%
X17053000Y-11164250D03*
X17053000Y-11456750D03*
%TD*%
D13*
%TO.C,R11*%
X17059000Y-8704000D03*
X17059000Y-8411500D03*
%TD*%
D14*
%TO.C,R14*%
X18224000Y-10146750D03*
X18224000Y-10439250D03*
%TD*%
D13*
%TO.C,R9*%
X17551500Y-8706500D03*
X17551500Y-8414000D03*
%TD*%
%TO.C,R16*%
X17054000Y-10992750D03*
X17054000Y-10700250D03*
%TD*%
D16*
X13100268Y-7953000D02*
G75*
G03*
X13100268Y-7953000I-153912J0D01*
G01*
D17*
X13023113Y-7953000D02*
G75*
G03*
X13023113Y-7953000I-76757J0D01*
G01*
D16*
X20965013Y-7959000D02*
G75*
G03*
X20965013Y-7959000I-151013J0D01*
G01*
D18*
X20889832Y-7959000D02*
G75*
G03*
X20889832Y-7959000I-75832J0D01*
G01*
D17*
X13025757Y-11889000D02*
G75*
G03*
X13025757Y-11889000I-76757J0D01*
G01*
D16*
X20962513Y-11889000D02*
G75*
G03*
X20962513Y-11889000I-151013J0D01*
G01*
X13101069Y-11889000D02*
G75*
G03*
X13101069Y-11889000I-152069J0D01*
G01*
D17*
X20891757Y-11887000D02*
G75*
G03*
X20891757Y-11887000I-76757J0D01*
G01*
D16*
X12496500Y-7499000D02*
X21209000Y-7499000D01*
X21209000Y-12346500D01*
X12496500Y-12346500D01*
X12496500Y-7499000D01*
D19*
%TO.C,J3*%
X12517998Y-8878002D02*
X12517998Y-9738002D01*
%TO.C,J5*%
X12515500Y-10400500D02*
X12515500Y-11260500D01*
%TD*%
M02*
