%TF.GenerationSoftware,KiCad,Pcbnew,7.0.6*%
%TF.CreationDate,2023-09-03T13:44:34+00:00*%
%TF.ProjectId,SI4735,53493437-3335-42e6-9b69-6361645f7063,rev?*%
%TF.SameCoordinates,Original*%
%TF.FileFunction,AssemblyDrawing,Top*%
%FSLAX45Y45*%
G04 Gerber Fmt 4.5, Leading zero omitted, Abs format (unit mm)*
G04 Created by KiCad (PCBNEW 7.0.6) date 2023-09-03 13:44:34*
%MOMM*%
%LPD*%
G01*
G04 APERTURE LIST*
%ADD10C,0.120000*%
%ADD11C,0.150000*%
%ADD12C,0.100000*%
%ADD13C,0.127000*%
%ADD14C,0.200000*%
%ADD15C,0.100000*%
%TD*%
%TA.AperFunction,Profile*%
%ADD16C,0.050000*%
%TD*%
%TA.AperFunction,Profile*%
%ADD17C,1.535132*%
%TD*%
%TA.AperFunction,Profile*%
%ADD18C,1.516643*%
%TD*%
%TA.AperFunction,Profile*%
%ADD19C,0.100000*%
%TD*%
G04 APERTURE END LIST*
D10*
X15824831Y-11689766D02*
X15821022Y-11693576D01*
X15821022Y-11693576D02*
X15809593Y-11697385D01*
X15809593Y-11697385D02*
X15801974Y-11697385D01*
X15801974Y-11697385D02*
X15790546Y-11693576D01*
X15790546Y-11693576D02*
X15782927Y-11685957D01*
X15782927Y-11685957D02*
X15779117Y-11678338D01*
X15779117Y-11678338D02*
X15775307Y-11663100D01*
X15775307Y-11663100D02*
X15775307Y-11651671D01*
X15775307Y-11651671D02*
X15779117Y-11636433D01*
X15779117Y-11636433D02*
X15782927Y-11628814D01*
X15782927Y-11628814D02*
X15790546Y-11621195D01*
X15790546Y-11621195D02*
X15801974Y-11617385D01*
X15801974Y-11617385D02*
X15809593Y-11617385D01*
X15809593Y-11617385D02*
X15821022Y-11621195D01*
X15821022Y-11621195D02*
X15824831Y-11625004D01*
X15855307Y-11625004D02*
X15859117Y-11621195D01*
X15859117Y-11621195D02*
X15866736Y-11617385D01*
X15866736Y-11617385D02*
X15885784Y-11617385D01*
X15885784Y-11617385D02*
X15893403Y-11621195D01*
X15893403Y-11621195D02*
X15897212Y-11625004D01*
X15897212Y-11625004D02*
X15901022Y-11632624D01*
X15901022Y-11632624D02*
X15901022Y-11640243D01*
X15901022Y-11640243D02*
X15897212Y-11651671D01*
X15897212Y-11651671D02*
X15851498Y-11697385D01*
X15851498Y-11697385D02*
X15901022Y-11697385D01*
X15931498Y-11625004D02*
X15935308Y-11621195D01*
X15935308Y-11621195D02*
X15942927Y-11617385D01*
X15942927Y-11617385D02*
X15961974Y-11617385D01*
X15961974Y-11617385D02*
X15969593Y-11621195D01*
X15969593Y-11621195D02*
X15973403Y-11625004D01*
X15973403Y-11625004D02*
X15977212Y-11632624D01*
X15977212Y-11632624D02*
X15977212Y-11640243D01*
X15977212Y-11640243D02*
X15973403Y-11651671D01*
X15973403Y-11651671D02*
X15927688Y-11697385D01*
X15927688Y-11697385D02*
X15977212Y-11697385D01*
D11*
X12913480Y-9341335D02*
X12984908Y-9341335D01*
X12984908Y-9341335D02*
X12999194Y-9346097D01*
X12999194Y-9346097D02*
X13008718Y-9355621D01*
X13008718Y-9355621D02*
X13013480Y-9369907D01*
X13013480Y-9369907D02*
X13013480Y-9379431D01*
X12913480Y-9303240D02*
X12913480Y-9241335D01*
X12913480Y-9241335D02*
X12951575Y-9274669D01*
X12951575Y-9274669D02*
X12951575Y-9260383D01*
X12951575Y-9260383D02*
X12956337Y-9250859D01*
X12956337Y-9250859D02*
X12961099Y-9246097D01*
X12961099Y-9246097D02*
X12970623Y-9241335D01*
X12970623Y-9241335D02*
X12994432Y-9241335D01*
X12994432Y-9241335D02*
X13003956Y-9246097D01*
X13003956Y-9246097D02*
X13008718Y-9250859D01*
X13008718Y-9250859D02*
X13013480Y-9260383D01*
X13013480Y-9260383D02*
X13013480Y-9288954D01*
X13013480Y-9288954D02*
X13008718Y-9298478D01*
X13008718Y-9298478D02*
X13003956Y-9303240D01*
X17139667Y-8086482D02*
X17139667Y-8157910D01*
X17139667Y-8157910D02*
X17134905Y-8172196D01*
X17134905Y-8172196D02*
X17125381Y-8181720D01*
X17125381Y-8181720D02*
X17111095Y-8186482D01*
X17111095Y-8186482D02*
X17101571Y-8186482D01*
X17239667Y-8186482D02*
X17182524Y-8186482D01*
X17211095Y-8186482D02*
X17211095Y-8086482D01*
X17211095Y-8086482D02*
X17201571Y-8100768D01*
X17201571Y-8100768D02*
X17192048Y-8110291D01*
X17192048Y-8110291D02*
X17182524Y-8115053D01*
X15640666Y-12477458D02*
X15635905Y-12482220D01*
X15635905Y-12482220D02*
X15621619Y-12486982D01*
X15621619Y-12486982D02*
X15612095Y-12486982D01*
X15612095Y-12486982D02*
X15597809Y-12482220D01*
X15597809Y-12482220D02*
X15588286Y-12472696D01*
X15588286Y-12472696D02*
X15583524Y-12463172D01*
X15583524Y-12463172D02*
X15578762Y-12444125D01*
X15578762Y-12444125D02*
X15578762Y-12429839D01*
X15578762Y-12429839D02*
X15583524Y-12410791D01*
X15583524Y-12410791D02*
X15588286Y-12401268D01*
X15588286Y-12401268D02*
X15597809Y-12391744D01*
X15597809Y-12391744D02*
X15612095Y-12386982D01*
X15612095Y-12386982D02*
X15621619Y-12386982D01*
X15621619Y-12386982D02*
X15635905Y-12391744D01*
X15635905Y-12391744D02*
X15640666Y-12396506D01*
X15697809Y-12486982D02*
X15688286Y-12482220D01*
X15688286Y-12482220D02*
X15683524Y-12477458D01*
X15683524Y-12477458D02*
X15678762Y-12467934D01*
X15678762Y-12467934D02*
X15678762Y-12439363D01*
X15678762Y-12439363D02*
X15683524Y-12429839D01*
X15683524Y-12429839D02*
X15688286Y-12425077D01*
X15688286Y-12425077D02*
X15697809Y-12420315D01*
X15697809Y-12420315D02*
X15712095Y-12420315D01*
X15712095Y-12420315D02*
X15721619Y-12425077D01*
X15721619Y-12425077D02*
X15726381Y-12429839D01*
X15726381Y-12429839D02*
X15731143Y-12439363D01*
X15731143Y-12439363D02*
X15731143Y-12467934D01*
X15731143Y-12467934D02*
X15726381Y-12477458D01*
X15726381Y-12477458D02*
X15721619Y-12482220D01*
X15721619Y-12482220D02*
X15712095Y-12486982D01*
X15712095Y-12486982D02*
X15697809Y-12486982D01*
X15774000Y-12420315D02*
X15774000Y-12486982D01*
X15774000Y-12429839D02*
X15778762Y-12425077D01*
X15778762Y-12425077D02*
X15788286Y-12420315D01*
X15788286Y-12420315D02*
X15802571Y-12420315D01*
X15802571Y-12420315D02*
X15812095Y-12425077D01*
X15812095Y-12425077D02*
X15816857Y-12434601D01*
X15816857Y-12434601D02*
X15816857Y-12486982D01*
X15864476Y-12420315D02*
X15864476Y-12486982D01*
X15864476Y-12429839D02*
X15869238Y-12425077D01*
X15869238Y-12425077D02*
X15878762Y-12420315D01*
X15878762Y-12420315D02*
X15893047Y-12420315D01*
X15893047Y-12420315D02*
X15902571Y-12425077D01*
X15902571Y-12425077D02*
X15907333Y-12434601D01*
X15907333Y-12434601D02*
X15907333Y-12486982D01*
X15931143Y-12496506D02*
X16007333Y-12496506D01*
X16050190Y-12386982D02*
X16059714Y-12386982D01*
X16059714Y-12386982D02*
X16069238Y-12391744D01*
X16069238Y-12391744D02*
X16074000Y-12396506D01*
X16074000Y-12396506D02*
X16078762Y-12406029D01*
X16078762Y-12406029D02*
X16083524Y-12425077D01*
X16083524Y-12425077D02*
X16083524Y-12448887D01*
X16083524Y-12448887D02*
X16078762Y-12467934D01*
X16078762Y-12467934D02*
X16074000Y-12477458D01*
X16074000Y-12477458D02*
X16069238Y-12482220D01*
X16069238Y-12482220D02*
X16059714Y-12486982D01*
X16059714Y-12486982D02*
X16050190Y-12486982D01*
X16050190Y-12486982D02*
X16040667Y-12482220D01*
X16040667Y-12482220D02*
X16035905Y-12477458D01*
X16035905Y-12477458D02*
X16031143Y-12467934D01*
X16031143Y-12467934D02*
X16026381Y-12448887D01*
X16026381Y-12448887D02*
X16026381Y-12425077D01*
X16026381Y-12425077D02*
X16031143Y-12406029D01*
X16031143Y-12406029D02*
X16035905Y-12396506D01*
X16035905Y-12396506D02*
X16040667Y-12391744D01*
X16040667Y-12391744D02*
X16050190Y-12386982D01*
X16178762Y-12486982D02*
X16121619Y-12486982D01*
X16150190Y-12486982D02*
X16150190Y-12386982D01*
X16150190Y-12386982D02*
X16140667Y-12401268D01*
X16140667Y-12401268D02*
X16131143Y-12410791D01*
X16131143Y-12410791D02*
X16121619Y-12415553D01*
X16212095Y-12486982D02*
X16264476Y-12420315D01*
X16212095Y-12420315D02*
X16264476Y-12486982D01*
X16321619Y-12386982D02*
X16331143Y-12386982D01*
X16331143Y-12386982D02*
X16340667Y-12391744D01*
X16340667Y-12391744D02*
X16345428Y-12396506D01*
X16345428Y-12396506D02*
X16350190Y-12406029D01*
X16350190Y-12406029D02*
X16354952Y-12425077D01*
X16354952Y-12425077D02*
X16354952Y-12448887D01*
X16354952Y-12448887D02*
X16350190Y-12467934D01*
X16350190Y-12467934D02*
X16345428Y-12477458D01*
X16345428Y-12477458D02*
X16340667Y-12482220D01*
X16340667Y-12482220D02*
X16331143Y-12486982D01*
X16331143Y-12486982D02*
X16321619Y-12486982D01*
X16321619Y-12486982D02*
X16312095Y-12482220D01*
X16312095Y-12482220D02*
X16307333Y-12477458D01*
X16307333Y-12477458D02*
X16302571Y-12467934D01*
X16302571Y-12467934D02*
X16297809Y-12448887D01*
X16297809Y-12448887D02*
X16297809Y-12425077D01*
X16297809Y-12425077D02*
X16302571Y-12406029D01*
X16302571Y-12406029D02*
X16307333Y-12396506D01*
X16307333Y-12396506D02*
X16312095Y-12391744D01*
X16312095Y-12391744D02*
X16321619Y-12386982D01*
X16388286Y-12386982D02*
X16450190Y-12386982D01*
X16450190Y-12386982D02*
X16416857Y-12425077D01*
X16416857Y-12425077D02*
X16431143Y-12425077D01*
X16431143Y-12425077D02*
X16440667Y-12429839D01*
X16440667Y-12429839D02*
X16445428Y-12434601D01*
X16445428Y-12434601D02*
X16450190Y-12444125D01*
X16450190Y-12444125D02*
X16450190Y-12467934D01*
X16450190Y-12467934D02*
X16445428Y-12477458D01*
X16445428Y-12477458D02*
X16440667Y-12482220D01*
X16440667Y-12482220D02*
X16431143Y-12486982D01*
X16431143Y-12486982D02*
X16402571Y-12486982D01*
X16402571Y-12486982D02*
X16393048Y-12482220D01*
X16393048Y-12482220D02*
X16388286Y-12477458D01*
X16469238Y-12496506D02*
X16545428Y-12496506D01*
X16569238Y-12486982D02*
X16569238Y-12386982D01*
X16569238Y-12386982D02*
X16602571Y-12458410D01*
X16602571Y-12458410D02*
X16635905Y-12386982D01*
X16635905Y-12386982D02*
X16635905Y-12486982D01*
X16726381Y-12486982D02*
X16726381Y-12434601D01*
X16726381Y-12434601D02*
X16721619Y-12425077D01*
X16721619Y-12425077D02*
X16712095Y-12420315D01*
X16712095Y-12420315D02*
X16693048Y-12420315D01*
X16693048Y-12420315D02*
X16683524Y-12425077D01*
X16726381Y-12482220D02*
X16716857Y-12486982D01*
X16716857Y-12486982D02*
X16693048Y-12486982D01*
X16693048Y-12486982D02*
X16683524Y-12482220D01*
X16683524Y-12482220D02*
X16678762Y-12472696D01*
X16678762Y-12472696D02*
X16678762Y-12463172D01*
X16678762Y-12463172D02*
X16683524Y-12453648D01*
X16683524Y-12453648D02*
X16693048Y-12448887D01*
X16693048Y-12448887D02*
X16716857Y-12448887D01*
X16716857Y-12448887D02*
X16726381Y-12444125D01*
X16788286Y-12486982D02*
X16778762Y-12482220D01*
X16778762Y-12482220D02*
X16774000Y-12472696D01*
X16774000Y-12472696D02*
X16774000Y-12386982D01*
X16864476Y-12482220D02*
X16854952Y-12486982D01*
X16854952Y-12486982D02*
X16835905Y-12486982D01*
X16835905Y-12486982D02*
X16826381Y-12482220D01*
X16826381Y-12482220D02*
X16821619Y-12472696D01*
X16821619Y-12472696D02*
X16821619Y-12434601D01*
X16821619Y-12434601D02*
X16826381Y-12425077D01*
X16826381Y-12425077D02*
X16835905Y-12420315D01*
X16835905Y-12420315D02*
X16854952Y-12420315D01*
X16854952Y-12420315D02*
X16864476Y-12425077D01*
X16864476Y-12425077D02*
X16869238Y-12434601D01*
X16869238Y-12434601D02*
X16869238Y-12444125D01*
X16869238Y-12444125D02*
X16821619Y-12453648D01*
X13066952Y-9697482D02*
X13019333Y-9697482D01*
X13019333Y-9697482D02*
X13019333Y-9597482D01*
X13019333Y-10122482D02*
X12971714Y-10122482D01*
X12971714Y-10122482D02*
X12971714Y-10022482D01*
X13047905Y-10032006D02*
X13052667Y-10027244D01*
X13052667Y-10027244D02*
X13062190Y-10022482D01*
X13062190Y-10022482D02*
X13086000Y-10022482D01*
X13086000Y-10022482D02*
X13095524Y-10027244D01*
X13095524Y-10027244D02*
X13100286Y-10032006D01*
X13100286Y-10032006D02*
X13105048Y-10041530D01*
X13105048Y-10041530D02*
X13105048Y-10051053D01*
X13105048Y-10051053D02*
X13100286Y-10065339D01*
X13100286Y-10065339D02*
X13043143Y-10122482D01*
X13043143Y-10122482D02*
X13105048Y-10122482D01*
X20787958Y-9706286D02*
X20792720Y-9711048D01*
X20792720Y-9711048D02*
X20797482Y-9725333D01*
X20797482Y-9725333D02*
X20797482Y-9734857D01*
X20797482Y-9734857D02*
X20792720Y-9749143D01*
X20792720Y-9749143D02*
X20783196Y-9758667D01*
X20783196Y-9758667D02*
X20773672Y-9763429D01*
X20773672Y-9763429D02*
X20754625Y-9768190D01*
X20754625Y-9768190D02*
X20740339Y-9768190D01*
X20740339Y-9768190D02*
X20721291Y-9763429D01*
X20721291Y-9763429D02*
X20711768Y-9758667D01*
X20711768Y-9758667D02*
X20702244Y-9749143D01*
X20702244Y-9749143D02*
X20697482Y-9734857D01*
X20697482Y-9734857D02*
X20697482Y-9725333D01*
X20697482Y-9725333D02*
X20702244Y-9711048D01*
X20702244Y-9711048D02*
X20707006Y-9706286D01*
X20797482Y-9611048D02*
X20797482Y-9668190D01*
X20797482Y-9639619D02*
X20697482Y-9639619D01*
X20697482Y-9639619D02*
X20711768Y-9649143D01*
X20711768Y-9649143D02*
X20721291Y-9658667D01*
X20721291Y-9658667D02*
X20726053Y-9668190D01*
X20707006Y-9572952D02*
X20702244Y-9568190D01*
X20702244Y-9568190D02*
X20697482Y-9558667D01*
X20697482Y-9558667D02*
X20697482Y-9534857D01*
X20697482Y-9534857D02*
X20702244Y-9525333D01*
X20702244Y-9525333D02*
X20707006Y-9520571D01*
X20707006Y-9520571D02*
X20716530Y-9515810D01*
X20716530Y-9515810D02*
X20726053Y-9515810D01*
X20726053Y-9515810D02*
X20740339Y-9520571D01*
X20740339Y-9520571D02*
X20797482Y-9577714D01*
X20797482Y-9577714D02*
X20797482Y-9515810D01*
X16681482Y-11242333D02*
X16752910Y-11242333D01*
X16752910Y-11242333D02*
X16767196Y-11247095D01*
X16767196Y-11247095D02*
X16776720Y-11256619D01*
X16776720Y-11256619D02*
X16781482Y-11270905D01*
X16781482Y-11270905D02*
X16781482Y-11280428D01*
X16681482Y-11204238D02*
X16681482Y-11137571D01*
X16681482Y-11137571D02*
X16781482Y-11180429D01*
X18753310Y-9084482D02*
X18753310Y-9165434D01*
X18753310Y-9165434D02*
X18758071Y-9174958D01*
X18758071Y-9174958D02*
X18762833Y-9179720D01*
X18762833Y-9179720D02*
X18772357Y-9184482D01*
X18772357Y-9184482D02*
X18791405Y-9184482D01*
X18791405Y-9184482D02*
X18800929Y-9179720D01*
X18800929Y-9179720D02*
X18805690Y-9174958D01*
X18805690Y-9174958D02*
X18810452Y-9165434D01*
X18810452Y-9165434D02*
X18810452Y-9084482D01*
X18900929Y-9117815D02*
X18900929Y-9184482D01*
X18877119Y-9079720D02*
X18853310Y-9151149D01*
X18853310Y-9151149D02*
X18915214Y-9151149D01*
X12910982Y-10863833D02*
X12982410Y-10863833D01*
X12982410Y-10863833D02*
X12996696Y-10868595D01*
X12996696Y-10868595D02*
X13006220Y-10878119D01*
X13006220Y-10878119D02*
X13010982Y-10892405D01*
X13010982Y-10892405D02*
X13010982Y-10901929D01*
X12910982Y-10768595D02*
X12910982Y-10816214D01*
X12910982Y-10816214D02*
X12958601Y-10820976D01*
X12958601Y-10820976D02*
X12953839Y-10816214D01*
X12953839Y-10816214D02*
X12949077Y-10806690D01*
X12949077Y-10806690D02*
X12949077Y-10782881D01*
X12949077Y-10782881D02*
X12953839Y-10773357D01*
X12953839Y-10773357D02*
X12958601Y-10768595D01*
X12958601Y-10768595D02*
X12968125Y-10763833D01*
X12968125Y-10763833D02*
X12991934Y-10763833D01*
X12991934Y-10763833D02*
X13001458Y-10768595D01*
X13001458Y-10768595D02*
X13006220Y-10773357D01*
X13006220Y-10773357D02*
X13010982Y-10782881D01*
X13010982Y-10782881D02*
X13010982Y-10806690D01*
X13010982Y-10806690D02*
X13006220Y-10816214D01*
X13006220Y-10816214D02*
X13001458Y-10820976D01*
D12*
%TO.C,C6*%
X16235000Y-9352500D02*
X16235000Y-9672500D01*
X16075000Y-9352500D02*
X16235000Y-9352500D01*
X16235000Y-9672500D02*
X16075000Y-9672500D01*
X16075000Y-9672500D02*
X16075000Y-9352500D01*
%TO.C,C8*%
X15391360Y-9674750D02*
X15341360Y-9674750D01*
X15366360Y-9699750D02*
X15366360Y-9649750D01*
X15428000Y-9566000D02*
G75*
G03*
X15428000Y-9566000I-250000J0D01*
G01*
%TO.C,C15*%
X15559000Y-10794000D02*
X15559000Y-10634000D01*
X15559000Y-10634000D02*
X15259000Y-10634000D01*
X15259000Y-10794000D02*
X15559000Y-10794000D01*
X15259000Y-10634000D02*
X15259000Y-10794000D01*
%TO.C,C10*%
X13589000Y-9753000D02*
X13589000Y-9943000D01*
X13589000Y-9943000D02*
X14019000Y-9943000D01*
X14019000Y-9753000D02*
X13589000Y-9753000D01*
X14019000Y-9943000D02*
X14019000Y-9753000D01*
%TO.C,C13*%
X13610000Y-10017500D02*
X13610000Y-10207500D01*
X13610000Y-10207500D02*
X14040000Y-10207500D01*
X14040000Y-10017500D02*
X13610000Y-10017500D01*
X14040000Y-10207500D02*
X14040000Y-10017500D01*
%TO.C,C7*%
X14802360Y-9676750D02*
X14752360Y-9676750D01*
X14777360Y-9701750D02*
X14777360Y-9651750D01*
X14839000Y-9568000D02*
G75*
G03*
X14839000Y-9568000I-250000J0D01*
G01*
%TO.C,C18*%
X16063255Y-11050750D02*
X16023255Y-11050750D01*
X16043255Y-11070750D02*
X16043255Y-11030750D01*
X16093000Y-10964000D02*
G75*
G03*
X16093000Y-10964000I-200000J0D01*
G01*
%TO.C,C22*%
X16046515Y-11747750D02*
X16006515Y-11747750D01*
X16026515Y-11767750D02*
X16026515Y-11727750D01*
X16076260Y-11661000D02*
G75*
G03*
X16076260Y-11661000I-200000J0D01*
G01*
%TO.C,C17*%
X15239000Y-10859000D02*
X15239000Y-11069000D01*
X15239000Y-11069000D02*
X15579000Y-11069000D01*
X15579000Y-10859000D02*
X15239000Y-10859000D01*
X15579000Y-11069000D02*
X15579000Y-10859000D01*
%TO.C,J3*%
X12617998Y-9658002D02*
X13317998Y-9658002D01*
X12617998Y-9658002D02*
X12617998Y-8958002D01*
X12867998Y-9658002D02*
X12967998Y-9558002D01*
X13317998Y-9658002D02*
X13317998Y-8958002D01*
X12017998Y-9608002D02*
X11967998Y-9008002D01*
X12067998Y-9608002D02*
X12017998Y-9008002D01*
X12117998Y-9608002D02*
X12067998Y-9008002D01*
X12167998Y-9608002D02*
X12117998Y-9008002D01*
X12217998Y-9608002D02*
X12167998Y-9008002D01*
X12267998Y-9608002D02*
X12217998Y-9008002D01*
X12417998Y-9608002D02*
X12617998Y-9608002D01*
X11817998Y-9558002D02*
X12417998Y-9558002D01*
X11817998Y-9558002D02*
X11817998Y-9058002D01*
X12967998Y-9558002D02*
X13067998Y-9658002D01*
X11817998Y-9058002D02*
X12417998Y-9058002D01*
X12417998Y-9008002D02*
X12417998Y-9608002D01*
X12417998Y-9008002D02*
X12617998Y-9008002D01*
X12617998Y-8958002D02*
X13317998Y-8958002D01*
%TO.C,Y1*%
X14504000Y-11151500D02*
X14504000Y-11951500D01*
X14504000Y-11951500D02*
X14804000Y-11951500D01*
X14559000Y-11026500D02*
X14559000Y-10901500D01*
X14599500Y-11151500D02*
X14559000Y-11026500D01*
X14708500Y-11151500D02*
X14749000Y-11026500D01*
X14749000Y-11026500D02*
X14749000Y-10901500D01*
X14804000Y-11151500D02*
X14504000Y-11151500D01*
X14804000Y-11951500D02*
X14804000Y-11151500D01*
%TO.C,C9*%
X17154730Y-9395870D02*
X17154730Y-9715870D01*
X16994730Y-9395870D02*
X17154730Y-9395870D01*
X17154730Y-9715870D02*
X16994730Y-9715870D01*
X16994730Y-9715870D02*
X16994730Y-9395870D01*
%TO.C,R4*%
X16753030Y-9202610D02*
X16753030Y-8882610D01*
X16913030Y-9202610D02*
X16753030Y-9202610D01*
X16753030Y-8882610D02*
X16913030Y-8882610D01*
X16913030Y-8882610D02*
X16913030Y-9202610D01*
%TO.C,C11*%
X19736250Y-10304676D02*
X19736250Y-10224676D01*
X19696250Y-10264676D02*
X19776250Y-10264676D01*
X20311000Y-9962000D02*
G75*
G03*
X20311000Y-9962000I-400000J0D01*
G01*
%TO.C,R7*%
X14116000Y-10357000D02*
X14301000Y-10357000D01*
X14301000Y-10197000D02*
X14301000Y-10517000D01*
X14301000Y-10517000D02*
X15201000Y-10517000D01*
X15201000Y-10197000D02*
X14301000Y-10197000D01*
X15201000Y-10517000D02*
X15201000Y-10197000D01*
X15386000Y-10357000D02*
X15201000Y-10357000D01*
%TO.C,C19*%
X18198130Y-11120750D02*
X18158130Y-11120750D01*
X18178130Y-11140750D02*
X18178130Y-11100750D01*
X18227875Y-11034000D02*
G75*
G03*
X18227875Y-11034000I-200000J0D01*
G01*
%TO.C,D2*%
X13771500Y-9256500D02*
X13771500Y-9075500D01*
X13671500Y-9075500D02*
X13871500Y-9075500D01*
X13871500Y-9075500D02*
X13871500Y-8675500D01*
X13671500Y-9025500D02*
X13871500Y-9025500D01*
X13671500Y-9015500D02*
X13871500Y-9015500D01*
X13671500Y-9005500D02*
X13871500Y-9005500D01*
X13671500Y-8675500D02*
X13671500Y-9075500D01*
X13871500Y-8675500D02*
X13671500Y-8675500D01*
X13771500Y-8494500D02*
X13771500Y-8675500D01*
%TO.C,J1*%
X15649000Y-8268000D02*
X15649000Y-8077500D01*
X18697000Y-8268000D02*
X15649000Y-8268000D01*
X15649000Y-8077500D02*
X15712500Y-8014000D01*
X15712500Y-8014000D02*
X18697000Y-8014000D01*
X18697000Y-8014000D02*
X18697000Y-8268000D01*
%TO.C,Q2*%
X17230000Y-10520750D02*
X17230000Y-10870750D01*
X17653000Y-10694750D02*
G75*
G03*
X17229638Y-10519388I-248000J0D01*
G01*
X17229638Y-10870113D02*
G75*
G03*
X17653000Y-10694750I175363J175363D01*
G01*
%TO.C,C21*%
X15238000Y-11569000D02*
X15238000Y-11779000D01*
X15238000Y-11779000D02*
X15578000Y-11779000D01*
X15578000Y-11569000D02*
X15238000Y-11569000D01*
X15578000Y-11779000D02*
X15578000Y-11569000D01*
%TO.C,C2*%
X15037250Y-8328360D02*
X15037250Y-8278360D01*
X15012250Y-8303360D02*
X15062250Y-8303360D01*
X15396000Y-8115000D02*
G75*
G03*
X15396000Y-8115000I-250000J0D01*
G01*
%TO.C,C3*%
X19823640Y-8368250D02*
X19873640Y-8368250D01*
X19848640Y-8343250D02*
X19848640Y-8393250D01*
X20287000Y-8477000D02*
G75*
G03*
X20287000Y-8477000I-250000J0D01*
G01*
%TO.C,L1*%
X13554000Y-9579000D02*
X14062000Y-9579000D01*
X13719000Y-9579000D02*
G75*
G03*
X13719000Y-9579000I-165000J0D01*
G01*
%TO.C,R3*%
X16679350Y-8882610D02*
X16679350Y-9202610D01*
X16519350Y-8882610D02*
X16679350Y-8882610D01*
X16679350Y-9202610D02*
X16519350Y-9202610D01*
X16519350Y-9202610D02*
X16519350Y-8882610D01*
D13*
%TO.C,U3*%
X17264180Y-9493530D02*
X17754680Y-9493530D01*
X17264180Y-9493530D02*
X17264180Y-9103530D01*
X17754680Y-9493530D02*
X17754680Y-9103530D01*
X17264180Y-9103530D02*
X17754680Y-9103530D01*
D14*
X17288930Y-9702530D02*
G75*
G03*
X17288930Y-9702530I-10000J0D01*
G01*
D12*
%TO.C,Q3*%
X17238000Y-11272750D02*
X17238000Y-11622750D01*
X17661000Y-11446750D02*
G75*
G03*
X17237638Y-11271387I-248000J0D01*
G01*
X17237638Y-11622112D02*
G75*
G03*
X17661000Y-11446750I175363J175363D01*
G01*
%TO.C,D4*%
X13526998Y-11481002D02*
X13526998Y-11300002D01*
X13426998Y-11300002D02*
X13626998Y-11300002D01*
X13626998Y-11300002D02*
X13626998Y-10900002D01*
X13426998Y-11250002D02*
X13626998Y-11250002D01*
X13426998Y-11240002D02*
X13626998Y-11240002D01*
X13426998Y-11230002D02*
X13626998Y-11230002D01*
X13426998Y-10900002D02*
X13426998Y-11300002D01*
X13626998Y-10900002D02*
X13426998Y-10900002D01*
X13526998Y-10719002D02*
X13526998Y-10900002D01*
%TO.C,C4*%
X16994730Y-9204970D02*
X16994730Y-8884970D01*
X17154730Y-9204970D02*
X16994730Y-9204970D01*
X16994730Y-8884970D02*
X17154730Y-8884970D01*
X17154730Y-8884970D02*
X17154730Y-9204970D01*
%TO.C,J8*%
X14147660Y-11297340D02*
X14147660Y-12147340D01*
X14147660Y-11467340D02*
X15147660Y-11467340D01*
X14147660Y-11567340D02*
X14247660Y-11667340D01*
X14147660Y-11767340D02*
X14247660Y-11667340D01*
X14147660Y-12147340D02*
X15147660Y-12147340D01*
X15147660Y-11297340D02*
X14147660Y-11297340D01*
X15147660Y-12147340D02*
X15147660Y-11297340D01*
%TO.C,C1*%
X19829640Y-7825250D02*
X19879640Y-7825250D01*
X19854640Y-7800250D02*
X19854640Y-7850250D01*
X20293000Y-7934000D02*
G75*
G03*
X20293000Y-7934000I-250000J0D01*
G01*
%TO.C,J6*%
X16202000Y-10839500D02*
X16392500Y-10839500D01*
X16202000Y-11601500D02*
X16202000Y-10839500D01*
X16392500Y-10839500D02*
X16456000Y-10903000D01*
X16456000Y-10903000D02*
X16456000Y-11601500D01*
X16456000Y-11601500D02*
X16202000Y-11601500D01*
%TO.C,C5*%
X15859750Y-9352640D02*
X15859750Y-9402640D01*
X15884750Y-9377640D02*
X15834750Y-9377640D01*
X16001000Y-9566000D02*
G75*
G03*
X16001000Y-9566000I-250000J0D01*
G01*
%TO.C,U2*%
X15294000Y-9019000D02*
X15864000Y-9019000D01*
X15294000Y-9019000D02*
X15194000Y-8919000D01*
X15864000Y-9019000D02*
X15864000Y-8649000D01*
X15194000Y-8919000D02*
X15194000Y-8649000D01*
X15194000Y-8649000D02*
X15864000Y-8649000D01*
%TO.C,J2*%
X20129000Y-9002470D02*
X20129000Y-8811970D01*
X20891000Y-9002470D02*
X20129000Y-9002470D01*
X20129000Y-8811970D02*
X20192500Y-8748470D01*
X20192500Y-8748470D02*
X20891000Y-8748470D01*
X20891000Y-8748470D02*
X20891000Y-9002470D01*
%TO.C,C16*%
X20990750Y-10669128D02*
X20990750Y-10719128D01*
X21015750Y-10694128D02*
X20965750Y-10694128D01*
X21132000Y-10882489D02*
G75*
G03*
X21132000Y-10882489I-250000J0D01*
G01*
%TO.C,D1*%
X13519000Y-8494500D02*
X13519000Y-8675500D01*
X13619000Y-8675500D02*
X13419000Y-8675500D01*
X13419000Y-8675500D02*
X13419000Y-9075500D01*
X13619000Y-8725500D02*
X13419000Y-8725500D01*
X13619000Y-8735500D02*
X13419000Y-8735500D01*
X13619000Y-8745500D02*
X13419000Y-8745500D01*
X13619000Y-9075500D02*
X13619000Y-8675500D01*
X13419000Y-9075500D02*
X13619000Y-9075500D01*
X13519000Y-9256500D02*
X13519000Y-9075500D01*
%TO.C,L2*%
X13336000Y-10077000D02*
G75*
G03*
X13336000Y-10077000I-300000J0D01*
G01*
%TO.C,U5*%
X20554755Y-10978120D02*
X20442995Y-10978120D01*
X20442995Y-10978120D02*
X20442995Y-11089880D01*
X20300755Y-10978120D02*
X20188995Y-10978120D01*
X20188995Y-10978120D02*
X20188995Y-11089880D01*
X20046755Y-10978120D02*
X19934995Y-10978120D01*
X19934995Y-10978120D02*
X19934995Y-11089880D01*
X19792755Y-10978120D02*
X19680995Y-10978120D01*
X19680995Y-10978120D02*
X19680995Y-11089880D01*
X19538755Y-10978120D02*
X19426995Y-10978120D01*
X19426995Y-10978120D02*
X19426995Y-11089880D01*
X19284755Y-10978120D02*
X19172995Y-10978120D01*
X19172995Y-10978120D02*
X19172995Y-11089880D01*
X19030755Y-10978120D02*
X18918995Y-10978120D01*
X18918995Y-10978120D02*
X18918995Y-11089880D01*
X18776755Y-10978120D02*
X18664995Y-10978120D01*
X18664995Y-10978120D02*
X18664995Y-11089880D01*
X18522755Y-10978120D02*
X18410995Y-10978120D01*
X18410995Y-10978120D02*
X18410995Y-11089880D01*
X20575075Y-11089880D02*
X18390675Y-11089880D01*
X20554755Y-11089880D02*
X20554755Y-10978120D01*
X20442995Y-11089880D02*
X20554755Y-11089880D01*
X20300755Y-11089880D02*
X20300755Y-10978120D01*
X20188995Y-11089880D02*
X20300755Y-11089880D01*
X20046755Y-11089880D02*
X20046755Y-10978120D01*
X19934995Y-11089880D02*
X20046755Y-11089880D01*
X19792755Y-11089880D02*
X19792755Y-10978120D01*
X19680995Y-11089880D02*
X19792755Y-11089880D01*
X19538755Y-11089880D02*
X19538755Y-10978120D01*
X19426995Y-11089880D02*
X19538755Y-11089880D01*
X19284755Y-11089880D02*
X19284755Y-10978120D01*
X19172995Y-11089880D02*
X19284755Y-11089880D01*
X19030755Y-11089880D02*
X19030755Y-10978120D01*
X18918995Y-11089880D02*
X19030755Y-11089880D01*
X18776755Y-11089880D02*
X18776755Y-10978120D01*
X18664995Y-11089880D02*
X18776755Y-11089880D01*
X18522755Y-11089880D02*
X18522755Y-10978120D01*
X18410995Y-11089880D02*
X18522755Y-11089880D01*
X18390675Y-11089880D02*
X18390675Y-11740120D01*
X20575075Y-11384520D02*
X20575075Y-11089880D01*
X20575075Y-11445480D02*
X20575075Y-11384520D01*
X20575075Y-11740120D02*
X20575075Y-11445480D01*
X20554755Y-11740120D02*
X20442995Y-11740120D01*
X20442995Y-11740120D02*
X20442995Y-11851880D01*
X20300755Y-11740120D02*
X20188995Y-11740120D01*
X20188995Y-11740120D02*
X20188995Y-11851880D01*
X20046755Y-11740120D02*
X19934995Y-11740120D01*
X19934995Y-11740120D02*
X19934995Y-11851880D01*
X19792755Y-11740120D02*
X19680995Y-11740120D01*
X19680995Y-11740120D02*
X19680995Y-11851880D01*
X19538755Y-11740120D02*
X19426995Y-11740120D01*
X19426995Y-11740120D02*
X19426995Y-11851880D01*
X19284755Y-11740120D02*
X19172995Y-11740120D01*
X19172995Y-11740120D02*
X19172995Y-11851880D01*
X19030755Y-11740120D02*
X18918995Y-11740120D01*
X18918995Y-11740120D02*
X18918995Y-11851880D01*
X18776755Y-11740120D02*
X18664995Y-11740120D01*
X18664995Y-11740120D02*
X18664995Y-11851880D01*
X18522755Y-11740120D02*
X18410995Y-11740120D01*
X18410995Y-11740120D02*
X18410995Y-11851880D01*
X18390675Y-11740120D02*
X20575075Y-11740120D01*
X20554755Y-11851880D02*
X20554755Y-11740120D01*
X20442995Y-11851880D02*
X20554755Y-11851880D01*
X20300755Y-11851880D02*
X20300755Y-11740120D01*
X20188995Y-11851880D02*
X20300755Y-11851880D01*
X20046755Y-11851880D02*
X20046755Y-11740120D01*
X19934995Y-11851880D02*
X20046755Y-11851880D01*
X19792755Y-11851880D02*
X19792755Y-11740120D01*
X19680995Y-11851880D02*
X19792755Y-11851880D01*
X19538755Y-11851880D02*
X19538755Y-11740120D01*
X19426995Y-11851880D02*
X19538755Y-11851880D01*
X19284755Y-11851880D02*
X19284755Y-11740120D01*
X19172995Y-11851880D02*
X19284755Y-11851880D01*
X19030755Y-11851880D02*
X19030755Y-11740120D01*
X18918995Y-11851880D02*
X19030755Y-11851880D01*
X18776755Y-11851880D02*
X18776755Y-11740120D01*
X18664995Y-11851880D02*
X18776755Y-11851880D01*
X18522755Y-11851880D02*
X18522755Y-11740120D01*
X18410995Y-11851880D02*
X18522755Y-11851880D01*
X20575075Y-11384520D02*
G75*
G03*
X20575075Y-11445480I0J-30480D01*
G01*
%TO.C,C12*%
X20591250Y-10308676D02*
X20591250Y-10228676D01*
X20551250Y-10268676D02*
X20631250Y-10268676D01*
X21166000Y-9966000D02*
G75*
G03*
X21166000Y-9966000I-400000J0D01*
G01*
%TO.C,R8*%
X18546000Y-10769750D02*
X18226000Y-10769750D01*
X18546000Y-10609750D02*
X18546000Y-10769750D01*
X18226000Y-10769750D02*
X18226000Y-10609750D01*
X18226000Y-10609750D02*
X18546000Y-10609750D01*
%TO.C,J7*%
X16863000Y-11590000D02*
X16672500Y-11590000D01*
X16863000Y-10828000D02*
X16863000Y-11590000D01*
X16672500Y-11590000D02*
X16609000Y-11526500D01*
X16609000Y-11526500D02*
X16609000Y-10828000D01*
X16609000Y-10828000D02*
X16863000Y-10828000D01*
%TO.C,R2*%
X16455830Y-8882610D02*
X16455830Y-9202610D01*
X16295830Y-8882610D02*
X16455830Y-8882610D01*
X16455830Y-9202610D02*
X16295830Y-9202610D01*
X16295830Y-9202610D02*
X16295830Y-8882610D01*
%TO.C,R6*%
X16873000Y-9432750D02*
X16873000Y-9752750D01*
X16713000Y-9432750D02*
X16873000Y-9432750D01*
X16873000Y-9752750D02*
X16713000Y-9752750D01*
X16713000Y-9752750D02*
X16713000Y-9432750D01*
%TO.C,J4*%
X20887500Y-9155970D02*
X20887500Y-9346470D01*
X20125500Y-9155970D02*
X20887500Y-9155970D01*
X20887500Y-9346470D02*
X20824000Y-9409970D01*
X20824000Y-9409970D02*
X20125500Y-9409970D01*
X20125500Y-9409970D02*
X20125500Y-9155970D01*
%TO.C,C14*%
X18444250Y-10464005D02*
X18444250Y-10424005D01*
X18424250Y-10444005D02*
X18464250Y-10444005D01*
X18731000Y-10293750D02*
G75*
G03*
X18731000Y-10293750I-200000J0D01*
G01*
%TO.C,U4*%
X19147000Y-9547000D02*
X19047000Y-9647000D01*
X19147000Y-8631000D02*
X19147000Y-9547000D01*
X19047000Y-9647000D02*
X18512000Y-9647000D01*
X18512000Y-9647000D02*
X18512000Y-8631000D01*
X18512000Y-8631000D02*
X19147000Y-8631000D01*
%TO.C,J5*%
X12615500Y-11180500D02*
X13315500Y-11180500D01*
X12615500Y-11180500D02*
X12615500Y-10480500D01*
X12865500Y-11180500D02*
X12965500Y-11080500D01*
X13315500Y-11180500D02*
X13315500Y-10480500D01*
X12015500Y-11130500D02*
X11965500Y-10530500D01*
X12065500Y-11130500D02*
X12015500Y-10530500D01*
X12115500Y-11130500D02*
X12065500Y-10530500D01*
X12165500Y-11130500D02*
X12115500Y-10530500D01*
X12215500Y-11130500D02*
X12165500Y-10530500D01*
X12265500Y-11130500D02*
X12215500Y-10530500D01*
X12415500Y-11130500D02*
X12615500Y-11130500D01*
X11815500Y-11080500D02*
X12415500Y-11080500D01*
X11815500Y-11080500D02*
X11815500Y-10580500D01*
X12965500Y-11080500D02*
X13065500Y-11180500D01*
X11815500Y-10580500D02*
X12415500Y-10580500D01*
X12415500Y-10530500D02*
X12415500Y-11130500D01*
X12415500Y-10530500D02*
X12615500Y-10530500D01*
X12615500Y-10480500D02*
X13315500Y-10480500D01*
%TO.C,U1*%
X14514000Y-9019000D02*
X15084000Y-9019000D01*
X14514000Y-9019000D02*
X14414000Y-8919000D01*
X15084000Y-9019000D02*
X15084000Y-8649000D01*
X14414000Y-8919000D02*
X14414000Y-8649000D01*
X14414000Y-8649000D02*
X15084000Y-8649000D01*
%TO.C,Q1*%
X17823000Y-10265750D02*
X17823000Y-10615750D01*
X18246000Y-10439750D02*
G75*
G03*
X17822638Y-10264388I-248000J0D01*
G01*
X17822638Y-10615113D02*
G75*
G03*
X18246000Y-10439750I175363J175363D01*
G01*
%TO.C,C20*%
X18212130Y-11652750D02*
X18172130Y-11652750D01*
X18192130Y-11672750D02*
X18192130Y-11632750D01*
X18241875Y-11566000D02*
G75*
G03*
X18241875Y-11566000I-200000J0D01*
G01*
%TO.C,R1*%
X16072310Y-9204750D02*
X16072310Y-8884750D01*
X16232310Y-9204750D02*
X16072310Y-9204750D01*
X16072310Y-8884750D02*
X16232310Y-8884750D01*
X16232310Y-8884750D02*
X16232310Y-9204750D01*
%TO.C,D3*%
X13781998Y-10719002D02*
X13781998Y-10900002D01*
X13881998Y-10900002D02*
X13681998Y-10900002D01*
X13681998Y-10900002D02*
X13681998Y-11300002D01*
X13881998Y-10950002D02*
X13681998Y-10950002D01*
X13881998Y-10960002D02*
X13681998Y-10960002D01*
X13881998Y-10970002D02*
X13681998Y-10970002D01*
X13881998Y-11300002D02*
X13881998Y-10900002D01*
X13681998Y-11300002D02*
X13881998Y-11300002D01*
X13781998Y-11481002D02*
X13781998Y-11300002D01*
%TO.C,R5*%
X16640000Y-9435000D02*
X16640000Y-9755000D01*
X16480000Y-9435000D02*
X16640000Y-9435000D01*
X16640000Y-9755000D02*
X16480000Y-9755000D01*
X16480000Y-9755000D02*
X16480000Y-9435000D01*
%TD*%
D15*
%TO.C,C6*%
D12*
X16220000Y-9307500D02*
X16229567Y-9309403D01*
X16237678Y-9314822D01*
X16243097Y-9322933D01*
X16245000Y-9332500D01*
X16245000Y-9397500D01*
X16243097Y-9407067D01*
X16237678Y-9415178D01*
X16229567Y-9420597D01*
X16220000Y-9422500D01*
X16090000Y-9422500D01*
X16080433Y-9420597D01*
X16072322Y-9415178D01*
X16066903Y-9407067D01*
X16065000Y-9397500D01*
X16065000Y-9332500D01*
X16066903Y-9322933D01*
X16072322Y-9314822D01*
X16080433Y-9309403D01*
X16090000Y-9307500D01*
X16220000Y-9307500D01*
D15*
D12*
X16220000Y-9602500D02*
X16229567Y-9604403D01*
X16237678Y-9609822D01*
X16243097Y-9617933D01*
X16245000Y-9627500D01*
X16245000Y-9692500D01*
X16243097Y-9702067D01*
X16237678Y-9710178D01*
X16229567Y-9715597D01*
X16220000Y-9717500D01*
X16090000Y-9717500D01*
X16080433Y-9715597D01*
X16072322Y-9710178D01*
X16066903Y-9702067D01*
X16065000Y-9692500D01*
X16065000Y-9627500D01*
X16066903Y-9617933D01*
X16072322Y-9609822D01*
X16080433Y-9604403D01*
X16090000Y-9602500D01*
X16220000Y-9602500D01*
%TD*%
%TO.C,C8*%
X15198000Y-9486000D02*
X15198000Y-9646000D01*
X15358000Y-9646000D01*
X15358000Y-9486000D01*
X15198000Y-9486000D01*
X15158000Y-9566000D02*
G75*
G03*
X15158000Y-9566000I-80000J0D01*
G01*
%TD*%
%TO.C,C15*%
X15614000Y-10714000D02*
G75*
G03*
X15614000Y-10714000I-80000J0D01*
G01*
X15364000Y-10714000D02*
G75*
G03*
X15364000Y-10714000I-80000J0D01*
G01*
%TD*%
%TO.C,C10*%
X13634000Y-9848000D02*
G75*
G03*
X13634000Y-9848000I-80000J0D01*
G01*
X14134000Y-9848000D02*
G75*
G03*
X14134000Y-9848000I-80000J0D01*
G01*
%TD*%
%TO.C,C13*%
X13655000Y-10112500D02*
G75*
G03*
X13655000Y-10112500I-80000J0D01*
G01*
X14155000Y-10112500D02*
G75*
G03*
X14155000Y-10112500I-80000J0D01*
G01*
%TD*%
%TO.C,C7*%
X14609000Y-9488000D02*
X14609000Y-9648000D01*
X14769000Y-9648000D01*
X14769000Y-9488000D01*
X14609000Y-9488000D01*
X14569000Y-9568000D02*
G75*
G03*
X14569000Y-9568000I-80000J0D01*
G01*
%TD*%
%TO.C,C18*%
X15933000Y-10904000D02*
X15933000Y-11024000D01*
X16053000Y-11024000D01*
X16053000Y-10904000D01*
X15933000Y-10904000D01*
X15853000Y-10964000D02*
G75*
G03*
X15853000Y-10964000I-60000J0D01*
G01*
%TD*%
%TO.C,C22*%
X15916260Y-11601000D02*
X15916260Y-11721000D01*
X16036260Y-11721000D01*
X16036260Y-11601000D01*
X15916260Y-11601000D01*
X15836260Y-11661000D02*
G75*
G03*
X15836260Y-11661000I-60000J0D01*
G01*
%TD*%
%TO.C,C17*%
X15364000Y-10964000D02*
G75*
G03*
X15364000Y-10964000I-80000J0D01*
G01*
X15614000Y-10964000D02*
G75*
G03*
X15614000Y-10964000I-80000J0D01*
G01*
%TD*%
D15*
%TO.C,J3*%
D12*
X12873008Y-9423002D02*
X12865350Y-9421479D01*
X12858859Y-9417141D01*
X12854521Y-9410650D01*
X12852998Y-9402992D01*
X12852998Y-9213012D01*
X12854521Y-9205355D01*
X12858859Y-9198863D01*
X12865350Y-9194525D01*
X12873008Y-9193002D01*
X13062988Y-9193002D01*
X13070645Y-9194525D01*
X13077137Y-9198863D01*
X13081475Y-9205355D01*
X13082998Y-9213012D01*
X13082998Y-9402992D01*
X13081475Y-9410650D01*
X13077137Y-9417141D01*
X13070645Y-9421479D01*
X13062988Y-9423002D01*
X12873008Y-9423002D01*
X12838998Y-9562002D02*
G75*
G03*
X12838998Y-9562002I-125000J0D01*
G01*
X13346998Y-9562002D02*
G75*
G03*
X13346998Y-9562002I-125000J0D01*
G01*
X12838998Y-9054002D02*
G75*
G03*
X12838998Y-9054002I-125000J0D01*
G01*
X13346998Y-9054002D02*
G75*
G03*
X13346998Y-9054002I-125000J0D01*
G01*
%TD*%
%TO.C,Y1*%
X14609000Y-10901500D02*
G75*
G03*
X14609000Y-10901500I-50000J0D01*
G01*
X14799000Y-10901500D02*
G75*
G03*
X14799000Y-10901500I-50000J0D01*
G01*
%TD*%
D15*
%TO.C,C9*%
D12*
X17139730Y-9350870D02*
X17149297Y-9352773D01*
X17157408Y-9358192D01*
X17162827Y-9366303D01*
X17164730Y-9375870D01*
X17164730Y-9440870D01*
X17162827Y-9450437D01*
X17157408Y-9458548D01*
X17149297Y-9463967D01*
X17139730Y-9465870D01*
X17009730Y-9465870D01*
X17000163Y-9463967D01*
X16992052Y-9458548D01*
X16986633Y-9450437D01*
X16984730Y-9440870D01*
X16984730Y-9375870D01*
X16986633Y-9366303D01*
X16992052Y-9358192D01*
X17000163Y-9352773D01*
X17009730Y-9350870D01*
X17139730Y-9350870D01*
D15*
D12*
X17139730Y-9645870D02*
X17149297Y-9647773D01*
X17157408Y-9653192D01*
X17162827Y-9661303D01*
X17164730Y-9670870D01*
X17164730Y-9735870D01*
X17162827Y-9745437D01*
X17157408Y-9753548D01*
X17149297Y-9758967D01*
X17139730Y-9760870D01*
X17009730Y-9760870D01*
X17000163Y-9758967D01*
X16992052Y-9753548D01*
X16986633Y-9745437D01*
X16984730Y-9735870D01*
X16984730Y-9670870D01*
X16986633Y-9661303D01*
X16992052Y-9653192D01*
X17000163Y-9647773D01*
X17009730Y-9645870D01*
X17139730Y-9645870D01*
%TD*%
D15*
%TO.C,R4*%
D12*
X16770530Y-9245110D02*
X16760963Y-9243207D01*
X16752852Y-9237788D01*
X16747433Y-9229677D01*
X16745530Y-9220110D01*
X16745530Y-9157610D01*
X16747433Y-9148043D01*
X16752852Y-9139932D01*
X16760963Y-9134513D01*
X16770530Y-9132610D01*
X16895530Y-9132610D01*
X16905097Y-9134513D01*
X16913208Y-9139932D01*
X16918627Y-9148043D01*
X16920530Y-9157610D01*
X16920530Y-9220110D01*
X16918627Y-9229677D01*
X16913208Y-9237788D01*
X16905097Y-9243207D01*
X16895530Y-9245110D01*
X16770530Y-9245110D01*
D15*
D12*
X16770530Y-8952610D02*
X16760963Y-8950707D01*
X16752852Y-8945288D01*
X16747433Y-8937177D01*
X16745530Y-8927610D01*
X16745530Y-8865110D01*
X16747433Y-8855543D01*
X16752852Y-8847432D01*
X16760963Y-8842013D01*
X16770530Y-8840110D01*
X16895530Y-8840110D01*
X16905097Y-8842013D01*
X16913208Y-8847432D01*
X16918627Y-8855543D01*
X16920530Y-8865110D01*
X16920530Y-8927610D01*
X16918627Y-8937177D01*
X16913208Y-8945288D01*
X16905097Y-8950707D01*
X16895530Y-8952610D01*
X16770530Y-8952610D01*
%TD*%
%TO.C,C11*%
X19831000Y-10072000D02*
X19831000Y-10232000D01*
X19991000Y-10232000D01*
X19991000Y-10072000D01*
X19831000Y-10072000D01*
X19991000Y-9772000D02*
G75*
G03*
X19991000Y-9772000I-80000J0D01*
G01*
%TD*%
%TO.C,R7*%
X14196000Y-10357000D02*
G75*
G03*
X14196000Y-10357000I-80000J0D01*
G01*
X15306000Y-10357000D02*
X15306000Y-10357000D01*
X15306000Y-10357000D02*
G75*
G03*
X15466000Y-10357000I80000J0D01*
G01*
X15466000Y-10357000D02*
X15466000Y-10357000D01*
X15466000Y-10357000D02*
G75*
G03*
X15306000Y-10357000I-80000J0D01*
G01*
%TD*%
%TO.C,C19*%
X18067875Y-10974000D02*
X18067875Y-11094000D01*
X18187875Y-11094000D01*
X18187875Y-10974000D01*
X18067875Y-10974000D01*
X17987875Y-11034000D02*
G75*
G03*
X17987875Y-11034000I-60000J0D01*
G01*
%TD*%
%TO.C,D2*%
X13691500Y-9176500D02*
X13691500Y-9336500D01*
X13851500Y-9336500D01*
X13851500Y-9176500D01*
X13691500Y-9176500D01*
X13771500Y-8574500D02*
X13771500Y-8574500D01*
X13771500Y-8574500D02*
G75*
G03*
X13771500Y-8414500I0J80000D01*
G01*
X13771500Y-8414500D02*
X13771500Y-8414500D01*
X13771500Y-8414500D02*
G75*
G03*
X13771500Y-8574500I0J-80000D01*
G01*
%TD*%
%TO.C,J1*%
X15691000Y-8056000D02*
X15691000Y-8226000D01*
X15861000Y-8226000D01*
X15861000Y-8056000D01*
X15691000Y-8056000D01*
X16030000Y-8226000D02*
X16030000Y-8226000D01*
X16030000Y-8226000D02*
G75*
G03*
X16030000Y-8056000I0J85000D01*
G01*
X16030000Y-8056000D02*
X16030000Y-8056000D01*
X16030000Y-8056000D02*
G75*
G03*
X16030000Y-8226000I0J-85000D01*
G01*
X16284000Y-8226000D02*
X16284000Y-8226000D01*
X16284000Y-8226000D02*
G75*
G03*
X16284000Y-8056000I0J85000D01*
G01*
X16284000Y-8056000D02*
X16284000Y-8056000D01*
X16284000Y-8056000D02*
G75*
G03*
X16284000Y-8226000I0J-85000D01*
G01*
X16538000Y-8226000D02*
X16538000Y-8226000D01*
X16538000Y-8226000D02*
G75*
G03*
X16538000Y-8056000I0J85000D01*
G01*
X16538000Y-8056000D02*
X16538000Y-8056000D01*
X16538000Y-8056000D02*
G75*
G03*
X16538000Y-8226000I0J-85000D01*
G01*
X16792000Y-8226000D02*
X16792000Y-8226000D01*
X16792000Y-8226000D02*
G75*
G03*
X16792000Y-8056000I0J85000D01*
G01*
X16792000Y-8056000D02*
X16792000Y-8056000D01*
X16792000Y-8056000D02*
G75*
G03*
X16792000Y-8226000I0J-85000D01*
G01*
X17046000Y-8226000D02*
X17046000Y-8226000D01*
X17046000Y-8226000D02*
G75*
G03*
X17046000Y-8056000I0J85000D01*
G01*
X17046000Y-8056000D02*
X17046000Y-8056000D01*
X17046000Y-8056000D02*
G75*
G03*
X17046000Y-8226000I0J-85000D01*
G01*
X17300000Y-8226000D02*
X17300000Y-8226000D01*
X17300000Y-8226000D02*
G75*
G03*
X17300000Y-8056000I0J85000D01*
G01*
X17300000Y-8056000D02*
X17300000Y-8056000D01*
X17300000Y-8056000D02*
G75*
G03*
X17300000Y-8226000I0J-85000D01*
G01*
X17554000Y-8226000D02*
X17554000Y-8226000D01*
X17554000Y-8226000D02*
G75*
G03*
X17554000Y-8056000I0J85000D01*
G01*
X17554000Y-8056000D02*
X17554000Y-8056000D01*
X17554000Y-8056000D02*
G75*
G03*
X17554000Y-8226000I0J-85000D01*
G01*
X17808000Y-8226000D02*
X17808000Y-8226000D01*
X17808000Y-8226000D02*
G75*
G03*
X17808000Y-8056000I0J85000D01*
G01*
X17808000Y-8056000D02*
X17808000Y-8056000D01*
X17808000Y-8056000D02*
G75*
G03*
X17808000Y-8226000I0J-85000D01*
G01*
X18062000Y-8226000D02*
X18062000Y-8226000D01*
X18062000Y-8226000D02*
G75*
G03*
X18062000Y-8056000I0J85000D01*
G01*
X18062000Y-8056000D02*
X18062000Y-8056000D01*
X18062000Y-8056000D02*
G75*
G03*
X18062000Y-8226000I0J-85000D01*
G01*
X18316000Y-8226000D02*
X18316000Y-8226000D01*
X18316000Y-8226000D02*
G75*
G03*
X18316000Y-8056000I0J85000D01*
G01*
X18316000Y-8056000D02*
X18316000Y-8056000D01*
X18316000Y-8056000D02*
G75*
G03*
X18316000Y-8226000I0J-85000D01*
G01*
X18570000Y-8226000D02*
X18570000Y-8226000D01*
X18570000Y-8226000D02*
G75*
G03*
X18570000Y-8056000I0J85000D01*
G01*
X18570000Y-8056000D02*
X18570000Y-8056000D01*
X18570000Y-8056000D02*
G75*
G03*
X18570000Y-8226000I0J-85000D01*
G01*
%TD*%
%TO.C,Q2*%
X17330000Y-10365750D02*
X17330000Y-10515750D01*
X17480000Y-10515750D01*
X17480000Y-10365750D01*
X17330000Y-10365750D01*
X17480000Y-10694750D02*
G75*
G03*
X17480000Y-10694750I-75000J0D01*
G01*
X17480000Y-10948750D02*
G75*
G03*
X17480000Y-10948750I-75000J0D01*
G01*
%TD*%
%TO.C,C21*%
X15363000Y-11674000D02*
G75*
G03*
X15363000Y-11674000I-80000J0D01*
G01*
X15613000Y-11674000D02*
G75*
G03*
X15613000Y-11674000I-80000J0D01*
G01*
%TD*%
%TO.C,C2*%
X15066000Y-8135000D02*
X15066000Y-8295000D01*
X15226000Y-8295000D01*
X15226000Y-8135000D01*
X15066000Y-8135000D01*
X15226000Y-8015000D02*
G75*
G03*
X15226000Y-8015000I-80000J0D01*
G01*
%TD*%
%TO.C,C3*%
X19857000Y-8397000D02*
X19857000Y-8557000D01*
X20017000Y-8557000D01*
X20017000Y-8397000D01*
X19857000Y-8397000D01*
X20217000Y-8477000D02*
G75*
G03*
X20217000Y-8477000I-80000J0D01*
G01*
%TD*%
%TO.C,L1*%
X13634000Y-9579000D02*
G75*
G03*
X13634000Y-9579000I-80000J0D01*
G01*
X13982000Y-9579000D02*
X13982000Y-9579000D01*
X13982000Y-9579000D02*
G75*
G03*
X14142000Y-9579000I80000J0D01*
G01*
X14142000Y-9579000D02*
X14142000Y-9579000D01*
X14142000Y-9579000D02*
G75*
G03*
X13982000Y-9579000I-80000J0D01*
G01*
%TD*%
D15*
%TO.C,R3*%
D12*
X16661850Y-8840110D02*
X16671417Y-8842013D01*
X16679528Y-8847432D01*
X16684947Y-8855543D01*
X16686850Y-8865110D01*
X16686850Y-8927610D01*
X16684947Y-8937177D01*
X16679528Y-8945288D01*
X16671417Y-8950707D01*
X16661850Y-8952610D01*
X16536850Y-8952610D01*
X16527283Y-8950707D01*
X16519172Y-8945288D01*
X16513753Y-8937177D01*
X16511850Y-8927610D01*
X16511850Y-8865110D01*
X16513753Y-8855543D01*
X16519172Y-8847432D01*
X16527283Y-8842013D01*
X16536850Y-8840110D01*
X16661850Y-8840110D01*
D15*
D12*
X16661850Y-9132610D02*
X16671417Y-9134513D01*
X16679528Y-9139932D01*
X16684947Y-9148043D01*
X16686850Y-9157610D01*
X16686850Y-9220110D01*
X16684947Y-9229677D01*
X16679528Y-9237788D01*
X16671417Y-9243207D01*
X16661850Y-9245110D01*
X16536850Y-9245110D01*
X16527283Y-9243207D01*
X16519172Y-9237788D01*
X16513753Y-9229677D01*
X16511850Y-9220110D01*
X16511850Y-9157610D01*
X16513753Y-9148043D01*
X16519172Y-9139932D01*
X16527283Y-9134513D01*
X16536850Y-9132610D01*
X16661850Y-9132610D01*
%TD*%
D15*
%TO.C,U3*%
D12*
X17293130Y-9644030D02*
X17291523Y-9643710D01*
X17290160Y-9642800D01*
X17289250Y-9641437D01*
X17288930Y-9639830D01*
X17288930Y-9451230D01*
X17289250Y-9449623D01*
X17290160Y-9448260D01*
X17291523Y-9447350D01*
X17293130Y-9447030D01*
X17344730Y-9447030D01*
X17346337Y-9447350D01*
X17347700Y-9448260D01*
X17348610Y-9449623D01*
X17348930Y-9451230D01*
X17348930Y-9639830D01*
X17348610Y-9641437D01*
X17347700Y-9642800D01*
X17346337Y-9643710D01*
X17344730Y-9644030D01*
X17293130Y-9644030D01*
D15*
D12*
X17420130Y-9644030D02*
X17418523Y-9643710D01*
X17417160Y-9642800D01*
X17416250Y-9641437D01*
X17415930Y-9639830D01*
X17415930Y-9451230D01*
X17416250Y-9449623D01*
X17417160Y-9448260D01*
X17418523Y-9447350D01*
X17420130Y-9447030D01*
X17471730Y-9447030D01*
X17473337Y-9447350D01*
X17474700Y-9448260D01*
X17475610Y-9449623D01*
X17475930Y-9451230D01*
X17475930Y-9639830D01*
X17475610Y-9641437D01*
X17474700Y-9642800D01*
X17473337Y-9643710D01*
X17471730Y-9644030D01*
X17420130Y-9644030D01*
D15*
D12*
X17547130Y-9644030D02*
X17545523Y-9643710D01*
X17544160Y-9642800D01*
X17543250Y-9641437D01*
X17542930Y-9639830D01*
X17542930Y-9451230D01*
X17543250Y-9449623D01*
X17544160Y-9448260D01*
X17545523Y-9447350D01*
X17547130Y-9447030D01*
X17598730Y-9447030D01*
X17600337Y-9447350D01*
X17601700Y-9448260D01*
X17602610Y-9449623D01*
X17602930Y-9451230D01*
X17602930Y-9639830D01*
X17602610Y-9641437D01*
X17601700Y-9642800D01*
X17600337Y-9643710D01*
X17598730Y-9644030D01*
X17547130Y-9644030D01*
D15*
D12*
X17674130Y-9644030D02*
X17672523Y-9643710D01*
X17671160Y-9642800D01*
X17670250Y-9641437D01*
X17669930Y-9639830D01*
X17669930Y-9451230D01*
X17670250Y-9449623D01*
X17671160Y-9448260D01*
X17672523Y-9447350D01*
X17674130Y-9447030D01*
X17725730Y-9447030D01*
X17727337Y-9447350D01*
X17728700Y-9448260D01*
X17729610Y-9449623D01*
X17729930Y-9451230D01*
X17729930Y-9639830D01*
X17729610Y-9641437D01*
X17728700Y-9642800D01*
X17727337Y-9643710D01*
X17725730Y-9644030D01*
X17674130Y-9644030D01*
D15*
D12*
X17674130Y-9150030D02*
X17672523Y-9149710D01*
X17671160Y-9148800D01*
X17670250Y-9147437D01*
X17669930Y-9145830D01*
X17669930Y-8957230D01*
X17670250Y-8955623D01*
X17671160Y-8954260D01*
X17672523Y-8953350D01*
X17674130Y-8953030D01*
X17725730Y-8953030D01*
X17727337Y-8953350D01*
X17728700Y-8954260D01*
X17729610Y-8955623D01*
X17729930Y-8957230D01*
X17729930Y-9145830D01*
X17729610Y-9147437D01*
X17728700Y-9148800D01*
X17727337Y-9149710D01*
X17725730Y-9150030D01*
X17674130Y-9150030D01*
D15*
D12*
X17547130Y-9150030D02*
X17545523Y-9149710D01*
X17544160Y-9148800D01*
X17543250Y-9147437D01*
X17542930Y-9145830D01*
X17542930Y-8957230D01*
X17543250Y-8955623D01*
X17544160Y-8954260D01*
X17545523Y-8953350D01*
X17547130Y-8953030D01*
X17598730Y-8953030D01*
X17600337Y-8953350D01*
X17601700Y-8954260D01*
X17602610Y-8955623D01*
X17602930Y-8957230D01*
X17602930Y-9145830D01*
X17602610Y-9147437D01*
X17601700Y-9148800D01*
X17600337Y-9149710D01*
X17598730Y-9150030D01*
X17547130Y-9150030D01*
D15*
D12*
X17420130Y-9150030D02*
X17418523Y-9149710D01*
X17417160Y-9148800D01*
X17416250Y-9147437D01*
X17415930Y-9145830D01*
X17415930Y-8957230D01*
X17416250Y-8955623D01*
X17417160Y-8954260D01*
X17418523Y-8953350D01*
X17420130Y-8953030D01*
X17471730Y-8953030D01*
X17473337Y-8953350D01*
X17474700Y-8954260D01*
X17475610Y-8955623D01*
X17475930Y-8957230D01*
X17475930Y-9145830D01*
X17475610Y-9147437D01*
X17474700Y-9148800D01*
X17473337Y-9149710D01*
X17471730Y-9150030D01*
X17420130Y-9150030D01*
D15*
D12*
X17293130Y-9150030D02*
X17291523Y-9149710D01*
X17290160Y-9148800D01*
X17289250Y-9147437D01*
X17288930Y-9145830D01*
X17288930Y-8957230D01*
X17289250Y-8955623D01*
X17290160Y-8954260D01*
X17291523Y-8953350D01*
X17293130Y-8953030D01*
X17344730Y-8953030D01*
X17346337Y-8953350D01*
X17347700Y-8954260D01*
X17348610Y-8955623D01*
X17348930Y-8957230D01*
X17348930Y-9145830D01*
X17348610Y-9147437D01*
X17347700Y-9148800D01*
X17346337Y-9149710D01*
X17344730Y-9150030D01*
X17293130Y-9150030D01*
%TD*%
%TO.C,Q3*%
X17338000Y-11117750D02*
X17338000Y-11267750D01*
X17488000Y-11267750D01*
X17488000Y-11117750D01*
X17338000Y-11117750D01*
X17488000Y-11446750D02*
G75*
G03*
X17488000Y-11446750I-75000J0D01*
G01*
X17488000Y-11700750D02*
G75*
G03*
X17488000Y-11700750I-75000J0D01*
G01*
%TD*%
%TO.C,D4*%
X13446998Y-11401002D02*
X13446998Y-11561002D01*
X13606998Y-11561002D01*
X13606998Y-11401002D01*
X13446998Y-11401002D01*
X13526998Y-10799002D02*
X13526998Y-10799002D01*
X13526998Y-10799002D02*
G75*
G03*
X13526998Y-10639002I0J80000D01*
G01*
X13526998Y-10639002D02*
X13526998Y-10639002D01*
X13526998Y-10639002D02*
G75*
G03*
X13526998Y-10799002I0J-80000D01*
G01*
%TD*%
D15*
%TO.C,C4*%
D12*
X17009730Y-9249970D02*
X17000163Y-9248067D01*
X16992052Y-9242648D01*
X16986633Y-9234537D01*
X16984730Y-9224970D01*
X16984730Y-9159970D01*
X16986633Y-9150403D01*
X16992052Y-9142292D01*
X17000163Y-9136873D01*
X17009730Y-9134970D01*
X17139730Y-9134970D01*
X17149297Y-9136873D01*
X17157408Y-9142292D01*
X17162827Y-9150403D01*
X17164730Y-9159970D01*
X17164730Y-9224970D01*
X17162827Y-9234537D01*
X17157408Y-9242648D01*
X17149297Y-9248067D01*
X17139730Y-9249970D01*
X17009730Y-9249970D01*
D15*
D12*
X17009730Y-8954970D02*
X17000163Y-8953067D01*
X16992052Y-8947648D01*
X16986633Y-8939537D01*
X16984730Y-8929970D01*
X16984730Y-8864970D01*
X16986633Y-8855403D01*
X16992052Y-8847292D01*
X17000163Y-8841873D01*
X17009730Y-8839970D01*
X17139730Y-8839970D01*
X17149297Y-8841873D01*
X17157408Y-8847292D01*
X17162827Y-8855403D01*
X17164730Y-8864970D01*
X17164730Y-8929970D01*
X17162827Y-8939537D01*
X17157408Y-8947648D01*
X17149297Y-8953067D01*
X17139730Y-8954970D01*
X17009730Y-8954970D01*
%TD*%
D15*
%TO.C,J8*%
D12*
X14262660Y-11557340D02*
X14264563Y-11547773D01*
X14269982Y-11539662D01*
X14278093Y-11534243D01*
X14287660Y-11532340D01*
X14507660Y-11532340D01*
X14517227Y-11534243D01*
X14525338Y-11539662D01*
X14530757Y-11547773D01*
X14532660Y-11557340D01*
X14532660Y-11777340D01*
X14530757Y-11786907D01*
X14525338Y-11795018D01*
X14517227Y-11800437D01*
X14507660Y-11802340D01*
X14287660Y-11802340D01*
X14278093Y-11800437D01*
X14269982Y-11795018D01*
X14264563Y-11786907D01*
X14262660Y-11777340D01*
X14262660Y-11557340D01*
X15032660Y-11667340D02*
G75*
G03*
X15032660Y-11667340I-135000J0D01*
G01*
%TD*%
%TO.C,C1*%
X19863000Y-7854000D02*
X19863000Y-8014000D01*
X20023000Y-8014000D01*
X20023000Y-7854000D01*
X19863000Y-7854000D01*
X20223000Y-7934000D02*
G75*
G03*
X20223000Y-7934000I-80000J0D01*
G01*
%TD*%
%TO.C,J6*%
X16244000Y-10881500D02*
X16244000Y-11051500D01*
X16414000Y-11051500D01*
X16414000Y-10881500D01*
X16244000Y-10881500D01*
X16244000Y-11220500D02*
X16244000Y-11220500D01*
X16244000Y-11220500D02*
G75*
G03*
X16414000Y-11220500I85000J0D01*
G01*
X16414000Y-11220500D02*
X16414000Y-11220500D01*
X16414000Y-11220500D02*
G75*
G03*
X16244000Y-11220500I-85000J0D01*
G01*
X16244000Y-11474500D02*
X16244000Y-11474500D01*
X16244000Y-11474500D02*
G75*
G03*
X16414000Y-11474500I85000J0D01*
G01*
X16414000Y-11474500D02*
X16414000Y-11474500D01*
X16414000Y-11474500D02*
G75*
G03*
X16244000Y-11474500I-85000J0D01*
G01*
%TD*%
%TO.C,C5*%
X15671000Y-9386000D02*
X15671000Y-9546000D01*
X15831000Y-9546000D01*
X15831000Y-9386000D01*
X15671000Y-9386000D01*
X15831000Y-9666000D02*
G75*
G03*
X15831000Y-9666000I-80000J0D01*
G01*
%TD*%
%TO.C,U2*%
X15224000Y-9049000D02*
X15224000Y-9249000D01*
X15374000Y-9249000D01*
X15374000Y-9049000D01*
X15224000Y-9049000D01*
X15454000Y-9049000D02*
X15454000Y-9249000D01*
X15604000Y-9249000D01*
X15604000Y-9049000D01*
X15454000Y-9049000D01*
X15339000Y-8419000D02*
X15339000Y-8619000D01*
X15719000Y-8619000D01*
X15719000Y-8419000D01*
X15339000Y-8419000D01*
X15684000Y-9049000D02*
X15684000Y-9249000D01*
X15834000Y-9249000D01*
X15834000Y-9049000D01*
X15684000Y-9049000D01*
%TD*%
%TO.C,J2*%
X20171000Y-8790470D02*
X20171000Y-8960470D01*
X20341000Y-8960470D01*
X20341000Y-8790470D01*
X20171000Y-8790470D01*
X20510000Y-8960470D02*
X20510000Y-8960470D01*
X20510000Y-8960470D02*
G75*
G03*
X20510000Y-8790470I0J85000D01*
G01*
X20510000Y-8790470D02*
X20510000Y-8790470D01*
X20510000Y-8790470D02*
G75*
G03*
X20510000Y-8960470I0J-85000D01*
G01*
X20764000Y-8960470D02*
X20764000Y-8960470D01*
X20764000Y-8960470D02*
G75*
G03*
X20764000Y-8790470I0J85000D01*
G01*
X20764000Y-8790470D02*
X20764000Y-8790470D01*
X20764000Y-8790470D02*
G75*
G03*
X20764000Y-8960470I0J-85000D01*
G01*
%TD*%
%TO.C,C16*%
X20802000Y-10702489D02*
X20802000Y-10862489D01*
X20962000Y-10862489D01*
X20962000Y-10702489D01*
X20802000Y-10702489D01*
X20962000Y-10982489D02*
G75*
G03*
X20962000Y-10982489I-80000J0D01*
G01*
%TD*%
%TO.C,D1*%
X13439000Y-8414500D02*
X13439000Y-8574500D01*
X13599000Y-8574500D01*
X13599000Y-8414500D01*
X13439000Y-8414500D01*
X13519000Y-9176500D02*
X13519000Y-9176500D01*
X13519000Y-9176500D02*
G75*
G03*
X13519000Y-9336500I0J-80000D01*
G01*
X13519000Y-9336500D02*
X13519000Y-9336500D01*
X13519000Y-9336500D02*
G75*
G03*
X13519000Y-9176500I0J80000D01*
G01*
%TD*%
%TO.C,L2*%
X13336000Y-10077000D02*
G75*
G03*
X13336000Y-10077000I-100000J0D01*
G01*
X12936000Y-10077000D02*
G75*
G03*
X12936000Y-10077000I-100000J0D01*
G01*
%TD*%
%TO.C,U5*%
X20415055Y-10950180D02*
X20415055Y-11117820D01*
X20582695Y-11117820D01*
X20582695Y-10950180D01*
X20415055Y-10950180D01*
X20328695Y-11034000D02*
G75*
G03*
X20328695Y-11034000I-83820J0D01*
G01*
X20074695Y-11034000D02*
G75*
G03*
X20074695Y-11034000I-83820J0D01*
G01*
X19820695Y-11034000D02*
G75*
G03*
X19820695Y-11034000I-83820J0D01*
G01*
X19566695Y-11034000D02*
G75*
G03*
X19566695Y-11034000I-83820J0D01*
G01*
X19312695Y-11034000D02*
G75*
G03*
X19312695Y-11034000I-83820J0D01*
G01*
X19058695Y-11034000D02*
G75*
G03*
X19058695Y-11034000I-83820J0D01*
G01*
X18804695Y-11034000D02*
G75*
G03*
X18804695Y-11034000I-83820J0D01*
G01*
X18550695Y-11034000D02*
G75*
G03*
X18550695Y-11034000I-83820J0D01*
G01*
X18550695Y-11796000D02*
G75*
G03*
X18550695Y-11796000I-83820J0D01*
G01*
X18804695Y-11796000D02*
G75*
G03*
X18804695Y-11796000I-83820J0D01*
G01*
X19058695Y-11796000D02*
G75*
G03*
X19058695Y-11796000I-83820J0D01*
G01*
X19312695Y-11796000D02*
G75*
G03*
X19312695Y-11796000I-83820J0D01*
G01*
X19566695Y-11796000D02*
G75*
G03*
X19566695Y-11796000I-83820J0D01*
G01*
X19820695Y-11796000D02*
G75*
G03*
X19820695Y-11796000I-83820J0D01*
G01*
X20074695Y-11796000D02*
G75*
G03*
X20074695Y-11796000I-83820J0D01*
G01*
X20328695Y-11796000D02*
G75*
G03*
X20328695Y-11796000I-83820J0D01*
G01*
X20582695Y-11796000D02*
G75*
G03*
X20582695Y-11796000I-83820J0D01*
G01*
%TD*%
%TO.C,C12*%
X20686000Y-10076000D02*
X20686000Y-10236000D01*
X20846000Y-10236000D01*
X20846000Y-10076000D01*
X20686000Y-10076000D01*
X20846000Y-9776000D02*
G75*
G03*
X20846000Y-9776000I-80000J0D01*
G01*
%TD*%
D15*
%TO.C,R8*%
D12*
X18588500Y-10752250D02*
X18586597Y-10761817D01*
X18581178Y-10769928D01*
X18573067Y-10775347D01*
X18563500Y-10777250D01*
X18501000Y-10777250D01*
X18491433Y-10775347D01*
X18483322Y-10769928D01*
X18477903Y-10761817D01*
X18476000Y-10752250D01*
X18476000Y-10627250D01*
X18477903Y-10617683D01*
X18483322Y-10609572D01*
X18491433Y-10604153D01*
X18501000Y-10602250D01*
X18563500Y-10602250D01*
X18573067Y-10604153D01*
X18581178Y-10609572D01*
X18586597Y-10617683D01*
X18588500Y-10627250D01*
X18588500Y-10752250D01*
D15*
D12*
X18296000Y-10752250D02*
X18294097Y-10761817D01*
X18288678Y-10769928D01*
X18280567Y-10775347D01*
X18271000Y-10777250D01*
X18208500Y-10777250D01*
X18198933Y-10775347D01*
X18190822Y-10769928D01*
X18185403Y-10761817D01*
X18183500Y-10752250D01*
X18183500Y-10627250D01*
X18185403Y-10617683D01*
X18190822Y-10609572D01*
X18198933Y-10604153D01*
X18208500Y-10602250D01*
X18271000Y-10602250D01*
X18280567Y-10604153D01*
X18288678Y-10609572D01*
X18294097Y-10617683D01*
X18296000Y-10627250D01*
X18296000Y-10752250D01*
%TD*%
%TO.C,J7*%
X16651000Y-11378000D02*
X16651000Y-11548000D01*
X16821000Y-11548000D01*
X16821000Y-11378000D01*
X16651000Y-11378000D01*
X16821000Y-11209000D02*
X16821000Y-11209000D01*
X16821000Y-11209000D02*
G75*
G03*
X16651000Y-11209000I-85000J0D01*
G01*
X16651000Y-11209000D02*
X16651000Y-11209000D01*
X16651000Y-11209000D02*
G75*
G03*
X16821000Y-11209000I85000J0D01*
G01*
X16821000Y-10955000D02*
X16821000Y-10955000D01*
X16821000Y-10955000D02*
G75*
G03*
X16651000Y-10955000I-85000J0D01*
G01*
X16651000Y-10955000D02*
X16651000Y-10955000D01*
X16651000Y-10955000D02*
G75*
G03*
X16821000Y-10955000I85000J0D01*
G01*
%TD*%
D15*
%TO.C,R2*%
D12*
X16438330Y-8840110D02*
X16447897Y-8842013D01*
X16456008Y-8847432D01*
X16461427Y-8855543D01*
X16463330Y-8865110D01*
X16463330Y-8927610D01*
X16461427Y-8937177D01*
X16456008Y-8945288D01*
X16447897Y-8950707D01*
X16438330Y-8952610D01*
X16313330Y-8952610D01*
X16303763Y-8950707D01*
X16295652Y-8945288D01*
X16290233Y-8937177D01*
X16288330Y-8927610D01*
X16288330Y-8865110D01*
X16290233Y-8855543D01*
X16295652Y-8847432D01*
X16303763Y-8842013D01*
X16313330Y-8840110D01*
X16438330Y-8840110D01*
D15*
D12*
X16438330Y-9132610D02*
X16447897Y-9134513D01*
X16456008Y-9139932D01*
X16461427Y-9148043D01*
X16463330Y-9157610D01*
X16463330Y-9220110D01*
X16461427Y-9229677D01*
X16456008Y-9237788D01*
X16447897Y-9243207D01*
X16438330Y-9245110D01*
X16313330Y-9245110D01*
X16303763Y-9243207D01*
X16295652Y-9237788D01*
X16290233Y-9229677D01*
X16288330Y-9220110D01*
X16288330Y-9157610D01*
X16290233Y-9148043D01*
X16295652Y-9139932D01*
X16303763Y-9134513D01*
X16313330Y-9132610D01*
X16438330Y-9132610D01*
%TD*%
D15*
%TO.C,R6*%
D12*
X16855500Y-9390250D02*
X16865067Y-9392153D01*
X16873178Y-9397572D01*
X16878597Y-9405683D01*
X16880500Y-9415250D01*
X16880500Y-9477750D01*
X16878597Y-9487317D01*
X16873178Y-9495428D01*
X16865067Y-9500847D01*
X16855500Y-9502750D01*
X16730500Y-9502750D01*
X16720933Y-9500847D01*
X16712822Y-9495428D01*
X16707403Y-9487317D01*
X16705500Y-9477750D01*
X16705500Y-9415250D01*
X16707403Y-9405683D01*
X16712822Y-9397572D01*
X16720933Y-9392153D01*
X16730500Y-9390250D01*
X16855500Y-9390250D01*
D15*
D12*
X16855500Y-9682750D02*
X16865067Y-9684653D01*
X16873178Y-9690072D01*
X16878597Y-9698183D01*
X16880500Y-9707750D01*
X16880500Y-9770250D01*
X16878597Y-9779817D01*
X16873178Y-9787928D01*
X16865067Y-9793347D01*
X16855500Y-9795250D01*
X16730500Y-9795250D01*
X16720933Y-9793347D01*
X16712822Y-9787928D01*
X16707403Y-9779817D01*
X16705500Y-9770250D01*
X16705500Y-9707750D01*
X16707403Y-9698183D01*
X16712822Y-9690072D01*
X16720933Y-9684653D01*
X16730500Y-9682750D01*
X16855500Y-9682750D01*
%TD*%
%TO.C,J4*%
X20675500Y-9197970D02*
X20675500Y-9367970D01*
X20845500Y-9367970D01*
X20845500Y-9197970D01*
X20675500Y-9197970D01*
X20506500Y-9197970D02*
X20506500Y-9197970D01*
X20506500Y-9197970D02*
G75*
G03*
X20506500Y-9367970I0J-85000D01*
G01*
X20506500Y-9367970D02*
X20506500Y-9367970D01*
X20506500Y-9367970D02*
G75*
G03*
X20506500Y-9197970I0J85000D01*
G01*
X20252500Y-9197970D02*
X20252500Y-9197970D01*
X20252500Y-9197970D02*
G75*
G03*
X20252500Y-9367970I0J-85000D01*
G01*
X20252500Y-9367970D02*
X20252500Y-9367970D01*
X20252500Y-9367970D02*
G75*
G03*
X20252500Y-9197970I0J85000D01*
G01*
%TD*%
%TO.C,C14*%
X18471000Y-10333750D02*
X18471000Y-10453750D01*
X18591000Y-10453750D01*
X18591000Y-10333750D01*
X18471000Y-10333750D01*
X18591000Y-10193750D02*
G75*
G03*
X18591000Y-10193750I-60000J0D01*
G01*
%TD*%
%TO.C,U4*%
X19130500Y-9440000D02*
X19130500Y-9600000D01*
X19290500Y-9600000D01*
X19290500Y-9440000D01*
X19130500Y-9440000D01*
X19290500Y-9266000D02*
X19290500Y-9266000D01*
X19290500Y-9266000D02*
G75*
G03*
X19130500Y-9266000I-80000J0D01*
G01*
X19130500Y-9266000D02*
X19130500Y-9266000D01*
X19130500Y-9266000D02*
G75*
G03*
X19290500Y-9266000I80000J0D01*
G01*
X19290500Y-9012000D02*
X19290500Y-9012000D01*
X19290500Y-9012000D02*
G75*
G03*
X19130500Y-9012000I-80000J0D01*
G01*
X19130500Y-9012000D02*
X19130500Y-9012000D01*
X19130500Y-9012000D02*
G75*
G03*
X19290500Y-9012000I80000J0D01*
G01*
X19290500Y-8758000D02*
X19290500Y-8758000D01*
X19290500Y-8758000D02*
G75*
G03*
X19130500Y-8758000I-80000J0D01*
G01*
X19130500Y-8758000D02*
X19130500Y-8758000D01*
X19130500Y-8758000D02*
G75*
G03*
X19290500Y-8758000I80000J0D01*
G01*
X18528500Y-8758000D02*
X18528500Y-8758000D01*
X18528500Y-8758000D02*
G75*
G03*
X18368500Y-8758000I-80000J0D01*
G01*
X18368500Y-8758000D02*
X18368500Y-8758000D01*
X18368500Y-8758000D02*
G75*
G03*
X18528500Y-8758000I80000J0D01*
G01*
X18528500Y-9012000D02*
X18528500Y-9012000D01*
X18528500Y-9012000D02*
G75*
G03*
X18368500Y-9012000I-80000J0D01*
G01*
X18368500Y-9012000D02*
X18368500Y-9012000D01*
X18368500Y-9012000D02*
G75*
G03*
X18528500Y-9012000I80000J0D01*
G01*
X18528500Y-9266000D02*
X18528500Y-9266000D01*
X18528500Y-9266000D02*
G75*
G03*
X18368500Y-9266000I-80000J0D01*
G01*
X18368500Y-9266000D02*
X18368500Y-9266000D01*
X18368500Y-9266000D02*
G75*
G03*
X18528500Y-9266000I80000J0D01*
G01*
X18528500Y-9520000D02*
X18528500Y-9520000D01*
X18528500Y-9520000D02*
G75*
G03*
X18368500Y-9520000I-80000J0D01*
G01*
X18368500Y-9520000D02*
X18368500Y-9520000D01*
X18368500Y-9520000D02*
G75*
G03*
X18528500Y-9520000I80000J0D01*
G01*
%TD*%
D15*
%TO.C,J5*%
D12*
X12870510Y-10945500D02*
X12862852Y-10943977D01*
X12856361Y-10939639D01*
X12852023Y-10933148D01*
X12850500Y-10925490D01*
X12850500Y-10735510D01*
X12852023Y-10727853D01*
X12856361Y-10721361D01*
X12862852Y-10717023D01*
X12870510Y-10715500D01*
X13060490Y-10715500D01*
X13068147Y-10717023D01*
X13074639Y-10721361D01*
X13078977Y-10727853D01*
X13080500Y-10735510D01*
X13080500Y-10925490D01*
X13078977Y-10933148D01*
X13074639Y-10939639D01*
X13068147Y-10943977D01*
X13060490Y-10945500D01*
X12870510Y-10945500D01*
X12836500Y-11084500D02*
G75*
G03*
X12836500Y-11084500I-125000J0D01*
G01*
X13344500Y-11084500D02*
G75*
G03*
X13344500Y-11084500I-125000J0D01*
G01*
X12836500Y-10576500D02*
G75*
G03*
X12836500Y-10576500I-125000J0D01*
G01*
X13344500Y-10576500D02*
G75*
G03*
X13344500Y-10576500I-125000J0D01*
G01*
%TD*%
%TO.C,U1*%
X14444000Y-9049000D02*
X14444000Y-9249000D01*
X14594000Y-9249000D01*
X14594000Y-9049000D01*
X14444000Y-9049000D01*
X14674000Y-9049000D02*
X14674000Y-9249000D01*
X14824000Y-9249000D01*
X14824000Y-9049000D01*
X14674000Y-9049000D01*
X14559000Y-8419000D02*
X14559000Y-8619000D01*
X14939000Y-8619000D01*
X14939000Y-8419000D01*
X14559000Y-8419000D01*
X14904000Y-9049000D02*
X14904000Y-9249000D01*
X15054000Y-9249000D01*
X15054000Y-9049000D01*
X14904000Y-9049000D01*
%TD*%
%TO.C,Q1*%
X17923000Y-10110750D02*
X17923000Y-10260750D01*
X18073000Y-10260750D01*
X18073000Y-10110750D01*
X17923000Y-10110750D01*
X18073000Y-10439750D02*
G75*
G03*
X18073000Y-10439750I-75000J0D01*
G01*
X18073000Y-10693750D02*
G75*
G03*
X18073000Y-10693750I-75000J0D01*
G01*
%TD*%
%TO.C,C20*%
X18081875Y-11506000D02*
X18081875Y-11626000D01*
X18201875Y-11626000D01*
X18201875Y-11506000D01*
X18081875Y-11506000D01*
X18001875Y-11566000D02*
G75*
G03*
X18001875Y-11566000I-60000J0D01*
G01*
%TD*%
D15*
%TO.C,R1*%
D12*
X16089810Y-9247250D02*
X16080243Y-9245347D01*
X16072132Y-9239928D01*
X16066713Y-9231817D01*
X16064810Y-9222250D01*
X16064810Y-9159750D01*
X16066713Y-9150183D01*
X16072132Y-9142072D01*
X16080243Y-9136653D01*
X16089810Y-9134750D01*
X16214810Y-9134750D01*
X16224377Y-9136653D01*
X16232488Y-9142072D01*
X16237907Y-9150183D01*
X16239810Y-9159750D01*
X16239810Y-9222250D01*
X16237907Y-9231817D01*
X16232488Y-9239928D01*
X16224377Y-9245347D01*
X16214810Y-9247250D01*
X16089810Y-9247250D01*
D15*
D12*
X16089810Y-8954750D02*
X16080243Y-8952847D01*
X16072132Y-8947428D01*
X16066713Y-8939317D01*
X16064810Y-8929750D01*
X16064810Y-8867250D01*
X16066713Y-8857683D01*
X16072132Y-8849572D01*
X16080243Y-8844153D01*
X16089810Y-8842250D01*
X16214810Y-8842250D01*
X16224377Y-8844153D01*
X16232488Y-8849572D01*
X16237907Y-8857683D01*
X16239810Y-8867250D01*
X16239810Y-8929750D01*
X16237907Y-8939317D01*
X16232488Y-8947428D01*
X16224377Y-8952847D01*
X16214810Y-8954750D01*
X16089810Y-8954750D01*
%TD*%
%TO.C,D3*%
X13701998Y-10639002D02*
X13701998Y-10799002D01*
X13861998Y-10799002D01*
X13861998Y-10639002D01*
X13701998Y-10639002D01*
X13781998Y-11401002D02*
X13781998Y-11401002D01*
X13781998Y-11401002D02*
G75*
G03*
X13781998Y-11561002I0J-80000D01*
G01*
X13781998Y-11561002D02*
X13781998Y-11561002D01*
X13781998Y-11561002D02*
G75*
G03*
X13781998Y-11401002I0J80000D01*
G01*
%TD*%
D15*
%TO.C,R5*%
D12*
X16622500Y-9392500D02*
X16632067Y-9394403D01*
X16640178Y-9399822D01*
X16645597Y-9407933D01*
X16647500Y-9417500D01*
X16647500Y-9480000D01*
X16645597Y-9489567D01*
X16640178Y-9497678D01*
X16632067Y-9503097D01*
X16622500Y-9505000D01*
X16497500Y-9505000D01*
X16487933Y-9503097D01*
X16479822Y-9497678D01*
X16474403Y-9489567D01*
X16472500Y-9480000D01*
X16472500Y-9417500D01*
X16474403Y-9407933D01*
X16479822Y-9399822D01*
X16487933Y-9394403D01*
X16497500Y-9392500D01*
X16622500Y-9392500D01*
D15*
D12*
X16622500Y-9685000D02*
X16632067Y-9686903D01*
X16640178Y-9692322D01*
X16645597Y-9700433D01*
X16647500Y-9710000D01*
X16647500Y-9772500D01*
X16645597Y-9782067D01*
X16640178Y-9790178D01*
X16632067Y-9795597D01*
X16622500Y-9797500D01*
X16497500Y-9797500D01*
X16487933Y-9795597D01*
X16479822Y-9790178D01*
X16474403Y-9782067D01*
X16472500Y-9772500D01*
X16472500Y-9710000D01*
X16474403Y-9700433D01*
X16479822Y-9692322D01*
X16487933Y-9686903D01*
X16497500Y-9685000D01*
X16622500Y-9685000D01*
%TD*%
D16*
X13100268Y-7953000D02*
G75*
G03*
X13100268Y-7953000I-153912J0D01*
G01*
D17*
X13023113Y-7953000D02*
G75*
G03*
X13023113Y-7953000I-76757J0D01*
G01*
D16*
X20965013Y-7959000D02*
G75*
G03*
X20965013Y-7959000I-151013J0D01*
G01*
D18*
X20889832Y-7959000D02*
G75*
G03*
X20889832Y-7959000I-75832J0D01*
G01*
D17*
X13025757Y-11889000D02*
G75*
G03*
X13025757Y-11889000I-76757J0D01*
G01*
D16*
X20962513Y-11889000D02*
G75*
G03*
X20962513Y-11889000I-151013J0D01*
G01*
X13101069Y-11889000D02*
G75*
G03*
X13101069Y-11889000I-152069J0D01*
G01*
D17*
X20891757Y-11887000D02*
G75*
G03*
X20891757Y-11887000I-76757J0D01*
G01*
D16*
X12496500Y-7499000D02*
X21209000Y-7499000D01*
X21209000Y-12346500D01*
X12496500Y-12346500D01*
X12496500Y-7499000D01*
D19*
%TO.C,J3*%
X12517998Y-8878002D02*
X12517998Y-9738002D01*
%TO.C,J5*%
X12515500Y-10400500D02*
X12515500Y-11260500D01*
%TD*%
M02*
